<svg width="375" height="69" viewBox="0 0 375 69" fill="none" xmlns="http://www.w3.org/2000/svg">
<g clip-path="url(#clip0_50_2)">
<rect width="375" height="812" fill="#C87A75"/>
<rect y="68.2971" width="375" height="77.5831" fill="#F7F5F1"/>
<rect width="375" height="9.64307" fill="#DCC67A"/>
<rect width="375" height="9.64307" transform="matrix(1 0 0 -1 0 68.2971)" fill="#DCC67A"/>
<rect y="11.7209" width="375" height="1.74633" fill="#917108"/>
<rect width="375" height="1.74633" transform="matrix(1 0 0 -1 0 56.6389)" fill="#917108"/>
<path fill-rule="evenodd" clip-rule="evenodd" d="M273.931 18.2535C266.087 18.6047 257.76 22.3275 256.173 32.6068C255.378 37.7579 258.559 47.8707 266.893 48.5808C270.734 48.9082 276.209 47.2136 276.209 41.4697C275.987 38.2466 271.993 37.2514 271.078 40.7452C270.734 42.059 272.695 43.6244 273.799 41.8692C275.121 42.6778 274.076 45.9317 271.078 45.9317C270.309 45.9317 267.765 45.2809 267.449 42.2045C267.177 39.5519 270.348 36.2883 273.997 37.0574C273.026 36.4875 269.451 35.6586 266.395 40.7452C266.172 41.1163 264.147 44.0326 261.193 43.5876C260.028 39.2093 266.847 32.9153 273.559 35.2944C273.447 35.2424 273.325 35.1764 273.189 35.1027C271.992 34.4558 269.707 33.22 264.284 35.7602C258.49 38.4739 257.596 34.4963 257.596 33.8562C257.596 32.9597 258.451 30.6291 260.522 30.83C259.55 33.2885 262.014 33.6442 263.157 33.2885C265.124 32.6761 266.636 32.2679 268.254 32.1937C273.1 31.9713 276.723 35.2083 277.838 38.6008C278.989 42.1051 276.361 46.4633 275.176 47.2537C283.135 42.4107 283.486 29.7778 276.393 29.1889C276.344 29.0789 276.335 28.9561 276.324 28.819C276.293 28.429 276.254 27.9226 275.27 27.26C279.722 26.4146 281.445 31.8168 281.905 33.2799C281.463 29.0888 278.305 26.4147 275.918 26.4147C275.235 26.4147 273.559 26.9172 273.559 27.7427V27.7469C273.559 27.9645 273.558 28.4606 274.159 28.4606C274.518 28.4606 274.805 27.8863 274.613 27.5568C274.613 27.5568 275.805 27.26 276.061 29.017C276.176 29.8076 275.119 31.6075 273.559 31.5296C271.812 31.5998 270.682 29.8642 270.856 28.676C271.347 25.3378 274.47 24.8391 276.635 25.3378C273.134 23.6951 270.856 26.7293 270.67 27.0948C268.633 31.1 266.145 30.6647 265.731 30.5923C265.702 30.5873 265.683 30.584 265.675 30.584C265.075 25.8564 271.372 23.6082 273.732 23.7097C269.588 23.1782 266.791 25.7372 266.164 26.3105C266.106 26.3636 266.067 26.3996 266.047 26.4147C264.406 27.8815 263.561 28.0531 263.073 28.0531C261.475 28.0531 260.774 26.4147 260.806 25.8762C260.806 24.8891 261.673 24.1354 261.973 24.1354C261.973 24.7781 262.36 24.8891 262.511 24.8891C263.781 24.7757 264.704 24.2436 265.43 23.825C265.584 23.7362 265.729 23.6525 265.867 23.579C270.392 21.1647 274.089 21.6526 277.82 23.9559C280.059 25.3379 283.085 29.017 283.447 33.1649C283.576 34.6447 283.539 35.3245 283.479 36.4283C283.469 36.6226 283.458 36.8301 283.447 37.0574C283.161 42.8836 277.4 47.3576 276.376 48.1255C275.549 48.7464 270.856 51.2023 266.395 50.0998C268.699 51.1722 277.838 51.8908 286.101 38.6008C289.202 33.6149 285.025 32.7446 284.693 34.1368C283.712 33.4474 284.428 31.0475 286.576 31.0475C289.308 31.0475 289.559 33.4606 289.559 34.0175C289.559 35.7016 288.637 36.9286 288.057 37.6986C287.925 37.8743 287.811 38.0262 287.73 38.1543C288.821 37.3712 289.651 35.6738 290.112 34.7307C290.127 34.6999 290.142 34.6699 290.156 34.6407C291.301 32.3032 293.207 32.6474 294.042 32.7982C294.136 32.815 294.216 32.8295 294.28 32.8375C294.73 35.2904 292.437 36.497 291.734 36.6693C290.895 36.8752 290.21 37.41 289.307 38.1157C289.027 38.3347 288.726 38.5701 288.393 38.8173C288.492 38.7606 288.6 38.699 288.713 38.6338C289.924 37.9369 291.838 36.8362 292.949 37.0574C295.315 37.5283 295.775 38.7027 295.775 39.7458C295.775 41.6991 293.404 42.2491 292.342 41.1871C293.404 39.9734 292.001 39.3854 291.413 39.3854C290.635 39.3854 288.57 39.5022 285.42 42.5525C281.836 46.0231 277.641 49.6264 273.799 50.916C273.799 50.916 276.376 50.916 281.794 46.7839C285.221 44.1701 290.6 42.442 293.23 42.442C296.262 42.442 299.123 44.8958 299.44 45.1673L299.447 45.1735C299.545 45.2578 299.666 45.3623 299.805 45.4829C301.281 46.7633 304.855 49.8619 306.214 49.8619C307.206 49.8619 307.473 49.5436 308.086 48.8129C308.102 48.7927 308.12 48.7722 308.137 48.7513C309.354 50.8949 307.211 52.831 305.178 52.831C302.748 52.831 300.828 50.2514 299.439 48.3855C299.105 47.9363 298.801 47.5284 298.529 47.2079C298.421 47.0815 298.307 46.9275 298.178 46.7549C297.416 45.7343 296.167 44.0615 293.099 43.578C297.422 45.0941 299.167 49.0583 299.054 50.489C298.938 51.9662 298.418 52.738 297.168 52.866C295.515 53.0352 294.841 51.2807 294.9 49.8325C294.924 49.2347 295.028 48.9858 295.114 48.7815C295.205 48.5647 295.274 48.3983 295.205 47.9184C294.923 45.9722 293.615 44.343 291.756 44.2497C294.525 44.9592 294.649 47.4681 294.649 48.1638C294.649 49.7423 293.05 51.3047 291.213 51.3804C289.772 51.4398 287.272 49.8325 287.453 47.7322C287.736 44.4557 292.072 44.8007 291.213 47.2606C290.939 46.8342 290.625 46.8542 290.436 46.8663C290.409 46.868 290.384 46.8696 290.362 46.8696C289.669 46.8696 290.077 48.0257 290.666 48.0257C291.592 48.0257 291.976 47.4812 292.031 46.7052C292.105 45.6559 290.818 44.988 289.343 44.988C287.707 44.988 281.066 47.9039 280.925 48.7174C281.039 48.6766 281.403 48.4945 281.913 48.2393C283.562 47.4153 286.735 45.8293 287.912 45.7772C287.453 46.3373 287.286 46.9852 287.088 47.8527C284.969 47.9895 283.949 48.4983 282.593 49.1751C282.234 49.3542 281.851 49.545 281.418 49.7438L281.357 49.7718C279.705 50.5316 274.586 52.8848 270.11 52.5206C255.895 51.3637 252.565 39.2326 253.6 31.8381C252.984 33.4912 251.202 38.6008 250.903 42.8535C250.852 43.589 251.359 43.2739 251.571 43.1422C251.592 43.1289 251.611 43.1175 251.625 43.1092C253.527 41.921 253.999 43.6582 254.115 44.1617C254.407 45.4348 252.553 46.459 251.195 45.5763C251.339 45.7698 251.583 45.8968 251.848 46.0352C252.375 46.3096 252.987 46.6291 253.085 47.602C253.222 48.9606 251.376 50.3746 249.939 48.1905C249.765 47.9262 249.748 48.2654 249.765 48.3133C249.798 48.4043 249.881 48.5536 249.986 48.742C250.279 49.27 250.744 50.1049 250.744 50.8241C250.744 52.0184 249.623 52.9022 248.51 52.8176C247.251 52.7219 246.589 51.8583 246.589 50.6982C246.589 49.5759 247.221 48.9497 247.627 48.547C247.806 48.3699 247.941 48.2361 247.959 48.1222C246.735 49.0914 246.466 49.0877 246.124 49.083C246.1 49.0827 246.076 49.0823 246.051 49.0823C245.152 49.0823 244.668 48.38 244.575 47.4548C244.402 46.2108 245.861 45.8182 246.96 45.5227C247.029 45.5042 247.096 45.486 247.162 45.468C244.968 45.7563 244.575 44.1617 244.575 43.6142C244.575 42.4811 245.616 41.9281 246.297 41.9281C247.476 41.9281 247.744 42.5911 247.888 42.9498C247.914 43.0149 247.936 43.07 247.959 43.1092C248.155 43.4447 248.89 43.1092 249.011 42.4014C249.104 41.8555 252.174 31.4973 253.024 30.6535C253.024 30.6535 251.798 29.4543 251.16 28.5677C257.049 21.4797 264.284 15.0598 274.159 15.5742C283.835 16.3351 289.341 21.5983 292.342 25.0863C296.936 30.4256 297.867 31.6045 302.153 37.4718C301.102 35.5642 298.429 26.5301 298.342 26.0212C298.222 25.3134 297.486 24.9779 297.291 25.3134C297.268 25.3527 297.246 25.4077 297.22 25.4728C297.075 25.8315 296.808 26.4946 295.628 26.4946C294.948 26.4946 293.907 25.9415 293.907 24.8084C293.907 24.2609 294.299 22.6663 296.493 22.9546C296.428 22.9366 296.36 22.9185 296.291 22.8999C295.193 22.6044 293.734 22.2118 293.907 20.9678C294 20.0426 294.483 19.3403 295.382 19.3403C295.408 19.3403 295.432 19.3399 295.456 19.3396C295.798 19.3349 296.067 19.3312 297.291 20.3004C297.272 20.1866 297.137 20.0527 296.959 19.8756C296.553 19.4729 295.921 18.8468 295.921 17.7244C295.921 16.5644 296.583 15.7007 297.841 15.605C298.955 15.5204 300.076 16.4042 300.076 17.5985C300.076 18.3177 299.611 19.1527 299.317 19.6806C299.212 19.869 299.129 20.0183 299.097 20.1093C299.08 20.1572 299.097 20.4964 299.271 20.2322C300.708 18.048 302.553 19.462 302.417 20.8206C302.319 21.7935 301.706 22.113 301.18 22.3874C300.915 22.5259 300.671 22.6528 300.527 22.8463C301.885 21.9636 303.739 22.9878 303.447 24.2609C303.331 24.7644 302.858 26.5016 300.957 25.3134C300.942 25.3051 300.924 25.2937 300.903 25.2804C300.691 25.1487 300.183 24.8336 300.235 25.5691C300.533 29.8218 302.316 34.9314 302.932 36.5845C301.897 29.19 305.227 17.0589 319.442 15.902C323.917 15.5378 329.036 17.891 330.689 18.6508L330.75 18.6789C331.183 18.8776 331.565 19.0684 331.924 19.2475C333.281 19.9243 334.301 20.4331 336.42 20.5699C336.618 21.4374 336.785 22.0853 337.244 22.6454C336.067 22.5933 332.894 21.0073 331.245 20.1833C330.735 19.9281 330.37 19.7461 330.257 19.7052C330.398 20.5187 337.039 23.4346 338.675 23.4346C340.149 23.4346 341.436 22.7667 341.362 21.7174C341.308 20.9414 340.923 20.397 339.998 20.397C339.408 20.397 339 21.553 339.693 21.553C339.715 21.553 339.74 21.5546 339.768 21.5564C339.957 21.5684 340.271 21.5884 340.545 21.162C341.404 23.622 337.068 23.9669 336.785 20.6904C336.603 18.5901 339.104 16.9828 340.545 17.0422C342.381 17.118 343.981 18.6803 343.981 20.2588C343.981 20.9545 343.857 23.4634 341.087 24.1729C342.947 24.0796 344.255 22.4504 344.536 20.5042C344.606 20.0244 344.536 19.8579 344.445 19.6411C344.36 19.4368 344.256 19.1879 344.231 18.5901C344.173 17.142 344.847 15.3874 346.5 15.5567C347.75 15.6846 348.27 16.4564 348.386 17.9336C348.499 19.3643 346.754 23.3285 342.431 24.8447C345.499 24.3611 346.748 22.6883 347.509 21.6677C347.638 21.4951 347.753 21.3411 347.861 21.2147C348.133 20.8942 348.437 20.4863 348.771 20.0371C350.16 18.1712 352.08 15.5917 354.509 15.5917C356.542 15.5917 358.686 17.5278 357.469 19.6713L357.417 19.6097C356.805 18.879 356.538 18.5608 355.546 18.5608C354.186 18.5608 350.613 21.6593 349.136 22.9397C348.997 23.0604 348.877 23.1649 348.779 23.2491L348.771 23.2553C348.455 23.5268 345.594 25.9806 342.561 25.9806C339.932 25.9806 334.553 24.2525 331.126 21.6388C325.708 17.5066 323.131 17.5066 323.131 17.5066C326.972 18.7962 331.167 22.3995 334.752 25.8701C337.902 28.9204 339.967 29.0372 340.745 29.0372C341.332 29.0372 342.736 28.4493 341.674 27.2355C342.736 26.1735 345.106 26.7235 345.106 28.6768C345.106 29.7199 344.647 30.8943 342.281 31.3653C341.17 31.5864 339.256 30.4857 338.045 29.7888C337.931 29.7236 337.824 29.662 337.724 29.6053C338.058 29.8525 338.359 30.0879 338.639 30.3069C339.542 31.0127 340.226 31.5474 341.066 31.7533C341.768 31.9257 344.062 33.1322 343.611 35.5852C343.547 35.5932 343.467 35.6076 343.374 35.6244C342.539 35.7752 340.633 36.1194 339.488 33.7819C339.473 33.7528 339.459 33.7227 339.444 33.6919C338.983 32.7488 338.153 31.0515 337.061 30.2683C337.143 30.3964 337.257 30.5483 337.389 30.724C337.968 31.494 338.891 32.721 338.891 34.4051C338.891 34.962 338.639 37.3751 335.908 37.3751C333.76 37.3751 333.044 34.9752 334.025 34.2858C334.357 35.678 338.533 34.8077 335.433 29.8218C327.17 16.5318 318.03 17.2504 315.727 18.3228C320.188 17.2203 324.88 19.6763 325.708 20.2971C326.732 21.065 332.493 25.5391 332.778 31.3653C332.789 31.5926 332.801 31.8 332.811 31.9944C332.871 33.0981 332.907 33.778 332.778 35.2577C332.416 39.4056 329.39 43.0848 327.152 44.4667C323.421 46.77 319.724 47.2579 315.199 44.8436C315.061 44.7701 314.916 44.6864 314.762 44.5976C314.036 44.1791 313.112 43.6469 311.843 43.5335C311.691 43.5335 311.304 43.6445 311.304 44.2872C311.005 44.2872 310.138 43.5335 310.138 42.5464C310.106 42.008 310.806 40.3695 312.404 40.3695C312.893 40.3695 313.738 40.5411 315.378 42.008C315.398 42.023 315.438 42.059 315.496 42.1121C316.122 42.6854 318.919 45.2444 323.063 44.7129C320.703 44.8144 314.406 42.5662 315.007 37.8386C315.015 37.8386 315.034 37.8353 315.062 37.8304C315.477 37.7579 317.965 37.3226 320.002 41.3278C320.188 41.6933 322.465 44.7275 325.967 43.0848C323.801 43.5835 320.679 43.0848 320.188 39.7466C320.013 38.5584 321.144 36.8228 322.89 36.893C324.45 36.8151 325.508 38.615 325.393 39.4056C325.137 41.1626 323.945 40.8659 323.945 40.8659C324.136 40.5363 323.849 39.962 323.49 39.962C322.89 39.962 322.89 40.4581 322.89 40.6757V40.6799C322.89 41.5055 324.566 42.008 325.249 42.008C327.636 42.008 330.795 39.3338 331.236 35.1427C330.777 36.6058 329.054 42.008 324.602 41.1626C325.585 40.5 325.625 39.9936 325.656 39.6036C325.666 39.4665 325.676 39.3438 325.725 39.2337C332.817 38.6448 332.467 26.0119 324.508 21.1689C325.693 21.9593 328.321 26.3175 327.17 29.8218C326.055 33.2143 322.431 36.4514 317.586 36.229C315.968 36.1547 314.456 35.7465 312.489 35.1342C311.346 34.7784 308.881 35.1342 309.854 37.5926C307.783 37.7936 306.928 35.4629 306.928 34.5664C306.928 33.9263 307.822 29.9488 313.615 32.6625C319.038 35.2026 321.324 33.9669 322.521 33.3199C322.657 33.2462 322.779 33.1802 322.89 33.1282C316.178 35.5073 309.36 29.2133 310.524 24.835C313.479 24.3901 315.503 27.3063 315.727 27.6775C318.783 32.764 322.358 31.9351 323.328 31.3653C319.68 32.1344 316.509 28.8707 316.781 26.2181C317.097 23.1417 319.641 22.4909 320.41 22.4909C323.407 22.4909 324.452 25.7448 323.131 26.5534C322.027 24.7982 320.066 26.3636 320.41 27.6775C321.324 31.1713 325.319 30.176 325.541 26.9529C325.541 21.209 320.066 19.5145 316.224 19.8418C307.891 20.5519 304.709 30.6647 305.505 35.8158C307.092 46.0951 315.419 49.8179 323.262 50.1691C333.69 50.1691 341.907 39.1414 348.689 30.039C349.058 29.544 349.423 29.0546 349.783 28.573C350.603 29.1908 351.094 29.7427 351.746 30.5358C347.278 36.6556 346.342 37.9103 341.674 43.3364C338.673 46.8243 333.166 52.0875 323.49 52.8484C313.616 53.3628 306.382 46.9441 300.493 39.8569C300.492 39.8576 300.491 39.8583 300.49 39.859C300.146 39.3989 299.798 38.9316 299.445 38.4591C292.65 29.3432 284.384 18.2535 273.931 18.2535Z" fill="#DCC67A"/>
<path fill-rule="evenodd" clip-rule="evenodd" d="M76.6449 18.2535C68.8012 18.6047 60.4747 22.3275 58.8875 32.6068C58.0921 37.7579 61.2736 47.8707 69.6071 48.5808C73.4483 48.9082 78.9237 47.2136 78.9237 41.4697C78.7013 38.2466 74.7069 37.2514 73.7923 40.7452C73.4484 42.059 75.4094 43.6244 76.5138 41.8692C77.8351 42.6778 76.7899 45.9317 73.7923 45.9317C73.0232 45.9317 70.4792 45.2809 70.1637 42.2045C69.8916 39.5519 73.0626 36.2883 76.711 37.0574C75.7404 36.4875 72.1658 35.6586 69.1092 40.7452C68.8862 41.1163 66.8614 44.0326 63.907 43.5876C62.7428 39.2093 69.5611 32.9153 76.2729 35.2944C76.1619 35.2424 76.0397 35.1764 75.9034 35.1027C74.7068 34.4558 72.421 33.22 66.9981 35.7602C61.2048 38.4739 60.3106 34.4963 60.3106 33.8562C60.3106 32.9597 61.1656 30.6291 63.2368 30.83C62.264 33.2885 64.7285 33.6442 65.8714 33.2885C67.8386 32.6761 69.3508 32.2679 70.9684 32.1937C75.8139 31.9713 79.4378 35.2083 80.5523 38.6008C81.7034 42.1051 79.0758 46.4633 77.8908 47.2537C85.8497 42.4107 86.2 29.7778 79.1078 29.1889C79.0587 29.0789 79.0491 28.9561 79.0384 28.819C79.0078 28.429 78.9681 27.9226 77.9844 27.26C82.4367 26.4146 84.1597 31.8168 84.619 33.2799C84.1776 29.0888 81.0189 26.4147 78.6319 26.4147C77.949 26.4147 76.2729 26.9172 76.2729 27.7427V27.7469C76.2729 27.9645 76.2728 28.4606 76.8731 28.4606C77.232 28.4606 77.5192 27.8863 77.3273 27.5568C77.3273 27.5568 78.5192 27.26 78.7755 29.017C78.8908 29.8076 77.833 31.6075 76.2729 31.5296C74.5267 31.5998 73.3962 29.8642 73.5708 28.676C74.0613 25.3378 77.1839 24.8391 79.3498 25.3378C75.8479 23.6951 73.5708 26.7293 73.3848 27.0948C71.3475 31.1 68.8592 30.6647 68.445 30.5923C68.4165 30.5873 68.3978 30.584 68.3898 30.584C67.7891 25.8564 74.0859 23.6082 76.4461 23.7097C72.3019 23.1782 69.505 25.7372 68.8784 26.3105C68.8205 26.3636 68.7811 26.3996 68.7609 26.4147C67.1208 27.8815 66.2756 28.0531 65.787 28.0531C64.1891 28.0531 63.4887 26.4147 63.5203 25.8762C63.5203 24.8891 64.3872 24.1354 64.6869 24.1354C64.6869 24.7781 65.0739 24.8891 65.2253 24.8891C66.4949 24.7757 67.4182 24.2436 68.1444 23.825C68.2985 23.7362 68.4437 23.6525 68.5814 23.579C73.1068 21.1647 76.8032 21.6526 80.5343 23.9559C82.7729 25.3379 85.7991 29.017 86.1609 33.1649C86.29 34.6447 86.2533 35.3245 86.1938 36.4283C86.1833 36.6226 86.1721 36.8301 86.1609 37.0574C85.8757 42.8836 80.1145 47.3576 79.0907 48.1255C78.2629 48.7464 73.5708 51.2023 69.1092 50.0998C71.413 51.1722 80.5523 51.8908 88.8158 38.6008C91.9161 33.6149 87.7392 32.7446 87.4077 34.1368C86.4266 33.4474 87.1425 31.0475 89.2905 31.0475C92.0219 31.0475 92.2738 33.4606 92.2738 34.0175C92.2738 35.7016 91.3509 36.9286 90.7718 37.6986C90.6396 37.8743 90.5254 38.0262 90.4441 38.1543C91.5354 37.3712 92.3653 35.6738 92.8264 34.7307C92.8415 34.6999 92.8562 34.6699 92.8705 34.6407C94.0153 32.3032 95.9218 32.6474 96.7568 32.7982C96.8501 32.815 96.93 32.8295 96.994 32.8375C97.4448 35.2904 95.151 36.497 94.4483 36.6693C93.609 36.8752 92.9248 37.41 92.0218 38.1157C91.7417 38.3347 91.4404 38.5701 91.107 38.8173C91.2068 38.7606 91.3139 38.699 91.4272 38.6338C92.6387 37.9369 94.5522 36.8362 95.6633 37.0574C98.0298 37.5283 98.4891 38.7027 98.4891 39.7458C98.4891 41.6991 96.1185 42.2491 95.0565 41.1871C96.1185 39.9734 94.7151 39.3854 94.1272 39.3854C93.3496 39.3854 91.2847 39.5022 88.1344 42.5525C84.55 46.0231 80.3551 49.6264 76.5138 50.916C76.5138 50.916 79.0907 50.916 84.5085 46.7839C87.9355 44.1701 93.3145 42.442 95.944 42.442C98.9769 42.442 101.837 44.8958 102.154 45.1673L102.161 45.1735C102.26 45.2578 102.38 45.3623 102.519 45.4829C103.996 46.7633 107.569 49.8619 108.929 49.8619C109.921 49.8619 110.187 49.5436 110.8 48.8129C110.817 48.7927 110.834 48.7722 110.852 48.7513C112.069 50.8949 109.925 52.831 107.892 52.831C105.462 52.831 103.542 50.2514 102.154 48.3855C101.819 47.9363 101.516 47.5284 101.243 47.2079C101.136 47.0815 101.021 46.9275 100.892 46.7549C100.13 45.7343 98.8817 44.0615 95.8135 43.578C100.136 45.0941 101.882 49.0583 101.769 50.489C101.652 51.9662 101.132 52.738 99.8827 52.866C98.2294 53.0352 97.5558 51.2807 97.6142 49.8325C97.6383 49.2347 97.7425 48.9858 97.8281 48.7815C97.9189 48.5647 97.9887 48.3983 97.9191 47.9184C97.6372 45.9722 96.3297 44.343 94.4701 44.2497C97.2393 44.9592 97.3637 47.4681 97.3637 48.1638C97.3637 49.7423 95.764 51.3047 93.9275 51.3804C92.4867 51.4398 89.9861 49.8325 90.1675 47.7322C90.4505 44.4557 94.7866 44.8007 93.9275 47.2606C93.6537 46.8342 93.3398 46.8542 93.1506 46.8663C93.1229 46.868 93.0979 46.8696 93.076 46.8696C92.3829 46.8696 92.7909 48.0257 93.3806 48.0257C94.306 48.0257 94.6904 47.4812 94.7451 46.7052C94.8192 45.6559 93.5322 44.988 92.0578 44.988C90.4213 44.988 83.7802 47.9039 83.6394 48.7174C83.753 48.6766 84.1173 48.4945 84.6278 48.2393C86.2765 47.4153 89.4498 45.8293 90.6263 45.7772C90.1675 46.3373 90.0003 46.9852 89.8027 47.8527C87.6837 47.9895 86.6637 48.4983 85.3069 49.1751C84.948 49.3542 84.5654 49.545 84.1328 49.7438L84.0718 49.7718C82.419 50.5316 77.3 52.8848 72.8247 52.5206C58.6094 51.3637 55.2794 39.2326 56.3143 31.8381C55.6988 33.4912 53.9161 38.6008 53.6177 42.8535C53.5661 43.589 54.0733 43.2739 54.2854 43.1422C54.3068 43.1289 54.3252 43.1175 54.3397 43.1092C56.2409 41.921 56.7137 43.6582 56.8293 44.1617C57.1217 45.4348 55.2676 46.459 53.9096 45.5763C54.0538 45.7698 54.2973 45.8968 54.5627 46.0352C55.089 46.3096 55.7018 46.6291 55.7995 47.602C55.936 48.9606 54.0907 50.3746 52.6535 48.1905C52.4796 47.9262 52.4625 48.2654 52.4796 48.3133C52.512 48.4043 52.5951 48.5536 52.7 48.742C52.9938 49.27 53.4584 50.1049 53.4584 50.8241C53.4584 52.0184 52.3377 52.9022 51.224 52.8176C49.9655 52.7219 49.3037 51.8583 49.3037 50.6982C49.3037 49.5759 49.9353 48.9497 50.3415 48.547C50.5201 48.3699 50.6551 48.2361 50.6737 48.1222C49.4498 49.0914 49.1806 49.0877 48.8388 49.083C48.8147 49.0827 48.7903 49.0823 48.7651 49.0823C47.8662 49.0823 47.3825 48.38 47.2898 47.4548C47.1163 46.2108 48.5754 45.8182 49.6739 45.5227C49.7429 45.5042 49.8105 45.486 49.8761 45.468C47.682 45.7563 47.2898 44.1617 47.2898 43.6142C47.2898 42.4811 48.3306 41.9281 49.011 41.9281C50.1907 41.9281 50.4579 42.5911 50.6024 42.9498C50.6286 43.0149 50.6508 43.07 50.6737 43.1092C50.8691 43.4447 51.6043 43.1092 51.7251 42.4014C51.8183 41.8555 54.8879 31.4973 55.7379 30.6535C55.7379 30.6535 54.5123 29.4543 53.8744 28.5677C59.763 21.4797 66.9981 15.0598 76.8731 15.5742C86.549 16.3351 92.0557 21.5983 95.0565 25.0863C99.65 30.4256 100.582 31.6045 104.867 37.4718C103.817 35.5642 101.144 26.5301 101.057 26.0212C100.936 25.3134 100.201 24.9779 100.005 25.3134C99.9825 25.3527 99.9603 25.4077 99.9341 25.4728C99.7895 25.8315 99.5223 26.4946 98.3427 26.4946C97.6623 26.4946 96.6214 25.9415 96.6214 24.8084C96.6214 24.2609 97.0137 22.6663 99.2078 22.9546C99.1422 22.9366 99.0746 22.9185 99.0056 22.8999C97.9071 22.6044 96.448 22.2118 96.6214 20.9678C96.7141 20.0426 97.1978 19.3403 98.0968 19.3403C98.1219 19.3403 98.1464 19.3399 98.1704 19.3396C98.5123 19.3349 98.7815 19.3312 100.005 20.3004C99.9868 20.1866 99.8518 20.0527 99.6732 19.8756C99.267 19.4729 98.6354 18.8468 98.6354 17.7244C98.6354 16.5644 99.2972 15.7007 100.556 15.605C101.669 15.5204 102.79 16.4042 102.79 17.5985C102.79 18.3177 102.325 19.1527 102.032 19.6806C101.927 19.869 101.844 20.0183 101.811 20.1093C101.794 20.1572 101.811 20.4964 101.985 20.2322C103.422 18.048 105.268 19.462 105.131 20.8206C105.033 21.7935 104.421 22.113 103.894 22.3874C103.629 22.5259 103.385 22.6528 103.241 22.8463C104.599 21.9636 106.453 22.9878 106.161 24.2609C106.045 24.7644 105.573 26.5016 103.671 25.3134C103.657 25.3051 103.638 25.2937 103.617 25.2804C103.405 25.1487 102.898 24.8336 102.949 25.5691C103.248 29.8218 105.03 34.9314 105.646 36.5845C104.611 29.19 107.941 17.0589 122.156 15.902C126.632 15.5378 131.751 17.891 133.403 18.6508L133.464 18.6789C133.897 18.8776 134.28 19.0684 134.639 19.2475C135.995 19.9243 137.015 20.4331 139.134 20.5699C139.332 21.4374 139.499 22.0853 139.958 22.6454C138.782 22.5933 135.608 21.0073 133.959 20.1833C133.449 19.9281 133.085 19.7461 132.971 19.7052C133.112 20.5187 139.753 23.4346 141.39 23.4346C142.864 23.4346 144.151 22.7667 144.077 21.7174C144.022 20.9414 143.638 20.397 142.712 20.397C142.123 20.397 141.715 21.553 142.408 21.553C142.43 21.553 142.455 21.5546 142.482 21.5564C142.671 21.5684 142.985 21.5884 143.259 21.162C144.118 23.622 139.782 23.9669 139.499 20.6904C139.318 18.5901 141.818 16.9828 143.259 17.0422C145.096 17.118 146.695 18.6803 146.695 20.2588C146.695 20.9545 146.571 23.4634 143.802 24.1729C145.661 24.0796 146.969 22.4504 147.251 20.5042C147.32 20.0244 147.251 19.8579 147.16 19.6411C147.074 19.4368 146.97 19.1879 146.946 18.5901C146.887 17.142 147.561 15.3874 149.214 15.5567C150.464 15.6846 150.984 16.4564 151.1 17.9336C151.213 19.3643 149.468 23.3285 145.145 24.8447C148.213 24.3611 149.462 22.6883 150.224 21.6677C150.353 21.4951 150.467 21.3411 150.575 21.2147C150.847 20.8942 151.151 20.4863 151.485 20.0371C152.874 18.1712 154.794 15.5917 157.224 15.5917C159.257 15.5917 161.4 17.5278 160.183 19.6713L160.132 19.6097C159.519 18.879 159.252 18.5608 158.26 18.5608C156.901 18.5608 153.327 21.6593 151.851 22.9397C151.712 23.0604 151.591 23.1649 151.493 23.2491L151.486 23.2553C151.169 23.5268 148.309 25.9806 145.276 25.9806C142.646 25.9806 137.267 24.2525 133.84 21.6388C128.422 17.5066 125.845 17.5066 125.845 17.5066C129.687 18.7962 133.882 22.3995 137.466 25.8701C140.616 28.9204 142.681 29.0372 143.459 29.0372C144.047 29.0372 145.45 28.4493 144.388 27.2355C145.45 26.1735 147.821 26.7235 147.821 28.6768C147.821 29.7199 147.361 30.8943 144.995 31.3653C143.884 31.5864 141.97 30.4857 140.759 29.7888C140.646 29.7236 140.538 29.662 140.439 29.6053C140.772 29.8525 141.073 30.0879 141.354 30.3069C142.257 31.0127 142.941 31.5474 143.78 31.7533C144.483 31.9257 146.777 33.1322 146.326 35.5852C146.262 35.5932 146.182 35.6076 146.088 35.6244C145.253 35.7752 143.347 36.1194 142.202 33.7819C142.188 33.7528 142.173 33.7227 142.158 33.6919C141.697 32.7488 140.867 31.0515 139.776 30.2683C139.857 30.3964 139.971 30.5483 140.103 30.724C140.683 31.494 141.605 32.721 141.605 34.4051C141.605 34.962 141.354 37.3751 138.622 37.3751C136.474 37.3751 135.758 34.9752 136.739 34.2858C137.071 35.678 141.248 34.8077 138.148 29.8218C129.884 16.5318 120.745 17.2504 118.441 18.3228C122.902 17.2203 127.595 19.6763 128.422 20.2971C129.446 21.065 135.207 25.5391 135.493 31.3653C135.504 31.5926 135.515 31.8 135.525 31.9944C135.585 33.0981 135.622 33.778 135.493 35.2577C135.131 39.4056 132.105 43.0848 129.866 44.4667C126.135 46.77 122.438 47.2579 117.913 44.8436C117.775 44.7701 117.63 44.6864 117.476 44.5976C116.75 44.1791 115.827 43.6469 114.557 43.5335C114.406 43.5335 114.019 43.6445 114.019 44.2872C113.719 44.2872 112.852 43.5335 112.852 42.5464C112.82 42.008 113.521 40.3695 115.119 40.3695C115.607 40.3695 116.453 40.5411 118.093 42.008C118.113 42.023 118.152 42.059 118.21 42.1121C118.837 42.6854 121.634 45.2444 125.778 44.7129C123.418 44.8144 117.121 42.5662 117.721 37.8386C117.73 37.8386 117.748 37.8353 117.777 37.8304C118.191 37.7579 120.679 37.3226 122.717 41.3278C122.902 41.6933 125.18 44.7275 128.681 43.0848C126.516 43.5835 123.393 43.0848 122.902 39.7466C122.728 38.5584 123.858 36.8228 125.605 36.893C127.165 36.8151 128.222 38.615 128.107 39.4056C127.851 41.1626 126.659 40.8659 126.659 40.8659C126.851 40.5363 126.564 39.962 126.205 39.962C125.604 39.962 125.605 40.4581 125.605 40.6757V40.6799C125.605 41.5055 127.281 42.008 127.964 42.008C130.351 42.008 133.509 39.3338 133.951 35.1427C133.491 36.6058 131.768 42.008 127.316 41.1626C128.3 40.5 128.339 39.9936 128.37 39.6036C128.381 39.4665 128.39 39.3438 128.439 39.2337C135.532 38.6448 135.181 26.0119 127.223 21.1689C128.407 21.9593 131.035 26.3175 129.884 29.8218C128.769 33.2143 125.146 36.4514 120.3 36.229C118.682 36.1547 117.17 35.7465 115.203 35.1342C114.06 34.7784 111.596 35.1342 112.568 37.5926C110.497 37.7936 109.642 35.4629 109.642 34.5664C109.642 33.9263 110.536 29.9488 116.33 32.6625C121.753 35.2026 124.038 33.9669 125.235 33.3199C125.371 33.2462 125.494 33.1802 125.605 33.1282C118.893 35.5073 112.075 29.2133 113.239 24.835C116.193 24.3901 118.218 27.3063 118.441 27.6775C121.497 32.764 125.072 31.9351 126.043 31.3653C122.394 32.1344 119.223 28.8707 119.495 26.2181C119.811 23.1417 122.355 22.4909 123.124 22.4909C126.122 22.4909 127.167 25.7448 125.845 26.5534C124.741 24.7982 122.78 26.3636 123.124 27.6775C124.039 31.1713 128.033 30.176 128.255 26.9529C128.255 21.209 122.78 19.5145 118.939 19.8418C110.605 20.5519 107.424 30.6647 108.219 35.8158C109.806 46.0951 118.133 49.8179 125.977 50.1691C136.436 50.1691 144.453 39.4164 151.226 30.3314C151.572 29.8665 151.915 29.406 152.256 28.9516C152.507 29.1406 152.743 29.2984 152.968 29.4492C153.479 29.791 153.936 30.0965 154.388 30.6469C149.92 36.7666 149.056 37.9103 144.388 43.3364C141.387 46.8243 135.881 52.0875 126.205 52.8484C116.331 53.3628 109.096 46.9441 103.208 39.8569C103.207 39.8576 103.206 39.8583 103.205 39.859C102.86 39.3989 102.512 38.9316 102.16 38.4591C95.3646 29.3432 87.0981 18.2535 76.6449 18.2535Z" fill="#DCC67A"/>
<path fill-rule="evenodd" clip-rule="evenodd" d="M-21.9677 18.2535C-29.8114 18.6047 -38.1379 22.3275 -39.7251 32.6068C-40.5205 37.7579 -37.3389 47.8707 -29.0055 48.5808C-25.1643 48.9082 -19.6889 47.2136 -19.6889 41.4697C-19.9113 38.2466 -23.9056 37.2514 -24.8203 40.7452C-25.1642 42.059 -23.2031 43.6244 -22.0988 41.8692C-20.7775 42.6778 -21.8227 45.9317 -24.8203 45.9317C-25.5894 45.9317 -28.1333 45.2809 -28.4489 42.2045C-28.7209 39.5519 -25.5499 36.2883 -21.9016 37.0574C-22.8722 36.4875 -26.4468 35.6586 -29.5033 40.7452C-29.7264 41.1163 -31.7512 44.0326 -34.7055 43.5876C-35.8697 39.2093 -29.0515 32.9153 -22.3396 35.2944C-22.4507 35.2424 -22.5729 35.1764 -22.7092 35.1027C-23.9058 34.4558 -26.1916 33.22 -31.6144 35.7602C-37.4077 38.4739 -38.3019 34.4963 -38.3019 33.8562C-38.3019 32.9597 -37.447 30.6291 -35.3758 30.83C-36.3486 33.2885 -33.884 33.6442 -32.7412 33.2885C-30.7739 32.6761 -29.2617 32.2679 -27.6441 32.1937C-22.7987 31.9713 -19.1748 35.2083 -18.0603 38.6008C-16.9091 42.1051 -19.5368 46.4633 -20.7217 47.2537C-12.7629 42.4107 -12.4125 29.7778 -19.5047 29.1889C-19.5538 29.0789 -19.5634 28.9561 -19.5742 28.819C-19.6047 28.429 -19.6444 27.9226 -20.6282 27.26C-16.1758 26.4146 -14.4529 31.8168 -13.9935 33.2799C-14.4349 29.0888 -17.5937 26.4147 -19.9806 26.4147C-20.6636 26.4147 -22.3396 26.9172 -22.3396 27.7427V27.7469C-22.3397 27.9645 -22.3397 28.4606 -21.7395 28.4606C-21.3805 28.4606 -21.0934 27.8863 -21.2853 27.5568C-21.2853 27.5568 -20.0934 27.26 -19.8371 29.017C-19.7217 29.8076 -20.7796 31.6075 -22.3396 31.5296C-24.0859 31.5998 -25.2164 29.8642 -25.0418 28.676C-24.5512 25.3378 -21.4287 24.8391 -19.2628 25.3378C-22.7646 23.6951 -25.0418 26.7293 -25.2277 27.0948C-27.265 31.1 -29.7533 30.6647 -30.1676 30.5923C-30.196 30.5873 -30.2147 30.584 -30.2228 30.584C-30.8235 25.8564 -24.5267 23.6082 -22.1665 23.7097C-26.3107 23.1782 -29.1075 25.7372 -29.7341 26.3105C-29.7921 26.3636 -29.8315 26.3996 -29.8516 26.4147C-31.4917 27.8815 -32.3369 28.0531 -32.8255 28.0531C-34.4235 28.0531 -35.1238 26.4147 -35.0923 25.8762C-35.0923 24.8891 -34.2254 24.1354 -33.9257 24.1354C-33.9257 24.7781 -33.5387 24.8891 -33.3873 24.8891C-32.1176 24.7757 -31.1944 24.2436 -30.4681 23.825C-30.3141 23.7362 -30.1689 23.6525 -30.0311 23.579C-25.5058 21.1647 -21.8094 21.6526 -18.0782 23.9559C-15.8396 25.3379 -12.8135 29.017 -12.4516 33.1649C-12.3225 34.6447 -12.3592 35.3245 -12.4188 36.4283C-12.4293 36.6226 -12.4405 36.8301 -12.4516 37.0574C-12.7369 42.8836 -18.498 47.3576 -19.5219 48.1255C-20.3497 48.7464 -25.0418 51.2023 -29.5033 50.0998C-27.1996 51.1722 -18.0603 51.8908 -9.7967 38.6008C-6.69648 33.6149 -10.8733 32.7446 -11.2048 34.1368C-12.186 33.4474 -11.47 31.0475 -9.32204 31.0475C-6.59066 31.0475 -6.33874 33.4606 -6.33874 34.0175C-6.33874 35.7016 -7.26163 36.9286 -7.84076 37.6986C-7.97293 37.8743 -8.08719 38.0262 -8.1685 38.1543C-7.07716 37.3712 -6.24726 35.6738 -5.78613 34.7307C-5.77105 34.6999 -5.75637 34.6699 -5.74208 34.6407C-4.5972 32.3032 -2.69073 32.6474 -1.85579 32.7982C-1.76245 32.815 -1.68251 32.8295 -1.61851 32.8375C-1.1677 35.2904 -3.46152 36.497 -4.16425 36.6693C-5.00351 36.8752 -5.68772 37.41 -6.59073 38.1157C-6.87088 38.3347 -7.1721 38.5701 -7.50554 38.8173C-7.40577 38.7606 -7.29862 38.699 -7.18534 38.6338C-5.97387 37.9369 -4.06035 36.8362 -2.94921 37.0574C-0.582783 37.5283 -0.123474 38.7027 -0.123474 39.7458C-0.123474 41.6991 -2.49406 42.2491 -3.55608 41.1871C-2.49406 39.9734 -3.89745 39.3854 -4.48535 39.3854C-5.2629 39.3854 -7.3278 39.5022 -10.4782 42.5525C-14.0625 46.0231 -18.2575 49.6264 -22.0988 50.916C-22.0988 50.916 -19.5219 50.916 -14.104 46.7839C-10.6771 44.1701 -5.29807 42.442 -2.66851 42.442C0.364304 42.442 3.22493 44.8958 3.54145 45.1673L3.54871 45.1735C3.647 45.2578 3.76751 45.3623 3.90662 45.4829C5.38318 46.7633 8.95633 49.8619 10.3162 49.8619C11.308 49.8619 11.5748 49.5436 12.1873 48.8129C12.2043 48.7927 12.2215 48.7722 12.239 48.7513C13.456 50.8949 11.3124 52.831 9.27952 52.831C6.84971 52.831 4.92979 50.2514 3.54104 48.3855C3.2067 47.9363 2.90315 47.5284 2.63068 47.2079C2.52324 47.0815 2.40831 46.9275 2.27946 46.7549C1.51773 45.7343 0.269161 44.0615 -2.79903 43.578C1.52374 45.0941 3.26898 49.0583 3.15619 50.489C3.03974 51.9662 2.51972 52.738 1.27017 52.866C-0.383133 53.0352 -1.05678 51.2807 -0.998386 49.8325C-0.974281 49.2347 -0.870007 48.9858 -0.784439 48.7815C-0.693623 48.5647 -0.623878 48.3983 -0.693401 47.9184C-0.975349 45.9722 -2.28286 44.343 -4.14249 44.2497C-1.3732 44.9592 -1.24887 47.4681 -1.24887 48.1638C-1.24887 49.7423 -2.8485 51.3047 -4.68505 51.3804C-6.12588 51.4398 -8.62645 49.8325 -8.44507 47.7322C-8.16209 44.4557 -3.82597 44.8007 -4.68505 47.2606C-4.95886 46.8342 -5.27276 46.8542 -5.46199 46.8663C-5.48967 46.868 -5.51468 46.8696 -5.53651 46.8696C-6.22961 46.8696 -5.82161 48.0257 -5.23192 48.0257C-4.30655 48.0257 -3.9222 47.4812 -3.86743 46.7052C-3.79338 45.6559 -5.08037 44.988 -6.5547 44.988C-8.19121 44.988 -14.8324 47.9039 -14.9732 48.7174C-14.8596 48.6766 -14.4952 48.4945 -13.9848 48.2393C-12.3361 47.4153 -9.16272 45.8293 -7.98628 45.7772C-8.44507 46.3373 -8.61222 46.9852 -8.80989 47.8527C-10.9288 47.9895 -11.9488 48.4983 -13.3057 49.1751C-13.6646 49.3542 -14.0471 49.545 -14.4798 49.7438L-14.5407 49.7718C-16.1936 50.5316 -21.3126 52.8848 -25.7879 52.5206C-40.0031 51.3637 -43.3332 39.2326 -42.2983 31.8381C-42.9137 33.4912 -44.6965 38.6008 -44.9949 42.8535C-45.0465 43.589 -44.5392 43.2739 -44.3271 43.1422C-44.3058 43.1289 -44.2874 43.1175 -44.2729 43.1092C-42.3717 41.921 -41.8988 43.6582 -41.7832 44.1617C-41.4908 45.4348 -43.3449 46.459 -44.7029 45.5763C-44.5587 45.7698 -44.3153 45.8968 -44.0498 46.0352C-43.5236 46.3096 -42.9107 46.6291 -42.813 47.602C-42.6765 48.9606 -44.5218 50.3746 -45.9591 48.1905C-46.133 47.9262 -46.1501 48.2654 -46.133 48.3133C-46.1005 48.4043 -46.0174 48.5536 -45.9126 48.742C-45.6188 49.27 -45.1542 50.1049 -45.1542 50.8241C-45.1542 52.0184 -46.2748 52.9022 -47.3885 52.8176C-48.647 52.7219 -49.3088 51.8583 -49.3088 50.6982C-49.3088 49.5759 -48.6772 48.9497 -48.2711 48.547C-48.0925 48.3699 -47.9574 48.2361 -47.9388 48.1222C-49.1627 49.0914 -49.432 49.0877 -49.7738 49.083C-49.7979 49.0827 -49.8223 49.0823 -49.8474 49.0823C-50.7464 49.0823 -51.2301 48.38 -51.3228 47.4548C-51.4962 46.2108 -50.0371 45.8182 -48.9386 45.5227C-48.8696 45.5042 -48.8021 45.486 -48.7364 45.468C-50.9305 45.7563 -51.3228 44.1617 -51.3228 43.6142C-51.3228 42.4811 -50.2819 41.9281 -49.6015 41.9281C-48.4219 41.9281 -48.1547 42.5911 -48.0101 42.9498C-47.9839 43.0149 -47.9617 43.07 -47.9388 43.1092C-47.7435 43.4447 -47.0083 43.1092 -46.8874 42.4014C-46.7943 41.8555 -43.7246 31.4973 -42.8747 30.6535C-42.8747 30.6535 -44.1002 29.4543 -44.7382 28.5677C-38.8496 21.4797 -31.6144 15.0598 -21.7395 15.5742C-12.0636 16.3351 -6.55681 21.5983 -3.55608 25.0863C1.03743 30.4256 1.96911 31.6045 6.25486 37.4718C5.20399 35.5642 2.53109 26.5301 2.44423 26.0212C2.32341 25.3134 1.58818 24.9779 1.39283 25.3134C1.36996 25.3527 1.34777 25.4077 1.32155 25.4728C1.17699 25.8315 0.90979 26.4946 -0.269863 26.4946C-0.950237 26.4946 -1.9911 25.9415 -1.9911 24.8084C-1.99111 24.2609 -1.59887 22.6663 0.595268 22.9546C0.529617 22.9366 0.462051 22.9185 0.393063 22.8999C-0.705452 22.6044 -2.16455 22.2118 -1.9911 20.9678C-1.89843 20.0426 -1.41472 19.3403 -0.515766 19.3403C-0.49062 19.3403 -0.46619 19.3399 -0.44212 19.3396C-0.100288 19.3349 0.168922 19.3312 1.39283 20.3004C1.37424 20.1866 1.23922 20.0527 1.06061 19.8756C0.654434 19.4729 0.0228653 18.8468 0.0228653 17.7244C0.0228653 16.5644 0.684639 15.7007 1.94317 15.605C3.05683 15.5204 4.17751 16.4042 4.17751 17.5985C4.17751 18.3177 3.71288 19.1527 3.41908 19.6806C3.31425 19.869 3.23117 20.0183 3.1987 20.1093C3.18162 20.1572 3.1987 20.4964 3.37259 20.2322C4.80983 18.048 6.65512 19.462 6.51865 20.8206C6.42093 21.7935 5.80811 22.113 5.28185 22.3874C5.01638 22.5259 4.77293 22.6528 4.62874 22.8463C5.98675 21.9636 7.84085 22.9878 7.54847 24.2609C7.43284 24.7644 6.96001 26.5016 5.05878 25.3134C5.04428 25.3051 5.0259 25.2937 5.00453 25.2804C4.79243 25.1487 4.28518 24.8336 4.33679 25.5691C4.63521 29.8218 6.41794 34.9314 7.03341 36.5845C5.99849 29.19 9.32856 17.0589 23.5438 15.902C28.0191 15.5378 33.1381 17.891 34.7909 18.6508L34.8519 18.6789C35.2846 18.8776 35.6671 19.0684 36.026 19.2475C37.3829 19.9243 38.4028 20.4331 40.5218 20.5699C40.7195 21.4374 40.8866 22.0853 41.3454 22.6454C40.169 22.5933 36.9956 21.0073 35.3469 20.1833C34.8364 19.9281 34.4721 19.7461 34.3585 19.7052C34.4993 20.5187 41.1405 23.4346 42.777 23.4346C44.2513 23.4346 45.5383 22.7667 45.4642 21.7174C45.4095 20.9414 45.0251 20.397 44.0998 20.397C43.5101 20.397 43.1021 21.553 43.7952 21.553C43.817 21.553 43.842 21.5546 43.8697 21.5564C44.0589 21.5684 44.3728 21.5884 44.6466 21.162C45.5057 23.622 41.1696 23.9669 40.8866 20.6904C40.7052 18.5901 43.2058 16.9828 44.6466 17.0422C46.4832 17.118 48.0828 18.6803 48.0828 20.2588C48.0828 20.9545 47.9585 23.4634 45.1892 24.1729C47.0488 24.0796 48.3563 22.4504 48.6383 20.5042C48.7078 20.0244 48.638 19.8579 48.5472 19.6411C48.4617 19.4368 48.3574 19.1879 48.3333 18.5901C48.2749 17.142 48.9485 15.3874 50.6018 15.5567C51.8514 15.6846 52.3714 16.4564 52.4879 17.9336C52.6007 19.3643 50.8554 23.3285 46.5326 24.8447C49.6008 24.3611 50.8494 22.6883 51.6111 21.6677C51.74 21.4951 51.8549 21.3411 51.9624 21.2147C52.2348 20.8942 52.5384 20.4863 52.8727 20.0371C54.2615 18.1712 56.1814 15.5917 58.6112 15.5917C60.6441 15.5917 62.7876 17.5278 61.5707 19.6713L61.519 19.6097C60.9065 18.879 60.6397 18.5608 59.6479 18.5608C58.288 18.5608 54.7148 21.6593 53.2383 22.9397C53.0992 23.0604 52.9787 23.1649 52.8804 23.2491L52.8731 23.2553C52.5566 23.5268 49.696 25.9806 46.6632 25.9806C44.0336 25.9806 38.6546 24.2525 35.2276 21.6388C29.8098 17.5066 27.2329 17.5066 27.2329 17.5066C31.0742 18.7962 35.2692 22.3995 38.8535 25.8701C42.0039 28.9204 44.0688 29.0372 44.8463 29.0372C45.4342 29.0372 46.8376 28.4493 45.7756 27.2355C46.8376 26.1735 49.2082 26.7235 49.2082 28.6768C49.2082 29.7199 48.7489 30.8943 46.3825 31.3653C45.2713 31.5864 43.3578 30.4857 42.1463 29.7888C42.0331 29.7236 41.9259 29.662 41.8261 29.6053C42.1596 29.8525 42.4608 30.0879 42.741 30.3069C43.644 31.0127 44.3282 31.5474 45.1674 31.7533C45.8701 31.9257 48.164 33.1322 47.7132 35.5852C47.6492 35.5932 47.5692 35.6076 47.4759 35.6244C46.6409 35.7752 44.7345 36.1194 43.5896 33.7819C43.5753 33.7528 43.5606 33.7227 43.5455 33.6919C43.0844 32.7488 42.2545 31.0515 41.1632 30.2683C41.2445 30.3964 41.3587 30.5483 41.4909 30.724C42.07 31.494 42.9929 32.721 42.9929 34.4051C42.9929 34.962 42.741 37.3751 40.0096 37.3751C37.8617 37.3751 37.1457 34.9752 38.1268 34.2858C38.4583 35.678 42.6352 34.8077 39.535 29.8218C31.2714 16.5318 22.1321 17.2504 19.8283 18.3228C24.2899 17.2203 28.982 19.6763 29.8098 20.2971C30.8337 21.065 36.5948 25.5391 36.8801 31.3653C36.8912 31.5926 36.9024 31.8 36.9129 31.9944C36.9725 33.0981 37.0092 33.778 36.8801 35.2577C36.5182 39.4056 33.492 43.0848 31.2534 44.4667C27.5223 46.77 23.8259 47.2579 19.3006 44.8436C19.1628 44.7701 19.0176 44.6864 18.8635 44.5976C18.1373 44.1791 17.214 43.6469 15.9444 43.5335C15.793 43.5335 15.406 43.6445 15.406 44.2872C15.1063 44.2872 14.2394 43.5335 14.2394 42.5464C14.2079 42.008 14.9082 40.3695 16.5061 40.3695C16.9948 40.3695 17.84 40.5411 19.48 42.008C19.5002 42.023 19.5396 42.059 19.5976 42.1121C20.2242 42.6854 23.021 45.2444 27.1652 44.7129C24.805 44.8144 18.5082 42.5662 19.1089 37.8386C19.117 37.8386 19.1356 37.8353 19.1641 37.8304C19.5784 37.7579 22.0666 37.3226 24.104 41.3278C24.2899 41.6933 26.567 44.7275 30.0689 43.0848C27.903 43.5835 24.7804 43.0848 24.2899 39.7466C24.1153 38.5584 25.2458 36.8228 26.992 36.893C28.5521 36.8151 29.6099 38.615 29.4946 39.4056C29.2383 41.1626 28.0464 40.8659 28.0464 40.8659C28.2383 40.5363 27.9511 39.962 27.5922 39.962C26.992 39.962 26.992 40.4581 26.992 40.6757V40.6799C26.992 41.5055 28.6681 42.008 29.351 42.008C31.738 42.008 34.8967 39.3338 35.3381 35.1427C34.8788 36.6058 33.1559 42.008 28.7035 41.1626C29.6872 40.5 29.7269 39.9936 29.7575 39.6036C29.7682 39.4665 29.7778 39.3438 29.8269 39.2337C36.9191 38.6448 36.5688 26.0119 28.61 21.1689C29.7949 21.9593 32.4226 26.3175 31.2714 29.8218C30.1569 33.2143 26.533 36.4514 21.6875 36.229C20.0699 36.1547 18.5577 35.7465 16.5905 35.1342C15.4477 34.7784 12.9831 35.1342 13.9559 37.5926C11.8847 37.7936 11.0297 35.4629 11.0297 34.5664C11.0297 33.9263 11.924 29.9488 17.7173 32.6625C23.1401 35.2026 25.4259 33.9669 26.6225 33.3199C26.7588 33.2462 26.881 33.1802 26.992 33.1282C20.2802 35.5073 13.462 29.2133 14.6261 24.835C17.5805 24.3901 19.6053 27.3063 19.8283 27.6775C22.8849 32.764 26.4595 31.9351 27.4301 31.3653C23.7817 32.1344 20.6107 28.8707 20.8828 26.2181C21.1983 23.1417 23.7423 22.4909 24.5114 22.4909C27.509 22.4909 28.5542 25.7448 27.2329 26.5534C26.1285 24.7982 24.1675 26.3636 24.5114 27.6775C25.426 31.1713 29.4204 30.176 29.6428 26.9529C29.6428 21.209 24.1674 19.5145 20.3262 19.8418C11.9928 20.5519 8.81121 30.6647 9.60658 35.8158C11.1938 46.0951 19.5203 49.8179 27.364 50.1691C37.7866 50.1691 46.0019 39.1423 52.7824 30.0415C53.1548 29.5417 53.5229 29.0476 53.8868 28.5615C54.5087 29.03 54.8988 29.5312 55.3355 30.0919C55.4746 30.2706 55.6184 30.4552 55.7759 30.6469C51.3079 36.7666 50.4437 37.9103 45.7756 43.3364C42.7749 46.8243 37.2681 52.0875 27.5922 52.8484C17.7182 53.3628 10.4834 46.9441 4.59507 39.8569C4.59414 39.8576 4.59319 39.8583 4.59225 39.859C4.24782 39.3989 3.89953 38.9316 3.54729 38.4591C-3.24792 29.3432 -11.5145 18.2535 -21.9677 18.2535Z" fill="#DCC67A"/>
<path fill-rule="evenodd" clip-rule="evenodd" d="M224.623 50.1691C216.78 49.8179 208.453 46.0951 206.866 35.8157C206.07 30.6646 209.252 20.5518 217.585 19.8417C221.427 19.5144 226.902 21.209 226.902 26.9528C226.68 30.176 222.685 31.1712 221.771 27.6774C221.427 26.3635 223.388 24.7981 224.492 26.5533C225.813 25.7447 224.768 22.4908 221.771 22.4908C221.002 22.4908 218.458 23.1416 218.142 26.218C217.87 28.8707 221.041 32.1343 224.689 31.3652C223.719 31.935 220.144 32.7639 217.088 27.6774C216.865 27.3062 214.84 24.39 211.885 24.835C210.721 29.2132 217.539 35.5073 224.251 33.1282C224.14 33.1801 224.018 33.2462 223.882 33.3198C222.685 33.9668 220.399 35.2025 214.977 32.6624C209.183 29.9487 208.289 33.9262 208.289 34.5663C208.289 35.4629 209.144 37.7935 211.215 37.5926C210.242 35.1341 212.707 34.7784 213.85 35.1341C215.817 35.7464 217.329 36.1546 218.947 36.2289C223.792 36.4513 227.416 33.2143 228.531 29.8217C229.682 26.3174 227.054 21.9593 225.869 21.1688C233.828 26.0119 234.178 38.6447 227.086 39.2336C227.037 39.3437 227.028 39.4664 227.017 39.6035C226.986 39.9935 226.947 40.4999 225.963 41.1625C230.415 42.0079 232.138 36.6058 232.597 35.1426C232.156 39.3338 228.997 42.0079 226.61 42.0079C225.927 42.0079 224.251 41.5054 224.251 40.6798V40.6756C224.251 40.458 224.251 39.9619 224.851 39.9619C225.21 39.9619 225.498 40.5362 225.306 40.8658C225.306 40.8658 226.498 41.1625 226.754 39.4056C226.869 38.6149 225.811 36.8151 224.251 36.8929C222.505 36.8227 221.375 38.5583 221.549 39.7466C222.04 43.0847 225.162 43.5834 227.328 43.0847C223.826 44.7275 221.549 41.6933 221.363 41.3277C219.326 37.3226 216.838 37.7578 216.423 37.8303C216.395 37.8353 216.376 37.8385 216.368 37.8385C215.767 42.5662 222.064 44.8143 224.424 44.7129C220.28 45.2443 217.483 42.6853 216.857 42.112C216.799 42.059 216.759 42.0229 216.739 42.0079C215.099 40.5411 214.254 40.3694 213.765 40.3694C212.167 40.3694 211.467 42.0079 211.499 42.5463C211.499 43.5334 212.366 44.2872 212.665 44.2872C212.665 43.6445 213.052 43.5334 213.204 43.5334C214.473 43.6468 215.397 44.179 216.123 44.5975C216.277 44.6863 216.422 44.77 216.56 44.8435C221.085 47.2578 224.782 46.7699 228.513 44.4666C230.751 43.0847 233.777 39.4056 234.139 35.2576C234.268 33.7779 234.232 33.0981 234.172 31.9943C234.162 31.8 234.15 31.5925 234.139 31.3652C233.854 25.539 228.093 21.065 227.069 20.2971C226.241 19.6762 221.549 17.2202 217.088 18.3228C219.391 17.2503 228.531 16.5317 236.794 29.8217C239.894 34.8077 235.718 35.6779 235.386 34.2857C234.405 34.9752 235.121 37.3751 237.269 37.3751C240 37.3751 240.252 34.9619 240.252 34.405C240.252 32.721 239.329 31.4939 238.75 30.724C238.618 30.5482 238.504 30.3963 238.422 30.2682C239.514 31.0514 240.344 32.7487 240.805 33.6918C240.82 33.7227 240.835 33.7527 240.849 33.7819C241.994 36.1193 243.9 35.7751 244.735 35.6244C244.828 35.6075 244.908 35.5931 244.972 35.5851C245.423 33.1322 243.129 31.9256 242.427 31.7532C241.587 31.5474 240.903 31.0126 240 30.3068C239.72 30.0879 239.419 29.8524 239.085 29.6052C239.185 29.6619 239.292 29.7236 239.406 29.7887C240.617 30.4856 242.531 31.5863 243.642 31.3652C246.008 30.8942 246.467 29.7198 246.467 28.6768C246.467 26.7234 244.097 26.1734 243.035 27.2354C244.097 28.4492 242.694 29.0371 242.106 29.0371C241.328 29.0371 239.263 28.9204 236.113 25.87C232.528 22.3995 228.333 18.7961 224.492 17.5065C224.492 17.5065 227.069 17.5065 232.487 21.6387C235.914 24.2524 241.293 25.9805 243.922 25.9805C246.955 25.9805 249.816 23.5268 250.132 23.2553L250.14 23.249C250.238 23.1648 250.358 23.0603 250.498 22.9397C251.974 21.6593 255.547 18.5607 256.907 18.5607C257.899 18.5607 258.166 18.8789 258.778 19.6096L258.83 19.6712C260.047 17.5277 257.903 15.5916 255.87 15.5916C253.441 15.5916 251.521 18.1712 250.132 20.0371C249.798 20.4863 249.494 20.8941 249.222 21.2147C249.114 21.3411 248.999 21.495 248.87 21.6677C248.109 22.6882 246.86 24.3611 243.792 24.8446C248.115 23.3285 249.86 19.3642 249.747 17.9335C249.631 16.4563 249.111 15.6845 247.861 15.5566C246.208 15.3873 245.534 17.1419 245.593 18.5901C245.617 19.1878 245.721 19.4368 245.807 19.641C245.897 19.8578 245.967 20.0243 245.898 20.5042C245.616 22.4503 244.308 24.0795 242.448 24.1729C245.218 23.4633 245.342 20.9544 245.342 20.2587C245.342 18.6803 243.742 17.1179 241.906 17.0422C240.465 16.9827 237.964 18.5901 238.146 20.6903C238.429 23.9669 242.765 23.6219 241.906 21.162C241.632 21.5883 241.318 21.5683 241.129 21.5563C241.101 21.5545 241.076 21.5529 241.054 21.5529C240.361 21.5529 240.769 20.3969 241.359 20.3969C242.284 20.3969 242.669 20.9413 242.724 21.7174C242.798 22.7666 241.511 23.4345 240.036 23.4345C238.4 23.4345 231.759 20.5186 231.618 19.7051C231.731 19.746 232.096 19.9281 232.606 20.1832C234.255 21.0072 237.428 22.5932 238.605 22.6453C238.146 22.0853 237.979 21.4374 237.781 20.5698C235.662 20.4331 234.642 19.9243 233.285 19.2474C232.926 19.0684 232.544 18.8776 232.111 18.6788L232.05 18.6508C230.397 17.8909 225.278 15.5377 220.803 15.9019C206.588 17.0588 203.258 29.1899 204.293 36.5844C203.677 34.9314 201.894 29.8217 201.596 25.569C201.544 24.8336 202.052 25.1486 202.264 25.2803C202.285 25.2936 202.304 25.305 202.318 25.3133C204.219 26.5016 204.692 24.7643 204.808 24.2608C205.1 22.9877 203.246 21.9635 201.888 22.8463C202.032 22.6527 202.276 22.5258 202.541 22.3874C203.067 22.113 203.68 21.7934 203.778 20.8206C203.914 19.4619 202.069 18.0479 200.632 20.2321C200.458 20.4963 200.441 20.1571 200.458 20.1093C200.49 20.0182 200.574 19.8689 200.678 19.6806C200.972 19.1526 201.437 18.3176 201.437 17.5984C201.437 16.4041 200.316 15.5203 199.202 15.605C197.944 15.7006 197.282 16.5643 197.282 17.7243C197.282 18.8467 197.914 19.4728 198.32 19.8756C198.498 20.0526 198.634 20.1865 198.652 20.3003C197.428 19.3312 197.159 19.3349 196.817 19.3395C196.793 19.3399 196.769 19.3402 196.744 19.3402C195.845 19.3402 195.361 20.0426 195.268 20.9678C195.095 22.2118 196.554 22.6043 197.652 22.8998C197.721 22.9184 197.789 22.9366 197.855 22.9545C195.66 22.6663 195.268 24.2608 195.268 24.8084C195.268 25.9415 196.309 26.4945 196.989 26.4945C198.169 26.4945 198.436 25.8314 198.581 25.4727C198.607 25.4076 198.629 25.3526 198.652 25.3133C198.847 24.9778 199.583 25.3133 199.704 26.0211C199.79 26.53 202.463 35.5642 203.514 37.4717C199.228 31.6044 198.297 30.4256 193.703 25.0862C190.702 21.5982 185.196 16.3351 175.52 15.5741C165.645 15.0597 158.153 21.8665 152.264 28.9545C152.902 29.8411 154.385 30.6534 154.385 30.6534C153.535 31.4972 150.465 41.8554 150.372 42.4013C150.251 43.1092 149.516 43.4446 149.32 43.1092C149.298 43.0699 149.275 43.0148 149.249 42.9498C149.105 42.591 148.837 41.928 147.658 41.928C146.977 41.928 145.936 42.481 145.936 43.6141C145.936 44.1616 146.329 45.7562 148.523 45.4679C148.457 45.4859 148.39 45.5041 148.321 45.5226C147.222 45.8182 145.763 46.2107 145.936 47.4547C146.029 48.3799 146.513 49.0823 147.412 49.0823C147.437 49.0823 147.461 49.0826 147.485 49.0829C147.827 49.0876 148.097 49.0913 149.32 48.1221C149.302 48.236 149.167 48.3698 148.988 48.5469C148.582 48.9496 147.95 49.5758 147.95 50.6981C147.95 51.8582 148.612 52.7218 149.871 52.8175C150.984 52.9021 152.105 52.0183 152.105 50.8241C152.105 50.1048 151.64 49.2699 151.347 48.7419C151.242 48.5535 151.159 48.4042 151.126 48.3132C151.109 48.2653 151.126 47.9261 151.3 48.1904C152.737 50.3745 154.583 48.9606 154.446 47.6019C154.349 46.6291 153.736 46.3095 153.209 46.0351C152.944 45.8967 152.701 45.7697 152.556 45.5762C153.914 46.4589 155.768 45.4347 155.476 44.1616C155.36 43.6581 154.888 41.9209 152.986 43.1092C152.972 43.1175 152.954 43.1289 152.932 43.1421C152.72 43.2739 152.213 43.5889 152.264 42.8534C152.563 38.6008 154.346 33.4911 154.961 31.838C153.926 39.2325 157.256 51.3636 171.471 52.5205C175.947 52.8848 181.066 50.5316 182.719 49.7717L182.719 49.7717L182.78 49.7437C183.212 49.5449 183.595 49.3541 183.954 49.1751C185.31 48.4982 186.33 47.9894 188.449 47.8527C188.647 46.9851 188.814 46.3372 189.273 45.7772C188.097 45.8293 184.923 47.4153 183.275 48.2393C182.764 48.4944 182.4 48.6765 182.286 48.7174C182.427 47.9039 189.068 44.9879 190.705 44.9879C192.179 44.9879 193.466 45.6559 193.392 46.7051C193.337 47.4811 192.953 48.0256 192.027 48.0256C191.438 48.0256 191.03 46.8695 191.723 46.8695C191.745 46.8695 191.77 46.8679 191.797 46.8662C191.987 46.8541 192.3 46.8342 192.574 47.2605C193.433 44.8006 189.097 44.4556 188.814 47.7322C188.633 49.8324 191.133 51.4397 192.574 51.3803C194.411 51.3046 196.01 49.7422 196.01 48.1637C196.01 47.4681 195.886 44.9592 193.117 44.2496C194.976 44.3429 196.284 45.9722 196.566 47.9183C196.635 48.3982 196.566 48.5647 196.475 48.7815C196.389 48.9857 196.285 49.2346 196.261 49.8324C196.202 51.2806 196.876 53.0351 198.529 52.8659C199.779 52.738 200.299 51.9662 200.415 50.489C200.528 49.0583 198.783 45.094 194.46 43.5779C197.528 44.0614 198.777 45.7342 199.539 46.7548C199.668 46.9274 199.783 47.0814 199.89 47.2078C200.162 47.5284 200.466 47.9362 200.8 48.3854C202.189 50.2513 204.109 52.8309 206.539 52.8309C208.572 52.8309 210.715 50.8948 209.498 48.7512C209.481 48.7721 209.464 48.7926 209.447 48.8128C208.834 49.5435 208.567 49.8618 207.576 49.8618C206.216 49.8618 202.642 46.7633 201.166 45.4828C201.027 45.3622 200.906 45.2577 200.808 45.1734L200.801 45.1672C200.484 44.8957 197.624 42.442 194.591 42.442C191.961 42.442 186.582 44.1701 183.155 46.7838C177.737 50.916 175.16 50.916 175.16 50.916C179.002 49.6264 183.197 46.023 186.781 42.5525C189.931 39.5021 191.996 39.3854 192.774 39.3854C193.362 39.3854 194.765 39.9733 193.703 41.187C194.765 42.249 197.136 41.6991 197.136 39.7457C197.136 38.7026 196.676 37.5283 194.31 37.0573C193.199 36.8362 191.285 37.9369 190.074 38.6337C189.961 38.6989 189.854 38.7605 189.754 38.8172C190.087 38.5701 190.388 38.3346 190.669 38.1157C191.572 37.4099 192.256 36.8751 193.095 36.6693C193.798 36.4969 196.092 35.2903 195.641 32.8374C195.577 32.8294 195.497 32.815 195.403 32.7981C194.569 32.6474 192.662 32.3032 191.517 34.6406C191.503 34.6698 191.488 34.6998 191.473 34.7307C191.012 35.6738 190.182 37.3711 189.091 38.1543C189.172 38.0262 189.286 37.8742 189.419 37.6985C189.998 36.9285 190.921 35.7015 190.921 34.0174C190.921 33.4606 190.669 31.0474 187.937 31.0474C185.789 31.0474 185.073 33.4473 186.054 34.1368C186.386 32.7446 190.563 33.6148 187.463 38.6008C179.199 51.8907 170.06 51.1721 167.756 50.0997C172.218 51.2022 176.91 48.7463 177.737 48.1254C178.761 47.3575 184.522 42.8835 184.808 37.0573C184.819 36.83 184.83 36.6225 184.84 36.4282C184.9 35.3244 184.937 34.6446 184.808 33.1648C184.446 29.0169 181.42 25.3378 179.181 23.9558C175.45 21.6525 171.753 21.1647 167.228 23.579C167.09 23.6524 166.945 23.7361 166.791 23.8249C166.065 24.2435 165.142 24.7756 163.872 24.8891C163.721 24.8891 163.334 24.778 163.334 24.1353C163.034 24.1353 162.167 24.8891 162.167 25.8762C162.135 26.4146 162.836 28.053 164.434 28.053C164.922 28.053 165.768 27.8814 167.408 26.4146C167.428 26.3996 167.467 26.3635 167.525 26.3105C168.152 25.7372 170.949 23.1782 175.093 23.7096C172.733 23.6082 166.436 25.8563 167.036 30.5839C167.045 30.5839 167.063 30.5872 167.092 30.5922C167.506 30.6647 169.994 31.0999 172.032 27.0948C172.218 26.7292 174.495 23.695 177.997 25.3378C175.831 24.8391 172.708 25.3377 172.217 28.6759C172.043 29.8641 173.173 31.5997 174.92 31.5295C176.48 31.6074 177.538 29.8076 177.422 29.0169C177.166 27.2599 175.974 27.5567 175.974 27.5567C176.166 27.8862 175.879 28.4606 175.52 28.4606C174.92 28.4606 174.92 27.9645 174.92 27.7468V27.7427C174.92 26.9171 176.596 26.4146 177.279 26.4146C179.666 26.4146 182.824 29.0887 183.266 33.2799C182.806 31.8167 181.083 26.4146 176.631 27.2599C177.615 27.9225 177.655 28.4289 177.685 28.819C177.696 28.9561 177.705 29.0788 177.755 29.1888C184.847 29.7778 184.496 42.4106 176.538 47.2537C177.722 46.4632 180.35 42.105 179.199 38.6008C178.084 35.2082 174.461 31.9712 169.615 32.1936C167.998 32.2678 166.485 32.676 164.518 33.2884C163.375 33.6441 160.911 33.2884 161.884 30.8299C159.812 30.629 158.957 32.9596 158.957 33.8561C158.957 34.4963 159.852 38.4738 165.645 35.7601C171.068 33.2199 173.353 34.4557 174.55 35.1026C174.686 35.1763 174.809 35.2424 174.92 35.2943C168.208 32.9152 161.39 39.2093 162.554 43.5875C165.508 44.0325 167.533 41.1163 167.756 40.7451C170.813 35.6585 174.387 36.4874 175.358 37.0573C171.709 36.2882 168.538 39.5518 168.81 42.2044C169.126 45.2809 171.67 45.9317 172.439 45.9317C175.437 45.9317 176.482 42.6777 175.16 41.8692C174.056 43.6243 172.095 42.0589 172.439 40.7451C173.354 37.2513 177.348 38.2465 177.57 41.4697C177.57 47.2135 172.095 48.9081 168.254 48.5808C159.92 47.8706 156.739 37.7578 157.534 32.6068C159.121 22.3274 167.448 18.6046 175.292 18.2534C185.745 18.2534 194.011 29.3432 200.807 38.459C201.159 38.9316 201.507 39.3988 201.852 39.8589C201.852 39.8582 201.853 39.8575 201.854 39.8568C207.743 46.944 214.977 53.3628 224.851 52.8484C234.527 52.0874 240.034 46.8242 243.035 43.3363C247.608 38.0201 248.493 36.8081 252.729 31.0057L252.996 30.6399C252.809 30.4125 252.646 30.1944 252.488 29.9843C252.097 29.4619 251.743 28.9896 251.158 28.549C250.796 29.0331 250.429 29.5251 250.058 30.0229C243.276 39.1261 235.048 50.1691 224.623 50.1691Z" fill="#DCC67A"/>
<path fill-rule="evenodd" clip-rule="evenodd" d="M372.547 18.2534C364.703 18.6046 356.377 22.3274 354.79 32.6068C353.994 37.7579 357.176 47.8707 365.509 48.5808C369.35 48.9081 374.826 47.2135 374.826 41.4697C374.603 38.2465 370.609 37.2513 369.694 40.7451C369.35 42.059 371.312 43.6243 372.416 41.8692C373.737 42.6777 372.692 45.9317 369.694 45.9317C368.925 45.9317 366.381 45.2809 366.066 42.2044C365.794 39.5518 368.965 36.2882 372.613 37.0573C371.642 36.4874 368.068 35.6585 365.011 40.7451C364.788 41.1163 362.763 44.0325 359.809 43.5875C358.645 39.2093 365.463 32.9152 372.175 35.2943C372.064 35.2424 371.942 35.1763 371.805 35.1026C370.609 34.4557 368.323 33.2199 362.9 35.7601C357.107 38.4738 356.213 34.4963 356.213 33.8561C356.213 32.9596 357.068 30.629 359.139 30.8299C358.166 33.2884 360.631 33.6441 361.773 33.2884C363.741 32.676 365.253 32.2679 366.871 32.1936C371.716 31.9712 375.34 35.2082 376.454 38.6008C377.606 42.105 374.978 46.4632 373.793 47.2537C381.752 42.4106 382.102 29.7778 375.01 29.1889C374.961 29.0788 374.951 28.9561 374.94 28.819C374.91 28.429 374.87 27.9226 373.886 27.2599C378.339 26.4146 380.062 31.8167 380.521 33.2799C380.08 29.0887 376.921 26.4146 374.534 26.4146C373.851 26.4146 372.175 26.9171 372.175 27.7427V27.7469C372.175 27.9645 372.175 28.4606 372.775 28.4606C373.134 28.4606 373.421 27.8863 373.229 27.5567C373.229 27.5567 374.421 27.2599 374.678 29.0169C374.793 29.8076 373.735 31.6074 372.175 31.5296C370.429 31.5997 369.298 29.8641 369.473 28.6759C369.963 25.3377 373.086 24.8391 375.252 25.3378C371.75 23.695 369.473 26.7292 369.287 27.0948C367.25 31.0999 364.761 30.6647 364.347 30.5922C364.319 30.5872 364.3 30.584 364.292 30.584C363.691 25.8563 369.988 23.6082 372.348 23.7096C368.204 23.1782 365.407 25.7372 364.781 26.3105C364.723 26.3635 364.683 26.3996 364.663 26.4146C363.023 27.8814 362.178 28.0531 361.689 28.0531C360.091 28.0531 359.391 26.4146 359.422 25.8762C359.422 24.8891 360.289 24.1353 360.589 24.1353C360.589 24.778 360.976 24.8891 361.127 24.8891C362.397 24.7756 363.32 24.2435 364.047 23.8249C364.201 23.7361 364.346 23.6525 364.484 23.579C369.009 21.1647 372.705 21.6525 376.436 23.9559C378.675 25.3378 381.701 29.0169 382.063 33.1648C382.192 34.6446 382.155 35.3244 382.096 36.4282C382.085 36.6225 382.074 36.83 382.063 37.0573C381.778 42.8835 376.017 47.3575 374.993 48.1254C374.165 48.7463 369.473 51.2022 365.011 50.0997C367.315 51.1722 376.454 51.8908 384.718 38.6008C387.818 33.6148 383.641 32.7446 383.31 34.1368C382.329 33.4473 383.045 31.0474 385.193 31.0474C387.924 31.0474 388.176 33.4606 388.176 34.0175C388.176 35.7015 387.253 36.9286 386.674 37.6985C386.542 37.8743 386.427 38.0262 386.346 38.1543C387.437 37.3711 388.267 35.6738 388.729 34.7307C388.744 34.6998 388.758 34.6698 388.773 34.6406C389.917 32.3032 391.824 32.6474 392.659 32.7981C392.752 32.815 392.832 32.8294 392.896 32.8374C393.347 35.2903 391.053 36.4969 390.35 36.6693C389.511 36.8751 388.827 37.4099 387.924 38.1157C387.644 38.3346 387.343 38.5701 387.009 38.8172C387.109 38.7605 387.216 38.6989 387.329 38.6338C388.541 37.9369 390.454 36.8362 391.565 37.0573C393.932 37.5283 394.391 38.7026 394.391 39.7457C394.391 41.6991 392.021 42.249 390.959 41.187C392.021 39.9733 390.617 39.3854 390.029 39.3854C389.252 39.3854 387.187 39.5021 384.036 42.5525C380.452 46.023 376.257 49.6264 372.416 50.916C372.416 50.916 374.993 50.916 380.411 46.7838C383.838 44.1701 389.217 42.442 391.846 42.442C394.879 42.442 397.74 44.8957 398.056 45.1672L398.063 45.1735C398.162 45.2577 398.282 45.3622 398.421 45.4828C399.898 46.7633 403.471 49.8618 404.831 49.8618C405.823 49.8618 406.089 49.5435 406.702 48.8129C406.719 48.7926 406.736 48.7721 406.754 48.7513C407.971 50.8948 405.827 52.8309 403.794 52.8309C401.364 52.8309 399.444 50.2513 398.056 48.3854C397.721 47.9362 397.418 47.5284 397.145 47.2078C397.038 47.0814 396.923 46.9275 396.794 46.7548C396.032 45.7342 394.784 44.0614 391.716 43.5779C396.038 45.094 397.784 49.0583 397.671 50.489C397.554 51.9662 397.034 52.738 395.785 52.8659C394.132 53.0352 393.458 51.2806 393.516 49.8324C393.54 49.2346 393.645 48.9857 393.73 48.7815C393.821 48.5647 393.891 48.3982 393.821 47.9183C393.539 45.9722 392.232 44.343 390.372 44.2496C393.141 44.9592 393.266 47.4681 393.266 48.1638C393.266 49.7422 391.666 51.3046 389.83 51.3803C388.389 51.4397 385.888 49.8324 386.07 47.7322C386.353 44.4556 390.689 44.8006 389.83 47.2605C389.556 46.8342 389.242 46.8541 389.053 46.8662C389.025 46.868 389 46.8695 388.978 46.8695C388.285 46.8695 388.693 48.0256 389.283 48.0256C390.208 48.0256 390.592 47.4811 390.647 46.7051C390.721 45.6559 389.434 44.9879 387.96 44.9879C386.323 44.9879 379.682 47.9039 379.541 48.7174C379.655 48.6765 380.019 48.4944 380.53 48.2393C382.179 47.4153 385.352 45.8293 386.528 45.7772C386.07 46.3372 385.902 46.9851 385.705 47.8527C383.586 47.9894 382.566 48.4982 381.209 49.1751C380.85 49.3541 380.468 49.5449 380.035 49.7437L379.974 49.7717C378.321 50.5315 373.202 52.8848 368.727 52.5206C354.512 51.3636 351.181 39.2325 352.216 31.838C351.601 33.4911 349.818 38.6008 349.52 42.8535C349.468 43.5889 349.975 43.2739 350.188 43.1422C350.209 43.1289 350.227 43.1175 350.242 43.1092C352.143 41.9209 352.616 43.6581 352.731 44.1616C353.024 45.4347 351.17 46.4589 349.812 45.5762C349.956 45.7698 350.199 45.8967 350.465 46.0351C350.991 46.3095 351.604 46.6291 351.702 47.6019C351.838 48.9606 349.993 50.3745 348.556 48.1904C348.382 47.9261 348.365 48.2653 348.382 48.3132C348.414 48.4042 348.497 48.5535 348.602 48.7419C348.896 49.2699 349.36 50.1049 349.36 50.8241C349.36 52.0184 348.24 52.9021 347.126 52.8175C345.868 52.7219 345.206 51.8582 345.206 50.6982C345.206 49.5758 345.837 48.9496 346.244 48.5469C346.422 48.3699 346.557 48.236 346.576 48.1221C345.352 49.0913 345.083 49.0876 344.741 49.083C344.717 49.0826 344.692 49.0823 344.667 49.0823C343.768 49.0823 343.285 48.3799 343.192 47.4547C343.018 46.2107 344.478 45.8182 345.576 45.5227C345.645 45.5041 345.713 45.4859 345.778 45.4679C343.584 45.7562 343.192 44.1616 343.192 43.6141C343.192 42.481 344.233 41.928 344.913 41.928C346.093 41.928 346.36 42.5911 346.505 42.9498C346.531 43.0148 346.553 43.0699 346.576 43.1092C346.771 43.4446 347.506 43.1092 347.627 42.4013C347.72 41.8554 350.79 31.4972 351.64 30.6534C351.64 30.6534 350.414 29.4543 349.776 28.5676C355.665 21.4796 362.9 15.0597 372.775 15.5741C382.451 16.3351 387.958 21.5982 390.959 25.0862C395.552 30.4257 396.484 31.6044 400.77 37.472C399.719 35.5651 397.046 26.53 396.959 26.0211C396.838 25.3133 396.103 24.9779 395.908 25.3133C395.885 25.3526 395.862 25.4076 395.836 25.4727C395.692 25.8314 395.424 26.4945 394.245 26.4945C393.564 26.4945 392.524 25.9415 392.524 24.8084C392.524 24.2609 392.916 22.6663 395.11 22.9545C395.044 22.9366 394.977 22.9184 394.908 22.8998C393.809 22.6043 392.35 22.2118 392.524 20.9678C392.616 20.0426 393.1 19.3402 393.999 19.3402C394.024 19.3402 394.049 19.3399 394.073 19.3395C394.414 19.3349 394.684 19.3312 395.908 20.3004C395.889 20.1865 395.754 20.0526 395.575 19.8756C395.169 19.4729 394.538 18.8467 394.538 17.7243C394.538 16.5643 395.199 15.7006 396.458 15.605C397.572 15.5203 398.692 16.4041 398.692 17.5984C398.692 18.3176 398.228 19.1526 397.934 19.6806C397.829 19.8689 397.746 20.0182 397.713 20.1093C397.696 20.1571 397.713 20.4963 397.887 20.2321C399.325 18.0479 401.17 19.4619 401.033 20.8206C400.936 21.7934 400.323 22.113 399.797 22.3874C399.531 22.5258 399.288 22.6527 399.143 22.8463C400.501 21.9635 402.356 22.9878 402.063 24.2609C401.948 24.7643 401.475 26.5016 399.573 25.3133C399.559 25.305 399.541 25.2936 399.519 25.2803C399.307 25.1486 398.8 24.8336 398.851 25.569C399.15 29.8217 400.933 34.9314 401.548 36.5844C400.513 29.19 403.843 17.0588 418.059 15.9019C422.534 15.5377 427.653 17.8909 429.306 18.6508L429.367 18.6788C429.799 18.8776 430.182 19.0684 430.541 19.2474C431.898 19.9243 432.918 20.4331 435.036 20.5698C435.234 21.4374 435.401 22.0853 435.86 22.6453C434.684 22.5932 431.51 21.0072 429.862 20.1832C429.351 19.9281 428.987 19.746 428.873 19.7051C429.014 20.5186 435.655 23.4346 437.292 23.4346C438.766 23.4346 440.053 22.7666 439.979 21.7174C439.924 20.9414 439.54 20.3969 438.614 20.3969C438.025 20.3969 437.617 21.5529 438.31 21.5529C438.332 21.5529 438.357 21.5545 438.384 21.5563C438.574 21.5683 438.888 21.5883 439.161 21.162C440.02 23.6219 435.684 23.9669 435.401 20.6903C435.22 18.5901 437.72 16.9827 439.161 17.0422C440.998 17.1179 442.597 18.6803 442.597 20.2587C442.597 20.9544 442.473 23.4633 439.704 24.1729C441.564 24.0795 442.871 22.4503 443.153 20.5042C443.222 20.0243 443.153 19.8578 443.062 19.641C442.976 19.4368 442.872 19.1878 442.848 18.5901C442.79 17.1419 443.463 15.3873 445.117 15.5566C446.366 15.6845 446.886 16.4563 447.003 17.9335C447.115 19.3642 445.37 23.3285 441.047 24.8446C444.116 24.3611 445.364 22.6883 446.126 21.6677C446.255 21.495 446.37 21.3411 446.477 21.2147C446.75 20.8941 447.053 20.4863 447.387 20.0371C448.776 18.1712 450.696 15.5916 453.126 15.5916C455.159 15.5916 457.302 17.5277 456.085 19.6712L456.034 19.6096C455.421 18.8789 455.154 18.5607 454.163 18.5607C452.803 18.5607 449.229 21.6593 447.753 22.9397C447.614 23.0603 447.493 23.1648 447.395 23.249L447.388 23.2553C447.071 23.5268 444.211 25.9805 441.178 25.9805C438.548 25.9805 433.169 24.2524 429.742 21.6387C424.324 17.5065 421.748 17.5065 421.748 17.5065C425.589 18.7961 429.784 22.3995 433.368 25.87C436.519 28.9204 438.583 29.0371 439.361 29.0371C439.949 29.0371 441.352 28.4492 440.29 27.2355C441.352 26.1734 443.723 26.7234 443.723 28.6768C443.723 29.7198 443.264 30.8942 440.897 31.3652C439.786 31.5863 437.873 30.4856 436.661 29.7887C436.548 29.7236 436.441 29.6619 436.341 29.6053C436.674 29.8524 436.975 30.0879 437.256 30.3068C438.159 31.0126 438.843 31.5474 439.682 31.7532C440.385 31.9256 442.679 33.1322 442.228 35.5851C442.164 35.5931 442.084 35.6075 441.991 35.6244C441.156 35.7751 439.249 36.1193 438.104 33.7819C438.09 33.7527 438.075 33.7227 438.06 33.6918C437.599 32.7487 436.769 31.0514 435.678 30.2682C435.759 30.3963 435.873 30.5482 436.006 30.724C436.585 31.4939 437.508 32.721 437.508 34.405C437.508 34.9619 437.256 37.3751 434.524 37.3751C432.376 37.3751 431.66 34.9752 432.642 34.2857C432.973 35.6779 437.15 34.8077 434.05 29.8217C425.786 16.5317 416.647 17.2503 414.343 18.3228C418.805 17.2202 423.497 19.6762 424.324 20.2971C425.348 21.065 431.109 25.539 431.395 31.3652C431.406 31.5925 431.417 31.8 431.428 31.9943C431.487 33.0981 431.524 33.7779 431.395 35.2576C431.033 39.4056 428.007 43.0847 425.768 44.4666C422.037 46.7699 418.341 47.2578 413.815 44.8435C413.677 44.77 413.532 44.6863 413.378 44.5975C412.652 44.179 411.729 43.6468 410.459 43.5334C410.308 43.5334 409.921 43.6445 409.921 44.2872C409.621 44.2872 408.754 43.5334 408.754 42.5463C408.723 42.0079 409.423 40.3694 411.021 40.3694C411.509 40.3694 412.355 40.5411 413.995 42.0079C414.015 42.0229 414.054 42.059 414.112 42.112C414.739 42.6853 417.536 45.2443 421.68 44.7129C419.32 44.8143 413.023 42.5662 413.624 37.8385C413.632 37.8385 413.65 37.8353 413.679 37.8303C414.093 37.7578 416.581 37.3226 418.619 41.3277C418.805 41.6933 421.082 44.7275 424.584 43.0847C422.418 43.5834 419.295 43.0848 418.805 39.7466C418.63 38.5584 419.76 36.8228 421.507 36.8929C423.067 36.8151 424.125 38.6149 424.009 39.4056C423.753 41.1626 422.561 40.8658 422.561 40.8658C422.753 40.5362 422.466 39.9619 422.107 39.9619C421.507 39.9619 421.507 40.458 421.507 40.6756V40.6798C421.507 41.5054 423.183 42.0079 423.866 42.0079C426.253 42.0079 429.411 39.3338 429.853 35.1426C429.393 36.6058 427.671 42.0079 423.218 41.1626C424.202 40.4999 424.242 39.9935 424.272 39.6035C424.283 39.4664 424.293 39.3437 424.342 39.2336C431.434 38.6447 431.084 26.0119 423.125 21.1688C424.31 21.9593 426.937 26.3174 425.786 29.8217C424.672 33.2143 421.048 36.4513 416.202 36.2289C414.585 36.1546 413.072 35.7464 411.105 35.1341C409.962 34.7784 407.498 35.1341 408.471 37.5926C406.399 37.7935 405.544 35.4629 405.544 34.5663C405.544 33.9262 406.439 29.9487 412.232 32.6624C417.655 35.2025 419.941 33.9668 421.137 33.3198C421.274 33.2462 421.396 33.1801 421.507 33.1282C414.795 35.5073 407.977 29.2132 409.141 24.835C412.095 24.39 414.12 27.3062 414.343 27.6774C417.4 32.7639 420.974 31.935 421.945 31.3652C418.296 32.1343 415.125 28.8707 415.397 26.2181C415.713 23.1416 418.257 22.4908 419.026 22.4908C422.024 22.4908 423.069 25.7448 421.748 26.5533C420.643 24.7982 418.682 26.3635 419.026 27.6774C419.941 31.1712 423.935 30.176 424.157 26.9528C424.157 21.209 418.682 19.5144 414.841 19.8417C406.507 20.5518 403.326 30.6646 404.121 35.8157C405.708 46.0951 414.035 49.8179 421.879 50.1691C432.339 50.1691 440.355 39.4163 447.128 30.3313C447.474 29.8664 447.818 29.406 448.158 28.9515C448.409 29.1405 448.645 29.2984 448.87 29.4491C449.381 29.791 449.838 30.0964 450.291 30.6468C445.823 36.7666 444.958 37.9102 440.29 43.3363C437.29 46.8242 431.783 52.0874 422.107 52.8484C412.233 53.3628 404.998 46.944 399.11 39.8568C399.109 39.8575 399.108 39.8582 399.107 39.8589C398.762 39.3988 398.414 38.9316 398.062 38.459C391.267 29.3432 383 18.2534 372.547 18.2534Z" fill="#DCC67A"/>
</g>
<defs>
<clipPath id="clip0_50_2">
<rect width="375" height="812" fill="white"/>
</clipPath>
</defs>
</svg>
