<svg width="51" height="51" viewBox="0 0 51 51" fill="none" xmlns="http://www.w3.org/2000/svg">
<g filter="url(#filter0_d_127_146)">
<rect x="2.55176" y="2.49799" width="42" height="42" fill="white"/>
<rect x="3.55176" y="3.49799" width="40" height="40" stroke="#917108" stroke-width="2"/>
</g>
<path fill-rule="evenodd" clip-rule="evenodd" d="M11.74 5.87915C11.74 5.87915 11.794 5.41234 11.74 5.1214C10.4734 5.1214 9.21649 5.20577 7.63275 5.34663C7.5268 5.34663 7.42757 5.34844 7.33299 5.35017C6.8177 5.35959 6.44039 5.36648 5.86606 5.06396C5.72977 5.0121 5.72977 5.15481 5.72977 5.15481C5.94012 6.37107 6.91611 6.21664 7.06127 6.16105C6.85434 6.54094 7.26507 7.14479 7.72361 7.10323C8.16791 7.06297 8.60864 6.56565 8.24857 6.08864C8.21159 6.03964 8.21801 5.89874 8.30915 5.86149C8.68149 5.70933 8.97536 5.70006 9.35449 5.68811C9.42812 5.68579 9.50496 5.68337 9.58622 5.67978C9.73784 5.67308 9.70365 5.69585 9.57952 5.77855C9.29454 5.96842 8.53549 6.47412 8.4619 7.66417C8.44366 7.95926 8.48622 8.21298 8.57354 8.42937L8.5925 8.6091L8.31162 8.54176L8.31731 8.54907C8.11631 8.463 7.88858 8.41382 7.63353 8.41382C6.48337 8.41382 5.96112 9.20572 5.75821 9.51341C5.67054 9.64634 5.64248 9.68889 5.64914 9.53814C5.65273 9.45688 5.65515 9.38004 5.65747 9.30641C5.66942 8.92728 5.67869 8.63341 5.83085 8.26107C5.8681 8.16993 6.009 8.1635 6.058 8.20049C6.53501 8.56056 7.03233 8.11983 7.07259 7.67553C7.11415 7.21699 6.5103 6.80625 6.13041 7.01319C6.186 6.86803 6.34043 5.89204 5.12417 5.68168C5.12417 5.68168 4.98146 5.68168 5.03332 5.81797C5.33584 6.39231 5.32895 6.76962 5.31953 7.28491V7.28491C5.3178 7.37949 5.31599 7.47872 5.31599 7.58467C5.17513 9.16841 5.09076 10.4253 5.09076 11.6919C5.3817 11.746 5.84851 11.6919 5.84851 11.6919C5.84851 10.7178 6.39925 9.09945 7.66954 9.13433C9.00655 9.17105 8.90342 10.4403 8.68206 10.7178C8.52924 10.9094 8.28477 11.0183 8.24053 10.7178C8.19629 10.4174 8.01067 9.86345 7.38404 9.92775C6.95001 9.95553 6.64511 10.3131 6.63046 10.7477C6.64919 11.3959 7.34196 11.6265 7.57498 11.6265C7.67122 11.6265 7.79465 11.7509 7.57498 11.7823C6.63761 11.916 5.95357 12.6854 6.66477 13.0369C6.94823 13.177 7.02209 13.2796 7.15604 13.4658L7.17814 13.4965C7.70937 14.2633 8.29659 13.3504 8.29659 12.5121C8.29659 12.1192 8.58447 12.4093 8.5508 12.5121C8.48507 12.7127 8.81383 13.5398 9.59221 13.1845C10.4468 12.7944 10.123 11.7968 9.35441 11.6265C9.23439 11.5999 9.16711 11.4808 9.28061 11.3231C9.48303 11.0417 9.53868 10.5561 9.43773 10.0614C9.97169 10.4869 11.1795 11.9358 11.0752 12.8641C11.0743 12.8728 11.0734 12.8818 11.0726 12.8909C11.0638 12.9883 11.0538 13.0983 10.8245 13.0677C10.4328 13.0155 10.0677 13.3188 10.0202 13.7206C9.96507 14.1879 10.4328 14.5353 10.9081 14.5353C11.9631 14.4883 12.0571 13.0677 11.5975 12.112C12.0519 12.441 12.2592 12.9671 12.4279 13.4124C12.4434 13.4534 12.4586 13.4943 12.4737 13.5351L12.4737 13.5351L12.4737 13.5351C12.6417 13.9883 12.7994 14.4139 13.277 14.443C13.4127 14.4513 13.5194 14.4014 13.6229 14.3529C13.7027 14.3156 13.7807 14.2791 13.8689 14.2706C13.9911 14.2589 14.0385 14.2594 14.1833 14.2706L14.1647 14.2516L14.1814 14.2683C14.1728 14.1234 14.1731 14.0759 14.187 13.954C14.1971 13.866 14.235 13.7887 14.2738 13.7096C14.3241 13.6069 14.3759 13.5012 14.3701 13.3653C14.3495 12.8873 13.9269 12.7219 13.4768 12.5458C13.4363 12.53 13.3956 12.514 13.355 12.4978C12.9128 12.321 12.3905 12.1043 12.0697 11.6441C13.017 12.1208 14.4391 12.0524 14.5051 10.9985C14.5136 10.5233 14.1747 10.0493 13.7065 10.0961C13.3039 10.1362 12.9941 10.4959 13.0392 10.8885C13.0657 11.1182 12.9555 11.1262 12.858 11.1333C12.8488 11.134 12.8398 11.1346 12.8311 11.1354C11.9136 11.2218 10.5126 10.0222 10.0757 9.46994C10.6006 9.55324 11.1138 9.4798 11.3711 9.31125C11.5289 9.19775 11.648 9.26503 11.6746 9.38505C11.8449 10.1536 12.8425 10.4775 13.2326 9.62285C13.5879 8.84447 12.7607 8.51571 12.5602 8.58144C12.4574 8.61511 12.1672 8.32723 12.5602 8.32723C13.3985 8.32723 14.3114 7.74001 13.5446 7.20878C13.5341 7.20122 13.5239 7.19386 13.5139 7.18668C13.3277 7.05273 13.2251 6.97887 13.085 6.69541C12.7335 5.98421 11.9641 6.66825 11.8304 7.60562C11.799 7.82529 11.6746 7.70186 11.6746 7.60562C11.6746 7.3726 11.444 6.67983 10.7958 6.6611C10.3611 6.67575 10.0036 6.98065 9.97583 7.41468C9.91154 8.04131 10.4655 8.22693 10.7659 8.27117C11.0664 8.31541 10.9575 8.55987 10.7659 8.7127C10.4884 8.93406 9.21913 9.03719 9.18241 7.70018C9.14753 6.42988 10.7659 5.87915 11.74 5.87915Z" fill="#DCC67A"/>
<path fill-rule="evenodd" clip-rule="evenodd" d="M11.74 41.2445C11.74 41.2445 11.794 41.7113 11.74 42.0023C10.4734 42.0023 9.21649 41.9179 7.63275 41.777C7.5268 41.777 7.42757 41.7752 7.33299 41.7735C6.8177 41.7641 6.44039 41.7572 5.86606 42.0597C5.72977 42.1116 5.72977 41.9688 5.72977 41.9688C5.94012 40.7526 6.91611 40.907 7.06127 40.9626C6.85434 40.5827 7.26507 39.9789 7.72361 40.0204C8.16791 40.0607 8.60864 40.558 8.24857 41.035C8.21159 41.084 8.21801 41.2249 8.30915 41.2622C8.68149 41.4143 8.97536 41.4236 9.35449 41.4355C9.42812 41.4379 9.50496 41.4403 9.58622 41.4439C9.73784 41.4506 9.70365 41.4278 9.57952 41.3451C9.29454 41.1552 8.53549 40.6495 8.4619 39.4595C8.44365 39.1644 8.48623 38.9106 8.57358 38.6942L8.5925 38.5148L8.31162 38.5821L8.31731 38.5748C8.11631 38.6609 7.88858 38.7101 7.63353 38.7101C6.48337 38.7101 5.96112 37.9182 5.75821 37.6105C5.67054 37.4776 5.64248 37.435 5.64914 37.5858C5.65273 37.667 5.65515 37.7439 5.65747 37.8175C5.66942 38.1966 5.67869 38.4905 5.83085 38.8628C5.8681 38.954 6.009 38.9604 6.058 38.9234C6.53501 38.5633 7.03233 39.0041 7.07259 39.4484C7.11415 39.9069 6.5103 40.3176 6.13041 40.1107C6.186 40.2559 6.34043 41.2319 5.12417 41.4422C5.12417 41.4422 4.98146 41.4422 5.03332 41.3059C5.33584 40.7316 5.32895 40.3543 5.31953 39.839C5.3178 39.7444 5.31599 39.6452 5.31599 39.5392C5.17513 37.9555 5.09076 36.6986 5.09076 35.432C5.3817 35.3779 5.84851 35.432 5.84851 35.432C5.84851 36.406 6.39925 38.0244 7.66954 37.9896C9.00655 37.9528 8.90342 36.6835 8.68206 36.406C8.52924 36.2145 8.28477 36.1056 8.24053 36.406C8.19629 36.7065 8.01067 37.2604 7.38404 37.1961C6.95001 37.1684 6.64511 36.8108 6.63046 36.3762C6.64919 35.728 7.34196 35.4974 7.57498 35.4974C7.67122 35.4974 7.79465 35.373 7.57498 35.3416C6.63761 35.2078 5.95357 34.4385 6.66477 34.087C6.94823 33.9469 7.02209 33.8443 7.15604 33.6581L7.17814 33.6274C7.70937 32.8606 8.29659 33.7735 8.29659 34.6118C8.29659 35.0047 8.58447 34.7146 8.5508 34.6118C8.48507 34.4112 8.81383 33.5841 9.59221 33.9394C10.4468 34.3295 10.123 35.3271 9.35441 35.4974C9.23439 35.524 9.16711 35.643 9.28061 35.8008C9.48303 36.0822 9.53868 36.5678 9.43773 37.0625C9.97169 36.637 11.1795 35.1881 11.0752 34.2598C11.0743 34.2511 11.0734 34.2421 11.0726 34.233C11.0638 34.1356 11.0538 34.0256 10.8245 34.0561C10.4328 34.1084 10.0677 33.8051 10.0202 33.4033C9.96507 32.936 10.4328 32.5886 10.9081 32.5886C11.9631 32.6356 12.0571 34.0561 11.5975 35.0119C12.0519 34.6829 12.2592 34.1567 12.4279 33.7114C12.4434 33.6705 12.4586 33.6295 12.4737 33.5888L12.4737 33.5888C12.6417 33.1355 12.7994 32.71 13.277 32.6808C13.4127 32.6726 13.5194 32.7225 13.6229 32.771C13.7027 32.8083 13.7807 32.8448 13.8689 32.8533C13.9911 32.865 14.0385 32.8645 14.1833 32.8533L14.1648 32.8723L14.1814 32.8556C14.1728 33.0005 14.1731 33.0479 14.187 33.1699C14.1971 33.2579 14.235 33.3352 14.2738 33.4143C14.3241 33.517 14.3759 33.6227 14.3701 33.7586C14.3495 34.2366 13.9269 34.402 13.4768 34.5781L13.4766 34.5782L13.4761 34.5784C13.4358 34.5941 13.3954 34.61 13.355 34.6261C12.9128 34.8029 12.3905 35.0196 12.0697 35.4798C13.017 35.0031 14.4391 35.0715 14.5051 36.1254C14.5136 36.6006 14.1747 37.0746 13.7065 37.0278C13.3039 36.9877 12.9941 36.628 13.0392 36.2354C13.0657 36.0057 12.9555 35.9977 12.858 35.9906L12.8579 35.9906L12.8579 35.9906C12.8488 35.9899 12.8398 35.9893 12.8311 35.9885C11.9138 35.9021 10.513 37.1013 10.076 37.6537C10.6008 37.5704 11.1138 37.6439 11.3711 37.8124C11.5289 37.9259 11.648 37.8586 11.6746 37.7386C11.8449 36.97 12.8425 36.6462 13.2326 37.5008C13.5879 38.2792 12.7607 38.6079 12.5602 38.5422C12.4574 38.5085 12.1672 38.7964 12.5602 38.7964C13.3985 38.7964 14.3114 39.3836 13.5446 39.9149C13.5341 39.9224 13.5239 39.9298 13.5139 39.937C13.3277 40.0709 13.2251 40.1448 13.085 40.4283C12.7335 41.1394 11.9641 40.4554 11.8304 39.518C11.799 39.2984 11.6746 39.4218 11.6746 39.518C11.6746 39.7511 11.444 40.4438 10.7958 40.4626C10.3611 40.4479 10.0036 40.143 9.97583 39.709C9.91154 39.0824 10.4655 38.8967 10.7659 38.8525C11.0664 38.8082 10.9575 38.5638 10.7659 38.411C10.4884 38.1896 9.21913 38.0865 9.18241 39.4235C9.14753 40.6938 10.7659 41.2445 11.74 41.2445Z" fill="#DCC67A"/>
<path fill-rule="evenodd" clip-rule="evenodd" d="M35.4014 41.2445C35.4014 41.2445 35.3473 41.7113 35.4014 42.0023C36.668 42.0023 37.9249 41.9179 39.5086 41.777C39.6146 41.777 39.7138 41.7752 39.8084 41.7735C40.3237 41.7641 40.701 41.7572 41.2753 42.0597C41.4116 42.1116 41.4116 41.9688 41.4116 41.9688C41.2012 40.7526 40.2253 40.907 40.0801 40.9626C40.287 40.5827 39.8763 39.9789 39.4178 40.0204C38.9735 40.0607 38.5327 40.558 38.8928 41.035C38.9298 41.084 38.9234 41.2249 38.8322 41.2622C38.4599 41.4143 38.166 41.4236 37.7869 41.4355C37.7132 41.4379 37.6364 41.4403 37.5551 41.4439C37.4035 41.4506 37.4377 41.4278 37.5619 41.3451C37.8468 41.1552 38.6059 40.6495 38.6795 39.4595C38.6977 39.1647 38.6552 38.9112 38.5681 38.695L38.5491 38.5148L38.8298 38.5821L38.8239 38.5747C39.025 38.6608 39.2529 38.7101 39.5081 38.7101C40.6582 38.7101 41.1805 37.9182 41.3834 37.6105C41.4711 37.4776 41.4991 37.435 41.4925 37.5858C41.4889 37.667 41.4865 37.7439 41.4841 37.8175C41.4722 38.1966 41.4629 38.4905 41.3107 38.8628C41.2735 38.954 41.1326 38.9604 41.0836 38.9234C40.6066 38.5633 40.1093 39.0041 40.069 39.4484C40.0275 39.9069 40.6313 40.3176 41.0112 40.1107C40.9556 40.2559 40.8012 41.2319 42.0174 41.4422C42.0174 41.4422 42.1601 41.4422 42.1083 41.3059C41.8058 40.7316 41.8127 40.3543 41.8221 39.839C41.8238 39.7444 41.8256 39.6452 41.8256 39.5392C41.9665 37.9555 42.0508 36.6986 42.0508 35.432C41.7599 35.3779 41.2931 35.432 41.2931 35.432C41.2931 36.406 40.7424 38.0244 39.4721 37.9896C38.135 37.9528 38.2382 36.6835 38.4595 36.406C38.6124 36.2145 38.8568 36.1056 38.9011 36.406C38.9453 36.7065 39.1309 37.2604 39.7576 37.1961C40.1916 37.1684 40.4965 36.8108 40.5111 36.3762C40.4924 35.728 39.7996 35.4974 39.5666 35.4974C39.4704 35.4974 39.347 35.373 39.5666 35.3416C40.504 35.2078 41.188 34.4385 40.4768 34.087C40.1934 33.9469 40.1195 33.8443 39.9856 33.6581L39.9635 33.6274C39.4322 32.8606 38.845 33.7735 38.845 34.6118C38.845 35.0047 38.5571 34.7146 38.5908 34.6118C38.6565 34.4112 38.3278 33.5841 37.5494 33.9394C36.6948 34.3295 37.0186 35.3271 37.7872 35.4974C37.9072 35.524 37.9745 35.643 37.861 35.8008C37.6585 36.0823 37.6029 36.5679 37.7039 37.0627C37.1701 36.6375 35.9618 35.1882 36.0661 34.2598C36.0671 34.2511 36.0679 34.2421 36.0688 34.233C36.0776 34.1356 36.0876 34.0256 36.3168 34.0561C36.7085 34.1084 37.0737 33.8051 37.1211 33.4033C37.1763 32.936 36.7085 32.5886 36.2333 32.5886C35.1783 32.6356 35.0843 34.0561 35.5439 35.0119C35.0895 34.6829 34.8822 34.1567 34.7134 33.7114C34.6979 33.6705 34.6827 33.6295 34.6676 33.5888L34.6676 33.5888C34.4996 33.1355 34.3419 32.71 33.8644 32.6808C33.7286 32.6726 33.622 32.7225 33.5184 32.771C33.4386 32.8083 33.3607 32.8448 33.2725 32.8533C33.1503 32.865 33.1029 32.8645 32.9581 32.8533L32.9655 32.8608L32.9602 32.8556C32.9688 33.0005 32.9685 33.0479 32.9546 33.1699C32.9445 33.2579 32.9066 33.3352 32.8679 33.4143C32.8175 33.517 32.7657 33.6227 32.7715 33.7586C32.7921 34.2366 33.2147 34.402 33.6648 34.5781L33.665 34.5782L33.6655 34.5784C33.7058 34.5941 33.7462 34.61 33.7866 34.6261C34.2288 34.8029 34.7511 35.0196 35.0719 35.4798C34.1246 35.0031 32.7026 35.0715 32.6365 36.1254C32.628 36.6006 32.9669 37.0746 33.4351 37.0278C33.8377 36.9877 34.1475 36.628 34.1024 36.2354C34.0759 36.0057 34.1861 35.9977 34.2836 35.9906C34.2928 35.9899 34.3018 35.9893 34.3105 35.9885C35.2278 35.9021 36.6286 37.1013 37.0657 37.6537C36.5408 37.5704 36.0276 37.6439 35.7702 37.8124C35.6124 37.9259 35.4934 37.8586 35.4668 37.7386C35.2965 36.97 34.2989 36.6462 33.9088 37.5008C33.5535 38.2792 34.3806 38.6079 34.5812 38.5422C34.684 38.5085 34.9741 38.7964 34.5812 38.7964C33.7429 38.7964 32.83 39.3836 33.5968 39.9149C33.6073 39.9224 33.6175 39.9298 33.6275 39.937C33.8137 40.0709 33.9163 40.1448 34.0564 40.4283C34.4079 41.1394 35.1772 40.4554 35.311 39.518C35.3424 39.2984 35.4668 39.4218 35.4668 39.518C35.4668 39.7511 35.6974 40.4438 36.3456 40.4626C36.7802 40.4479 37.1378 40.143 37.1655 39.709C37.2298 39.0824 36.6759 38.8967 36.3754 38.8525C36.075 38.8082 36.1839 38.5638 36.3754 38.411C36.6529 38.1896 37.9222 38.0865 37.959 39.4235C37.9938 40.6938 36.3754 41.2445 35.4014 41.2445Z" fill="#DCC67A"/>
<path fill-rule="evenodd" clip-rule="evenodd" d="M35.4023 5.87939C35.4023 5.87939 35.3483 5.41258 35.4023 5.12164C36.6689 5.12164 37.9258 5.20602 39.5096 5.34687C39.6155 5.34687 39.7148 5.34869 39.8093 5.35042C40.3246 5.35983 40.7019 5.36672 41.2763 5.0642C41.4126 5.01235 41.4126 5.15506 41.4126 5.15506C41.2022 6.37132 40.2262 6.21689 40.0811 6.16129C40.288 6.54119 39.8773 7.14503 39.4187 7.10347C38.9744 7.06321 38.5337 6.56589 38.8937 6.08889C38.9307 6.03988 38.9243 5.89898 38.8332 5.86174C38.4608 5.70957 38.167 5.70031 37.7878 5.68835C37.7142 5.68603 37.6374 5.68361 37.5561 5.68002C37.4045 5.67332 37.4387 5.69609 37.5628 5.7788C37.8478 5.96866 38.6068 6.47436 38.6804 7.66441C38.6987 7.95954 38.6561 8.21328 38.5687 8.4297L38.5498 8.60924L38.8302 8.54201L38.8244 8.54947C39.0255 8.4633 39.2534 8.41406 39.5086 8.41406C40.6587 8.41406 41.181 9.20596 41.3839 9.51365C41.4716 9.64658 41.4996 9.68913 41.493 9.53838C41.4894 9.45712 41.4869 9.38028 41.4846 9.30665C41.4727 8.92752 41.4634 8.63365 41.3112 8.26131C41.274 8.17017 41.1331 8.16375 41.0841 8.20074C40.6071 8.5608 40.1098 8.12007 40.0695 7.67577C40.0279 7.21724 40.6318 6.8065 41.0117 7.01343C40.9561 6.86827 40.8017 5.89228 42.0179 5.68193C42.0179 5.68193 42.1606 5.68193 42.1088 5.81822C41.8063 6.39255 41.8131 6.76986 41.8226 7.28515V7.28516C41.8243 7.37974 41.8261 7.47897 41.8261 7.58492C41.967 9.16865 42.0513 10.4255 42.0513 11.6921C41.7604 11.7462 41.2936 11.6921 41.2936 11.6921C41.2936 10.7181 40.7428 9.09969 39.4726 9.13458C38.1355 9.17129 38.2387 10.4406 38.46 10.7181C38.6129 10.9097 38.8573 11.0186 38.9016 10.7181C38.9458 10.4176 39.1314 9.8637 39.7581 9.92799C40.1921 9.95577 40.497 10.3133 40.5116 10.748C40.4929 11.3962 39.8001 11.6267 39.5671 11.6267C39.4709 11.6267 39.3474 11.7512 39.5671 11.7825C40.5045 11.9163 41.1885 12.6856 40.4773 13.0371C40.1939 13.1772 40.12 13.2799 39.986 13.466L39.9639 13.4967C39.4327 14.2636 38.8455 13.3506 38.8455 12.5123C38.8455 12.1194 38.5576 12.4096 38.5913 12.5123C38.657 12.7129 38.3283 13.54 37.5499 13.1847C36.6952 12.7947 37.0191 11.797 37.7877 11.6267C37.9077 11.6001 37.975 11.4811 37.8615 11.3233C37.659 11.0419 37.6034 10.5562 37.7044 10.0614C37.1706 10.4866 35.9623 11.9359 36.0666 12.8643C36.0676 12.8731 36.0684 12.8821 36.0692 12.8912C36.0781 12.9885 36.0881 13.0986 36.3173 13.068C36.709 13.0158 37.0742 13.3191 37.1216 13.7208C37.1768 14.1882 36.709 14.5356 36.2337 14.5356C35.1787 14.4886 35.0847 13.068 35.5443 12.1122C35.09 12.4413 34.8827 12.9674 34.7139 13.4127C34.6984 13.4536 34.6832 13.4946 34.6681 13.5353L34.6681 13.5354C34.5001 13.9886 34.3424 14.4141 33.8649 14.4433C33.7291 14.4516 33.6225 14.4017 33.5189 14.3532C33.4391 14.3158 33.3611 14.2793 33.273 14.2709C33.1508 14.2592 33.1033 14.2597 32.9586 14.2709L32.9659 14.2633L32.961 14.2683C32.9696 14.1234 32.9692 14.076 32.9553 13.954C32.9453 13.866 32.9074 13.7887 32.8686 13.7096C32.8182 13.6069 32.7664 13.5012 32.7722 13.3653C32.7928 12.8873 33.2154 12.7219 33.6655 12.5458L33.6657 12.5457L33.6663 12.5455C33.7065 12.5298 33.747 12.5139 33.7874 12.4978C34.2295 12.321 34.7519 12.1043 35.0726 11.6441C34.1253 12.1208 32.7033 12.0524 32.6373 10.9985C32.6287 10.5233 32.9676 10.0493 33.4359 10.0961C33.8384 10.1362 34.1483 10.4959 34.1031 10.8885C34.0767 11.1182 34.1869 11.1262 34.2844 11.1333C34.2935 11.134 34.3025 11.1346 34.3113 11.1354C35.2285 11.2218 36.6293 10.0226 37.0664 9.47022C36.5415 9.55346 36.0285 9.48002 35.7712 9.31149C35.6134 9.198 35.4944 9.26527 35.4678 9.38529C35.2975 10.1539 34.2998 10.4777 33.9097 9.6231C33.5545 8.84472 34.3816 8.51595 34.5822 8.58168C34.6849 8.61535 34.9751 8.32748 34.5822 8.32748C33.7438 8.32748 32.8309 7.74026 33.5978 7.20903C33.6082 7.20146 33.6185 7.19411 33.6284 7.18693C33.8146 7.05297 33.9173 6.97911 34.0574 6.69565C34.4088 5.98446 35.1782 6.66849 35.312 7.60586C35.3433 7.82553 35.4678 7.7021 35.4678 7.60586C35.4678 7.37284 35.6983 6.68008 36.3465 6.66134C36.7812 6.676 37.1387 6.9809 37.1665 7.41492C37.2308 8.04155 36.6769 8.22717 36.3764 8.27142C36.0759 8.31566 36.1848 8.56012 36.3764 8.71294C36.6539 8.9343 37.9232 9.03744 37.9599 7.70042C37.9948 6.43013 36.3764 5.87939 35.4023 5.87939Z" fill="#DCC67A"/>
<path d="M35.3816 5.12299H11.7334V5.8808H35.3816V5.12299Z" fill="#DCC67A"/>
<path d="M35.4176 41.2465H11.708V42.0043H35.4176V41.2465Z" fill="#DCC67A"/>
<path d="M41.293 11.6062V35.457H42.0508V11.6062H41.293Z" fill="#DCC67A"/>
<path d="M5.08838 11.6062L5.08838 35.457H5.84619L5.84619 11.6062H5.08838Z" fill="#DCC67A"/>
<line x1="28.9288" y1="18.1803" x2="18.2339" y2="28.8752" stroke="#917108" stroke-width="2"/>
<line x1="18.21" y1="18.1447" x2="28.905" y2="28.8397" stroke="#917108" stroke-width="2"/>
<defs>
<filter id="filter0_d_127_146" x="0.551758" y="0.497986" width="50" height="50" filterUnits="userSpaceOnUse" color-interpolation-filters="sRGB">
<feFlood flood-opacity="0" result="BackgroundImageFix"/>
<feColorMatrix in="SourceAlpha" type="matrix" values="0 0 0 0 0 0 0 0 0 0 0 0 0 0 0 0 0 0 127 0" result="hardAlpha"/>
<feOffset dx="2" dy="2"/>
<feGaussianBlur stdDeviation="2"/>
<feComposite in2="hardAlpha" operator="out"/>
<feColorMatrix type="matrix" values="0 0 0 0 0 0 0 0 0 0 0 0 0 0 0 0 0 0 0.25 0"/>
<feBlend mode="normal" in2="BackgroundImageFix" result="effect1_dropShadow_127_146"/>
<feBlend mode="normal" in="SourceGraphic" in2="effect1_dropShadow_127_146" result="shape"/>
</filter>
</defs>
</svg>
