<svg width="51" height="51" viewBox="0 0 51 51" fill="none" xmlns="http://www.w3.org/2000/svg">
<g filter="url(#filter0_d_81_116)">
<rect x="2.5" y="2.45776" width="42" height="42" fill="white"/>
<rect x="3.5" y="3.45776" width="40" height="40" stroke="#917108" stroke-width="2"/>
</g>
<path fill-rule="evenodd" clip-rule="evenodd" d="M11.6882 5.83899C11.6882 5.83899 11.7423 5.37218 11.6882 5.08124C10.4216 5.08124 9.16473 5.16561 7.581 5.30647C7.47505 5.30647 7.37582 5.30828 7.28124 5.31001C6.76595 5.31942 6.38863 5.32632 5.8143 5.0238C5.67801 4.97194 5.67801 5.11465 5.67801 5.11465C5.88836 6.33091 6.86435 6.17648 7.00951 6.12089C6.80258 6.50078 7.21332 7.10462 7.67186 7.06307C8.11615 7.0228 8.55688 6.52549 8.19682 6.04848C8.15983 5.99948 8.16625 5.85858 8.25739 5.82133C8.62973 5.66917 8.9236 5.6599 9.30273 5.64795C9.37636 5.64563 9.4532 5.64321 9.53446 5.63961C9.68608 5.63292 9.6519 5.65569 9.52776 5.73839C9.24278 5.92825 8.48373 6.43396 8.41014 7.624C8.3919 7.9191 8.43446 8.17281 8.52179 8.38921L8.54075 8.56894L8.25986 8.5016L8.26556 8.50891C8.06455 8.42284 7.83683 8.37366 7.58177 8.37366C6.43161 8.37366 5.90936 9.16556 5.70645 9.47324C5.61878 9.60618 5.59072 9.64873 5.59738 9.49798C5.60097 9.41672 5.60339 9.33987 5.60571 9.26625C5.61767 8.88712 5.62693 8.59325 5.7791 8.2209C5.81634 8.12977 5.95724 8.12334 6.00624 8.16033C6.48325 8.5204 6.98057 8.07967 7.02083 7.63537C7.06239 7.17683 6.45854 6.76609 6.07865 6.97303C6.13425 6.82786 6.28867 5.85188 5.07242 5.64152C5.07242 5.64152 4.92971 5.64152 4.98156 5.77781C5.28408 6.35215 5.27719 6.72946 5.26777 7.24475V7.24475C5.26605 7.33933 5.26423 7.43856 5.26423 7.54451C5.12338 9.12825 5.039 10.3851 5.039 11.6517C5.32994 11.7058 5.79675 11.6517 5.79675 11.6517C5.79675 10.6777 6.34749 9.05929 7.61778 9.09417C8.9548 9.13089 8.85166 10.4002 8.6303 10.6777C8.47748 10.8693 8.23302 10.9782 8.18877 10.6777C8.14453 10.3772 7.95891 9.82329 7.33228 9.88759C6.89826 9.91537 6.59335 10.2729 6.5787 10.7076C6.59744 11.3558 7.2902 11.5863 7.52322 11.5863C7.61946 11.5863 7.74289 11.7108 7.52322 11.7421C6.58585 11.8759 5.90182 12.6452 6.61301 12.9967C6.89647 13.1368 6.97033 13.2395 7.10429 13.4256L7.12639 13.4563C7.65762 14.2232 8.24483 13.3102 8.24483 12.4719C8.24483 12.079 8.53271 12.3692 8.49904 12.4719C8.43331 12.6725 8.76208 13.4996 9.54045 13.1443C10.3951 12.7542 10.0712 11.7566 9.30265 11.5863C9.18263 11.5597 9.11536 11.4407 9.22885 11.2829C9.43127 11.0015 9.48692 10.5159 9.38597 10.0212C9.91993 10.4467 11.1278 11.8957 11.0235 12.8239C11.0225 12.8327 11.0217 12.8416 11.0209 12.8508C11.012 12.9481 11.002 13.0581 10.7728 13.0276C10.3811 12.9754 10.0159 13.2787 9.96849 13.6804C9.91331 14.1478 10.3811 14.4952 10.8564 14.4952C11.9113 14.4482 12.0054 13.0276 11.5458 12.0718C12.0001 12.4009 12.2074 12.927 12.3762 13.3723C12.3917 13.4132 12.4069 13.4542 12.422 13.4949L12.422 13.4949L12.422 13.495C12.59 13.9482 12.7477 14.3737 13.2252 14.4029C13.361 14.4112 13.4676 14.3613 13.5712 14.3128C13.651 14.2754 13.729 14.2389 13.8171 14.2305C13.9393 14.2188 13.9867 14.2193 14.1315 14.2305L14.113 14.2114L14.1296 14.2282C14.121 14.0832 14.1214 14.0358 14.1353 13.9138C14.1453 13.8258 14.1832 13.7485 14.222 13.6694C14.2724 13.5667 14.3242 13.461 14.3183 13.3251C14.2978 12.8471 13.8752 12.6818 13.425 12.5056C13.3846 12.4898 13.3439 12.4739 13.3032 12.4576C12.861 12.2809 12.3387 12.0641 12.0179 11.6039C12.9652 12.0807 14.3873 12.0123 14.4533 10.9583C14.4619 10.4831 14.123 10.0091 13.6547 10.0559C13.2522 10.0961 12.9423 10.4557 12.9875 10.8483C13.0139 11.0781 12.9037 11.0861 12.8062 11.0931C12.7971 11.0938 12.7881 11.0944 12.7793 11.0953C11.8619 11.1816 10.4608 9.98209 10.024 9.42978C10.5489 9.51308 11.062 9.43964 11.3194 9.27109C11.4772 9.15759 11.5962 9.22486 11.6228 9.34489C11.7931 10.1135 12.7907 10.4373 13.1808 9.58269C13.5361 8.80431 12.709 8.47555 12.5084 8.54128C12.4056 8.57495 12.1155 8.28707 12.5084 8.28707C13.3467 8.28707 14.2597 7.69985 13.4928 7.16862C13.4823 7.16105 13.4721 7.1537 13.4621 7.14652C13.276 7.01256 13.1733 6.9387 13.0332 6.65525C12.6817 5.94405 11.9124 6.62809 11.7786 7.56546C11.7472 7.78513 11.6228 7.6617 11.6228 7.56546C11.6228 7.33243 11.3923 6.63967 10.7441 6.62094C10.3094 6.63559 9.95185 6.94049 9.92407 7.37452C9.85978 8.00114 10.4137 8.18677 10.7142 8.23101C11.0146 8.27525 10.9058 8.51971 10.7142 8.67254C10.4367 8.8939 9.16737 8.99703 9.13066 7.66001C9.09577 6.38972 10.7142 5.83899 11.6882 5.83899Z" fill="#DCC67A"/>
<path fill-rule="evenodd" clip-rule="evenodd" d="M11.6882 41.2042C11.6882 41.2042 11.7423 41.671 11.6882 41.962C10.4216 41.962 9.16473 41.8776 7.581 41.7367C7.47505 41.7367 7.37582 41.7349 7.28124 41.7332C6.76595 41.7238 6.38863 41.7169 5.8143 42.0194C5.67801 42.0713 5.67801 41.9286 5.67801 41.9286C5.88836 40.7123 6.86435 40.8667 7.00951 40.9223C6.80258 40.5424 7.21332 39.9386 7.67186 39.9801C8.11615 40.0204 8.55688 40.5177 8.19682 40.9947C8.15983 41.0437 8.16625 41.1846 8.25739 41.2219C8.62973 41.374 8.9236 41.3833 9.30273 41.3953C9.37636 41.3976 9.4532 41.4 9.53446 41.4036C9.68608 41.4103 9.6519 41.3875 9.52776 41.3048C9.24278 41.115 8.48373 40.6093 8.41014 39.4192C8.3919 39.1241 8.43447 38.8703 8.52182 38.6539L8.54075 38.4745L8.25986 38.5418L8.26556 38.5345C8.06455 38.6206 7.83683 38.6698 7.58177 38.6698C6.43161 38.6698 5.90936 37.8779 5.70645 37.5702C5.61878 37.4373 5.59072 37.3947 5.59738 37.5455C5.60097 37.6267 5.60339 37.7036 5.60571 37.7772C5.61767 38.1563 5.62693 38.4502 5.7791 38.8225C5.81634 38.9137 5.95724 38.9201 6.00624 38.8831C6.48325 38.5231 6.98057 38.9638 7.02083 39.4081C7.06239 39.8666 6.45854 40.2774 6.07865 40.0704C6.13425 40.2156 6.28867 41.1916 5.07242 41.4019C5.07242 41.4019 4.92971 41.4019 4.98156 41.2656C5.28408 40.6913 5.27719 40.314 5.26777 39.7987C5.26605 39.7041 5.26423 39.6049 5.26423 39.4989C5.12338 37.9152 5.039 36.6583 5.039 35.3917C5.32994 35.3376 5.79675 35.3917 5.79675 35.3917C5.79675 36.3658 6.34749 37.9842 7.61778 37.9493C8.9548 37.9126 8.85166 36.6433 8.6303 36.3658C8.47748 36.1742 8.23302 36.0653 8.18877 36.3658C8.14453 36.6662 7.95891 37.2202 7.33228 37.1559C6.89826 37.1281 6.59335 36.7705 6.5787 36.3359C6.59744 35.6877 7.2902 35.4571 7.52322 35.4571C7.61946 35.4571 7.74289 35.3327 7.52322 35.3013C6.58585 35.1676 5.90182 34.3982 6.61301 34.0467C6.89647 33.9066 6.97033 33.804 7.10428 33.6178L7.12639 33.5871C7.65762 32.8203 8.24483 33.7332 8.24483 34.5715C8.24483 34.9645 8.53271 34.6743 8.49904 34.5715C8.43331 34.3709 8.76208 33.5438 9.54045 33.8991C10.3951 34.2892 10.0712 35.2868 9.30265 35.4571C9.18263 35.4837 9.11536 35.6028 9.22885 35.7605C9.43127 36.042 9.48692 36.5275 9.38597 37.0222C9.91993 36.5967 11.1278 35.1478 11.0235 34.2196C11.0225 34.2108 11.0217 34.2018 11.0209 34.1927C11.012 34.0953 11.002 33.9853 10.7728 34.0159C10.3811 34.0681 10.0159 33.7648 9.96849 33.363C9.91331 32.8957 10.3811 32.5483 10.8564 32.5483C11.9113 32.5953 12.0054 34.0159 11.5458 34.9716C12.0001 34.6426 12.2074 34.1165 12.3762 33.6712C12.3917 33.6302 12.4069 33.5893 12.422 33.5485L12.422 33.5485C12.59 33.0953 12.7477 32.6698 13.2252 32.6406C13.361 32.6323 13.4676 32.6822 13.5712 32.7307C13.651 32.768 13.729 32.8045 13.8171 32.813C13.9393 32.8247 13.9867 32.8242 14.1315 32.813L14.113 32.832L14.1296 32.8153C14.121 32.9602 14.1214 33.0077 14.1353 33.1297C14.1453 33.2176 14.1832 33.2949 14.222 33.374C14.2724 33.4767 14.3242 33.5824 14.3183 33.7183C14.2978 34.1963 13.8752 34.3617 13.425 34.5378L13.4248 34.5379L13.4243 34.5381C13.3841 34.5538 13.3436 34.5697 13.3032 34.5858C12.861 34.7626 12.3387 34.9793 12.0179 35.4396C12.9652 34.9628 14.3873 35.0312 14.4533 36.0851C14.4619 36.5603 14.123 37.0343 13.6547 36.9876C13.2522 36.9474 12.9423 36.5877 12.9875 36.1952C13.0139 35.9654 12.9037 35.9574 12.8062 35.9503L12.8062 35.9503L12.8062 35.9503C12.7971 35.9497 12.7881 35.949 12.7793 35.9482C11.862 35.8618 10.4613 37.061 10.0242 37.6134C10.549 37.5302 11.0621 37.6036 11.3194 37.7721C11.4772 37.8856 11.5962 37.8183 11.6228 37.6983C11.7931 36.9298 12.7907 36.6059 13.1808 37.4605C13.5361 38.2389 12.709 38.5677 12.5084 38.5019C12.4056 38.4683 12.1155 38.7561 12.5084 38.7561C13.3467 38.7561 14.2597 39.3434 13.4928 39.8746C13.4823 39.8822 13.4721 39.8895 13.4621 39.8967C13.276 40.0306 13.1733 40.1045 13.0332 40.388C12.6817 41.0992 11.9124 40.4151 11.7786 39.4778C11.7472 39.2581 11.6228 39.3815 11.6228 39.4778C11.6228 39.7108 11.3923 40.4035 10.7441 40.4223C10.3094 40.4076 9.95185 40.1027 9.92407 39.6687C9.85978 39.0421 10.4137 38.8564 10.7142 38.8122C11.0146 38.768 10.9058 38.5235 10.7142 38.3707C10.4367 38.1493 9.16737 38.0462 9.13066 39.3832C9.09577 40.6535 10.7142 41.2042 11.6882 41.2042Z" fill="#DCC67A"/>
<path fill-rule="evenodd" clip-rule="evenodd" d="M35.3499 41.2042C35.3499 41.2042 35.2958 41.671 35.3499 41.962C36.6165 41.962 37.8734 41.8776 39.4571 41.7367C39.563 41.7367 39.6623 41.7349 39.7569 41.7332C40.2721 41.7238 40.6495 41.7169 41.2238 42.0194C41.3601 42.0713 41.3601 41.9286 41.3601 41.9286C41.1497 40.7123 40.1737 40.8667 40.0286 40.9223C40.2355 40.5424 39.8248 39.9386 39.3662 39.9801C38.9219 40.0204 38.4812 40.5177 38.8413 40.9947C38.8783 41.0437 38.8718 41.1846 38.7807 41.2219C38.4084 41.374 38.1145 41.3833 37.7354 41.3953C37.6617 41.3976 37.5849 41.4 37.5036 41.4036C37.352 41.4103 37.3862 41.3875 37.5103 41.3048C37.7953 41.115 38.5544 40.6093 38.628 39.4192C38.6462 39.1244 38.6037 38.871 38.5166 38.6547L38.4976 38.4746L38.7782 38.5418L38.7724 38.5344C38.9735 38.6206 39.2014 38.6698 39.4566 38.6698C40.6067 38.6698 41.129 37.8779 41.3319 37.5702C41.4196 37.4373 41.4476 37.3947 41.441 37.5455C41.4374 37.6267 41.4349 37.7036 41.4326 37.7772C41.4207 38.1563 41.4114 38.4502 41.2592 38.8225C41.222 38.9137 41.0811 38.9201 41.0321 38.8831C40.5551 38.5231 40.0578 38.9638 40.0175 39.4081C39.9759 39.8666 40.5798 40.2774 40.9597 40.0704C40.9041 40.2156 40.7497 41.1916 41.9659 41.4019C41.9659 41.4019 42.1086 41.4019 42.0568 41.2656C41.7542 40.6913 41.7611 40.314 41.7706 39.7987C41.7723 39.7041 41.7741 39.6049 41.7741 39.4989C41.915 37.9152 41.9993 36.6583 41.9993 35.3917C41.7084 35.3376 41.2416 35.3917 41.2416 35.3917C41.2416 36.3658 40.6908 37.9842 39.4206 37.9493C38.0835 37.9126 38.1867 36.6433 38.408 36.3658C38.5609 36.1742 38.8053 36.0653 38.8496 36.3658C38.8938 36.6662 39.0794 37.2202 39.706 37.1559C40.1401 37.1281 40.445 36.7705 40.4596 36.3359C40.4409 35.6877 39.7481 35.4571 39.5151 35.4571C39.4189 35.4571 39.2954 35.3327 39.5151 35.3013C40.4525 35.1676 41.1365 34.3982 40.4253 34.0467C40.1419 33.9066 40.068 33.804 39.934 33.6178L39.9119 33.5871C39.3807 32.8203 38.7935 33.7332 38.7935 34.5715C38.7935 34.9645 38.5056 34.6743 38.5393 34.5715C38.605 34.3709 38.2763 33.5438 37.4979 33.8991C36.6432 34.2892 36.9671 35.2868 37.7357 35.4571C37.8557 35.4837 37.923 35.6028 37.8095 35.7605C37.607 36.042 37.5514 36.5277 37.6524 37.0225C37.1186 36.5972 35.9103 35.148 36.0146 34.2196C36.0156 34.2108 36.0164 34.2018 36.0172 34.1927C36.0261 34.0953 36.036 33.9853 36.2653 34.0159C36.657 34.0681 37.0222 33.7648 37.0696 33.363C37.1248 32.8957 36.657 32.5483 36.1817 32.5483C35.1267 32.5953 35.0327 34.0159 35.4923 34.9716C35.038 34.6426 34.8307 34.1165 34.6619 33.6712C34.6464 33.6302 34.6312 33.5893 34.6161 33.5485L34.6161 33.5485C34.4481 33.0953 34.2904 32.6698 33.8129 32.6406C33.6771 32.6323 33.5705 32.6822 33.4669 32.7307C33.3871 32.768 33.3091 32.8045 33.221 32.813C33.0988 32.8247 33.0513 32.8242 32.9066 32.813L32.914 32.8206L32.9087 32.8153C32.9173 32.9602 32.917 33.0077 32.9031 33.1297C32.893 33.2176 32.8551 33.2949 32.8163 33.374C32.766 33.4767 32.7142 33.5824 32.72 33.7183C32.7406 34.1963 33.1632 34.3617 33.6133 34.5378L33.6135 34.5379L33.614 34.5381C33.6543 34.5538 33.6947 34.5697 33.7351 34.5858C34.1773 34.7626 34.6996 34.9793 35.0204 35.4396C34.0731 34.9628 32.651 35.0312 32.585 36.0851C32.5764 36.5603 32.9154 37.0343 33.3836 36.9876C33.7862 36.9474 34.096 36.5877 34.0509 36.1952C34.0244 35.9654 34.1346 35.9574 34.2321 35.9503C34.2413 35.9497 34.2503 35.949 34.259 35.9482C35.1763 35.8618 36.5771 37.061 37.0142 37.6134C36.4892 37.5301 35.9761 37.6036 35.7187 37.7721C35.5609 37.8856 35.4419 37.8183 35.4153 37.6983C35.245 36.9298 34.2474 36.6059 33.8573 37.4605C33.502 38.2389 34.3291 38.5677 34.5297 38.5019C34.6324 38.4683 34.9226 38.7561 34.5297 38.7561C33.6914 38.7561 32.7784 39.3434 33.5453 39.8746C33.5558 39.8822 33.566 39.8895 33.576 39.8967C33.7621 40.0306 33.8648 40.1045 34.0049 40.388C34.3564 41.0992 35.1257 40.4151 35.2595 39.4778C35.2908 39.2581 35.4153 39.3815 35.4153 39.4778C35.4153 39.7108 35.6458 40.4035 36.294 40.4223C36.7287 40.4076 37.0862 40.1027 37.114 39.6687C37.1783 39.0421 36.6244 38.8564 36.3239 38.8122C36.0235 38.768 36.1323 38.5235 36.3239 38.3707C36.6014 38.1493 37.8707 38.0462 37.9074 39.3832C37.9423 40.6535 36.3239 41.2042 35.3499 41.2042Z" fill="#DCC67A"/>
<path fill-rule="evenodd" clip-rule="evenodd" d="M35.3506 5.83923C35.3506 5.83923 35.2965 5.37242 35.3506 5.08148C36.6172 5.08148 37.8741 5.16586 39.4578 5.30671C39.5638 5.30671 39.663 5.30853 39.7576 5.31025C40.2729 5.31967 40.6502 5.32656 41.2245 5.02404C41.3608 4.97219 41.3608 5.1149 41.3608 5.1149C41.1504 6.33115 40.1745 6.17673 40.0293 6.12113C40.2362 6.50103 39.8255 7.10487 39.367 7.06331C38.9227 7.02305 38.4819 6.52573 38.842 6.04872C38.879 5.99972 38.8726 5.85882 38.7814 5.82158C38.4091 5.66941 38.1152 5.66015 37.7361 5.64819C37.6624 5.64587 37.5856 5.64345 37.5043 5.63986C37.3527 5.63316 37.3869 5.65593 37.5111 5.73864C37.796 5.9285 38.5551 6.4342 38.6287 7.62425C38.6469 7.91938 38.6043 8.17312 38.517 8.38954L38.498 8.56907L38.7785 8.50185L38.7727 8.50931C38.9738 8.42314 39.2016 8.3739 39.4568 8.3739C40.607 8.3739 41.1292 9.1658 41.3321 9.47349C41.4198 9.60642 41.4479 9.64897 41.4412 9.49822C41.4376 9.41696 41.4352 9.34012 41.4329 9.26649C41.4209 8.88736 41.4116 8.59349 41.2595 8.22115C41.2222 8.13001 41.0813 8.12359 41.0323 8.16058C40.5553 8.52064 40.058 8.07991 40.0177 7.63561C39.9762 7.17707 40.58 6.76634 40.9599 6.97327C40.9043 6.82811 40.7499 5.85212 41.9662 5.64177C41.9662 5.64177 42.1089 5.64177 42.057 5.77806C41.7545 6.35239 41.7614 6.7297 41.7708 7.24499V7.245C41.7725 7.33958 41.7743 7.43881 41.7743 7.54476C41.9152 9.12849 41.9996 10.3854 41.9996 11.652C41.7086 11.706 41.2418 11.652 41.2418 11.652C41.2418 10.6779 40.6911 9.05953 39.4208 9.09441C38.0838 9.13113 38.1869 10.4004 38.4083 10.6779C38.5611 10.8695 38.8056 10.9784 38.8498 10.6779C38.894 10.3775 39.0797 9.82354 39.7063 9.88783C40.1403 9.91561 40.4452 10.2731 40.4599 10.7078C40.4411 11.356 39.7484 11.5866 39.5154 11.5866C39.4191 11.5866 39.2957 11.711 39.5154 11.7424C40.4527 11.8761 41.1368 12.6455 40.4256 12.997C40.1421 13.1371 40.0682 13.2397 39.9343 13.4259L39.9122 13.4566C39.381 14.2234 38.7937 13.3105 38.7937 12.4722C38.7937 12.0792 38.5059 12.3694 38.5395 12.4722C38.6053 12.6727 38.2765 13.4999 37.4981 13.1446C36.6435 12.7545 36.9673 11.7569 37.7359 11.5866C37.8559 11.56 37.9232 11.4409 37.8097 11.2831C37.6073 11.0017 37.5516 10.516 37.6526 10.0212C37.1188 10.4465 35.9105 11.8957 36.0149 12.8241C36.0158 12.8329 36.0167 12.8419 36.0175 12.851C36.0263 12.9484 36.0363 13.0584 36.2655 13.0278C36.6573 12.9756 37.0224 13.2789 37.0698 13.6807C37.125 14.148 36.6573 14.4954 36.182 14.4954C35.127 14.4484 35.033 13.0278 35.4926 12.0721C35.0382 12.4011 34.8309 12.9272 34.6622 13.3725C34.6467 13.4135 34.6315 13.4544 34.6164 13.4952L34.6164 13.4952C34.4484 13.9484 34.2907 14.3739 33.8131 14.4031C33.6774 14.4114 33.5707 14.3615 33.4672 14.313C33.3874 14.2757 33.3094 14.2392 33.2212 14.2307C33.099 14.219 33.0516 14.2195 32.9068 14.2307L32.9142 14.2232L32.9092 14.2282C32.9178 14.0832 32.9174 14.0358 32.9035 13.9138C32.8935 13.8258 32.8556 13.7485 32.8168 13.6694C32.7665 13.5667 32.7146 13.461 32.7205 13.3252C32.7411 12.8472 33.1637 12.6818 33.6138 12.5057L33.614 12.5056L33.6145 12.5054C33.6547 12.4896 33.6952 12.4738 33.7356 12.4576C34.1778 12.2809 34.7001 12.0641 35.0209 11.6039C34.0736 12.0807 32.6515 12.0123 32.5855 10.9583C32.5769 10.4831 32.9158 10.0092 33.3841 10.0559C33.7866 10.0961 34.0965 10.4557 34.0513 10.8483C34.0249 11.0781 34.1351 11.0861 34.2326 11.0931C34.2417 11.0938 34.2507 11.0945 34.2595 11.0953C35.1768 11.1816 36.5775 9.98248 37.0146 9.43006C36.4898 9.5133 35.9767 9.43986 35.7194 9.27133C35.5616 9.15784 35.4426 9.22511 35.416 9.34513C35.2457 10.1137 34.2481 10.4376 33.858 9.58294C33.5027 8.80456 34.3298 8.47579 34.5304 8.54152C34.6332 8.57519 34.9233 8.28731 34.5304 8.28731C33.6921 8.28731 32.7792 7.7001 33.546 7.16887C33.5565 7.1613 33.5667 7.15395 33.5767 7.14676C33.7629 7.01281 33.8655 6.93895 34.0056 6.65549C34.3571 5.9443 35.1264 6.62833 35.2602 7.5657C35.2916 7.78537 35.416 7.66194 35.416 7.5657C35.416 7.33268 35.6466 6.63992 36.2948 6.62118C36.7294 6.63583 37.087 6.94074 37.1147 7.37476C37.179 8.00139 36.6251 8.18701 36.3246 8.23125C36.0242 8.2755 36.1331 8.51996 36.3246 8.67278C36.6021 8.89414 37.8714 8.99728 37.9082 7.66026C37.943 6.38997 36.3246 5.83923 35.3506 5.83923Z" fill="#DCC67A"/>
<path d="M35.3296 5.08276H11.6814V5.84058H35.3296V5.08276Z" fill="#DCC67A"/>
<path d="M35.3661 41.2063H11.6565V41.9641H35.3661V41.2063Z" fill="#DCC67A"/>
<path d="M41.241 11.566V35.4167H41.9988V11.566H41.241Z" fill="#DCC67A"/>
<path d="M5.03687 11.566L5.03687 35.4167H5.79468L5.79468 11.566H5.03687Z" fill="#DCC67A"/>
<path d="M12.0619 23.9823C11.6679 23.9823 11.7486 23.2329 12.0619 23.2329C15.2996 23.2329 17.5173 21.5721 18.9994 18.6935C19.4576 17.8037 20.1193 17.0662 21.2049 17.0662C22.1923 17.0662 23.0036 17.7019 23.0036 18.8434C23.0036 21.3672 19.4066 21.9526 16.8582 23.1044C21.3665 23.1044 26.7117 22.1562 33.0031 21.5842C34.3168 21.4647 35.5083 22.4703 35.5083 23.7682C35.5083 24.9306 34.2816 25.74 33.0031 25.5883C26.4953 24.8161 25.5536 24.0957 16.8195 24.0957C17.2539 24.6455 23.0036 24.6924 23.0036 28.3076C23.0036 29.3305 22.1142 29.8493 21.2049 29.8493C20.601 29.8493 19.2286 29.3332 18.9994 28.3076C18.4606 25.8964 15.0763 23.9823 12.0619 23.9823Z" fill="#917108"/>
<defs>
<filter id="filter0_d_81_116" x="0.5" y="0.457764" width="50" height="50" filterUnits="userSpaceOnUse" color-interpolation-filters="sRGB">
<feFlood flood-opacity="0" result="BackgroundImageFix"/>
<feColorMatrix in="SourceAlpha" type="matrix" values="0 0 0 0 0 0 0 0 0 0 0 0 0 0 0 0 0 0 127 0" result="hardAlpha"/>
<feOffset dx="2" dy="2"/>
<feGaussianBlur stdDeviation="2"/>
<feComposite in2="hardAlpha" operator="out"/>
<feColorMatrix type="matrix" values="0 0 0 0 0 0 0 0 0 0 0 0 0 0 0 0 0 0 0.25 0"/>
<feBlend mode="normal" in2="BackgroundImageFix" result="effect1_dropShadow_81_116"/>
<feBlend mode="normal" in="SourceGraphic" in2="effect1_dropShadow_81_116" result="shape"/>
</filter>
</defs>
</svg>
