<svg width="51" height="51" viewBox="0 0 51 51" fill="none" xmlns="http://www.w3.org/2000/svg">
<g filter="url(#filter0_d_97_140)">
<rect x="2.5" y="2.45776" width="42" height="42" fill="white"/>
<rect x="3.5" y="3.45776" width="40" height="40" stroke="#917108" stroke-width="2"/>
</g>
<path fill-rule="evenodd" clip-rule="evenodd" d="M11.6883 5.83888C11.6883 5.83888 11.7423 5.37207 11.6883 5.08113C10.4217 5.08113 9.16477 5.1655 7.58103 5.30636C7.47508 5.30636 7.37585 5.30817 7.28127 5.3099C6.76598 5.31932 6.38867 5.32621 5.81434 5.02369C5.67805 4.97183 5.67805 5.11454 5.67805 5.11454C5.8884 6.3308 6.86439 6.17637 7.00955 6.12078C6.80262 6.50067 7.21335 7.10452 7.67189 7.06296C8.11619 7.0227 8.55692 6.52538 8.19686 6.04837C8.15987 5.99937 8.16629 5.85847 8.25743 5.82122C8.62977 5.66906 8.92364 5.65979 9.30277 5.64784C9.3764 5.64552 9.45324 5.6431 9.5345 5.63951C9.68612 5.63281 9.65193 5.65558 9.5278 5.73828C9.24282 5.92815 8.48377 6.43385 8.41018 7.62389C8.39194 7.91899 8.4345 8.17271 8.52182 8.3891L8.54078 8.56883L8.2599 8.50149L8.26559 8.5088C8.06459 8.42273 7.83686 8.37355 7.58181 8.37355C6.43165 8.37355 5.9094 9.16545 5.70649 9.47313C5.61882 9.60607 5.59076 9.64862 5.59742 9.49787C5.60101 9.41661 5.60343 9.33977 5.60575 9.26614C5.6177 8.88701 5.62697 8.59314 5.77913 8.2208C5.81638 8.12966 5.95728 8.12323 6.00628 8.16022C6.48329 8.52029 6.98061 8.07956 7.02087 7.63526C7.06243 7.17672 6.45858 6.76598 6.07869 6.97292C6.13428 6.82776 6.28871 5.85177 5.07245 5.64141C5.07245 5.64141 4.92974 5.64141 4.9816 5.7777C5.28412 6.35204 5.27723 6.72935 5.26781 7.24464V7.24464C5.26608 7.33922 5.26427 7.43845 5.26427 7.5444C5.12341 9.12814 5.03904 10.385 5.03904 11.6516C5.32998 11.7057 5.79679 11.6516 5.79679 11.6516C5.79679 10.6776 6.34753 9.05918 7.61782 9.09406C8.95483 9.13078 8.8517 10.4001 8.63034 10.6776C8.47752 10.8692 8.23305 10.978 8.18881 10.6776C8.14457 10.3771 7.95895 9.82318 7.33232 9.88748C6.89829 9.91526 6.59339 10.2728 6.57874 10.7075C6.59747 11.3557 7.29024 11.5862 7.52326 11.5862C7.6195 11.5862 7.74293 11.7107 7.52326 11.742C6.58589 11.8758 5.90185 12.6451 6.61305 12.9966C6.89651 13.1367 6.97037 13.2394 7.10432 13.4255L7.12642 13.4562C7.65765 14.2231 8.24487 13.3101 8.24487 12.4718C8.24487 12.0789 8.53275 12.3691 8.49908 12.4718C8.43335 12.6724 8.76211 13.4995 9.54049 13.1442C10.3951 12.7541 10.0713 11.7565 9.30269 11.5862C9.18267 11.5596 9.11539 11.4406 9.22889 11.2828C9.43131 11.0014 9.48696 10.5158 9.38601 10.0211C9.91997 10.4466 11.1278 11.8955 11.0235 12.8238C11.0225 12.8325 11.0217 12.8415 11.0209 12.8506C11.0121 12.948 11.0021 13.058 10.7728 13.0275C10.3811 12.9752 10.016 13.2786 9.96853 13.6803C9.91335 14.1477 10.3811 14.4951 10.8564 14.4951C11.9114 14.4481 12.0054 13.0275 11.5458 12.0717C12.0002 12.4007 12.2075 12.9269 12.3762 13.3722C12.3917 13.4131 12.4069 13.4541 12.422 13.4948L12.422 13.4948L12.422 13.4949C12.59 13.9481 12.7477 14.3736 13.2253 14.4028C13.361 14.4111 13.4676 14.3612 13.5712 14.3127C13.651 14.2753 13.729 14.2388 13.8171 14.2304C13.9394 14.2187 13.9868 14.2192 14.1315 14.2304L14.113 14.2113L14.1296 14.228C14.121 14.0831 14.1214 14.0357 14.1353 13.9137C14.1453 13.8257 14.1832 13.7484 14.222 13.6693C14.2724 13.5666 14.3242 13.4609 14.3184 13.325C14.2978 12.847 13.8752 12.6817 13.4251 12.5055C13.3846 12.4897 13.3439 12.4738 13.3032 12.4575C12.8611 12.2808 12.3388 12.064 12.018 11.6038C12.9653 12.0805 14.3873 12.0122 14.4534 10.9582C14.4619 10.483 14.123 10.009 13.6547 10.0558C13.2522 10.096 12.9424 10.4556 12.9875 10.8482C13.0139 11.078 12.9037 11.0859 12.8062 11.093C12.7971 11.0937 12.7881 11.0943 12.7793 11.0952C11.8619 11.1815 10.4609 9.98198 10.024 9.42967C10.5489 9.51297 11.0621 9.43953 11.3194 9.27098C11.4772 9.15748 11.5962 9.22476 11.6228 9.34478C11.7931 10.1134 12.7908 10.4372 13.1809 9.58258C13.5361 8.8042 12.709 8.47544 12.5084 8.54117C12.4057 8.57484 12.1155 8.28696 12.5084 8.28696C13.3468 8.28696 14.2597 7.69974 13.4928 7.16851C13.4824 7.16095 13.4721 7.15359 13.4622 7.14641C13.276 7.01246 13.1733 6.9386 13.0333 6.65514C12.6818 5.94394 11.9124 6.62798 11.7786 7.56535C11.7473 7.78502 11.6228 7.66159 11.6228 7.56535C11.6228 7.33233 11.3923 6.63956 10.7441 6.62083C10.3094 6.63548 9.95189 6.94038 9.92411 7.37441C9.85982 8.00104 10.4137 8.18666 10.7142 8.2309C11.0147 8.27514 10.9058 8.5196 10.7142 8.67243C10.4367 8.89379 9.16741 8.99692 9.13069 7.65991C9.09581 6.38961 10.7142 5.83888 11.6883 5.83888Z" fill="#DCC67A"/>
<path fill-rule="evenodd" clip-rule="evenodd" d="M11.6883 41.2043C11.6883 41.2043 11.7423 41.6711 11.6883 41.9621C10.4217 41.9621 9.16477 41.8777 7.58103 41.7369C7.47508 41.7369 7.37585 41.735 7.28127 41.7333C6.76598 41.7239 6.38867 41.717 5.81434 42.0195C5.67805 42.0714 5.67805 41.9287 5.67805 41.9287C5.8884 40.7124 6.86439 40.8668 7.00955 40.9224C6.80262 40.5425 7.21335 39.9387 7.67189 39.9803C8.11619 40.0205 8.55692 40.5178 8.19686 40.9948C8.15987 41.0438 8.16629 41.1847 8.25743 41.222C8.62977 41.3742 8.92364 41.3834 9.30277 41.3954C9.3764 41.3977 9.45324 41.4001 9.5345 41.4037C9.68612 41.4104 9.65193 41.3876 9.5278 41.3049C9.24282 41.1151 8.48377 40.6094 8.41018 39.4193C8.39193 39.1242 8.43451 38.8704 8.52186 38.654L8.54078 38.4746L8.2599 38.542L8.26559 38.5346C8.06459 38.6207 7.83686 38.6699 7.58181 38.6699C6.43165 38.6699 5.9094 37.878 5.70649 37.5703C5.61882 37.4374 5.59076 37.3948 5.59742 37.5456C5.60101 37.6268 5.60343 37.7037 5.60575 37.7773C5.6177 38.1564 5.62697 38.4503 5.77913 38.8227C5.81638 38.9138 5.95728 38.9202 6.00628 38.8832C6.48329 38.5232 6.98061 38.9639 7.02087 39.4082C7.06243 39.8667 6.45858 40.2775 6.07869 40.0705C6.13428 40.2157 6.28871 41.1917 5.07245 41.402C5.07245 41.402 4.92974 41.402 4.9816 41.2657C5.28412 40.6914 5.27723 40.3141 5.26781 39.7988C5.26608 39.7042 5.26427 39.605 5.26427 39.499C5.12341 37.9153 5.03904 36.6584 5.03904 35.3918C5.32998 35.3378 5.79679 35.3918 5.79679 35.3918C5.79679 36.3659 6.34753 37.9843 7.61782 37.9494C8.95483 37.9127 8.8517 36.6434 8.63034 36.3659C8.47752 36.1743 8.23305 36.0654 8.18881 36.3659C8.14457 36.6663 7.95895 37.2203 7.33232 37.156C6.89829 37.1282 6.59339 36.7707 6.57874 36.336C6.59747 35.6878 7.29024 35.4572 7.52326 35.4572C7.6195 35.4572 7.74293 35.3328 7.52326 35.3014C6.58589 35.1677 5.90185 34.3983 6.61305 34.0468C6.89651 33.9067 6.97037 33.8041 7.10432 33.6179L7.12642 33.5872C7.65765 32.8204 8.24487 33.7333 8.24487 34.5716C8.24487 34.9646 8.53275 34.6744 8.49908 34.5716C8.43335 34.3711 8.76211 33.5439 9.54049 33.8992C10.3951 34.2893 10.0713 35.2869 9.30269 35.4572C9.18267 35.4838 9.11539 35.6029 9.22889 35.7607C9.43131 36.0421 9.48696 36.5276 9.38601 37.0223C9.91997 36.5968 11.1278 35.1479 11.0235 34.2197C11.0225 34.2109 11.0217 34.2019 11.0209 34.1928C11.0121 34.0954 11.0021 33.9854 10.7728 34.016C10.3811 34.0682 10.016 33.7649 9.96853 33.3631C9.91335 32.8958 10.3811 32.5484 10.8564 32.5484C11.9114 32.5954 12.0054 34.016 11.5458 34.9717C12.0002 34.6427 12.2075 34.1166 12.3762 33.6713C12.3917 33.6303 12.4069 33.5894 12.422 33.5486L12.422 33.5486C12.59 33.0954 12.7477 32.6699 13.2253 32.6407C13.361 32.6324 13.4676 32.6823 13.5712 32.7308C13.651 32.7681 13.729 32.8046 13.8171 32.8131C13.9394 32.8248 13.9868 32.8243 14.1315 32.8131L14.113 32.8321L14.1296 32.8154C14.121 32.9603 14.1214 33.0078 14.1353 33.1298C14.1453 33.2177 14.1832 33.2951 14.222 33.3742C14.2724 33.4769 14.3242 33.5825 14.3184 33.7184C14.2978 34.1964 13.8752 34.3618 13.4251 34.5379L13.4249 34.538L13.4244 34.5382C13.3841 34.5539 13.3437 34.5698 13.3032 34.5859C12.8611 34.7627 12.3388 34.9794 12.018 35.4397C12.9653 34.9629 14.3873 35.0313 14.4534 36.0853C14.4619 36.5604 14.123 37.0344 13.6547 36.9877C13.2522 36.9475 12.9424 36.5878 12.9875 36.1953C13.0139 35.9655 12.9037 35.9575 12.8062 35.9504L12.8062 35.9504L12.8062 35.9504C12.7971 35.9498 12.7881 35.9491 12.7793 35.9483C11.8621 35.8619 10.4613 37.0611 10.0242 37.6135C10.5491 37.5303 11.0621 37.6037 11.3194 37.7722C11.4772 37.8857 11.5962 37.8185 11.6228 37.6984C11.7931 36.9299 12.7908 36.606 13.1809 37.4606C13.5361 38.239 12.709 38.5678 12.5084 38.502C12.4057 38.4684 12.1155 38.7563 12.5084 38.7563C13.3468 38.7563 14.2597 39.3435 13.4928 39.8747C13.4824 39.8823 13.4721 39.8896 13.4622 39.8968C13.276 40.0308 13.1733 40.1046 13.0333 40.3881C12.6818 41.0993 11.9124 40.4152 11.7786 39.4779C11.7473 39.2582 11.6228 39.3816 11.6228 39.4779C11.6228 39.7109 11.3923 40.4036 10.7441 40.4224C10.3094 40.4077 9.95189 40.1028 9.92411 39.6688C9.85982 39.0422 10.4137 38.8566 10.7142 38.8123C11.0147 38.7681 10.9058 38.5236 10.7142 38.3708C10.4367 38.1494 9.16741 38.0463 9.13069 39.3833C9.09581 40.6536 10.7142 41.2043 11.6883 41.2043Z" fill="#DCC67A"/>
<path fill-rule="evenodd" clip-rule="evenodd" d="M35.3496 41.2043C35.3496 41.2043 35.2955 41.6711 35.3496 41.9621C36.6162 41.9621 37.8731 41.8777 39.4568 41.7369C39.5628 41.7369 39.662 41.735 39.7566 41.7333C40.2719 41.7239 40.6492 41.717 41.2235 42.0195C41.3598 42.0714 41.3598 41.9287 41.3598 41.9287C41.1495 40.7124 40.1735 40.8668 40.0283 40.9224C40.2352 40.5425 39.8245 39.9387 39.366 39.9803C38.9217 40.0205 38.4809 40.5178 38.841 40.9948C38.878 41.0438 38.8716 41.1847 38.7804 41.222C38.4081 41.3742 38.1142 41.3834 37.7351 41.3954C37.6615 41.3977 37.5846 41.4001 37.5034 41.4037C37.3517 41.4104 37.3859 41.3876 37.5101 41.3049C37.795 41.1151 38.5541 40.6094 38.6277 39.4193C38.6459 39.1245 38.6035 38.8711 38.5163 38.6548L38.4973 38.4747L38.778 38.542L38.7721 38.5345C38.9732 38.6207 39.2011 38.6699 39.4563 38.6699C40.6064 38.6699 41.1287 37.878 41.3316 37.5703C41.4193 37.4374 41.4473 37.3948 41.4407 37.5456C41.4371 37.6268 41.4347 37.7037 41.4323 37.7773C41.4204 38.1564 41.4111 38.4503 41.259 38.8227C41.2217 38.9138 41.0808 38.9202 41.0318 38.8832C40.5548 38.5232 40.0575 38.9639 40.0172 39.4082C39.9757 39.8667 40.5795 40.2775 40.9594 40.0705C40.9038 40.2157 40.7494 41.1917 41.9656 41.402C41.9656 41.402 42.1084 41.402 42.0565 41.2657C41.754 40.6914 41.7609 40.3141 41.7703 39.7988C41.772 39.7042 41.7738 39.605 41.7738 39.499C41.9147 37.9153 41.9991 36.6584 41.9991 35.3918C41.7081 35.3378 41.2413 35.3918 41.2413 35.3918C41.2413 36.3659 40.6906 37.9843 39.4203 37.9494C38.0833 37.9127 38.1864 36.6434 38.4078 36.3659C38.5606 36.1743 38.805 36.0654 38.8493 36.3659C38.8935 36.6663 39.0791 37.2203 39.7058 37.156C40.1398 37.1282 40.4447 36.7707 40.4594 36.336C40.4406 35.6878 39.7479 35.4572 39.5148 35.4572C39.4186 35.4572 39.2952 35.3328 39.5148 35.3014C40.4522 35.1677 41.1362 34.3983 40.425 34.0468C40.1416 33.9067 40.0677 33.8041 39.9338 33.6179L39.9117 33.5872C39.3804 32.8204 38.7932 33.7333 38.7932 34.5716C38.7932 34.9646 38.5053 34.6744 38.539 34.5716C38.6047 34.3711 38.276 33.5439 37.4976 33.8992C36.643 34.2893 36.9668 35.2869 37.7354 35.4572C37.8554 35.4838 37.9227 35.6029 37.8092 35.7607C37.6068 36.0421 37.5511 36.5278 37.6521 37.0226C37.1183 36.5973 35.91 35.1481 36.0143 34.2197C36.0153 34.2109 36.0161 34.2019 36.017 34.1928C36.0258 34.0954 36.0358 33.9854 36.265 34.016C36.6567 34.0682 37.0219 33.7649 37.0693 33.3631C37.1245 32.8958 36.6567 32.5484 36.1815 32.5484C35.1265 32.5954 35.0325 34.016 35.4921 34.9717C35.0377 34.6427 34.8304 34.1166 34.6617 33.6713C34.6461 33.6303 34.631 33.5894 34.6159 33.5486L34.6158 33.5486C34.4479 33.0954 34.2901 32.6699 33.8126 32.6407C33.6768 32.6324 33.5702 32.6823 33.4666 32.7308C33.3869 32.7681 33.3089 32.8046 33.2207 32.8131C33.0985 32.8248 33.0511 32.8243 32.9063 32.8131L32.9137 32.8207L32.9085 32.8154C32.9171 32.9603 32.9167 33.0078 32.9028 33.1298C32.8928 33.2177 32.8548 33.2951 32.8161 33.3742C32.7657 33.4769 32.7139 33.5825 32.7197 33.7184C32.7403 34.1964 33.1629 34.3618 33.613 34.5379L33.6132 34.538L33.6137 34.5382C33.654 34.5539 33.6944 34.5698 33.7349 34.5859C34.177 34.7627 34.6993 34.9794 35.0201 35.4397C34.0728 34.9629 32.6508 35.0313 32.5847 36.0853C32.5762 36.5604 32.9151 37.0344 33.3833 36.9877C33.7859 36.9475 34.0957 36.5878 34.0506 36.1953C34.0242 35.9655 34.1343 35.9575 34.2319 35.9504C34.241 35.9498 34.25 35.9491 34.2588 35.9483C35.1761 35.8619 36.5768 37.0611 37.0139 37.6136C36.489 37.5302 35.9758 37.6037 35.7184 37.7722C35.5607 37.8857 35.4416 37.8185 35.415 37.6984C35.2447 36.9299 34.2471 36.606 33.857 37.4606C33.5017 38.239 34.3288 38.5678 34.5294 38.502C34.6322 38.4684 34.9223 38.7563 34.5294 38.7563C33.6911 38.7563 32.7782 39.3435 33.545 39.8747C33.5555 39.8823 33.5657 39.8896 33.5757 39.8968C33.7619 40.0308 33.8645 40.1046 34.0046 40.3881C34.3561 41.0993 35.1255 40.4152 35.2592 39.4779C35.2906 39.2582 35.415 39.3816 35.415 39.4779C35.415 39.7109 35.6456 40.4036 36.2938 40.4224C36.7284 40.4077 37.086 40.1028 37.1137 39.6688C37.178 39.0422 36.6241 38.8566 36.3236 38.8123C36.0232 38.7681 36.1321 38.5236 36.3236 38.3708C36.6012 38.1494 37.8705 38.0463 37.9072 39.3833C37.942 40.6536 36.3236 41.2043 35.3496 41.2043Z" fill="#DCC67A"/>
<path fill-rule="evenodd" clip-rule="evenodd" d="M35.3505 5.83912C35.3505 5.83912 35.2965 5.3723 35.3505 5.08136C36.6171 5.08136 37.874 5.16574 39.4578 5.3066C39.5637 5.3066 39.663 5.30841 39.7575 5.31014C40.2728 5.31955 40.6501 5.32644 41.2245 5.02392C41.3608 4.97207 41.3608 5.11478 41.3608 5.11478C41.1504 6.33104 40.1744 6.17661 40.0293 6.12101C40.2362 6.50091 39.8255 7.10475 39.3669 7.0632C38.9226 7.02293 38.4819 6.52562 38.842 6.04861C38.8789 5.9996 38.8725 5.8587 38.7814 5.82146C38.409 5.66929 38.1152 5.66003 37.736 5.64807C37.6624 5.64575 37.5856 5.64333 37.5043 5.63974C37.3527 5.63304 37.3869 5.65581 37.511 5.73852C37.796 5.92838 38.555 6.43408 38.6286 7.62413C38.6469 7.91926 38.6043 8.173 38.517 8.38942L38.498 8.56896L38.7784 8.50173L38.7726 8.50919C38.9737 8.42302 39.2016 8.37378 39.4568 8.37378C40.6069 8.37378 41.1292 9.16568 41.3321 9.47337C41.4198 9.60631 41.4478 9.64885 41.4412 9.4981C41.4376 9.41684 41.4351 9.34 41.4328 9.26637C41.4209 8.88724 41.4116 8.59338 41.2594 8.22103C41.2222 8.12989 41.0813 8.12347 41.0323 8.16046C40.5553 8.52052 40.058 8.07979 40.0177 7.6355C39.9761 7.17696 40.58 6.76622 40.9599 6.97315C40.9043 6.82799 40.7499 5.852 41.9661 5.64165C41.9661 5.64165 42.1088 5.64165 42.057 5.77794C41.7545 6.35227 41.7613 6.72959 41.7708 7.24488V7.24488C41.7725 7.33946 41.7743 7.43869 41.7743 7.54464C41.9152 9.12837 41.9995 10.3853 41.9995 11.6519C41.7086 11.7059 41.2418 11.6519 41.2418 11.6519C41.2418 10.6778 40.691 9.05941 39.4208 9.0943C38.0837 9.13101 38.1869 10.4003 38.4082 10.6778C38.5611 10.8694 38.8055 10.9783 38.8498 10.6778C38.894 10.3773 39.0796 9.82342 39.7063 9.88771C40.1403 9.91549 40.4452 10.273 40.4598 10.7077C40.4411 11.3559 39.7483 11.5864 39.5153 11.5864C39.4191 11.5864 39.2956 11.7109 39.5153 11.7422C40.4527 11.876 41.1367 12.6454 40.4255 12.9969C40.1421 13.1369 40.0682 13.2396 39.9343 13.4258L39.9122 13.4564C39.3809 14.2233 38.7937 13.3104 38.7937 12.472C38.7937 12.0791 38.5058 12.3693 38.5395 12.472C38.6052 12.6726 38.2765 13.4997 37.4981 13.1445C36.6434 12.7544 36.9673 11.7567 37.7359 11.5864C37.8559 11.5598 37.9232 11.4408 37.8097 11.283C37.6072 11.0016 37.5516 10.5159 37.6526 10.0211C37.1188 10.4463 35.9105 11.8956 36.0148 12.824C36.0158 12.8328 36.0166 12.8418 36.0174 12.8509C36.0263 12.9482 36.0363 13.0583 36.2655 13.0277C36.6572 12.9755 37.0224 13.2788 37.0698 13.6805C37.125 14.1479 36.6572 14.4953 36.1819 14.4953C35.127 14.4483 35.0329 13.0277 35.4925 12.0719C35.0382 12.401 34.8309 12.9271 34.6621 13.3724C34.6466 13.4133 34.6314 13.4543 34.6163 13.4951L34.6163 13.4951C34.4483 13.9483 34.2906 14.3738 33.8131 14.403C33.6773 14.4113 33.5707 14.3614 33.4671 14.3129C33.3873 14.2755 33.3093 14.239 33.2212 14.2306C33.099 14.2189 33.0516 14.2194 32.9068 14.2306L32.9141 14.223L32.9092 14.228C32.9178 14.0831 32.9174 14.0357 32.9035 13.9137C32.8935 13.8257 32.8556 13.7484 32.8168 13.6693C32.7664 13.5666 32.7146 13.4609 32.7204 13.325C32.741 12.847 33.1636 12.6817 33.6137 12.5055L33.6139 12.5055L33.6145 12.5053C33.6547 12.4895 33.6952 12.4737 33.7356 12.4575C34.1778 12.2808 34.7001 12.064 35.0208 11.6038C34.0735 12.0805 32.6515 12.0122 32.5855 10.9582C32.5769 10.483 32.9158 10.009 33.3841 10.0558C33.7866 10.096 34.0965 10.4556 34.0513 10.8482C34.0249 11.078 34.1351 11.0859 34.2326 11.093C34.2417 11.0937 34.2507 11.0943 34.2595 11.0952C35.1767 11.1815 36.5775 9.98237 37.0146 9.42994C36.4897 9.51318 35.9767 9.43974 35.7194 9.27121C35.5616 9.15772 35.4426 9.22499 35.416 9.34501C35.2457 10.1136 34.248 10.4374 33.858 9.58282C33.5027 8.80444 34.3298 8.47567 34.5304 8.5414C34.6331 8.57507 34.9233 8.2872 34.5304 8.2872C33.692 8.2872 32.7791 7.69998 33.546 7.16875C33.5564 7.16118 33.5667 7.15383 33.5766 7.14665C33.7628 7.01269 33.8655 6.93883 34.0056 6.65537C34.357 5.94418 35.1264 6.62821 35.2602 7.56559C35.2915 7.78525 35.416 7.66182 35.416 7.56559C35.416 7.33256 35.6465 6.6398 36.2947 6.62106C36.7294 6.63572 37.0869 6.94062 37.1147 7.37464C37.179 8.00127 36.6251 8.18689 36.3246 8.23114C36.0241 8.27538 36.133 8.51984 36.3246 8.67266C36.6021 8.89402 37.8714 8.99716 37.9081 7.66014C37.943 6.38985 36.3246 5.83912 35.3505 5.83912Z" fill="#DCC67A"/>
<path d="M35.3298 5.08276H11.6816V5.84058H35.3298V5.08276Z" fill="#DCC67A"/>
<path d="M35.3658 41.2063H11.6562V41.9641H35.3658V41.2063Z" fill="#DCC67A"/>
<path d="M41.2412 11.566V35.4167H41.999V11.566H41.2412Z" fill="#DCC67A"/>
<path d="M5.03662 11.566L5.03662 35.4167H5.79443L5.79443 11.566H5.03662Z" fill="#DCC67A"/>
<line x1="23.542" y1="15.8953" x2="23.542" y2="31.0202" stroke="#917108" stroke-width="2"/>
<line x1="15.9375" y1="23.4496" x2="31.0624" y2="23.4496" stroke="#917108" stroke-width="2"/>
<defs>
<filter id="filter0_d_97_140" x="0.5" y="0.457764" width="50" height="50" filterUnits="userSpaceOnUse" color-interpolation-filters="sRGB">
<feFlood flood-opacity="0" result="BackgroundImageFix"/>
<feColorMatrix in="SourceAlpha" type="matrix" values="0 0 0 0 0 0 0 0 0 0 0 0 0 0 0 0 0 0 127 0" result="hardAlpha"/>
<feOffset dx="2" dy="2"/>
<feGaussianBlur stdDeviation="2"/>
<feComposite in2="hardAlpha" operator="out"/>
<feColorMatrix type="matrix" values="0 0 0 0 0 0 0 0 0 0 0 0 0 0 0 0 0 0 0.25 0"/>
<feBlend mode="normal" in2="BackgroundImageFix" result="effect1_dropShadow_97_140"/>
<feBlend mode="normal" in="SourceGraphic" in2="effect1_dropShadow_97_140" result="shape"/>
</filter>
</defs>
</svg>
