<svg width="51" height="51" viewBox="0 0 51 51" fill="none" xmlns="http://www.w3.org/2000/svg">
<g filter="url(#filter0_d_120_214)">
<rect x="2.5" y="2.49799" width="42" height="42" fill="white"/>
<rect x="3.5" y="3.49799" width="40" height="40" stroke="#917108" stroke-width="2"/>
</g>
<path fill-rule="evenodd" clip-rule="evenodd" d="M11.6883 5.8791C11.6883 5.8791 11.7423 5.41229 11.6883 5.12135C10.4217 5.12135 9.16477 5.20573 7.58103 5.34658C7.47508 5.34658 7.37585 5.3484 7.28127 5.35012C6.76598 5.35954 6.38867 5.36643 5.81434 5.06391C5.67805 5.01205 5.67805 5.15477 5.67805 5.15477C5.8884 6.37102 6.86439 6.21659 7.00955 6.161C6.80262 6.54089 7.21335 7.14474 7.67189 7.10318C8.11619 7.06292 8.55692 6.5656 8.19686 6.08859C8.15987 6.03959 8.16629 5.89869 8.25743 5.86145C8.62977 5.70928 8.92364 5.70001 9.30277 5.68806C9.3764 5.68574 9.45324 5.68332 9.5345 5.67973C9.68612 5.67303 9.65193 5.6958 9.5278 5.77851C9.24282 5.96837 8.48377 6.47407 8.41018 7.66412C8.39194 7.95921 8.4345 8.21293 8.52182 8.42932L8.54078 8.60905L8.2599 8.54171L8.26559 8.54903C8.06459 8.46295 7.83686 8.41377 7.58181 8.41377C6.43165 8.41377 5.9094 9.20567 5.70649 9.51336C5.61882 9.64629 5.59076 9.68884 5.59742 9.53809C5.60101 9.45683 5.60343 9.37999 5.60575 9.30636C5.6177 8.92723 5.62697 8.63336 5.77913 8.26102C5.81638 8.16988 5.95728 8.16346 6.00628 8.20044C6.48329 8.56051 6.98061 8.11978 7.02087 7.67548C7.06243 7.21694 6.45858 6.80621 6.07869 7.01314C6.13428 6.86798 6.28871 5.89199 5.07245 5.68164C5.07245 5.68164 4.92974 5.68164 4.9816 5.81792C5.28412 6.39226 5.27723 6.76957 5.26781 7.28486V7.28486C5.26608 7.37945 5.26427 7.47867 5.26427 7.58462C5.12341 9.16836 5.03904 10.4252 5.03904 11.6919C5.32998 11.7459 5.79679 11.6919 5.79679 11.6919C5.79679 10.7178 6.34753 9.0994 7.61782 9.13428C8.95483 9.171 8.8517 10.4403 8.63034 10.7178C8.47752 10.9094 8.23305 11.0183 8.18881 10.7178C8.14457 10.4173 7.95895 9.86341 7.33232 9.9277C6.89829 9.95548 6.59339 10.313 6.57874 10.7477C6.59747 11.3959 7.29024 11.6264 7.52326 11.6264C7.6195 11.6264 7.74293 11.7509 7.52326 11.7822C6.58589 11.916 5.90185 12.6854 6.61305 13.0368C6.89651 13.1769 6.97037 13.2796 7.10432 13.4658L7.12642 13.4964C7.65765 14.2633 8.24487 13.3504 8.24487 12.512C8.24487 12.1191 8.53275 12.4093 8.49908 12.512C8.43335 12.7126 8.76211 13.5397 9.54049 13.1844C10.3951 12.7944 10.0713 11.7967 9.30269 11.6264C9.18267 11.5998 9.11539 11.4808 9.22889 11.323C9.43131 11.0416 9.48696 10.556 9.38601 10.0613C9.91997 10.4868 11.1278 11.9358 11.0235 12.864C11.0225 12.8728 11.0217 12.8818 11.0209 12.8909C11.0121 12.9882 11.0021 13.0983 10.7728 13.0677C10.3811 13.0155 10.016 13.3188 9.96853 13.7205C9.91335 14.1879 10.3811 14.5353 10.8564 14.5353C11.9114 14.4883 12.0054 13.0677 11.5458 12.1119C12.0002 12.441 12.2075 12.9671 12.3762 13.4124C12.3917 13.4533 12.4069 13.4943 12.422 13.535L12.422 13.535L12.422 13.5351C12.59 13.9883 12.7477 14.4138 13.2253 14.443C13.361 14.4513 13.4676 14.4014 13.5712 14.3529C13.651 14.3155 13.729 14.279 13.8171 14.2706C13.9394 14.2589 13.9868 14.2594 14.1315 14.2706L14.113 14.2515L14.1296 14.2683C14.121 14.1233 14.1214 14.0759 14.1353 13.9539C14.1453 13.8659 14.1832 13.7886 14.222 13.7095C14.2724 13.6068 14.3242 13.5011 14.3184 13.3653C14.2978 12.8873 13.8752 12.7219 13.4251 12.5458C13.3846 12.5299 13.3439 12.514 13.3032 12.4977C12.8611 12.321 12.3388 12.1042 12.018 11.644C12.9653 12.1208 14.3873 12.0524 14.4534 10.9984C14.4619 10.5232 14.123 10.0493 13.6547 10.096C13.2522 10.1362 12.9424 10.4958 12.9875 10.8884C13.0139 11.1182 12.9037 11.1262 12.8062 11.1332C12.7971 11.1339 12.7881 11.1346 12.7793 11.1354C11.8619 11.2217 10.4609 10.0222 10.024 9.46989C10.5489 9.55319 11.0621 9.47975 11.3194 9.3112C11.4772 9.19771 11.5962 9.26498 11.6228 9.385C11.7931 10.1536 12.7908 10.4774 13.1809 9.6228C13.5361 8.84442 12.709 8.51566 12.5084 8.58139C12.4057 8.61506 12.1155 8.32718 12.5084 8.32718C13.3468 8.32718 14.2597 7.73996 13.4928 7.20873C13.4824 7.20117 13.4721 7.19382 13.4622 7.18664C13.276 7.05268 13.1733 6.97882 13.0333 6.69536C12.6818 5.98417 11.9124 6.6682 11.7786 7.60557C11.7473 7.82524 11.6228 7.70181 11.6228 7.60557C11.6228 7.37255 11.3923 6.67979 10.7441 6.66105C10.3094 6.6757 9.95189 6.98061 9.92411 7.41463C9.85982 8.04126 10.4137 8.22688 10.7142 8.27112C11.0147 8.31537 10.9058 8.55983 10.7142 8.71265C10.4367 8.93401 9.16741 9.03715 9.13069 7.70013C9.09581 6.42984 10.7142 5.8791 11.6883 5.8791Z" fill="#DCC67A"/>
<path fill-rule="evenodd" clip-rule="evenodd" d="M11.6883 41.2446C11.6883 41.2446 11.7423 41.7114 11.6883 42.0023C10.4217 42.0023 9.16477 41.9179 7.58103 41.7771C7.47508 41.7771 7.37585 41.7753 7.28127 41.7735C6.76598 41.7641 6.38867 41.7572 5.81434 42.0597C5.67805 42.1116 5.67805 41.9689 5.67805 41.9689C5.8884 40.7526 6.86439 40.9071 7.00955 40.9627C6.80262 40.5828 7.21335 39.9789 7.67189 40.0205C8.11619 40.0607 8.55692 40.5581 8.19686 41.0351C8.15987 41.0841 8.16629 41.225 8.25743 41.2622C8.62977 41.4144 8.92364 41.4236 9.30277 41.4356C9.3764 41.4379 9.45324 41.4403 9.5345 41.4439C9.68612 41.4506 9.65193 41.4279 9.5278 41.3452C9.24282 41.1553 8.48377 40.6496 8.41018 39.4595C8.39193 39.1644 8.43451 38.9107 8.52186 38.6943L8.54078 38.5148L8.2599 38.5822L8.26559 38.5749C8.06459 38.6609 7.83686 38.7101 7.58181 38.7101C6.43165 38.7101 5.9094 37.9182 5.70649 37.6105C5.61882 37.4776 5.59076 37.4351 5.59742 37.5858C5.60101 37.6671 5.60343 37.7439 5.60575 37.8175C5.6177 38.1967 5.62697 38.4905 5.77913 38.8629C5.81638 38.954 5.95728 38.9604 6.00628 38.9234C6.48329 38.5634 6.98061 39.0041 7.02087 39.4484C7.06243 39.9069 6.45858 40.3177 6.07869 40.1108C6.13428 40.2559 6.28871 41.2319 5.07245 41.4423C5.07245 41.4423 4.92974 41.4423 4.9816 41.306C5.28412 40.7316 5.27723 40.3543 5.26781 39.839C5.26608 39.7444 5.26427 39.6452 5.26427 39.5393C5.12341 37.9555 5.03904 36.6986 5.03904 35.432C5.32998 35.378 5.79679 35.432 5.79679 35.432C5.79679 36.4061 6.34753 38.0245 7.61782 37.9896C8.95483 37.9529 8.8517 36.6836 8.63034 36.4061C8.47752 36.2145 8.23305 36.1056 8.18881 36.4061C8.14457 36.7066 7.95895 37.2605 7.33232 37.1962C6.89829 37.1684 6.59339 36.8109 6.57874 36.3762C6.59747 35.728 7.29024 35.4975 7.52326 35.4975C7.6195 35.4975 7.74293 35.373 7.52326 35.3417C6.58589 35.2079 5.90185 34.4385 6.61305 34.087C6.89651 33.947 6.97037 33.8443 7.10432 33.6581L7.12642 33.6275C7.65765 32.8606 8.24487 33.7735 8.24487 34.6119C8.24487 35.0048 8.53275 34.7146 8.49908 34.6119C8.43335 34.4113 8.76211 33.5842 9.54049 33.9394C10.3951 34.3295 10.0713 35.3272 9.30269 35.4975C9.18267 35.5241 9.11539 35.6431 9.22889 35.8009C9.43131 36.0823 9.48696 36.5679 9.38601 37.0626C9.91997 36.6371 11.1278 35.1881 11.0235 34.2599C11.0225 34.2511 11.0217 34.2421 11.0209 34.233C11.0121 34.1357 11.0021 34.0256 10.7728 34.0562C10.3811 34.1084 10.016 33.8051 9.96853 33.4034C9.91335 32.936 10.3811 32.5886 10.8564 32.5886C11.9114 32.6356 12.0054 34.0562 11.5458 35.012C12.0002 34.6829 12.2075 34.1568 12.3762 33.7115C12.3917 33.6706 12.4069 33.6296 12.422 33.5889L12.422 33.5888C12.59 33.1356 12.7477 32.7101 13.2253 32.6809C13.361 32.6726 13.4676 32.7225 13.5712 32.771C13.651 32.8084 13.729 32.8449 13.8171 32.8533C13.9394 32.865 13.9868 32.8645 14.1315 32.8533L14.113 32.8723L14.1296 32.8556C14.121 33.0006 14.1214 33.048 14.1353 33.17C14.1453 33.258 14.1832 33.3353 14.222 33.4144C14.2724 33.5171 14.3242 33.6228 14.3184 33.7586C14.2978 34.2366 13.8752 34.402 13.4251 34.5781L13.4249 34.5782L13.4244 34.5784C13.3841 34.5942 13.3437 34.61 13.3032 34.6262C12.8611 34.8029 12.3388 35.0196 12.018 35.4799C12.9653 35.0031 14.3873 35.0715 14.4534 36.1255C14.4619 36.6007 14.123 37.0746 13.6547 37.0279C13.2522 36.9877 12.9424 36.6281 12.9875 36.2355C13.0139 36.0057 12.9037 35.9977 12.8062 35.9906L12.8062 35.9906L12.8062 35.9906C12.7971 35.99 12.7881 35.9893 12.7793 35.9885C11.8621 35.9022 10.4613 37.1013 10.0242 37.6537C10.5491 37.5705 11.0621 37.6439 11.3194 37.8125C11.4772 37.926 11.5962 37.8587 11.6228 37.7387C11.7931 36.9701 12.7908 36.6462 13.1809 37.5009C13.5361 38.2792 12.709 38.608 12.5084 38.5423C12.4057 38.5086 12.1155 38.7965 12.5084 38.7965C13.3468 38.7965 14.2597 39.3837 13.4928 39.9149C13.4824 39.9225 13.4721 39.9298 13.4622 39.937C13.276 40.071 13.1733 40.1448 13.0333 40.4283C12.6818 41.1395 11.9124 40.4555 11.7786 39.5181C11.7473 39.2984 11.6228 39.4218 11.6228 39.5181C11.6228 39.7511 11.3923 40.4439 10.7441 40.4626C10.3094 40.448 9.95189 40.1431 9.92411 39.709C9.85982 39.0824 10.4137 38.8968 10.7142 38.8525C11.0147 38.8083 10.9058 38.5638 10.7142 38.411C10.4367 38.1896 9.16741 38.0865 9.13069 39.4235C9.09581 40.6938 10.7142 41.2446 11.6883 41.2446Z" fill="#DCC67A"/>
<path fill-rule="evenodd" clip-rule="evenodd" d="M35.3496 41.2446C35.3496 41.2446 35.2955 41.7114 35.3496 42.0023C36.6162 42.0023 37.8731 41.9179 39.4568 41.7771C39.5628 41.7771 39.662 41.7753 39.7566 41.7735C40.2719 41.7641 40.6492 41.7572 41.2235 42.0597C41.3598 42.1116 41.3598 41.9689 41.3598 41.9689C41.1495 40.7526 40.1735 40.9071 40.0283 40.9627C40.2352 40.5828 39.8245 39.9789 39.366 40.0205C38.9217 40.0607 38.4809 40.5581 38.841 41.0351C38.878 41.0841 38.8716 41.225 38.7804 41.2622C38.4081 41.4144 38.1142 41.4236 37.7351 41.4356C37.6615 41.4379 37.5846 41.4403 37.5034 41.4439C37.3517 41.4506 37.3859 41.4279 37.5101 41.3452C37.795 41.1553 38.5541 40.6496 38.6277 39.4595C38.6459 39.1648 38.6035 38.9113 38.5163 38.695L38.4973 38.5149L38.778 38.5822L38.7721 38.5747C38.9732 38.6609 39.2011 38.7101 39.4563 38.7101C40.6064 38.7101 41.1287 37.9182 41.3316 37.6105C41.4193 37.4776 41.4473 37.4351 41.4407 37.5858C41.4371 37.6671 41.4347 37.7439 41.4323 37.8175C41.4204 38.1967 41.4111 38.4905 41.259 38.8629C41.2217 38.954 41.0808 38.9604 41.0318 38.9234C40.5548 38.5634 40.0575 39.0041 40.0172 39.4484C39.9757 39.9069 40.5795 40.3177 40.9594 40.1108C40.9038 40.2559 40.7494 41.2319 41.9656 41.4423C41.9656 41.4423 42.1084 41.4423 42.0565 41.306C41.754 40.7316 41.7609 40.3543 41.7703 39.839C41.772 39.7444 41.7738 39.6452 41.7738 39.5393C41.9147 37.9555 41.9991 36.6986 41.9991 35.432C41.7081 35.378 41.2413 35.432 41.2413 35.432C41.2413 36.4061 40.6906 38.0245 39.4203 37.9896C38.0833 37.9529 38.1864 36.6836 38.4078 36.4061C38.5606 36.2145 38.805 36.1056 38.8493 36.4061C38.8935 36.7066 39.0791 37.2605 39.7058 37.1962C40.1398 37.1684 40.4447 36.8109 40.4594 36.3762C40.4406 35.728 39.7479 35.4975 39.5148 35.4975C39.4186 35.4975 39.2952 35.373 39.5148 35.3417C40.4522 35.2079 41.1362 34.4385 40.425 34.087C40.1416 33.947 40.0677 33.8443 39.9338 33.6581L39.9117 33.6275C39.3804 32.8606 38.7932 33.7735 38.7932 34.6119C38.7932 35.0048 38.5053 34.7146 38.539 34.6119C38.6047 34.4113 38.276 33.5842 37.4976 33.9394C36.643 34.3295 36.9668 35.3272 37.7354 35.4975C37.8554 35.5241 37.9227 35.6431 37.8092 35.8009C37.6068 36.0823 37.5511 36.568 37.6521 37.0628C37.1183 36.6376 35.91 35.1883 36.0143 34.2599C36.0153 34.2511 36.0161 34.2421 36.017 34.233C36.0258 34.1357 36.0358 34.0256 36.265 34.0562C36.6567 34.1084 37.0219 33.8051 37.0693 33.4034C37.1245 32.936 36.6567 32.5886 36.1815 32.5886C35.1265 32.6356 35.0325 34.0562 35.4921 35.012C35.0377 34.6829 34.8304 34.1568 34.6617 33.7115C34.6461 33.6706 34.631 33.6296 34.6159 33.5889L34.6158 33.5888C34.4479 33.1356 34.2901 32.7101 33.8126 32.6809C33.6768 32.6726 33.5702 32.7225 33.4666 32.771C33.3869 32.8084 33.3089 32.8449 33.2207 32.8533C33.0985 32.865 33.0511 32.8645 32.9063 32.8533L32.9137 32.8609L32.9085 32.8556C32.9171 33.0006 32.9167 33.048 32.9028 33.17C32.8928 33.258 32.8548 33.3353 32.8161 33.4144C32.7657 33.5171 32.7139 33.6228 32.7197 33.7586C32.7403 34.2366 33.1629 34.402 33.613 34.5781L33.6132 34.5782L33.6137 34.5784C33.654 34.5942 33.6944 34.61 33.7349 34.6262C34.177 34.8029 34.6993 35.0196 35.0201 35.4799C34.0728 35.0031 32.6508 35.0715 32.5847 36.1255C32.5762 36.6007 32.9151 37.0746 33.3833 37.0279C33.7859 36.9877 34.0957 36.6281 34.0506 36.2355C34.0242 36.0057 34.1343 35.9977 34.2319 35.9906C34.241 35.99 34.25 35.9893 34.2588 35.9885C35.1761 35.9022 36.5768 37.1014 37.0139 37.6538C36.489 37.5705 35.9758 37.6439 35.7184 37.8125C35.5607 37.926 35.4416 37.8587 35.415 37.7387C35.2447 36.9701 34.2471 36.6462 33.857 37.5009C33.5017 38.2792 34.3288 38.608 34.5294 38.5423C34.6322 38.5086 34.9223 38.7965 34.5294 38.7965C33.6911 38.7965 32.7782 39.3837 33.545 39.9149C33.5555 39.9225 33.5657 39.9298 33.5757 39.937C33.7619 40.071 33.8645 40.1448 34.0046 40.4283C34.3561 41.1395 35.1255 40.4555 35.2592 39.5181C35.2906 39.2984 35.415 39.4218 35.415 39.5181C35.415 39.7511 35.6456 40.4439 36.2938 40.4626C36.7284 40.448 37.086 40.1431 37.1137 39.709C37.178 39.0824 36.6241 38.8968 36.3236 38.8525C36.0232 38.8083 36.1321 38.5638 36.3236 38.411C36.6012 38.1896 37.8705 38.0865 37.9072 39.4235C37.942 40.6938 36.3236 41.2446 35.3496 41.2446Z" fill="#DCC67A"/>
<path fill-rule="evenodd" clip-rule="evenodd" d="M35.3505 5.87934C35.3505 5.87934 35.2965 5.41253 35.3505 5.12159C36.6171 5.12159 37.874 5.20596 39.4578 5.34682C39.5637 5.34682 39.663 5.34863 39.7575 5.35036C40.2728 5.35977 40.6501 5.36667 41.2245 5.06415C41.3608 5.01229 41.3608 5.155 41.3608 5.155C41.1504 6.37126 40.1744 6.21683 40.0293 6.16124C40.2362 6.54113 39.8255 7.14497 39.3669 7.10342C38.9226 7.06315 38.4819 6.56584 38.842 6.08883C38.8789 6.03983 38.8725 5.89893 38.7814 5.86168C38.409 5.70951 38.1152 5.70025 37.736 5.6883C37.6624 5.68598 37.5856 5.68355 37.5043 5.67996C37.3527 5.67326 37.3869 5.69604 37.511 5.77874C37.796 5.9686 38.555 6.47431 38.6286 7.66435C38.6469 7.95948 38.6043 8.21323 38.517 8.42964L38.498 8.60918L38.7784 8.54195L38.7726 8.54941C38.9737 8.46324 39.2016 8.41401 39.4568 8.41401C40.6069 8.41401 41.1292 9.20591 41.3321 9.51359C41.4198 9.64653 41.4478 9.68908 41.4412 9.53832C41.4376 9.45707 41.4351 9.38022 41.4328 9.30659C41.4209 8.92747 41.4116 8.6336 41.2594 8.26125C41.2222 8.17012 41.0813 8.16369 41.0323 8.20068C40.5553 8.56075 40.058 8.12001 40.0177 7.67572C39.9761 7.21718 40.58 6.80644 40.9599 7.01337C40.9043 6.86821 40.7499 5.89223 41.9661 5.68187C41.9661 5.68187 42.1088 5.68187 42.057 5.81816C41.7545 6.3925 41.7613 6.76981 41.7708 7.2851V7.2851C41.7725 7.37968 41.7743 7.47891 41.7743 7.58486C41.9152 9.16859 41.9995 10.4255 41.9995 11.6921C41.7086 11.7461 41.2418 11.6921 41.2418 11.6921C41.2418 10.718 40.691 9.09964 39.4208 9.13452C38.0837 9.17123 38.1869 10.4405 38.4082 10.718C38.5611 10.9096 38.8055 11.0185 38.8498 10.718C38.894 10.4176 39.0796 9.86364 39.7063 9.92794C40.1403 9.95572 40.4452 10.3132 40.4598 10.7479C40.4411 11.3961 39.7483 11.6267 39.5153 11.6267C39.4191 11.6267 39.2956 11.7511 39.5153 11.7825C40.4527 11.9162 41.1367 12.6856 40.4255 13.0371C40.1421 13.1772 40.0682 13.2798 39.9343 13.466L39.9122 13.4967C39.3809 14.2635 38.7937 13.3506 38.7937 12.5123C38.7937 12.1193 38.5058 12.4095 38.5395 12.5123C38.6052 12.7129 38.2765 13.54 37.4981 13.1847C36.6434 12.7946 36.9673 11.797 37.7359 11.6267C37.8559 11.6001 37.9232 11.481 37.8097 11.3233C37.6072 11.0418 37.5516 10.5561 37.6526 10.0613C37.1188 10.4866 35.9105 11.9358 36.0148 12.8642C36.0158 12.873 36.0166 12.882 36.0174 12.8911C36.0263 12.9885 36.0363 13.0985 36.2655 13.0679C36.6572 13.0157 37.0224 13.319 37.0698 13.7208C37.125 14.1881 36.6572 14.5355 36.1819 14.5355C35.127 14.4885 35.0329 13.0679 35.4925 12.1122C35.0382 12.4412 34.8309 12.9673 34.6621 13.4126C34.6466 13.4536 34.6314 13.4945 34.6163 13.5353L34.6163 13.5353C34.4483 13.9885 34.2906 14.414 33.8131 14.4432C33.6773 14.4515 33.5707 14.4016 33.4671 14.3531C33.3873 14.3158 33.3093 14.2793 33.2212 14.2708C33.099 14.2591 33.0516 14.2596 32.9068 14.2708L32.9141 14.2633L32.9092 14.2683C32.9178 14.1233 32.9174 14.0759 32.9035 13.9539C32.8935 13.8659 32.8556 13.7886 32.8168 13.7095C32.7664 13.6068 32.7146 13.5011 32.7204 13.3653C32.741 12.8873 33.1636 12.7219 33.6137 12.5458L33.6139 12.5457L33.6145 12.5455C33.6547 12.5297 33.6952 12.5139 33.7356 12.4977C34.1778 12.321 34.7001 12.1042 35.0208 11.644C34.0735 12.1208 32.6515 12.0524 32.5855 10.9984C32.5769 10.5232 32.9158 10.0493 33.3841 10.096C33.7866 10.1362 34.0965 10.4958 34.0513 10.8884C34.0249 11.1182 34.1351 11.1262 34.2326 11.1332C34.2417 11.1339 34.2507 11.1346 34.2595 11.1354C35.1767 11.2217 36.5775 10.0226 37.0146 9.47016C36.4897 9.5534 35.9767 9.47996 35.7194 9.31143C35.5616 9.19794 35.4426 9.26521 35.416 9.38524C35.2457 10.1538 34.248 10.4777 33.858 9.62304C33.5027 8.84466 34.3298 8.51589 34.5304 8.58162C34.6331 8.6153 34.9233 8.32742 34.5304 8.32742C33.692 8.32742 32.7791 7.7402 33.546 7.20897C33.5564 7.2014 33.5667 7.19405 33.5766 7.18687C33.7628 7.05291 33.8655 6.97905 34.0056 6.69559C34.357 5.9844 35.1264 6.66844 35.2602 7.60581C35.2915 7.82547 35.416 7.70204 35.416 7.60581C35.416 7.37278 35.6465 6.68002 36.2947 6.66128C36.7294 6.67594 37.0869 6.98084 37.1147 7.41487C37.179 8.04149 36.6251 8.22712 36.3246 8.27136C36.0241 8.3156 36.133 8.56006 36.3246 8.71288C36.6021 8.93425 37.8714 9.03738 37.9081 7.70036C37.943 6.43007 36.3246 5.87934 35.3505 5.87934Z" fill="#DCC67A"/>
<path d="M35.3298 5.12299H11.6816V5.8808H35.3298V5.12299Z" fill="#DCC67A"/>
<path d="M35.3658 41.2465H11.6562V42.0043H35.3658V41.2465Z" fill="#DCC67A"/>
<path d="M41.2412 11.6062V35.457H41.999V11.6062H41.2412Z" fill="#DCC67A"/>
<path d="M5.03662 11.6062L5.03662 35.457H5.79443L5.79443 11.6062H5.03662Z" fill="#DCC67A"/>
<path d="M22.6707 20.3116C23.2307 20.3116 23.6507 20.5049 23.9307 20.8916C24.2107 21.2649 24.3507 21.7649 24.3507 22.3916C24.3507 22.7916 24.3107 23.2516 24.2307 23.7716C24.1641 24.2783 24.0774 24.8249 23.9707 25.4116C23.8641 25.9983 23.7707 26.5916 23.6907 27.1916C23.6241 27.7783 23.5907 28.3516 23.5907 28.9116C23.5907 29.1783 23.6374 29.3849 23.7307 29.5316C23.8374 29.6783 23.9974 29.7516 24.2107 29.7516C24.4374 29.7516 24.6841 29.6049 24.9507 29.3116C25.2307 29.0183 25.4707 28.5183 25.6707 27.8116L26.2307 27.9316C26.1774 28.2116 26.0841 28.5183 25.9507 28.8516C25.8307 29.1716 25.6707 29.4783 25.4707 29.7716C25.2707 30.0516 25.0241 30.2849 24.7307 30.4716C24.4507 30.6583 24.1241 30.7516 23.7507 30.7516C23.1374 30.7516 22.6841 30.5916 22.3907 30.2716C22.0974 29.9516 21.9507 29.4849 21.9507 28.8716C21.9507 28.2849 21.9907 27.7183 22.0707 27.1716C22.1507 26.6116 22.2374 26.0649 22.3307 25.5316C22.4374 24.9849 22.5307 24.4383 22.6107 23.8916C22.6907 23.3449 22.7307 22.7849 22.7307 22.2116C22.7307 22.0383 22.6907 21.8449 22.6107 21.6316C22.5441 21.4183 22.3974 21.3116 22.1707 21.3116C21.9574 21.3116 21.7107 21.4583 21.4307 21.7516C21.1507 22.0449 20.9107 22.5449 20.7107 23.2516L20.1507 23.1316C20.1907 22.8916 20.2707 22.6183 20.3907 22.3116C20.5107 21.9916 20.6707 21.6783 20.8707 21.3716C21.0841 21.0649 21.3374 20.8116 21.6307 20.6116C21.9241 20.4116 22.2707 20.3116 22.6707 20.3116ZM23.8107 15.9916C24.1174 15.9916 24.3707 16.0983 24.5707 16.3116C24.7707 16.5116 24.8707 16.7849 24.8707 17.1316C24.8707 17.4649 24.7641 17.7383 24.5507 17.9516C24.3374 18.1516 24.0841 18.2516 23.7907 18.2516C23.4974 18.2516 23.2441 18.1516 23.0307 17.9516C22.8307 17.7383 22.7307 17.4649 22.7307 17.1316C22.7307 16.7849 22.8374 16.5116 23.0507 16.3116C23.2641 16.0983 23.5174 15.9916 23.8107 15.9916Z" fill="#917108"/>
<defs>
<filter id="filter0_d_120_214" x="0.5" y="0.497986" width="50" height="50" filterUnits="userSpaceOnUse" color-interpolation-filters="sRGB">
<feFlood flood-opacity="0" result="BackgroundImageFix"/>
<feColorMatrix in="SourceAlpha" type="matrix" values="0 0 0 0 0 0 0 0 0 0 0 0 0 0 0 0 0 0 127 0" result="hardAlpha"/>
<feOffset dx="2" dy="2"/>
<feGaussianBlur stdDeviation="2"/>
<feComposite in2="hardAlpha" operator="out"/>
<feColorMatrix type="matrix" values="0 0 0 0 0 0 0 0 0 0 0 0 0 0 0 0 0 0 0.25 0"/>
<feBlend mode="normal" in2="BackgroundImageFix" result="effect1_dropShadow_120_214"/>
<feBlend mode="normal" in="SourceGraphic" in2="effect1_dropShadow_120_214" result="shape"/>
</filter>
</defs>
</svg>
