<svg width="51" height="51" viewBox="0 0 51 51" fill="none" xmlns="http://www.w3.org/2000/svg">
<g filter="url(#filter0_d_115_141)">
<rect x="2.11279" y="2.45776" width="42" height="42" fill="white"/>
<rect x="3.11279" y="3.45776" width="40" height="40" stroke="#917108" stroke-width="2"/>
</g>
<path fill-rule="evenodd" clip-rule="evenodd" d="M11.301 5.83893C11.301 5.83893 11.3551 5.37212 11.301 5.08118C10.0344 5.08118 8.77752 5.16555 7.19379 5.30641C7.08784 5.30641 6.98861 5.30822 6.89403 5.30995C6.37874 5.31936 6.00143 5.32626 5.42709 5.02374C5.2908 4.97188 5.2908 5.11459 5.2908 5.11459C5.50116 6.33085 6.47714 6.17642 6.62231 6.12083C6.41537 6.50072 6.82611 7.10456 7.28465 7.06301C7.72895 7.02274 8.16968 6.52543 7.80961 6.04842C7.77262 5.99942 7.77905 5.85852 7.87018 5.82127C8.24253 5.6691 8.5364 5.65984 8.91552 5.64789C8.98915 5.64557 9.066 5.64314 9.14725 5.63955C9.29887 5.63285 9.26469 5.65563 9.14055 5.73833C8.85557 5.92819 8.09652 6.4339 8.02294 7.62394C8.00469 7.91904 8.04726 8.17275 8.13458 8.38915L8.15354 8.56888L7.87265 8.50154L7.87835 8.50885C7.67734 8.42278 7.44962 8.3736 7.19456 8.3736C6.0444 8.3736 5.52216 9.1655 5.31924 9.47318C5.23157 9.60612 5.20351 9.64867 5.21017 9.49792C5.21376 9.41666 5.21618 9.33981 5.21851 9.26619C5.23046 8.88706 5.23972 8.59319 5.39189 8.22084C5.42913 8.12971 5.57003 8.12328 5.61904 8.16027C6.09605 8.52034 6.59336 8.07961 6.63363 7.63531C6.67518 7.17677 6.07134 6.76603 5.69144 6.97297C5.74704 6.8278 5.90147 5.85182 4.68521 5.64146C4.68521 5.64146 4.5425 5.64146 4.59435 5.77775C4.89687 6.35209 4.88998 6.7294 4.88057 7.24469V7.24469C4.87884 7.33927 4.87703 7.4385 4.87703 7.54445C4.73617 9.12818 4.6518 10.3851 4.65179 11.6517C4.94273 11.7057 5.40955 11.6517 5.40955 11.6517C5.40955 10.6776 5.96028 9.05923 7.23057 9.09411C8.56759 9.13082 8.46445 10.4001 8.24309 10.6776C8.09027 10.8692 7.84581 10.9781 7.80157 10.6776C7.75733 10.3772 7.5717 9.82323 6.94507 9.88753C6.51105 9.91531 6.20615 10.2728 6.19149 10.7075C6.21023 11.3557 6.90299 11.5862 7.13602 11.5862C7.23225 11.5862 7.35568 11.7107 7.13602 11.742C6.19865 11.8758 5.51461 12.6452 6.2258 12.9967C6.50926 13.1368 6.58312 13.2394 6.71708 13.4256L6.73918 13.4563C7.27041 14.2231 7.85763 13.3102 7.85763 12.4719C7.85763 12.0789 8.14551 12.3691 8.11183 12.4719C8.0461 12.6724 8.37487 13.4996 9.15325 13.1443C10.0079 12.7542 9.68402 11.7566 8.91544 11.5862C8.79542 11.5597 8.72815 11.4406 8.84164 11.2828C9.04406 11.0014 9.09971 10.5159 8.99876 10.0212C9.53273 10.4467 10.7406 11.8956 10.6363 12.8238C10.6353 12.8326 10.6345 12.8416 10.6336 12.8507C10.6248 12.9481 10.6148 13.0581 10.3856 13.0275C9.99388 12.9753 9.62872 13.2786 9.58128 13.6804C9.5261 14.1477 9.99388 14.4951 10.4691 14.4951C11.5241 14.4481 11.6181 13.0275 11.1585 12.0718C11.6129 12.4008 11.8202 12.9269 11.989 13.3722C12.0045 13.4131 12.0197 13.4541 12.0347 13.4948L12.0348 13.4949L12.0348 13.4949C12.2028 13.9481 12.3605 14.3736 12.838 14.4028C12.9738 14.4111 13.0804 14.3612 13.184 14.3127C13.2638 14.2754 13.3418 14.2388 13.4299 14.2304C13.5521 14.2187 13.5995 14.2192 13.7443 14.2304L13.7258 14.2113L13.7424 14.2281C13.7338 14.0832 13.7342 14.0357 13.7481 13.9137C13.7581 13.8258 13.796 13.7484 13.8348 13.6693C13.8851 13.5666 13.937 13.461 13.9311 13.3251C13.9105 12.8471 13.488 12.6817 13.0378 12.5056C12.9974 12.4897 12.9567 12.4738 12.916 12.4576C12.4738 12.2808 11.9515 12.0641 11.6307 11.6038C12.578 12.0806 14.0001 12.0122 14.0661 10.9582C14.0747 10.4831 13.7358 10.0091 13.2675 10.0558C12.865 10.096 12.5551 10.4556 12.6003 10.8482C12.6267 11.078 12.5165 11.086 12.419 11.0931C12.4099 11.0937 12.4009 11.0944 12.3921 11.0952C11.4747 11.1816 10.0736 9.98202 9.63677 9.42972C10.1617 9.51301 10.6748 9.43958 10.9322 9.27102C11.09 9.15753 11.209 9.2248 11.2356 9.34483C11.4059 10.1134 12.4035 10.4373 12.7936 9.58263C13.1489 8.80425 12.3218 8.47549 12.1212 8.54121C12.0184 8.57489 11.7283 8.28701 12.1212 8.28701C12.9595 8.28701 13.8724 7.69979 13.1056 7.16856C13.0951 7.16099 13.0849 7.15364 13.0749 7.14646C12.8888 7.0125 12.7861 6.93864 12.646 6.65518C12.2945 5.94399 11.5252 6.62803 11.3914 7.5654C11.36 7.78507 11.2356 7.66164 11.2356 7.5654C11.2356 7.33237 11.005 6.63961 10.3568 6.62087C9.92218 6.63553 9.56465 6.94043 9.53687 7.37446C9.47257 8.00108 10.0265 8.18671 10.327 8.23095C10.6274 8.27519 10.5185 8.51965 10.327 8.67248C10.0495 8.89384 8.78016 8.99697 8.74345 7.65995C8.70857 6.38966 10.327 5.83893 11.301 5.83893Z" fill="#DCC67A"/>
<path fill-rule="evenodd" clip-rule="evenodd" d="M11.301 41.2043C11.301 41.2043 11.3551 41.6711 11.301 41.962C10.0344 41.962 8.77752 41.8777 7.19379 41.7368C7.08784 41.7368 6.98861 41.735 6.89403 41.7333C6.37874 41.7238 6.00143 41.717 5.42709 42.0195C5.2908 42.0713 5.2908 41.9286 5.2908 41.9286C5.50116 40.7124 6.47714 40.8668 6.62231 40.9224C6.41537 40.5425 6.82611 39.9386 7.28465 39.9802C7.72895 40.0205 8.16968 40.5178 7.80961 40.9948C7.77262 41.0438 7.77905 41.1847 7.87018 41.2219C8.24253 41.3741 8.5364 41.3834 8.91552 41.3953C8.98915 41.3976 9.066 41.4001 9.14725 41.4037C9.29887 41.4104 9.26469 41.3876 9.14055 41.3049C8.85557 41.115 8.09652 40.6093 8.02294 39.4193C8.00469 39.1241 8.04727 38.8704 8.13461 38.654L8.15354 38.4746L7.87265 38.5419L7.87835 38.5346C7.67734 38.6207 7.44962 38.6699 7.19456 38.6699C6.0444 38.6699 5.52216 37.878 5.31924 37.5703C5.23157 37.4373 5.20351 37.3948 5.21017 37.5455C5.21376 37.6268 5.21618 37.7036 5.21851 37.7773C5.23046 38.1564 5.23972 38.4503 5.39189 38.8226C5.42913 38.9137 5.57003 38.9202 5.61904 38.8832C6.09605 38.5231 6.59336 38.9638 6.63363 39.4081C6.67518 39.8667 6.07134 40.2774 5.69144 40.0705C5.74704 40.2156 5.90147 41.1916 4.68521 41.402C4.68521 41.402 4.5425 41.402 4.59435 41.2657C4.89687 40.6914 4.88998 40.314 4.88057 39.7988C4.87884 39.7042 4.87703 39.6049 4.87703 39.499C4.73617 37.9153 4.6518 36.6584 4.65179 35.3918C4.94273 35.3377 5.40955 35.3918 5.40955 35.3918C5.40955 36.3658 5.96028 37.9842 7.23057 37.9493C8.56759 37.9126 8.46445 36.6433 8.24309 36.3658C8.09027 36.1742 7.84581 36.0654 7.80157 36.3658C7.75733 36.6663 7.5717 37.2202 6.94507 37.1559C6.51105 37.1281 6.20615 36.7706 6.19149 36.3359C6.21023 35.6877 6.90299 35.4572 7.13602 35.4572C7.23225 35.4572 7.35568 35.3327 7.13602 35.3014C6.19865 35.1676 5.51461 34.3983 6.2258 34.0468C6.50926 33.9067 6.58312 33.804 6.71708 33.6179L6.73918 33.5872C7.27041 32.8203 7.85763 33.7333 7.85763 34.5716C7.85763 34.9645 8.14551 34.6743 8.11183 34.5716C8.0461 34.371 8.37487 33.5439 9.15325 33.8992C10.0079 34.2893 9.68402 35.2869 8.91544 35.4572C8.79542 35.4838 8.72815 35.6028 8.84164 35.7606C9.04406 36.042 9.09971 36.5276 8.99876 37.0223C9.53273 36.5968 10.7406 35.1479 10.6363 34.2196C10.6353 34.2109 10.6345 34.2019 10.6336 34.1928C10.6248 34.0954 10.6148 33.9854 10.3856 34.0159C9.99388 34.0682 9.62872 33.7648 9.58128 33.3631C9.5261 32.8957 9.99388 32.5483 10.4691 32.5483C11.5241 32.5953 11.6181 34.0159 11.1585 34.9717C11.6129 34.6427 11.8202 34.1165 11.989 33.6712C12.0045 33.6303 12.0197 33.5893 12.0348 33.5486L12.0348 33.5485C12.2028 33.0953 12.3605 32.6698 12.838 32.6406C12.9738 32.6323 13.0804 32.6822 13.184 32.7307C13.2638 32.7681 13.3418 32.8046 13.4299 32.813C13.5521 32.8247 13.5995 32.8242 13.7443 32.813L13.7258 32.8321L13.7424 32.8154C13.7338 32.9603 13.7342 33.0077 13.7481 33.1297C13.7581 33.2177 13.796 33.295 13.8348 33.3741C13.8851 33.4768 13.937 33.5825 13.9311 33.7184C13.9105 34.1964 13.4879 34.3617 13.0378 34.5379L13.0376 34.5379L13.0371 34.5381C12.9969 34.5539 12.9564 34.5697 12.916 34.5859C12.4738 34.7626 11.9515 34.9794 11.6307 35.4396C12.578 34.9629 14.0001 35.0312 14.0661 36.0852C14.0747 36.5604 13.7358 37.0344 13.2675 36.9876C12.865 36.9474 12.5551 36.5878 12.6003 36.1952C12.6267 35.9654 12.5165 35.9575 12.419 35.9504L12.419 35.9504L12.419 35.9504C12.4099 35.9497 12.4009 35.9491 12.3921 35.9482C11.4748 35.8619 10.0741 37.061 9.63699 37.6135C10.1618 37.5302 10.6749 37.6037 10.9322 37.7722C11.09 37.8857 11.209 37.8184 11.2356 37.6984C11.4059 36.9298 12.4035 36.606 12.7936 37.4606C13.1489 38.239 12.3218 38.5677 12.1212 38.502C12.0184 38.4683 11.7283 38.7562 12.1212 38.7562C12.9595 38.7562 13.8724 39.3434 13.1056 39.8747C13.0951 39.8822 13.0849 39.8896 13.0749 39.8968C12.8888 40.0307 12.7861 40.1046 12.646 40.388C12.2945 41.0992 11.5252 40.4152 11.3914 39.4778C11.36 39.2581 11.2356 39.3816 11.2356 39.4778C11.2356 39.7108 11.005 40.4036 10.3568 40.4223C9.92218 40.4077 9.56465 40.1028 9.53687 39.6688C9.47257 39.0421 10.0265 38.8565 10.327 38.8123C10.6274 38.768 10.5185 38.5236 10.327 38.3707C10.0495 38.1494 8.78016 38.0462 8.74345 39.3833C8.70857 40.6536 10.327 41.2043 11.301 41.2043Z" fill="#DCC67A"/>
<path fill-rule="evenodd" clip-rule="evenodd" d="M34.9624 41.2043C34.9624 41.2043 34.9084 41.6711 34.9624 41.962C36.229 41.962 37.4859 41.8777 39.0696 41.7368C39.1756 41.7368 39.2748 41.735 39.3694 41.7333C39.8847 41.7238 40.262 41.717 40.8363 42.0195C40.9726 42.0713 40.9726 41.9286 40.9726 41.9286C40.7623 40.7124 39.7863 40.8668 39.6411 40.9224C39.8481 40.5425 39.4373 39.9386 38.9788 39.9802C38.5345 40.0205 38.0938 40.5178 38.4538 40.9948C38.4908 41.0438 38.4844 41.1847 38.3933 41.2219C38.0209 41.3741 37.727 41.3834 37.3479 41.3953C37.2743 41.3976 37.1974 41.4001 37.1162 41.4037C36.9646 41.4104 36.9987 41.3876 37.1229 41.3049C37.4079 41.115 38.1669 40.6093 38.2405 39.4193C38.2587 39.1245 38.2163 38.871 38.1291 38.6548L38.1101 38.4746L38.3908 38.5419L38.385 38.5344C38.5861 38.6206 38.8139 38.6699 39.0691 38.6699C40.2193 38.6699 40.7415 37.878 40.9444 37.5703C41.0321 37.4373 41.0602 37.3948 41.0535 37.5455C41.0499 37.6268 41.0475 37.7036 41.0452 37.7773C41.0332 38.1564 41.0239 38.4503 40.8718 38.8226C40.8345 38.9137 40.6936 38.9202 40.6446 38.8832C40.1676 38.5231 39.6703 38.9638 39.63 39.4081C39.5885 39.8667 40.1923 40.2774 40.5722 40.0705C40.5166 40.2156 40.3622 41.1916 41.5785 41.402C41.5785 41.402 41.7212 41.402 41.6693 41.2657C41.3668 40.6914 41.3737 40.314 41.3831 39.7988C41.3848 39.7042 41.3866 39.6049 41.3866 39.499C41.5275 37.9153 41.6119 36.6584 41.6119 35.3918C41.3209 35.3377 40.8541 35.3918 40.8541 35.3918C40.8541 36.3658 40.3034 37.9842 39.0331 37.9493C37.6961 37.9126 37.7992 36.6433 38.0206 36.3658C38.1734 36.1742 38.4179 36.0654 38.4621 36.3658C38.5063 36.6663 38.692 37.2202 39.3186 37.1559C39.7526 37.1281 40.0575 36.7706 40.0722 36.3359C40.0534 35.6877 39.3607 35.4572 39.1277 35.4572C39.0314 35.4572 38.908 35.3327 39.1277 35.3014C40.065 35.1676 40.7491 34.3983 40.0379 34.0468C39.7544 33.9067 39.6806 33.804 39.5466 33.6179L39.5245 33.5872C38.9933 32.8203 38.406 33.7333 38.406 34.5716C38.406 34.9645 38.1182 34.6743 38.1518 34.5716C38.2176 34.371 37.8888 33.5439 37.1104 33.8992C36.2558 34.2893 36.5797 35.2869 37.3482 35.4572C37.4683 35.4838 37.5355 35.6028 37.422 35.7606C37.2196 36.0421 37.1639 36.5277 37.265 37.0225C36.7311 36.5973 35.5228 35.148 35.6272 34.2196C35.6281 34.2109 35.629 34.2019 35.6298 34.1928C35.6386 34.0954 35.6486 33.9854 35.8779 34.0159C36.2696 34.0682 36.6347 33.7648 36.6822 33.3631C36.7373 32.8957 36.2696 32.5483 35.7943 32.5483C34.7393 32.5953 34.6453 34.0159 35.1049 34.9717C34.6505 34.6427 34.4432 34.1165 34.2745 33.6712C34.259 33.6303 34.2438 33.5893 34.2287 33.5486L34.2287 33.5485C34.0607 33.0953 33.903 32.6698 33.4254 32.6406C33.2897 32.6323 33.183 32.6822 33.0795 32.7307C32.9997 32.7681 32.9217 32.8046 32.8336 32.813C32.7113 32.8247 32.6639 32.8242 32.5191 32.813L32.5265 32.8206L32.5213 32.8154C32.5299 32.9603 32.5295 33.0077 32.5156 33.1297C32.5056 33.2177 32.4677 33.295 32.4289 33.3741C32.3785 33.4768 32.3267 33.5825 32.3326 33.7184C32.3531 34.1964 32.7757 34.3617 33.2258 34.5379L33.226 34.5379L33.2266 34.5381C33.2668 34.5539 33.3073 34.5697 33.3477 34.5859C33.7899 34.7626 34.3122 34.9794 34.633 35.4396C33.6856 34.9629 32.2636 35.0312 32.1976 36.0852C32.189 36.5604 32.5279 37.0344 32.9962 36.9876C33.3987 36.9474 33.7086 36.5878 33.6634 36.1952C33.637 35.9654 33.7472 35.9575 33.8447 35.9504C33.8538 35.9497 33.8628 35.9491 33.8716 35.9482C34.7889 35.8619 36.1897 37.0611 36.6267 37.6135C36.1018 37.5302 35.5886 37.6036 35.3313 37.7722C35.1735 37.8857 35.0544 37.8184 35.0279 37.6984C34.8575 36.9298 33.8599 36.606 33.4698 37.4606C33.1145 38.239 33.9417 38.5677 34.1422 38.502C34.245 38.4683 34.5352 38.7562 34.1422 38.7562C33.3039 38.7562 32.391 39.3434 33.1578 39.8747C33.1683 39.8822 33.1785 39.8896 33.1885 39.8968C33.3747 40.0307 33.4773 40.1046 33.6174 40.388C33.9689 41.0992 34.7383 40.4152 34.872 39.4778C34.9034 39.2581 35.0279 39.3816 35.0279 39.4778C35.0279 39.7108 35.2584 40.4036 35.9066 40.4223C36.3413 40.4077 36.6988 40.1028 36.7266 39.6688C36.7909 39.0421 36.2369 38.8565 35.9365 38.8123C35.636 38.768 35.7449 38.5236 35.9365 38.3707C36.214 38.1494 37.4833 38.0462 37.52 39.3833C37.5549 40.6536 35.9365 41.2043 34.9624 41.2043Z" fill="#DCC67A"/>
<path fill-rule="evenodd" clip-rule="evenodd" d="M34.9634 5.83917C34.9634 5.83917 34.9093 5.37236 34.9634 5.08142C36.23 5.08142 37.4869 5.1658 39.0706 5.30665C39.1766 5.30665 39.2758 5.30847 39.3704 5.31019C39.8857 5.31961 40.263 5.3265 40.8373 5.02398C40.9736 4.97212 40.9736 5.11484 40.9736 5.11484C40.7632 6.33109 39.7873 6.17666 39.6421 6.12107C39.849 6.50096 39.4383 7.10481 38.9797 7.06325C38.5354 7.02299 38.0947 6.52567 38.4548 6.04866C38.4918 5.99966 38.4853 5.85876 38.3942 5.82152C38.0219 5.66935 37.728 5.66008 37.3489 5.64813C37.2752 5.64581 37.1984 5.64339 37.1171 5.6398C36.9655 5.6331 36.9997 5.65587 37.1238 5.73858C37.4088 5.92844 38.1679 6.43414 38.2415 7.62419C38.2597 7.91932 38.2171 8.17306 38.1298 8.38947L38.1108 8.56901L38.3913 8.50178L38.3855 8.50925C38.5866 8.42308 38.8144 8.37384 39.0696 8.37384C40.2198 8.37384 40.742 9.16574 40.9449 9.47343C41.0326 9.60636 41.0606 9.64891 41.054 9.49816C41.0504 9.4169 41.048 9.34006 41.0457 9.26643C41.0337 8.8873 41.0244 8.59343 40.8723 8.22109C40.835 8.12995 40.6941 8.12353 40.6451 8.16051C40.1681 8.52058 39.6708 8.07985 39.6305 7.63555C39.589 7.17701 40.1928 6.76628 40.5727 6.97321C40.5171 6.82805 40.3627 5.85206 41.579 5.64171C41.579 5.64171 41.7217 5.64171 41.6698 5.77799C41.3673 6.35233 41.3742 6.72964 41.3836 7.24493V7.24493C41.3853 7.33952 41.3871 7.43874 41.3871 7.54469C41.528 9.12843 41.6124 10.3853 41.6124 11.6519C41.3214 11.706 40.8546 11.6519 40.8546 11.6519C40.8546 10.6779 40.3039 9.05947 39.0336 9.09435C37.6966 9.13107 37.7997 10.4004 38.0211 10.6779C38.1739 10.8695 38.4184 10.9783 38.4626 10.6779C38.5068 10.3774 38.6925 9.82348 39.3191 9.88777C39.7531 9.91555 40.058 10.2731 40.0727 10.7077C40.0539 11.356 39.3612 11.5865 39.1281 11.5865C39.0319 11.5865 38.9085 11.7109 39.1281 11.7423C40.0655 11.8761 40.7496 12.6454 40.0384 12.9969C39.7549 13.137 39.681 13.2397 39.5471 13.4258L39.525 13.4565C38.9938 14.2234 38.4065 13.3104 38.4065 12.4721C38.4065 12.0792 38.1187 12.3693 38.1523 12.4721C38.2181 12.6727 37.8893 13.4998 37.1109 13.1445C36.2563 12.7544 36.5801 11.7568 37.3487 11.5865C37.4687 11.5599 37.536 11.4409 37.4225 11.2831C37.2201 11.0016 37.1644 10.516 37.2654 10.0212C36.7316 10.4464 35.5233 11.8957 35.6276 12.8241C35.6286 12.8328 35.6294 12.8418 35.6303 12.8509C35.6391 12.9483 35.6491 13.0583 35.8783 13.0278C36.27 12.9755 36.6352 13.2789 36.6826 13.6806C36.7378 14.148 36.27 14.4954 35.7948 14.4954C34.7398 14.4483 34.6458 13.0278 35.1054 12.072C34.651 12.401 34.4437 12.9272 34.275 13.3725C34.2595 13.4134 34.2443 13.4544 34.2292 13.4951L34.2291 13.4951C34.0612 13.9484 33.9034 14.3739 33.4259 14.4031C33.2901 14.4114 33.1835 14.3615 33.0799 14.313C33.0002 14.2756 32.9222 14.2391 32.834 14.2307C32.7118 14.2189 32.6644 14.2194 32.5196 14.2307L32.527 14.2231L32.522 14.2281C32.5306 14.0832 32.5302 14.0357 32.5163 13.9137C32.5063 13.8258 32.4684 13.7484 32.4296 13.6694C32.3793 13.5667 32.3274 13.461 32.3333 13.3251C32.3538 12.8471 32.7764 12.6817 33.2266 12.5056L33.2268 12.5055L33.2273 12.5053C33.2675 12.4896 33.308 12.4737 33.3484 12.4576C33.7906 12.2808 34.3129 12.0641 34.6337 11.6038C33.6864 12.0806 32.2643 12.0122 32.1983 10.9583C32.1897 10.4831 32.5286 10.0091 32.9969 10.0558C33.3994 10.096 33.7093 10.4557 33.6641 10.8482C33.6377 11.078 33.7479 11.086 33.8454 11.0931C33.8545 11.0937 33.8635 11.0944 33.8723 11.0952C34.7896 11.1816 36.1903 9.98242 36.6274 9.43C36.1026 9.51324 35.5895 9.4398 35.3322 9.27127C35.1744 9.15778 35.0554 9.22505 35.0288 9.34507C34.8585 10.1136 33.8609 10.4375 33.4708 9.58287C33.1155 8.80449 33.9426 8.47573 34.1432 8.54146C34.246 8.57513 34.5361 8.28725 34.1432 8.28725C33.3049 8.28725 32.3919 7.70003 33.1588 7.1688C33.1693 7.16124 33.1795 7.15388 33.1895 7.1467C33.3756 7.01275 33.4783 6.93889 33.6184 6.65543C33.9699 5.94424 34.7392 6.62827 34.873 7.56564C34.9044 7.78531 35.0288 7.66188 35.0288 7.56564C35.0288 7.33262 35.2593 6.63986 35.9076 6.62112C36.3422 6.63577 36.6997 6.94068 36.7275 7.3747C36.7918 8.00133 36.2379 8.18695 35.9374 8.23119C35.637 8.27544 35.7458 8.5199 35.9374 8.67272C36.2149 8.89408 37.4842 8.99722 37.5209 7.6602C37.5558 6.38991 35.9374 5.83917 34.9634 5.83917Z" fill="#DCC67A"/>
<path d="M34.9421 5.08276H11.2939V5.84058H34.9421V5.08276Z" fill="#DCC67A"/>
<path d="M34.9791 41.2063H11.2695V41.9641H34.9791V41.2063Z" fill="#DCC67A"/>
<path d="M40.8535 11.566V35.4167H41.6113V11.566H40.8535Z" fill="#DCC67A"/>
<path d="M4.64941 11.566L4.64941 35.4167H5.40723L5.40723 11.566H4.64941Z" fill="#DCC67A"/>
<circle cx="23.0894" cy="23.6005" r="8.02295" stroke="#917108" stroke-width="2"/>
<line x1="29.0035" y1="18.0235" x2="17.5147" y2="29.5124" stroke="#917108" stroke-width="2"/>
<defs>
<filter id="filter0_d_115_141" x="0.112793" y="0.457764" width="50" height="50" filterUnits="userSpaceOnUse" color-interpolation-filters="sRGB">
<feFlood flood-opacity="0" result="BackgroundImageFix"/>
<feColorMatrix in="SourceAlpha" type="matrix" values="0 0 0 0 0 0 0 0 0 0 0 0 0 0 0 0 0 0 127 0" result="hardAlpha"/>
<feOffset dx="2" dy="2"/>
<feGaussianBlur stdDeviation="2"/>
<feComposite in2="hardAlpha" operator="out"/>
<feColorMatrix type="matrix" values="0 0 0 0 0 0 0 0 0 0 0 0 0 0 0 0 0 0 0.25 0"/>
<feBlend mode="normal" in2="BackgroundImageFix" result="effect1_dropShadow_115_141"/>
<feBlend mode="normal" in="SourceGraphic" in2="effect1_dropShadow_115_141" result="shape"/>
</filter>
</defs>
</svg>
