<svg width="126" height="44" viewBox="0 0 126 44" fill="none" xmlns="http://www.w3.org/2000/svg">
<path fill-rule="evenodd" clip-rule="evenodd" d="M8.19274 1.72964L8.1925 1.73178C7.04485 1.73178 5.13802 2.38066 5.17912 3.87735C5.22238 5.45265 6.71789 5.33113 7.04485 5.07032C7.27058 4.89026 7.39887 4.60223 7.04485 4.5501C6.69083 4.49798 6.03819 4.27927 6.11394 3.54097C6.14667 3.02959 6.56792 2.67035 7.08005 2.65308C7.84378 2.67516 8.1154 3.49138 8.1154 3.76594C8.1154 3.87933 8.26204 4.02476 8.29897 3.76594C8.45659 2.66151 9.36306 1.85557 9.77719 2.69351C9.94225 3.02748 10.0632 3.11451 10.2825 3.27234L10.3187 3.29838C11.2222 3.92428 10.1466 4.61616 9.15885 4.61616C8.6959 4.61616 9.03778 4.95534 9.15885 4.91566C9.39519 4.83822 10.3697 5.22558 9.9511 6.14268C9.49149 7.14962 8.31607 6.76804 8.1154 5.86249C8.08407 5.72108 7.94383 5.64182 7.75793 5.77554C7.45474 5.97412 6.85017 6.06065 6.23175 5.96253C6.74664 6.61337 8.39714 8.02637 9.47794 7.92463C9.48828 7.92366 9.49889 7.92289 9.50963 7.92211H9.50964C9.62453 7.91377 9.75436 7.90435 9.72322 7.63364C9.67001 7.17109 10.0351 6.74736 10.5094 6.70002C11.0611 6.64494 11.4604 7.20338 11.4503 7.76326C11.3725 9.00507 9.69703 9.08563 8.58088 8.5239C8.95884 9.06616 9.57423 9.32154 10.0952 9.52978C10.143 9.5489 10.1909 9.56764 10.2386 9.58628L10.2388 9.58636C10.7691 9.79388 11.267 9.98872 11.2913 10.5519C11.2981 10.712 11.2371 10.8365 11.1778 10.9575C11.1321 11.0507 11.0874 11.1418 11.0756 11.2455C11.0592 11.3892 11.0588 11.4451 11.0689 11.6159L11.0617 11.6086L11.0714 11.6186C10.9009 11.6054 10.845 11.6048 10.701 11.6186C10.5972 11.6286 10.5053 11.6716 10.4113 11.7156C10.2892 11.7727 10.1636 11.8316 10.0037 11.8218C9.44101 11.7874 9.25518 11.286 9.05725 10.752L9.05717 10.7518C9.0394 10.7039 9.02153 10.6557 9.00328 10.6075C8.80446 10.0828 8.56022 9.46295 8.02487 9.07527C8.56638 10.2014 8.45561 11.8751 7.2126 11.9305C6.65263 11.9305 6.10148 11.5212 6.1665 10.9706C6.22239 10.4972 6.65263 10.1398 7.11414 10.2014C7.38426 10.2374 7.39601 10.1077 7.40642 9.99303L7.40776 9.97845L7.40951 9.96138C7.53243 8.86745 6.10861 7.15974 5.47972 6.65885C5.59881 7.24193 5.53328 7.81429 5.29471 8.14596C5.16099 8.33185 5.24025 8.4721 5.38166 8.50343C6.28721 8.70409 6.66879 9.87952 5.66185 10.3391C4.74474 10.7577 4.35739 9.78321 4.43483 9.54688C4.4745 9.42581 4.13532 9.08393 4.13532 9.54688C4.13532 10.5346 3.44345 11.6102 2.81754 10.7067L2.7915 10.6706C2.63367 10.4512 2.54665 10.3303 2.21267 10.1652C1.37473 9.75109 2.18067 8.84462 3.2851 8.687C3.54392 8.65007 3.39849 8.50343 3.2851 8.50343C3.01055 8.50343 2.19432 8.23181 2.17225 7.46808C2.18951 6.95595 2.54876 6.5347 3.06013 6.50197C3.79844 6.42621 4.01714 7.07886 4.06927 7.43288C4.1214 7.7869 4.40942 7.6586 4.58948 7.43288C4.85029 7.10592 4.97181 5.61041 3.39651 5.56715C1.92051 5.52662 1.26903 7.38057 1.25132 8.53253H1.25222V35.5509C1.28467 36.7053 1.93809 38.5149 3.39651 38.4748C4.97181 38.4316 4.85029 36.9361 4.58948 36.6091C4.40942 36.3834 4.1214 36.2551 4.06927 36.6091C4.01714 36.9631 3.79844 37.6158 3.06013 37.54C2.54876 37.5073 2.18951 37.086 2.17225 36.5739C2.19432 35.8102 3.01055 35.5386 3.2851 35.5386C3.39849 35.5386 3.54392 35.3919 3.2851 35.355C2.18067 35.1974 1.37473 34.2909 2.21267 33.8768C2.54665 33.7117 2.63367 33.5908 2.7915 33.3714L2.81754 33.3353C3.44345 32.4318 4.13532 33.5074 4.13532 34.4951C4.13532 34.9581 4.4745 34.6162 4.43483 34.4951C4.35739 34.2588 4.74474 33.2843 5.66185 33.7029C6.66879 34.1625 6.28721 35.3379 5.38166 35.5386C5.24025 35.5699 5.16099 35.7101 5.29471 35.896C5.53328 36.2277 5.59881 36.8001 5.47972 37.3831C6.10861 36.8822 7.53243 35.1745 7.40951 34.0806L7.40776 34.0635L7.40642 34.049C7.39601 33.9342 7.38426 33.8046 7.11414 33.8406C6.65263 33.9022 6.22239 33.5448 6.1665 33.0714C6.10148 32.5208 6.65263 32.1115 7.2126 32.1115C8.45561 32.1669 8.56638 33.8406 8.02487 34.9667C8.56022 34.579 8.80446 33.9591 9.00328 33.4345C9.02153 33.3863 9.0394 33.3381 9.05717 33.2902L9.05725 33.2899C9.25518 32.756 9.44101 32.2546 10.0037 32.2202C10.1636 32.2104 10.2892 32.2692 10.4113 32.3264C10.5053 32.3704 10.5972 32.4134 10.701 32.4234C10.845 32.4371 10.9009 32.4366 11.0714 32.4234L11.0617 32.4334L11.0689 32.4261C11.0588 32.5969 11.0592 32.6528 11.0756 32.7965C11.0874 32.9002 11.1321 32.9913 11.1778 33.0845C11.2371 33.2055 11.2981 33.33 11.2913 33.4901C11.267 34.0533 10.7691 34.2481 10.2388 34.4556L10.2386 34.4557C10.1909 34.4743 10.143 34.4931 10.0952 34.5122C9.57423 34.7205 8.95884 34.9758 8.58088 35.5181C9.69703 34.9564 11.3725 35.0369 11.4503 36.2787C11.4604 36.8386 11.0611 37.3971 10.5094 37.342C10.0351 37.2946 9.67001 36.8709 9.72322 36.4084C9.75436 36.1376 9.62453 36.1282 9.50964 36.1199L9.49217 36.1186L9.47794 36.1174C8.39714 36.0156 6.74664 37.4286 6.23175 38.0795C6.85017 37.9813 7.45474 38.0679 7.75793 38.2664C7.94383 38.4002 8.08407 38.3209 8.1154 38.1795C8.31607 37.2739 9.49149 36.8924 9.9511 37.8993C10.3697 38.8164 9.39519 39.2038 9.15885 39.1263C9.03778 39.0867 8.6959 39.4258 9.15885 39.4258C10.1466 39.4258 11.2222 40.1177 10.3187 40.7436L10.2825 40.7697C10.0632 40.9275 9.94225 41.0145 9.77719 41.3485C9.36306 42.1864 8.45659 41.3805 8.29897 40.2761C8.26204 40.0172 8.1154 40.1627 8.1154 40.2761C8.1154 40.5506 7.84378 41.3668 7.08005 41.3889C6.56792 41.3716 6.14667 41.0124 6.11394 40.501C6.03819 39.7627 6.69083 39.544 7.04485 39.4919C7.39887 39.4398 7.27058 39.1517 7.04485 38.9717C6.71789 38.7109 5.22238 38.5893 5.17912 40.1646C5.13802 41.6613 7.04485 42.3102 8.1925 42.3102L8.19259 42.311H117.927L117.927 42.3102C119.075 42.3102 120.981 41.6613 120.94 40.1646C120.897 38.5893 119.401 38.7109 119.075 38.9717C118.849 39.1517 118.721 39.4398 119.075 39.4919C119.429 39.544 120.081 39.7627 120.005 40.501C119.973 41.0124 119.551 41.3716 119.039 41.3889C118.276 41.3668 118.004 40.5506 118.004 40.2761C118.004 40.1627 117.857 40.0172 117.82 40.2761C117.663 41.3805 116.756 42.1864 116.342 41.3485C116.177 41.0145 116.056 40.9275 115.837 40.7697L115.801 40.7436C114.897 40.1177 115.973 39.4258 116.961 39.4258C117.423 39.4258 117.082 39.0867 116.961 39.1263C116.724 39.2038 115.75 38.8164 116.168 37.8993C116.628 36.8924 117.803 37.2739 118.004 38.1795C118.035 38.3209 118.176 38.4002 118.361 38.2664C118.665 38.0679 119.269 37.9813 119.888 38.0795C119.373 37.4286 117.722 36.0156 116.641 36.1174C116.631 36.1183 116.62 36.1191 116.61 36.1199C116.495 36.1282 116.365 36.1376 116.396 36.4084C116.449 36.8709 116.084 37.2946 115.61 37.342C115.058 37.3971 114.659 36.8386 114.669 36.2787C114.747 35.0369 116.422 34.9564 117.539 35.5181C117.161 34.9758 116.545 34.7205 116.024 34.5122C115.976 34.4931 115.928 34.4743 115.881 34.4557L115.881 34.4556C115.35 34.2481 114.852 34.0533 114.828 33.4901C114.821 33.33 114.882 33.2055 114.942 33.0845C114.987 32.9913 115.032 32.9002 115.044 32.7965C115.06 32.6528 115.061 32.5969 115.05 32.4261L115.048 32.4234C115.218 32.4366 115.274 32.4371 115.418 32.4234C115.522 32.4134 115.614 32.3704 115.708 32.3264C115.83 32.2692 115.956 32.2104 116.116 32.2202C116.678 32.2546 116.864 32.756 117.062 33.2899L117.062 33.2902C117.08 33.3381 117.098 33.3863 117.116 33.4345C117.315 33.9591 117.559 34.579 118.095 34.9667C117.553 33.8406 117.664 32.1669 118.907 32.1115C119.467 32.1115 120.018 32.5208 119.953 33.0714C119.897 33.5448 119.467 33.9022 119.005 33.8406C118.735 33.8046 118.723 33.9342 118.713 34.049L118.712 34.0635L118.71 34.0806C118.587 35.1745 120.011 36.8822 120.64 37.3831C120.521 36.8001 120.586 36.2277 120.825 35.896C120.958 35.7101 120.879 35.5699 120.738 35.5386C119.832 35.3379 119.451 34.1625 120.458 33.7029C121.375 33.2843 121.762 34.2588 121.685 34.4951C121.645 34.6162 121.984 34.9581 121.984 34.4951C121.984 33.5074 122.676 32.4318 123.302 33.3353L123.328 33.3714C123.486 33.5908 123.573 33.7117 123.907 33.8768C124.745 34.2909 123.939 35.1974 122.834 35.355C122.575 35.3919 122.721 35.5386 122.834 35.5386C123.109 35.5386 123.925 35.8102 123.947 36.5739C123.93 37.086 123.571 37.5073 123.059 37.54C122.321 37.6158 122.102 36.9631 122.05 36.6091C121.998 36.2551 121.71 36.3834 121.53 36.6091C121.269 36.9361 121.148 38.4316 122.723 38.4748C124.22 38.5159 124.868 36.6091 124.868 35.4615C124.868 35.4615 124.87 35.4612 124.874 35.4608V8.58063C124.874 8.58056 124.873 8.58052 124.873 8.58052C124.873 7.43288 124.224 5.52605 122.728 5.56715C121.152 5.61041 121.274 7.10592 121.535 7.43288C121.715 7.6586 122.003 7.7869 122.055 7.43288C122.107 7.07886 122.326 6.42621 123.064 6.50197C123.576 6.5347 123.935 6.95595 123.952 7.46808C123.93 8.23181 123.114 8.50343 122.839 8.50343C122.726 8.50343 122.58 8.65007 122.839 8.687C123.944 8.84462 124.75 9.75109 123.912 10.1652C123.578 10.3303 123.491 10.4512 123.333 10.6706L123.307 10.7067C122.681 11.6102 121.989 10.5346 121.989 9.54688C121.989 9.08393 121.65 9.42581 121.689 9.54688C121.767 9.78321 121.38 10.7577 120.462 10.3391C119.455 9.87952 119.837 8.70409 120.743 8.50343C120.884 8.4721 120.963 8.33185 120.83 8.14596C120.591 7.81429 120.525 7.24193 120.645 6.65885C120.016 7.15974 118.592 8.86745 118.715 9.96138L118.717 9.97845L118.718 9.99303C118.728 10.1077 118.74 10.2374 119.01 10.2014C119.472 10.1398 119.902 10.4972 119.958 10.9706C120.023 11.5212 119.472 11.9305 118.912 11.9305C117.669 11.8751 117.558 10.2014 118.099 9.07527C117.564 9.46295 117.32 10.0828 117.121 10.6075C117.103 10.6557 117.085 10.7039 117.067 10.7518L117.067 10.752C116.869 11.286 116.683 11.7874 116.121 11.8218C115.961 11.8316 115.835 11.7727 115.713 11.7156C115.619 11.6716 115.527 11.6286 115.423 11.6186C115.279 11.6048 115.223 11.6054 115.053 11.6186L115.055 11.6159C115.066 11.4451 115.065 11.3892 115.049 11.2455C115.037 11.1418 114.992 11.0507 114.947 10.9575C114.887 10.8365 114.826 10.712 114.833 10.5519C114.857 9.98872 115.355 9.79388 115.885 9.58636L115.886 9.58628C115.933 9.56764 115.981 9.5489 116.029 9.52978C116.55 9.32154 117.165 9.06616 117.543 8.5239C116.427 9.08563 114.752 9.00507 114.674 7.76326C114.664 7.20338 115.063 6.64494 115.615 6.70002C116.089 6.74736 116.454 7.17109 116.401 7.63364C116.37 7.90435 116.5 7.91377 116.615 7.92211L116.629 7.92317L116.646 7.92463C117.727 8.02637 119.378 6.61337 119.893 5.96253C119.274 6.06065 118.67 5.97412 118.366 5.77554C118.18 5.64182 118.04 5.72108 118.009 5.86249C117.808 6.76804 116.633 7.14962 116.173 6.14268C115.755 5.22558 116.729 4.83822 116.965 4.91566C117.086 4.95534 117.428 4.61616 116.965 4.61616C115.978 4.61616 114.902 3.92428 115.806 3.29838L115.842 3.27234C116.061 3.11451 116.182 3.02748 116.347 2.69351C116.761 1.85557 117.668 2.66151 117.825 3.76594C117.862 4.02476 118.009 3.87933 118.009 3.76594C118.009 3.49138 118.28 2.67516 119.044 2.65308C119.556 2.67035 119.978 3.02959 120.01 3.54097C120.086 4.27927 119.433 4.49798 119.079 4.5501C118.725 4.60223 118.854 4.89026 119.079 5.07032C119.406 5.33113 120.902 5.45265 120.945 3.87735C120.986 2.38066 119.079 1.73178 117.932 1.73178L117.932 1.72964H8.19274ZM125.766 8.58061C125.766 8.58058 125.766 8.58055 125.766 8.58052C125.766 7.08819 125.667 5.6073 125.501 3.74131C125.501 3.61648 125.499 3.49956 125.497 3.38813C125.485 2.781 125.477 2.33644 125.834 1.65975C125.895 1.49917 125.727 1.49917 125.727 1.49917C124.294 1.74701 124.476 2.89694 124.541 3.06797C124.094 2.82416 123.382 3.3081 123.431 3.84836C123.479 4.37184 124.064 4.89112 124.626 4.46688C124.684 4.4233 124.85 4.43087 124.894 4.53825C125.073 4.97695 125.084 5.32319 125.098 5.76989C125.101 5.85664 125.104 5.94718 125.108 6.04292C125.116 6.22054 125.083 6.17041 124.98 6.01378C124.741 5.65126 124.125 4.71823 122.77 4.71823C122.469 4.71823 122.201 4.77629 121.964 4.8779L121.971 4.86877L121.64 4.94804L121.663 4.73631C121.765 4.48139 121.816 4.18252 121.794 3.83492C121.707 2.43278 120.813 1.83695 120.477 1.61325C120.331 1.51581 120.291 1.48898 120.469 1.49687C120.565 1.5011 120.656 1.50396 120.742 1.50669C121.189 1.52077 121.535 1.53169 121.974 1.71097C122.081 1.75486 122.089 1.92087 122.045 1.9786C121.621 2.54063 122.14 3.12657 122.664 3.17401C123.204 3.22297 123.688 2.51151 123.444 2.06392C123.615 2.12942 124.765 2.31137 125.013 0.87835C125.013 0.87835 125.013 0.710205 124.853 0.771303C124.176 1.12774 123.731 1.11962 123.124 1.10852C123.013 1.10649 122.896 1.10435 122.771 1.10435C120.913 0.939129 119.437 0.839866 117.952 0.838986V0.838257H8.15283V0.839003C6.67389 0.840748 5.20273 0.939862 3.35328 1.10435C3.22845 1.10435 3.11154 1.10649 3.0001 1.10852H3.0001C2.39297 1.11962 1.94841 1.12774 1.27172 0.771303C1.11114 0.710205 1.11114 0.87835 1.11114 0.87835C1.35899 2.31137 2.50891 2.12942 2.67995 2.06392C2.43613 2.51151 2.92007 3.22297 3.46033 3.17401C3.98381 3.12657 4.50309 2.54063 4.07885 1.9786C4.03527 1.92087 4.04284 1.75486 4.15022 1.71097C4.58892 1.53169 4.93517 1.52077 5.38186 1.50669C5.46861 1.50396 5.55915 1.5011 5.65489 1.49687C5.83353 1.48898 5.79325 1.51581 5.64699 1.61325C5.31123 1.83695 4.4169 2.43278 4.3302 3.83492C4.30871 4.18252 4.35883 4.48139 4.46166 4.73631L4.484 4.94804L4.15336 4.86877L4.16047 4.8779C3.92346 4.77629 3.65491 4.71823 3.35408 4.71823C1.99894 4.71823 1.38362 5.65126 1.14454 6.01378C1.04125 6.17041 1.00819 6.22054 1.01604 6.04292C1.02027 5.94718 1.02312 5.85664 1.02586 5.76989C1.03994 5.32319 1.05085 4.97695 1.23014 4.53825C1.27402 4.43087 1.44003 4.4233 1.49777 4.46688C2.05979 4.89112 2.64574 4.37184 2.69318 3.84836C2.74214 3.3081 2.03068 2.82416 1.58308 3.06797C1.64858 2.89694 1.83053 1.74701 0.397515 1.49917C0.397515 1.49917 0.22937 1.49917 0.290468 1.65975C0.646903 2.33644 0.638782 2.781 0.62769 3.38812V3.38813C0.625654 3.49956 0.623518 3.61648 0.623518 3.74131C0.457557 5.6073 0.358146 7.08819 0.358145 8.58052L0.36084 8.58102V35.461L0.358145 35.4615C0.358146 36.9538 0.457557 38.4347 0.623518 40.3007C0.623518 40.4255 0.625654 40.5424 0.62769 40.6539C0.638782 41.261 0.646903 41.7056 0.290468 42.3822C0.22937 42.5428 0.397515 42.5428 0.397515 42.5428C1.83053 42.295 1.64858 41.1451 1.58308 40.974C2.03068 41.2178 2.74214 40.7339 2.69318 40.1936C2.64574 39.6702 2.05979 39.1509 1.49777 39.5751C1.44003 39.6187 1.27402 39.6111 1.23014 39.5037C1.05085 39.065 1.03994 38.7188 1.02586 38.2721C1.02312 38.1854 1.02027 38.0948 1.01604 37.9991C1.00819 37.8215 1.04125 37.8716 1.14454 38.0282C1.38362 38.3907 1.99894 39.3238 3.35408 39.3238C3.65491 39.3238 3.92346 39.2657 4.16047 39.1641L4.15336 39.1732L4.484 39.094L4.46166 39.3057C4.35883 39.5606 4.30871 39.8595 4.3302 40.2071C4.4169 41.6092 5.31123 42.205 5.64699 42.4287C5.79325 42.5262 5.83353 42.553 5.65489 42.5451C5.55937 42.5409 5.46903 42.5381 5.38247 42.5353H5.38232L5.38212 42.5353L5.38186 42.5353C4.93517 42.5212 4.58892 42.5103 4.15022 42.331C4.04284 42.2871 4.03527 42.1211 4.07885 42.0634C4.50309 41.5014 3.98381 40.9154 3.46033 40.868C2.92007 40.819 2.43613 41.5305 2.67995 41.9781C2.50891 41.9126 1.35899 41.7306 1.11114 43.1636C1.11114 43.1636 1.11114 43.3318 1.27172 43.2707C1.94841 42.9143 2.39297 42.9224 3.0001 42.9335C3.11153 42.9355 3.22845 42.9376 3.35328 42.9376C5.21927 43.1036 6.70016 43.203 8.1925 43.203L8.19261 43.2024H117.927L117.927 43.203C119.419 43.203 120.9 43.1036 122.766 42.9376C122.891 42.9376 123.008 42.9355 123.119 42.9335C123.726 42.9224 124.171 42.9143 124.848 43.2707C125.008 43.3318 125.008 43.1636 125.008 43.1636C124.76 41.7306 123.61 41.9126 123.439 41.9781C123.683 41.5305 123.199 40.819 122.659 40.868C122.136 40.9154 121.616 41.5014 122.041 42.0634C122.084 42.1211 122.077 42.2871 121.969 42.331C121.53 42.5103 121.184 42.5212 120.738 42.5353C120.651 42.538 120.56 42.5409 120.464 42.5451C120.286 42.553 120.326 42.5262 120.472 42.4287C120.808 42.205 121.702 41.6092 121.789 40.2071C121.811 39.8595 121.761 39.5606 121.658 39.3057L121.635 39.094L121.966 39.1732L121.959 39.1641C122.196 39.2657 122.464 39.3238 122.765 39.3238C124.12 39.3238 124.736 38.3907 124.975 38.0282C125.078 37.8716 125.111 37.8215 125.103 37.9991C125.099 38.0941 125.096 38.184 125.094 38.2701L125.094 38.271L125.094 38.2721C125.079 38.7188 125.069 39.065 124.889 39.5037C124.845 39.6111 124.679 39.6187 124.622 39.5751C124.06 39.1509 123.474 39.6702 123.426 40.1936C123.377 40.7339 124.089 41.2178 124.536 40.974C124.471 41.1451 124.289 42.295 125.722 42.5428C125.722 42.5428 125.89 42.5428 125.829 42.3822C125.472 41.7056 125.481 41.261 125.492 40.6539C125.494 40.5424 125.496 40.4255 125.496 40.3007C125.655 38.5096 125.753 37.0733 125.761 35.6411H125.766V8.58061Z" fill="#DCC67A"/>
</svg>
