<svg width="375" height="25" viewBox="0 0 375 25" fill="none" xmlns="http://www.w3.org/2000/svg">
<g clip-path="url(#clip0_35_543)">
<rect width="375" height="667" transform="translate(0 -103.107)" fill="#C87A75"/>
<mask id="mask0_35_543" style="mask-type:alpha" maskUnits="userSpaceOnUse" x="-1" y="0" width="377" height="469">
<path d="M241.945 468.131H375L375 1.08427C375 1.08427 293.906 1.04425 241.945 1.04425C187.5 1.04425 187.5 16.5242 187.5 16.5242C187.5 16.5242 187.5 1.08427 133.055 1.04425C81.0936 1.04425 0 1.08427 0 1.08427L0 468.131H133.055C187.5 468.131 187.5 453.062 187.5 453.062C187.5 453.062 187.5 468.131 241.945 468.131Z" fill="#DCC67A"/>
<path d="M375 1.04425V1.08427M375 1.08427L375 468.131C375 468.131 293.237 468.131 241.945 468.131C187.5 468.131 187.5 453.062 187.5 453.062C187.5 453.062 187.5 468.131 133.055 468.131C80.4008 468.131 0 468.131 0 468.131L0 1.08427C0 1.08427 81.0936 1.04425 133.055 1.04425C187.5 1.08427 187.5 16.5242 187.5 16.5242C187.5 16.5242 187.5 1.04425 241.945 1.04425C293.906 1.04425 375 1.08427 375 1.08427Z" stroke="#DCC67A"/>
</mask>
<g mask="url(#mask0_35_543)">
<rect y="1.00635" width="375" height="467.625" fill="#F4F0E1"/>
</g>
<path d="M181.841 21.9475C180.379 22.635 177.729 22.4012 177.729 22.4012C177.729 22.4012 177.792 20.079 178.515 18.8612C179.995 16.3673 185.509 16.3661 185.509 16.3661C185.509 16.3661 184.185 20.8454 181.841 21.9475Z" fill="#DCC67A"/>
<path d="M193.331 21.9497C194.793 22.6381 197.443 22.4059 197.443 22.4059C197.443 22.4059 197.381 20.0837 196.659 18.8654C195.181 16.3706 189.667 16.366 189.667 16.366C189.667 16.366 191.076 20.8875 193.331 21.9497Z" fill="#DCC67A"/>
<path d="M191.128 13.2055C191.71 12.931 192.767 13.0236 192.767 13.0236C192.767 13.0236 192.742 13.9493 192.454 14.435C191.865 15.4295 189.667 15.4314 189.667 15.4314C189.667 15.4314 190.979 14.1937 191.128 13.2055Z" fill="#DCC67A"/>
<path d="M183.798 13.2054C183.216 12.931 182.159 13.0235 182.159 13.0235C182.159 13.0235 182.184 13.9493 182.471 14.4349C183.061 15.4295 185.259 15.4313 185.259 15.4313C185.259 15.4313 183.947 14.1936 183.798 13.2054Z" fill="#DCC67A"/>
<path d="M190.355 21.4122C190.355 23.0044 189.064 24.2952 187.472 24.2952C185.879 24.2952 184.589 23.0044 184.589 21.4122C184.589 20.7132 184.837 20.0724 185.251 19.5733C185.78 18.9354 187.472 17.2239 187.472 17.2239C187.472 17.2239 189.163 18.9354 189.692 19.5733C190.106 20.0724 190.355 20.7132 190.355 21.4122Z" fill="#DCC67A"/>
<path d="M375 1.00635C375 1.00635 293.237 1.00635 241.945 1.00635C187.5 1.00635 187.5 16.0751 187.5 16.0751C187.5 16.0751 187.5 1.00635 133.055 1.00635C80.4008 1.00635 0 1.00635 0 1.00635" stroke="#DCC67A"/>
</g>
<defs>
<clipPath id="clip0_35_543">
<rect width="375" height="667" fill="white" transform="translate(0 -103.107)"/>
</clipPath>
</defs>
</svg>
