<svg width="82" height="40" viewBox="0 0 82 40" fill="none" xmlns="http://www.w3.org/2000/svg">
<path fill-rule="evenodd" clip-rule="evenodd" d="M41.7343 1.59767C41.2044 1.34335 40.6161 0.395454 40.6161 0.395454C40.6161 0.395454 40.2053 0.984022 39.8957 1.34335C39.5285 1.58864 39.1814 1.72432 38.8485 1.85443C38.4442 2.01245 38.061 2.16226 37.6884 2.49024C37.0012 3.12799 37.4231 4.6261 38.0129 6.71995C38.4704 8.34415 39.0288 10.3268 39.2488 12.5444C39.7441 16.012 39.625 16.7247 39.625 16.7247H39.3648C39.3648 16.7247 37.5501 9.25557 31.6736 9.52223C27.8416 10.0161 28.5587 13.7925 28.5587 13.7925C29.9354 17.8678 35.7625 15.29 33.273 12.3643C33.9551 12.0506 37.3032 14.016 38.4043 18.8732C38.7831 20.1522 38.8194 21.2824 38.8523 22.3062L38.8523 22.3065L38.8523 22.3067L38.8523 22.307L38.8524 22.3073L38.8524 22.3077C38.8612 22.5815 38.8697 22.8478 38.8846 23.1072C39.2039 23.7877 39.4274 24.3796 39.6375 24.9361C39.7125 25.1349 39.7858 25.3291 39.8612 25.5212H41.5599C41.7056 24.5099 41.875 24.1645 42.1357 23.6334C42.2108 23.4802 42.2936 23.3117 42.3855 23.1072C42.4563 22.2329 42.4748 21.6413 42.4897 21.1634V21.1634C42.5152 20.3484 42.5303 19.8644 42.7773 18.8732C44.0166 14.9302 45.7851 12.4601 47.9086 12.1621C47.9091 12.1989 47.9088 12.2282 47.9084 12.2569C47.908 12.2899 47.9076 12.3221 47.9086 12.3643C46.4717 13.8534 48.2347 15.9931 49.8413 15.8652C51.853 15.6519 52.5781 14.3581 52.5781 13.0075C52.5781 11.0312 51.2204 9.47005 49.0208 9.47005C43.3936 9.68058 41.8547 16.7247 41.8547 16.7247C41.8547 16.7247 41.7489 16.7335 41.6456 16.7247C41.6076 16.6366 41.7282 14.8353 41.8547 13.6282C42.1018 11.3802 42.6731 8.93269 43.1387 6.93777L43.1387 6.93765L43.1388 6.93758C43.6549 4.72641 44.0412 3.07126 43.7126 2.86C43.31 2.09048 42.6013 1.88489 42.1333 1.74913C41.9556 1.69759 41.8126 1.65612 41.7343 1.59767ZM36.0141 25.9253C36.4745 25.8683 36.8579 25.8261 37.2232 25.786L37.2233 25.786L37.2233 25.786L37.2234 25.786C37.8092 25.7216 38.3487 25.6623 39.0848 25.5547C36.979 16.1539 24.2432 13.4406 19.3018 25.2547C19.0479 25.6545 18.8186 26.0694 18.5903 26.4824C17.7152 28.0659 16.855 29.6223 14.6782 30.1961C14.6772 30.2581 14.6769 30.2929 14.6782 30.3549C16.4617 31.5338 20.1675 29.8144 20.8548 27.3372C21.1714 28.6396 23.4462 33.862 28.6374 32.1833C31.9011 31.3602 34.7462 26.0824 30.2433 23.9665C26.1197 22.2941 24.8722 28.9427 28.6374 28.7842C27.5803 31.027 22.514 29.4904 22.7318 25.139C22.9704 22.644 24.3697 19.6406 28.7609 18.884C28.761 18.9084 28.7608 18.9278 28.7607 18.9463V18.9464C28.7604 18.9798 28.7602 19.0099 28.7609 19.0604C26.637 19.0604 20.8548 23.1765 23.9961 27.6372C24.0519 27.6144 24.0932 27.5963 24.1365 27.5773C24.1687 27.5632 24.202 27.5486 24.2432 27.5313C23.9961 25.9253 24.7127 21.9937 28.9143 20.9567C31.5604 20.5276 35.0647 21.8149 36.0141 25.9253ZM0.371481 34.1865C0.342085 34.1773 0.309514 34.1671 0.271674 34.1561C0.167794 34.0874 0.159824 34.0489 0.149037 33.9967C0.142617 33.9657 0.135198 33.9298 0.105957 33.8798C1.22645 33.5362 1.60926 32.7602 2.054 31.8586L2.05401 31.8585C2.13168 31.7011 2.21123 31.5398 2.29694 31.3763C3.76266 27.9031 8.74203 30.4792 10.2549 31.2619C10.4836 31.3803 10.6331 31.4576 10.6792 31.4668C11.7425 31.9214 12.0612 31.9579 12.8542 32.0488L12.9376 32.0584L13.0571 32.0723C9.53856 30.0892 10.3897 27.7289 10.6705 27.0094C12.5219 23.2276 16.0844 26.0705 16.1561 27.2067C16.2774 28.2905 15.9527 29.8524 13.6543 29.7085C13.7328 32.2478 19.0691 31.5733 20.7261 28.738C21.1163 28.6292 21.0803 29.4305 21.0803 29.4305C21.0803 29.4305 18.9624 33.4148 12.9431 33.4148C12.7061 33.4032 12.4441 33.397 12.1665 33.3905L12.1661 33.3905L12.1657 33.3905L12.1653 33.3905L12.165 33.3904C11.2492 33.3688 10.1644 33.3433 9.249 33.1077C6.46748 32.5549 4.7101 32.2399 1.34388 34.1561C0.632391 34.2683 0.588256 34.2544 0.371481 34.1865ZM35.0345 26.6444C39.4823 25.6342 42.528 25.8302 46.2672 26.6444C47.0004 26.7697 47.6694 28.906 45.5435 28.906C42.1812 28.2275 39.5275 28.0014 35.4415 28.906C34.3107 29.0568 33.4061 27.3832 35.0345 26.6444ZM41.0996 28.8501C40.7433 28.8003 40.3693 28.748 40.0113 28.9792C40.0113 30.6895 39.3433 33.3906 38.4527 35.3855C36.7963 38.3716 39.3905 38.3178 39.3905 38.3178C39.8264 38.4715 40.0551 38.6772 40.3544 38.9462L40.3544 38.9463C40.4599 39.0411 40.5741 39.1438 40.7092 39.2548C40.9301 38.7875 41.2227 38.5359 41.8341 38.3178C41.8584 38.3125 41.8986 38.3082 41.9507 38.3026L41.9508 38.3025L41.9509 38.3025C42.4825 38.2453 44.2441 38.0557 42.8248 35.3855C41.8351 33.6803 41.4805 31.0924 41.2459 29.3808L41.2459 29.3807C41.2207 29.1964 41.1968 29.0222 41.1737 28.8604L41.0996 28.8501ZM36.1422 29.2418C37.2513 28.666 39.3066 28.766 39.3066 28.766C39.3066 28.766 39.3284 30.5626 38.8069 31.5259C37.7391 33.4983 33.4775 33.6671 33.4775 33.6671C33.4775 33.6671 35.9281 31.169 36.1422 29.2418ZM44.0752 25.786L44.0753 25.786C44.4406 25.8261 44.824 25.8683 45.2843 25.9253C46.2337 21.8149 49.738 20.5276 52.3841 20.9567C56.5857 21.9937 57.3023 25.9253 57.0553 27.5313C57.0965 27.5486 57.1298 27.5632 57.162 27.5773C57.2053 27.5963 57.2466 27.6144 57.3023 27.6372C60.4436 23.1765 54.6614 19.0604 52.5375 19.0604C52.5383 19.01 52.538 18.9799 52.5378 18.9466V18.9463C52.5376 18.9278 52.5375 18.9084 52.5375 18.884C56.9288 19.6406 58.328 22.644 58.5667 25.139C58.7845 29.4904 53.7181 31.027 52.661 28.7842C56.4263 28.9427 55.1787 22.2941 51.0551 23.9665C46.5523 26.0824 49.3973 31.3602 52.661 32.1833C57.8523 33.862 60.127 28.6396 60.4436 27.3372C61.1309 29.8144 64.8368 31.5338 66.6203 30.3549C66.6216 30.2929 66.6213 30.2581 66.6203 30.1961C64.4434 29.6223 63.5833 28.0659 62.7081 26.4824C62.4798 26.0694 62.2506 25.6545 61.9966 25.2547C57.0553 13.4406 44.3195 16.1539 42.2136 25.5547C42.9498 25.6623 43.4893 25.7216 44.0752 25.786ZM81.0267 34.1561C80.9888 34.1671 80.9563 34.1773 80.9269 34.1865C80.7101 34.2544 80.666 34.2683 79.9545 34.1561C76.5883 32.2399 74.8309 32.5549 72.0494 33.1077C71.134 33.3433 70.0492 33.3688 69.1334 33.3904L69.1331 33.3905C68.8551 33.397 68.5927 33.4032 68.3553 33.4148C62.336 33.4148 60.2181 29.4305 60.2181 29.4305C60.2181 29.4305 60.182 28.6292 60.5723 28.738C62.2292 31.5733 67.5656 32.2478 67.6441 29.7085C65.3456 29.8524 65.021 28.2905 65.1423 27.2067C65.214 26.0705 68.7765 23.2276 70.6279 27.0094C70.9087 27.7289 71.7598 30.0892 68.2412 32.0723C68.284 32.0673 68.3254 32.0625 68.3655 32.0579L68.4442 32.0488C69.2372 31.9579 69.5559 31.9214 70.6191 31.4668C70.6652 31.4576 70.8147 31.3803 71.0435 31.2619C72.5563 30.4792 77.5357 27.9031 79.0014 31.3763C79.0871 31.5397 79.1665 31.7008 79.2441 31.8581L79.2444 31.8586C79.6891 32.7602 80.0719 33.5362 81.1924 33.8798C81.1632 33.9298 81.1557 33.9657 81.1493 33.9967C81.1385 34.0489 81.1306 34.0874 81.0267 34.1561ZM41.9919 28.766C41.9919 28.766 44.0471 28.666 45.1562 29.2418C45.3703 31.169 47.8209 33.6671 47.8209 33.6671C47.8209 33.6671 43.5593 33.4983 42.4915 31.5259C41.97 30.5626 41.9919 28.766 41.9919 28.766Z" fill="#DCC67A"/>
</svg>
