<svg width="15" height="15" viewBox="0 0 15 15" fill="none" xmlns="http://www.w3.org/2000/svg">
<path fill-rule="evenodd" clip-rule="evenodd" d="M7.31772 5.86038C7.39229 5.85836 7.52297 5.85842 7.61923 5.86038C7.69624 5.8457 7.70005 5.7635 7.70005 5.7635C7.70005 5.7635 8.20773 3.00745 8.42992 1.46828C8.75038 -0.269371 6.1115 -0.242585 6.55615 1.65086C6.80697 2.71895 7.24878 5.77473 7.24878 5.77473C7.24878 5.77473 7.24878 5.86038 7.31772 5.86038ZM7.11479 5.91437C7.02529 5.94987 6.97704 5.97059 6.90908 6.00135C6.816 6.03292 6.76901 5.9674 6.76901 5.9674C6.76901 5.9674 5.20835 3.33609 4.56318 2.44869C3.41947 0.875548 5.85415 -0.204575 6.23217 1.52147C6.62386 3.02646 7.15759 5.7984 7.15759 5.7984C7.15759 5.7984 7.18009 5.871 7.11479 5.91437ZM6.56792 6.27735L6.56795 6.27732L6.56796 6.27732C6.60126 6.24563 6.6338 6.21467 6.68476 6.17207C6.73318 6.11042 6.71065 6.0484 6.71065 6.0484C6.71065 6.0484 5.06967 3.77186 4.22615 2.46539C3.27366 1.0527 1.34114 2.77713 2.95684 3.86511C3.84757 4.50568 6.37129 6.32162 6.37129 6.32162C6.37129 6.32162 6.44234 6.38076 6.52084 6.32162C6.53785 6.30597 6.55296 6.29158 6.56792 6.27735ZM6.32011 6.71785C6.33931 6.67396 6.35196 6.64933 6.36988 6.61448C6.37986 6.59506 6.39148 6.57246 6.40676 6.54158C6.42623 6.46564 6.35 6.42507 6.35 6.42507C6.35 6.42507 3.97376 4.94744 2.67523 4.09174C1.23417 3.18274 0.16055 5.53978 2.07771 5.88431C3.15106 6.11156 6.19464 6.78059 6.19464 6.78059C6.19464 6.78059 6.27211 6.80361 6.32011 6.71785ZM8.08942 5.99652C8.0009 5.95862 7.89591 5.91527 7.82601 5.88921C7.76211 5.86338 7.80112 5.75637 7.80112 5.75637C7.80112 5.75637 8.53237 2.84263 8.70002 1.75837C8.99722 -0.163746 11.4768 0.781847 10.5286 2.27284C9.70736 3.56415 8.22372 5.91505 8.22372 5.91505C8.22372 5.91505 8.16631 6.01176 8.08942 5.99652ZM8.27681 6.1448C8.29893 6.16552 8.32227 6.18441 8.34668 6.20417L8.34668 6.20417C8.38236 6.23304 8.42032 6.26378 8.46014 6.30479C8.52521 6.34851 8.57525 6.30479 8.57525 6.30479C8.57525 6.30479 10.9045 4.72545 12.1448 3.78734C13.5946 2.7772 11.6995 0.940617 10.6842 2.59954C10.1115 3.53533 8.27681 6.01868 8.27681 6.01868C8.27681 6.01868 8.2278 6.09633 8.27681 6.1448ZM8.69738 6.73729C8.66418 6.64691 8.64575 6.60268 8.61673 6.53396C8.59164 6.46976 8.64025 6.40961 8.64025 6.40961C8.64025 6.40961 11.2683 4.78236 12.1718 4.16001C13.7736 3.05676 14.759 5.50492 13.0238 5.83884C11.5094 6.19205 8.82174 6.77426 8.82174 6.77426C8.82174 6.77426 8.73908 6.80367 8.69738 6.73729ZM8.75002 6.95105C8.75125 7.02464 8.7528 7.11748 8.74992 7.21094C8.76379 7.28809 8.86585 7.30938 8.86585 7.30938C8.86585 7.30938 11.5763 7.77361 13.1131 8.01188C14.8473 8.3505 14.8629 5.75974 12.9649 6.18457C11.8942 6.42421 8.8065 6.85731 8.8065 6.85731C8.8065 6.85731 8.75064 6.87561 8.74991 6.94453L8.75002 6.95105ZM7.68235 8.34274C7.60778 8.34476 7.4771 8.3447 7.38084 8.34274C7.30383 8.35742 7.30001 8.43962 7.30001 8.43962C7.30001 8.43962 6.79234 11.1957 6.57015 12.7348C6.24969 14.4725 8.88857 14.4457 8.44392 12.5523C8.1931 11.4842 7.75128 8.42839 7.75128 8.42839C7.75128 8.42839 7.75128 8.34274 7.68235 8.34274ZM7.88528 8.28874C7.97478 8.25325 8.02303 8.23253 8.09099 8.20177C8.18407 8.1702 8.23106 8.23572 8.23106 8.23572C8.23106 8.23572 9.79172 10.867 10.4369 11.7544C11.5806 13.3276 9.14592 14.4077 8.7679 12.6816C8.37621 11.1767 7.84248 8.40472 7.84248 8.40472C7.84248 8.40472 7.81998 8.33212 7.88528 8.28874ZM8.43215 7.92577L8.43212 7.9258L8.43211 7.9258C8.39881 7.95749 8.36627 7.98845 8.31531 8.03105C8.26689 8.0927 8.28942 8.15471 8.28942 8.15471C8.28942 8.15471 9.9304 10.4313 10.7739 11.7377C11.7264 13.1504 13.6589 11.426 12.0432 10.338C11.1525 9.69744 8.62878 7.8815 8.62878 7.8815C8.62878 7.8815 8.55773 7.82236 8.47923 7.8815C8.46222 7.89715 8.44711 7.91153 8.43215 7.92577ZM8.6302 7.58862L8.63019 7.58864C8.62021 7.60806 8.60859 7.63066 8.59331 7.66154C8.57384 7.73748 8.65007 7.77805 8.65007 7.77805C8.65007 7.77805 11.0263 9.25568 12.3248 10.1114C13.7659 11.0204 14.8395 8.66334 12.9224 8.31881C11.849 8.09156 8.80543 7.42253 8.80543 7.42253C8.80543 7.42253 8.72795 7.39951 8.67995 7.48527C8.66077 7.52915 8.64811 7.55378 8.6302 7.58862ZM6.91065 8.2066C6.99916 8.24449 7.10416 8.28785 7.17405 8.31391C7.23796 8.33974 7.19895 8.44675 7.19895 8.44675C7.19895 8.44675 6.4677 11.3605 6.30005 12.4448C6.00285 14.3669 3.52331 13.4213 4.4715 11.9303C5.29271 10.639 6.77635 8.28807 6.77635 8.28807C6.77635 8.28807 6.83375 8.19136 6.91065 8.2066ZM6.72326 8.05832C6.70114 8.0376 6.6778 8.01871 6.65339 7.99895L6.65339 7.99895C6.61771 7.97007 6.57975 7.93934 6.53993 7.89832C6.47486 7.85461 6.42481 7.89832 6.42481 7.89832C6.42481 7.89832 4.09553 9.47767 2.85523 10.4158C1.40548 11.4259 3.30057 13.2625 4.31587 11.6036C4.8886 10.6678 6.72326 8.18444 6.72326 8.18444C6.72326 8.18444 6.77227 8.10679 6.72326 8.05832ZM6.30265 7.46583C6.33585 7.55621 6.35429 7.60044 6.38331 7.66916C6.4084 7.73336 6.35979 7.79351 6.35979 7.79351C6.35979 7.79351 3.73176 9.42076 2.82821 10.0431C1.22643 11.1464 0.241087 8.69819 1.97621 8.36428C3.49068 8.01107 6.1783 7.42886 6.1783 7.42886C6.1783 7.42886 6.26095 7.39945 6.30265 7.46583ZM6.25002 7.25207C6.24879 7.17847 6.24723 7.08564 6.25012 6.99218C6.23625 6.91503 6.13419 6.89374 6.13419 6.89374C6.13419 6.89374 3.4237 6.42951 1.88694 6.19124C0.152733 5.85262 0.137146 8.44338 2.03514 8.01855C3.10579 7.77891 6.19354 7.34581 6.19354 7.34581C6.19354 7.34581 6.2494 7.32751 6.25012 7.25858L6.25002 7.25207ZM8.2216 7.11529C8.2216 7.50707 7.904 7.82468 7.51222 7.82468C7.12043 7.82468 6.80283 7.50707 6.80283 7.11529C6.80283 6.7235 7.12043 6.4059 7.51222 6.4059C7.904 6.4059 8.2216 6.7235 8.2216 7.11529Z" fill="#DCC67A"/>
</svg>
