<svg width="643" height="1024" viewBox="0 0 643 1024" fill="none" xmlns="http://www.w3.org/2000/svg">
<path d="M66.7496 66.2433H67.2496V65.7433V20C67.2496 9.23045 75.9801 0.5 86.7496 0.5H564.336C575.106 0.5 583.836 9.23045 583.836 20V65.7433V66.2433H584.336H622.341C633.111 66.2433 641.841 74.9738 641.841 85.7433V934.915C641.841 945.684 633.111 954.415 622.341 954.415H584.336H583.836V954.915V1004C583.836 1014.77 575.106 1023.5 564.336 1023.5H86.7496C75.9801 1023.5 67.2496 1014.77 67.2496 1004V954.915V954.415H66.7496H20.217C9.44749 954.415 0.717041 945.684 0.717041 934.915V85.7433C0.717041 74.9737 9.44749 66.2433 20.217 66.2433H66.7496Z" fill="#F4F0E1" stroke="#917108"/>
</svg>
