<svg width="317" height="84" viewBox="0 0 317 84" fill="none" xmlns="http://www.w3.org/2000/svg">
<line x1="315.849" y1="72.0031" x2="315.849" y2="11.4367" stroke="#DCC67A"/>
<line x1="315.514" y1="72.0031" x2="315.514" y2="11.4367" stroke="#DCC67A"/>
<line x1="1.49866" y1="72.1038" x2="1.49866" y2="11.5374" stroke="#DCC67A"/>
<line x1="1.16357" y1="72.1038" x2="1.16357" y2="11.5374" stroke="#DCC67A"/>
<line x1="12.3366" y1="82.7664" x2="304.827" y2="82.7664" stroke="#DCC67A"/>
<line x1="12.3366" y1="82.4313" x2="304.827" y2="82.4313" stroke="#DCC67A"/>
<line x1="12.3366" y1="1.74664" x2="304.827" y2="1.74664" stroke="#DCC67A"/>
<line x1="12.3366" y1="1.41156" x2="304.827" y2="1.41156" stroke="#DCC67A"/>
<path fill-rule="evenodd" clip-rule="evenodd" d="M304.596 81.9289C304.596 81.9289 304.501 82.7544 304.596 83.2688C306.836 83.2688 309.058 83.1196 311.859 82.8705C312.046 82.8705 312.222 82.8673 312.389 82.8643C313.3 82.8476 313.967 82.8355 314.983 83.3704C315.224 83.4621 315.224 83.2097 315.224 83.2097C314.852 81.0591 313.126 81.3322 312.869 81.4305C313.235 80.7587 312.509 79.691 311.698 79.7645C310.913 79.8357 310.133 80.715 310.77 81.5585C310.835 81.6451 310.824 81.8943 310.663 81.9601C310.004 82.2292 309.485 82.2456 308.814 82.2667C308.684 82.2708 308.548 82.2751 308.405 82.2815C308.137 82.2933 308.197 82.253 308.417 82.1068C308.92 81.7711 310.263 80.8769 310.393 78.7726C310.425 78.251 310.35 77.8026 310.196 77.42L310.162 77.102L310.658 77.2209L310.647 77.2072C311.003 77.3597 311.406 77.4469 311.858 77.4469C313.891 77.4469 314.815 76.0466 315.174 75.5026C315.329 75.2675 315.378 75.1923 315.367 75.4588C315.36 75.6025 315.356 75.7384 315.352 75.8686C315.331 76.539 315.314 77.0586 315.045 77.717C314.979 77.8781 314.73 77.8895 314.644 77.8241C313.8 77.1874 312.921 77.9667 312.85 78.7524C312.776 79.5632 313.844 80.2895 314.516 79.9235C314.417 80.1802 314.144 81.906 316.295 82.278C316.295 82.278 316.547 82.278 316.456 82.037C315.921 81.0214 315.933 80.3542 315.949 79.4431V79.4431C315.952 79.2758 315.956 79.1004 315.956 78.913C316.205 76.1126 316.354 73.8901 316.354 71.6505C315.84 71.5549 315.014 71.6505 315.014 71.6505C315.014 73.3728 314.04 76.2345 311.794 76.1729C309.43 76.1079 309.612 73.8635 310.004 73.3728C310.274 73.034 310.706 72.8415 310.784 73.3728C310.863 73.9041 311.191 74.8836 312.299 74.7699C313.066 74.7208 313.605 74.0886 313.631 73.32C313.598 72.1738 312.373 71.7662 311.961 71.7662C311.791 71.7662 311.573 71.5461 311.961 71.4907C313.619 71.2541 314.828 69.8937 313.571 69.2722C313.07 69.0245 312.939 68.843 312.702 68.5138L312.663 68.4595C311.724 67.1035 310.685 68.7178 310.685 70.2002C310.685 70.895 310.176 70.3819 310.236 70.2002C310.352 69.8455 309.771 68.383 308.394 69.0112C306.883 69.701 307.456 71.465 308.815 71.7662C309.027 71.8132 309.146 72.0237 308.945 72.3026C308.587 72.8004 308.489 73.6594 308.668 74.5345C307.724 73.7828 305.587 71.2199 305.771 69.5781C305.773 69.5626 305.775 69.5467 305.776 69.5306C305.792 69.3584 305.809 69.1639 306.215 69.2179C306.907 69.3103 307.553 68.7739 307.637 68.0635C307.734 67.2372 306.907 66.6229 306.067 66.6229C304.201 66.706 304.035 69.2179 304.848 70.9079C304.044 70.3261 303.678 69.3958 303.38 68.6084C303.352 68.536 303.325 68.4636 303.299 68.3915C303.001 67.5901 302.723 66.8377 301.878 66.7861C301.638 66.7714 301.45 66.8596 301.266 66.9454C301.125 67.0114 300.987 67.076 300.832 67.0909C300.616 67.1116 300.532 67.1108 300.276 67.0909L300.287 67.1025L300.28 67.0951C300.295 67.3514 300.294 67.4353 300.27 67.651C300.252 67.8065 300.185 67.9432 300.116 68.0831C300.027 68.2647 299.936 68.4516 299.946 68.6918C299.982 69.5371 300.729 69.8295 301.525 70.1409C301.597 70.1689 301.669 70.1971 301.741 70.2258C302.523 70.5384 303.446 70.9216 304.014 71.7354C302.338 70.8924 299.824 71.0133 299.707 72.877C299.692 73.7172 300.291 74.5553 301.119 74.4727C301.831 74.4016 302.379 73.7657 302.299 73.0715C302.252 72.6652 302.447 72.6511 302.62 72.6386C302.636 72.6374 302.652 72.6363 302.667 72.6348C304.289 72.4821 306.766 74.6028 307.539 75.5795C306.611 75.4323 305.704 75.5621 305.249 75.8602C304.97 76.0608 304.759 75.9419 304.712 75.7297C304.411 74.3706 302.647 73.798 301.957 75.3092C301.329 76.6855 302.791 77.2669 303.146 77.1506C303.328 77.0911 303.841 77.6001 303.146 77.6001C301.664 77.6001 300.049 78.6385 301.405 79.5778C301.424 79.5912 301.442 79.6042 301.46 79.6169C301.789 79.8538 301.97 79.9844 302.218 80.4856C302.84 81.7431 304.2 80.5336 304.437 78.8761C304.492 78.4877 304.712 78.7059 304.712 78.8761C304.712 79.2882 305.12 80.5131 306.266 80.5463C307.034 80.5203 307.667 79.9812 307.716 79.2137C307.829 78.1057 306.85 77.7775 306.319 77.6993C305.787 77.621 305.98 77.1888 306.319 76.9185C306.809 76.5271 309.054 76.3447 309.119 78.7089C309.18 80.9551 306.319 81.9289 304.596 81.9289Z" fill="#DCC67A"/>
<path fill-rule="evenodd" clip-rule="evenodd" d="M304.596 2.25009C304.596 2.25009 304.501 1.42466 304.596 0.910205C306.836 0.910206 309.058 1.0594 311.859 1.30847C312.046 1.30847 312.222 1.31168 312.389 1.31473C313.3 1.33138 313.967 1.34357 314.983 0.808637C315.224 0.716943 315.224 0.96929 315.224 0.96929C314.852 3.11993 313.126 2.84686 312.869 2.74856C313.235 3.4203 312.509 4.48804 311.698 4.41456C310.913 4.34336 310.133 3.46399 310.77 2.62052C310.835 2.53387 310.824 2.28473 310.663 2.21887C310.004 1.9498 309.485 1.93342 308.814 1.91229C308.684 1.90818 308.548 1.9039 308.405 1.89755C308.137 1.8857 308.197 1.92597 308.417 2.07221C308.92 2.40793 310.263 3.30214 310.393 5.40643C310.425 5.92799 310.35 6.37645 310.196 6.75898L310.162 7.07701L310.658 6.95807L310.647 6.97179C311.003 6.81927 311.406 6.73213 311.858 6.73213C313.891 6.73213 314.815 8.1324 315.174 8.67646C315.329 8.91152 315.378 8.98676 315.367 8.72019C315.36 8.57651 315.356 8.44063 315.352 8.31044C315.331 7.64005 315.314 7.12042 315.045 6.46202C314.979 6.30087 314.73 6.28951 314.644 6.35491C313.8 6.9916 312.921 6.21228 312.85 5.42665C312.776 4.61585 313.844 3.88956 314.516 4.25547C314.417 3.99879 314.144 2.27301 316.295 1.90105C316.295 1.90105 316.547 1.90105 316.456 2.14205C315.921 3.15761 315.933 3.82479 315.949 4.73594V4.73595C315.952 4.90319 315.956 5.07865 315.956 5.266C316.205 8.06642 316.354 10.2889 316.354 12.5286C315.84 12.6242 315.014 12.5286 315.014 12.5286C315.014 10.8062 314.04 7.94448 311.794 8.00617C309.43 8.07109 309.612 10.3155 310.004 10.8062C310.274 11.145 310.706 11.3375 310.784 10.8062C310.863 10.2749 311.191 9.29543 312.299 9.40912C313.066 9.45824 313.605 10.0904 313.631 10.859C313.598 12.0052 312.373 12.4129 311.961 12.4129C311.791 12.4129 311.573 12.6329 311.961 12.6884C313.619 12.9249 314.828 14.2853 313.571 14.9068C313.07 15.1545 312.939 15.3361 312.702 15.6653L312.663 15.7195C311.724 17.0755 310.685 15.4612 310.685 13.9788C310.685 13.2841 310.176 13.7971 310.236 13.9788C310.352 14.3335 309.771 15.796 308.394 15.1678C306.883 14.4781 307.456 12.714 308.815 12.4129C309.027 12.3658 309.146 12.1554 308.945 11.8764C308.587 11.3786 308.489 10.5196 308.668 9.64454C307.724 10.3962 305.587 12.9592 305.771 14.6009C305.773 14.6164 305.775 14.6323 305.776 14.6484C305.792 14.8206 305.809 15.0151 306.215 14.9611C306.907 14.8687 307.553 15.4051 307.637 16.1155C307.734 16.9419 306.907 17.5561 306.067 17.5561C304.201 17.473 304.035 14.9611 304.848 13.2711C304.044 13.8529 303.678 14.7832 303.38 15.5706C303.352 15.643 303.325 15.7155 303.299 15.7875C303.001 16.5889 302.723 17.3413 301.878 17.393C301.638 17.4076 301.45 17.3194 301.266 17.2336C301.125 17.1676 300.987 17.103 300.832 17.0881C300.616 17.0674 300.532 17.0683 300.276 17.0881L300.287 17.0765L300.28 17.0839C300.295 16.8276 300.294 16.7438 300.27 16.528C300.252 16.3725 300.185 16.2358 300.116 16.0959C300.027 15.9143 299.936 15.7274 299.946 15.4872C299.982 14.642 300.729 14.3495 301.525 14.0381C301.597 14.0101 301.669 13.9819 301.741 13.9532C302.523 13.6407 303.446 13.2574 304.014 12.4436C302.338 13.2866 299.824 13.1657 299.707 11.302C299.692 10.4618 300.291 9.6237 301.119 9.70636C301.831 9.77741 302.379 10.4133 302.299 11.1075C302.252 11.5138 302.447 11.5279 302.62 11.5404C302.636 11.5416 302.652 11.5428 302.667 11.5442C304.289 11.6969 306.766 9.57619 307.539 8.59948C306.611 8.74676 305.704 8.6169 305.249 8.31886C304.97 8.11818 304.759 8.23713 304.712 8.44936C304.411 9.80839 302.647 10.3811 301.957 8.86986C301.329 7.49349 302.791 6.91216 303.146 7.02838C303.328 7.08793 303.841 6.57889 303.146 6.57889C301.664 6.57889 300.049 5.54054 301.405 4.6012C301.424 4.58782 301.442 4.57482 301.46 4.56212C301.789 4.32526 301.97 4.19465 302.218 3.69343C302.84 2.43587 304.2 3.64541 304.437 5.30291C304.492 5.69133 304.712 5.47308 304.712 5.30291C304.712 4.89086 305.12 3.66589 306.266 3.63276C307.034 3.65867 307.667 4.19781 307.716 4.96527C307.829 6.0733 306.85 6.40153 306.319 6.47976C305.787 6.55799 305.98 6.99026 306.319 7.26048C306.809 7.6519 309.054 7.83427 309.119 5.4701C309.18 3.22392 306.319 2.25009 304.596 2.25009Z" fill="#DCC67A"/>
<path fill-rule="evenodd" clip-rule="evenodd" d="M12.4205 81.9289C12.4205 81.9289 12.5161 82.7544 12.4205 83.2688C10.1809 83.2688 7.9584 83.1196 5.15797 82.8705C4.97063 82.8705 4.79517 82.8673 4.62792 82.8643C3.71677 82.8476 3.04959 82.8355 2.03402 83.3704C1.79303 83.4621 1.79303 83.2097 1.79303 83.2097C2.16499 81.0591 3.89077 81.3322 4.14745 81.4305C3.78154 80.7587 4.50783 79.691 5.31863 79.7645C6.10426 79.8357 6.88357 80.715 6.24689 81.5585C6.18149 81.6451 6.19285 81.8943 6.354 81.9601C7.01239 82.2292 7.53202 82.2456 8.20242 82.2667C8.33261 82.2708 8.46849 82.2751 8.61217 82.2815C8.88027 82.2933 8.81982 82.253 8.60032 82.1068C8.09641 81.7711 6.75422 80.8769 6.62411 78.7726C6.59186 78.251 6.66704 77.8026 6.82131 77.42L6.85486 77.102L6.35871 77.2209L6.3694 77.2072C6.01369 77.3597 5.61064 77.4469 5.15914 77.4469C3.12539 77.4469 2.20193 76.0466 1.84313 75.5026C1.68811 75.2675 1.63849 75.1923 1.65027 75.4588C1.65662 75.6025 1.6609 75.7384 1.665 75.8686C1.68614 76.539 1.70252 77.0586 1.97159 77.717C2.03744 77.8781 2.28659 77.8895 2.37324 77.8241C3.21671 77.1874 4.09608 77.9667 4.16728 78.7524C4.24076 79.5632 3.17302 80.2895 2.50127 79.9235C2.59958 80.1802 2.87264 81.906 0.722006 82.278C0.722006 82.278 0.469659 82.278 0.561353 82.037C1.09628 81.0214 1.08409 80.3542 1.06745 79.4431V79.4431C1.06439 79.2758 1.06119 79.1004 1.06119 78.913C0.812115 76.1126 0.662923 73.8901 0.662921 71.6505C1.17737 71.5549 2.00281 71.6505 2.00281 71.6505C2.00281 73.3728 2.97664 76.2345 5.22282 76.1729C7.58699 76.1079 7.40462 73.8635 7.0132 73.3728C6.74297 73.034 6.31071 72.8415 6.23248 73.3728C6.15425 73.9041 5.82602 74.8836 4.71799 74.7699C3.95053 74.7208 3.41139 74.0886 3.38548 73.32C3.41861 72.1738 4.64358 71.7662 5.05562 71.7662C5.22579 71.7662 5.44405 71.5461 5.05562 71.4907C3.39813 71.2541 2.18859 69.8937 3.44615 69.2722C3.94737 69.0245 4.07797 68.843 4.31484 68.5138L4.35392 68.4595C5.29326 67.1035 6.33161 68.7178 6.33161 70.2002C6.33161 70.895 6.84064 70.3819 6.7811 70.2002C6.66488 69.8455 7.24621 68.383 8.62257 69.0112C10.1338 69.701 9.5611 71.465 8.20208 71.7662C7.98985 71.8132 7.8709 72.0237 8.07158 72.3026C8.42963 72.8004 8.52798 73.6594 8.34923 74.5345C9.29304 73.7828 11.4299 71.2199 11.2455 69.5781C11.2437 69.5626 11.2423 69.5467 11.2408 69.5306C11.2252 69.3584 11.2076 69.1639 10.8022 69.2179C10.1096 69.3103 9.46387 68.7739 9.37999 68.0635C9.28241 67.2372 10.1096 66.6229 10.9499 66.6229C12.8154 66.706 12.9817 69.2179 12.169 70.9079C12.9724 70.3261 13.339 69.3958 13.6373 68.6084C13.6648 68.536 13.6916 68.4636 13.7184 68.3915C14.0154 67.5901 14.2943 66.8377 15.1387 66.7861C15.3787 66.7714 15.5672 66.8596 15.7504 66.9454C15.8915 67.0114 16.0294 67.076 16.1852 67.0909C16.4014 67.1116 16.4852 67.1108 16.7412 67.0909L16.7299 67.1025L16.7373 67.0951C16.7221 67.3514 16.7227 67.4353 16.7473 67.651C16.7651 67.8065 16.8321 67.9432 16.9007 68.0831C16.9897 68.2647 17.0814 68.4516 17.071 68.6918C17.0346 69.5371 16.2874 69.8295 15.4915 70.1409C15.4199 70.1689 15.3479 70.1971 15.276 70.2258C14.4941 70.5384 13.5706 70.9216 13.0034 71.7354C14.6784 70.8924 17.193 71.0133 17.3097 72.877C17.3249 73.7172 16.7256 74.5553 15.8976 74.4727C15.1858 74.4016 14.6379 73.7657 14.7177 73.0715C14.7645 72.6652 14.5696 72.6511 14.3972 72.6386C14.3811 72.6374 14.3652 72.6363 14.3496 72.6348C12.7276 72.4821 10.2504 74.6028 9.47777 75.5795C10.4059 75.4323 11.3133 75.5621 11.7683 75.8602C12.0473 76.0608 12.2578 75.9419 12.3048 75.7297C12.606 74.3706 14.37 73.798 15.0598 75.3092C15.688 76.6855 14.2255 77.2669 13.8708 77.1506C13.6891 77.0911 13.176 77.6001 13.8708 77.6001C15.3532 77.6001 16.9675 78.6385 15.6115 79.5778C15.5929 79.5912 15.5749 79.6042 15.5572 79.6169C15.228 79.8538 15.0465 79.9844 14.7988 80.4856C14.1773 81.7431 12.8169 80.5336 12.5803 78.8761C12.5249 78.4877 12.3048 78.7059 12.3048 78.8761C12.3048 79.2882 11.8972 80.5131 10.751 80.5463C9.98242 80.5203 9.35022 79.9812 9.3011 79.2137C9.18741 78.1057 10.1669 77.7775 10.6982 77.6993C11.2295 77.621 11.0369 77.1888 10.6982 76.9185C10.2075 76.5271 7.96306 76.3447 7.89814 78.7089C7.83646 80.9551 10.6982 81.9289 12.4205 81.9289Z" fill="#DCC67A"/>
<path fill-rule="evenodd" clip-rule="evenodd" d="M12.4205 2.25009C12.4205 2.25009 12.5161 1.42466 12.4205 0.910205C10.1809 0.910206 7.9584 1.0594 5.15797 1.30847C4.97063 1.30847 4.79517 1.31168 4.62792 1.31473C3.71677 1.33138 3.04959 1.34357 2.03402 0.808637C1.79303 0.716943 1.79303 0.96929 1.79303 0.96929C2.16499 3.11993 3.89077 2.84686 4.14745 2.74856C3.78154 3.4203 4.50783 4.48804 5.31863 4.41456C6.10426 4.34336 6.88357 3.46399 6.24689 2.62052C6.18149 2.53387 6.19285 2.28473 6.354 2.21887C7.01239 1.9498 7.53202 1.93342 8.20242 1.91229C8.33261 1.90818 8.46849 1.9039 8.61217 1.89755C8.88027 1.8857 8.81982 1.92597 8.60032 2.07221C8.09641 2.40793 6.75422 3.30214 6.62411 5.40643C6.59186 5.92799 6.66704 6.37645 6.82131 6.75898L6.85486 7.07701L6.35871 6.95807L6.3694 6.97179C6.01369 6.81927 5.61064 6.73213 5.15914 6.73213C3.12539 6.73213 2.20193 8.1324 1.84313 8.67646C1.68811 8.91152 1.63849 8.98676 1.65027 8.72019C1.65662 8.57651 1.6609 8.44063 1.665 8.31044C1.68614 7.64005 1.70252 7.12042 1.97159 6.46202C2.03744 6.30087 2.28659 6.28951 2.37324 6.35491C3.21671 6.9916 4.09608 6.21228 4.16728 5.42665C4.24076 4.61585 3.17302 3.88956 2.50127 4.25547C2.59958 3.99879 2.87264 2.27301 0.722006 1.90105C0.722006 1.90105 0.469659 1.90105 0.561353 2.14205C1.09628 3.15761 1.08409 3.82479 1.06745 4.73594V4.73595C1.06439 4.90319 1.06119 5.07865 1.06119 5.266C0.812115 8.06642 0.662923 10.2889 0.662921 12.5286C1.17737 12.6242 2.00281 12.5286 2.00281 12.5286C2.00281 10.8062 2.97664 7.94448 5.22282 8.00617C7.58699 8.07109 7.40462 10.3155 7.0132 10.8062C6.74297 11.145 6.31071 11.3375 6.23248 10.8062C6.15425 10.2749 5.82602 9.29543 4.71799 9.40912C3.95053 9.45824 3.41139 10.0904 3.38548 10.859C3.41861 12.0052 4.64358 12.4129 5.05562 12.4129C5.22579 12.4129 5.44405 12.6329 5.05562 12.6884C3.39813 12.9249 2.18859 14.2853 3.44615 14.9068C3.94737 15.1545 4.07797 15.3361 4.31484 15.6653L4.35392 15.7195C5.29326 17.0755 6.33161 15.4612 6.33161 13.9788C6.33161 13.2841 6.84064 13.7971 6.7811 13.9788C6.66488 14.3335 7.24621 15.796 8.62257 15.1678C10.1338 14.4781 9.5611 12.714 8.20208 12.4129C7.98985 12.3658 7.8709 12.1554 8.07158 11.8764C8.42963 11.3786 8.52798 10.5196 8.34923 9.64454C9.29304 10.3962 11.4299 12.9592 11.2455 14.6009C11.2437 14.6164 11.2423 14.6323 11.2408 14.6484C11.2252 14.8206 11.2076 15.0151 10.8022 14.9611C10.1096 14.8687 9.46387 15.4051 9.37999 16.1155C9.28241 16.9419 10.1096 17.5561 10.9499 17.5561C12.8154 17.473 12.9817 14.9611 12.169 13.2711C12.9724 13.8529 13.339 14.7832 13.6373 15.5706C13.6648 15.643 13.6916 15.7155 13.7184 15.7875C14.0154 16.5889 14.2943 17.3413 15.1387 17.393C15.3787 17.4076 15.5672 17.3194 15.7504 17.2336C15.8915 17.1676 16.0294 17.103 16.1852 17.0881C16.4014 17.0674 16.4852 17.0683 16.7412 17.0881L16.7299 17.0765L16.7373 17.0839C16.7221 16.8276 16.7227 16.7438 16.7473 16.528C16.7651 16.3725 16.8321 16.2358 16.9007 16.0959C16.9897 15.9143 17.0814 15.7274 17.071 15.4872C17.0346 14.642 16.2874 14.3495 15.4915 14.0381C15.4199 14.0101 15.3479 13.9819 15.276 13.9532C14.4941 13.6407 13.5706 13.2574 13.0034 12.4436C14.6784 13.2866 17.193 13.1657 17.3097 11.302C17.3249 10.4618 16.7256 9.6237 15.8976 9.70636C15.1858 9.77741 14.6379 10.4133 14.7177 11.1075C14.7645 11.5138 14.5696 11.5279 14.3972 11.5404C14.3811 11.5416 14.3652 11.5428 14.3496 11.5442C12.7276 11.6969 10.2504 9.57619 9.47777 8.59948C10.4059 8.74676 11.3133 8.6169 11.7683 8.31886C12.0473 8.11818 12.2578 8.23713 12.3048 8.44936C12.606 9.80839 14.37 10.3811 15.0598 8.86986C15.688 7.49349 14.2255 6.91216 13.8708 7.02838C13.6891 7.08793 13.176 6.57889 13.8708 6.57889C15.3532 6.57889 16.9675 5.54054 15.6115 4.6012C15.5929 4.58782 15.5749 4.57482 15.5572 4.56212C15.228 4.32526 15.0465 4.19465 14.7988 3.69343C14.1773 2.43587 12.8169 3.64541 12.5803 5.30291C12.5249 5.69133 12.3048 5.47308 12.3048 5.30291C12.3048 4.89086 11.8972 3.66589 10.751 3.63276C9.98242 3.65867 9.35022 4.19781 9.3011 4.96527C9.18741 6.0733 10.1669 6.40153 10.6982 6.47976C11.2295 6.55799 11.0369 6.99026 10.6982 7.26048C10.2075 7.6519 7.96306 7.83427 7.89814 5.4701C7.83646 3.22392 10.6982 2.25009 12.4205 2.25009Z" fill="#DCC67A"/>
</svg>
