<svg width="380" height="35" viewBox="0 0 380 35" fill="none" xmlns="http://www.w3.org/2000/svg">
<rect x="0.152344" y="0.345215" width="379.404" height="22.9084" fill="#F4F0E1"/>
<path fill-rule="evenodd" clip-rule="evenodd" d="M355.294 3.36437C355.294 3.36437 355.096 1.65973 355.294 0.597314C359.919 0.597318 364.509 0.905421 370.292 1.41979C370.679 1.41979 371.041 1.42641 371.387 1.43272C373.268 1.46709 374.646 1.49226 376.743 0.387563C377.241 0.198203 377.241 0.719334 377.241 0.719334C376.473 5.16069 372.909 4.59677 372.379 4.39376C373.134 5.781 371.635 7.98603 369.96 7.83429C368.338 7.68726 366.728 5.87123 368.043 4.12935C368.178 3.95041 368.155 3.43589 367.822 3.29989C366.462 2.74423 365.389 2.7104 364.005 2.66675C363.736 2.65828 363.455 2.64943 363.159 2.63632C362.605 2.61186 362.73 2.69502 363.183 2.99702C364.224 3.69033 366.995 5.53699 367.264 9.88263C367.331 10.9614 367.175 11.8888 366.855 12.6796L366.786 13.3328L367.81 13.0873L367.789 13.115C368.523 12.8001 369.356 12.6202 370.288 12.6202C374.488 12.6202 376.395 15.5119 377.136 16.6355C377.456 17.1209 377.559 17.2763 377.534 16.7258C377.521 16.4291 377.512 16.1485 377.504 15.8796C377.46 14.4951 377.426 13.422 376.871 12.0624C376.735 11.7296 376.22 11.7061 376.041 11.8412C374.299 13.156 372.483 11.5466 372.336 9.92418C372.185 8.24976 374.39 6.74988 375.777 7.50553C375.574 6.97545 374.922 3.40492 379.363 2.63677C379.363 2.63677 379.682 2.61956 379.492 3.11724C378.505 4.99146 378.586 6.30468 378.685 7.90946C378.717 8.43005 378.751 8.98133 378.751 9.5924C379.265 15.3757 379.573 19.9654 379.573 24.5906C378.511 24.788 376.806 24.5906 376.806 24.5906C376.806 21.0337 374.795 15.1238 370.156 15.2512C365.274 15.3853 365.651 20.0203 366.459 21.0337C367.017 21.7333 367.91 22.1309 368.071 21.0337C368.233 19.9365 368.911 17.9137 371.199 18.1485C372.784 18.25 373.897 19.5555 373.951 21.1428C373.882 23.5098 371.353 24.3517 370.502 24.3517C370.15 24.3517 369.7 24.8061 370.502 24.9206C373.925 25.4091 376.423 28.2185 373.826 29.502C372.79 30.0136 372.521 30.3885 372.032 31.0683L371.951 31.1803C370.011 33.9806 367.867 30.6469 367.867 27.5856C367.867 26.1508 366.815 27.2104 366.938 27.5856C367.178 28.3181 365.978 31.3384 363.135 30.041C360.015 28.6166 361.197 24.9736 364.004 24.3517C364.442 24.2545 364.688 23.8199 364.273 23.2437C363.534 22.2159 363.331 20.4421 363.7 18.6351C361.751 20.1872 357.338 25.4802 357.719 28.8708C357.722 28.9028 357.725 28.9357 357.728 28.9689C357.76 29.3245 357.797 29.7262 358.634 29.6146C360.064 29.4239 361.398 30.5315 361.571 31.9986C361.773 33.7052 360.064 34.9738 358.329 34.9738C354.476 34.8021 354.133 29.6146 355.811 26.1245C354.152 27.326 353.395 29.2473 352.779 30.8734C352.722 31.0229 352.667 31.1725 352.612 31.3214C351.998 32.9763 351.422 34.5302 349.678 34.6368C349.183 34.6671 348.794 34.4848 348.415 34.3077L348.415 34.3077C348.124 34.1713 347.839 34.038 347.517 34.0072C347.071 33.9644 346.898 33.9662 346.369 34.0072L346.392 33.9838L346.378 33.9978C346.409 33.4685 346.408 33.2953 346.357 32.8498C346.321 32.5286 346.182 32.2463 346.041 31.9574C345.857 31.5824 345.667 31.1965 345.689 30.7003C345.764 28.9548 347.307 28.351 348.951 27.7078L348.951 27.7076C349.099 27.6498 349.247 27.5917 349.396 27.5324C351.01 26.887 352.918 26.0955 354.089 24.4149C350.63 26.1559 345.437 25.9062 345.196 22.0574C345.165 20.3222 346.402 18.5914 348.112 18.7621C349.582 18.9089 350.713 20.2221 350.549 21.6557C350.452 22.4947 350.854 22.5239 351.211 22.5498C351.244 22.5522 351.277 22.5546 351.309 22.5576C354.658 22.8729 359.773 18.4943 361.369 16.477C359.453 16.7807 357.58 16.5125 356.641 15.8972C356.064 15.4828 355.63 15.7284 355.533 16.1667C354.911 18.9733 351.268 20.1559 349.843 17.0351C348.546 14.1927 351.566 12.9922 352.299 13.2322C352.674 13.3552 353.733 12.3039 352.299 12.3039C349.237 12.3039 345.904 10.1596 348.704 8.21973C348.742 8.1921 348.78 8.16525 348.816 8.13903C349.496 7.64986 349.871 7.38015 350.382 6.34506C351.666 3.74802 354.475 6.24589 354.964 9.66885C355.078 10.471 355.533 10.0203 355.533 9.66885C355.533 8.81792 356.374 6.28819 358.742 6.21977C360.329 6.27328 361.634 7.38668 361.736 8.97159C361.971 11.2598 359.948 11.9377 358.851 12.0992C357.753 12.2608 358.151 13.1535 358.851 13.7115C359.864 14.5198 364.499 14.8965 364.633 10.0141C364.76 5.37546 358.851 3.36437 355.294 3.36437Z" fill="#DCC67A"/>
<path fill-rule="evenodd" clip-rule="evenodd" d="M24.4319 3.36339C24.4319 3.36339 24.6293 1.65875 24.4319 0.596337C19.8067 0.596341 15.2169 0.904445 9.43369 1.41881C9.04679 1.41881 8.68444 1.42543 8.33906 1.43174C6.4574 1.46612 5.07958 1.49129 2.9823 0.386587C2.48462 0.197226 2.48462 0.718357 2.48462 0.718357C3.25277 5.15972 6.81674 4.5958 7.34682 4.39279C6.59117 5.78003 8.09104 7.98506 9.76547 7.83331C11.3879 7.68628 12.9973 5.87025 11.6825 4.12838C11.5474 3.94944 11.5708 3.43492 11.9036 3.29891C13.2633 2.74325 14.3364 2.70942 15.7209 2.66577C15.9897 2.6573 16.2703 2.64845 16.5671 2.63534C17.1207 2.61088 16.9959 2.69404 16.5426 2.99605C15.502 3.68936 12.7302 5.53601 12.4615 9.88165C12.3947 10.9605 12.5506 11.8878 12.8702 12.6786L12.9391 13.3318L11.9152 13.0863L11.9368 13.114C11.2023 12.7991 10.37 12.6192 9.43766 12.6192C5.23767 12.6192 3.33061 15.5109 2.58963 16.6345C2.26949 17.1199 2.16703 17.2753 2.19135 16.7248C2.20446 16.4281 2.21331 16.1475 2.22178 15.8786C2.26543 14.4942 2.29926 13.4211 2.85492 12.0614C2.99092 11.7286 3.50545 11.7051 3.68439 11.8402C5.42626 13.155 7.24228 11.5456 7.38932 9.92321C7.54106 8.24878 5.33603 6.7489 3.94879 7.50456C4.1518 6.97447 4.80363 3.40394 0.362266 2.6358C0.362266 2.6358 0.0440378 2.61858 0.233398 3.11626C1.22061 4.99049 1.13971 6.3037 1.04085 7.90848C1.00878 8.42908 0.974815 8.98035 0.974815 9.59142C0.460451 15.3747 0.152347 19.9644 0.152344 24.5896C1.21476 24.787 2.9194 24.5896 2.9194 24.5896C2.9194 21.0327 4.93049 15.1229 9.56916 15.2503C14.4515 15.3843 14.0749 20.0194 13.2665 21.0327C12.7085 21.7323 11.8158 22.1299 11.6542 21.0327C11.4927 19.9355 10.8149 17.9128 8.52662 18.1475C6.94171 18.249 5.82831 19.5546 5.7748 21.1418C5.84322 23.5088 8.37295 24.3507 9.22388 24.3507C9.5753 24.3507 10.026 24.8051 9.22388 24.9196C5.80092 25.4081 3.30305 28.2175 5.90008 29.5011C6.93518 30.0126 7.20489 30.3875 7.69405 31.0673L7.77476 31.1793C9.71463 33.9796 11.859 30.6459 11.859 27.5846C11.859 26.1498 12.9102 27.2094 12.7872 27.5846C12.5472 28.3171 13.7477 31.3374 16.5901 30.0401C19.7109 28.6156 18.5283 24.9726 15.7217 24.3507C15.2835 24.2536 15.0378 23.8189 15.4522 23.2428C16.1916 22.2149 16.3947 20.4411 16.0257 18.6341C17.9747 20.1862 22.388 25.4793 22.007 28.8699C22.0034 28.9018 22.0004 28.9347 21.9974 28.9679C21.9652 29.3235 21.9287 29.7253 21.0916 29.6136C19.6612 29.4229 18.3278 30.5305 18.1545 31.9976C17.953 33.7042 19.6612 34.9728 21.3967 34.9728C25.2492 34.8011 25.5925 29.6136 23.9142 26.1235C25.5734 27.3251 26.3304 29.2463 26.9466 30.8724C27.0032 31.0219 27.0587 31.1715 27.1139 31.3204C27.7273 32.9754 28.3032 34.5292 30.0471 34.6358C30.5428 34.6661 30.9321 34.4838 31.3104 34.3067L31.3104 34.3067C31.6017 34.1703 31.8865 34.037 32.2083 34.0062C32.6547 33.9634 32.8279 33.9653 33.3565 34.0062L33.3338 33.9828L33.3477 33.9968C33.3163 33.4676 33.3176 33.2944 33.3684 32.8489C33.405 32.5276 33.5434 32.2453 33.685 31.9565C33.8689 31.5814 34.0582 31.1955 34.0368 30.6993C33.9617 28.9538 32.4185 28.35 30.7749 27.7068L30.7744 27.7066C30.6267 27.6488 30.4782 27.5907 30.3299 27.5315C28.7152 26.886 26.8079 26.0946 25.6365 24.4139C29.0958 26.1549 34.2887 25.9052 34.5297 22.0565C34.561 20.3212 33.3235 18.5905 31.6135 18.7612C30.1436 18.9079 29.0121 20.2211 29.177 21.6547C29.2735 22.4938 28.8711 22.5229 28.515 22.5488C28.4817 22.5512 28.4488 22.5536 28.4168 22.5566C25.0674 22.8719 19.9526 18.4934 18.3563 16.476C20.2725 16.7797 22.1456 16.5116 23.085 15.8962C23.6612 15.4818 24.0958 15.7275 24.193 16.1657C24.8149 18.9723 28.4579 20.1549 29.8823 17.0341C31.1797 14.1917 28.1594 12.9912 27.4269 13.2312C27.0517 13.3542 25.9921 12.3029 27.4269 12.3029C30.4882 12.3029 33.8219 10.1586 31.0216 8.21875C30.9833 8.19112 30.946 8.16427 30.9096 8.13805C30.2297 7.64889 29.8549 7.37918 29.3433 6.34408C28.0598 3.74705 25.2504 6.24491 24.7619 9.66787C24.6474 10.47 24.193 10.0193 24.193 9.66787C24.193 8.81694 23.3511 6.28721 20.9841 6.21879C19.3968 6.2723 18.0912 7.3857 17.9898 8.97061C17.755 11.2588 19.7778 11.9367 20.875 12.0982C21.9722 12.2598 21.5746 13.1525 20.875 13.7105C19.8616 14.5189 15.2266 14.8955 15.0925 10.0132C14.9651 5.37448 20.875 3.36339 24.4319 3.36339Z" fill="#DCC67A"/>
<path d="M355.657 3.36334H24.1021V0.597534H355.657V3.36334Z" fill="#DCC67A"/>
</svg>
