<svg width="325" height="95" viewBox="0 0 325 95" fill="none" xmlns="http://www.w3.org/2000/svg">
<mask id="mask0_94_90" style="mask-type:alpha" maskUnits="userSpaceOnUse" x="0" y="0" width="325" height="95">
<path d="M0.618652 2.29034C73.2709 28.3019 109.198 47.761 162.467 92.8391C210.587 50.4423 245.262 30.2543 324.367 2.29034H0.618652Z" fill="#FFE58B"/>
<path d="M162.467 92.8391L161.498 93.9841L162.487 94.8208L163.459 93.9646L162.467 92.8391ZM0.618652 2.29034V0.790344L0.11304 3.70256L0.618652 2.29034ZM324.367 2.29034L324.867 3.70458L324.367 0.790344V2.29034ZM163.436 91.6941C110.007 46.4804 73.9149 26.9392 1.12427 0.878128L0.11304 3.70256C72.6269 29.6645 108.39 49.0415 161.498 93.9841L163.436 91.6941ZM0.618652 3.79034H324.367V0.790344H0.618652V3.79034ZM323.867 0.876109C244.617 28.8912 209.765 49.1669 161.475 91.7136L163.459 93.9646C211.408 51.7177 245.907 31.6174 324.867 3.70458L323.867 0.876109Z" fill="#FFE58B"/>
</mask>
<g mask="url(#mask0_94_90)">
<rect x="0.618652" y="1.1474" width="323.228" height="91.6917" fill="#F4F0E1"/>
</g>
<path d="M162.467 92.8391L161.498 93.9841L162.487 94.8208L163.459 93.9646L162.467 92.8391ZM163.436 91.6941C110.007 46.4804 73.9149 26.9392 1.12427 0.878128L0.11304 3.70256C72.6269 29.6645 108.39 49.0415 161.498 93.9841L163.436 91.6941ZM323.867 0.876109C244.617 28.8912 209.765 49.1669 161.475 91.7136L163.459 93.9646C211.408 51.7177 245.907 31.6174 324.867 3.70458L323.867 0.876109Z" fill="#DCC67A"/>
<path fill-rule="evenodd" clip-rule="evenodd" d="M163.578 70.6329C163.048 70.8872 162.46 71.8351 162.46 71.8351C162.46 71.8351 162.049 71.2465 161.739 70.8872C161.372 70.6419 161.025 70.5062 160.692 70.3761C160.288 70.2181 159.905 70.0683 159.532 69.7403C158.845 69.1025 159.267 67.6044 159.857 65.5106C160.314 63.8864 160.873 61.9037 161.093 59.6861C161.588 56.2185 161.469 55.5059 161.469 55.5059H161.209C161.209 55.5059 159.394 62.975 153.517 62.7083C149.685 62.2145 150.402 58.4381 150.402 58.4381C151.779 54.3628 157.606 56.9405 155.117 59.8662C155.799 60.1799 159.147 58.2145 160.248 53.3573C160.627 52.0784 160.663 50.9481 160.696 49.9243L160.696 49.9241L160.696 49.9238L160.696 49.9235L160.696 49.9232L160.696 49.9229C160.705 49.649 160.713 49.3828 160.728 49.1233C161.048 48.4429 161.271 47.8509 161.481 47.2944C161.556 47.0957 161.63 46.9014 161.705 46.7093H163.404C163.549 47.7207 163.719 48.066 163.979 48.5972C164.055 48.7503 164.137 48.9189 164.229 49.1233C164.3 49.9976 164.319 50.5892 164.333 51.0671V51.0671C164.359 51.8821 164.374 52.3662 164.621 53.3573C165.86 57.3003 167.629 59.7704 169.752 60.0684C169.753 60.0317 169.753 60.0024 169.752 59.9736C169.752 59.9407 169.751 59.9084 169.752 59.8662C168.315 58.3771 170.078 56.2374 171.685 56.3654C173.697 56.5786 174.422 57.8724 174.422 59.2231C174.422 61.1993 173.064 62.7605 170.865 62.7605C165.237 62.55 163.698 55.5059 163.698 55.5059C163.698 55.5059 163.593 55.497 163.489 55.5059C163.451 55.594 163.572 57.3953 163.698 58.6024C163.946 60.8504 164.517 63.2978 164.982 65.2928L164.982 65.2929L164.983 65.293C165.499 67.5041 165.885 69.1593 165.556 69.3705C165.154 70.1401 164.445 70.3456 163.977 70.4814C163.799 70.5329 163.656 70.5744 163.578 70.6329ZM157.858 46.3052C158.318 46.3623 158.702 46.4044 159.067 46.4446L159.067 46.4446L159.067 46.4446L159.067 46.4446C159.653 46.509 160.192 46.5683 160.929 46.6758C158.823 56.0766 146.087 58.79 141.146 46.9758C140.892 46.576 140.662 46.1611 140.434 45.7481C139.559 44.1646 138.699 42.6083 136.522 42.0345C136.521 41.9725 136.521 41.9377 136.522 41.8757C138.305 40.6967 142.011 42.4162 142.699 44.8934C143.015 43.5909 145.29 38.3686 150.481 40.0473C153.745 40.8703 156.59 46.1481 152.087 48.2641C147.963 49.9365 146.716 43.2879 150.481 43.4463C149.424 41.2035 144.358 42.7402 144.576 47.0915C144.814 49.5865 146.213 52.5899 150.605 53.3466C150.605 53.3221 150.605 53.3027 150.604 53.2843V53.2841C150.604 53.2507 150.604 53.2206 150.605 53.1701C148.481 53.1701 142.699 49.0541 145.84 44.5934C145.896 44.6162 145.937 44.6342 145.98 44.6532C146.012 44.6673 146.046 44.6819 146.087 44.6993C145.84 46.3052 146.556 50.2368 150.758 51.2738C153.404 51.7029 156.908 50.4156 157.858 46.3052ZM122.215 38.044C122.186 38.0532 122.153 38.0634 122.115 38.0744C122.012 38.1431 122.004 38.1817 121.993 38.2338C121.986 38.2649 121.979 38.3008 121.95 38.3507C123.07 38.6943 123.453 39.4704 123.898 40.372L123.898 40.372C123.975 40.5294 124.055 40.6907 124.141 40.8542C125.606 44.3274 130.586 41.7513 132.099 40.9686C132.327 40.8503 132.477 40.7729 132.523 40.7637C133.586 40.3092 133.905 40.2726 134.698 40.1817L134.781 40.1721L134.901 40.1582C131.382 42.1413 132.233 44.5016 132.514 45.2211C134.366 49.0029 137.928 46.16 138 45.0239C138.121 43.9401 137.796 42.3782 135.498 42.5221C135.577 39.9827 140.913 40.6573 142.57 43.4925C142.96 43.6014 142.924 42.8001 142.924 42.8001C142.924 42.8001 140.806 38.8158 134.787 38.8158C134.55 38.8273 134.288 38.8335 134.01 38.84L134.01 38.8401L134.009 38.8401L134.009 38.8401L134.009 38.8401C133.093 38.8617 132.008 38.8873 131.093 39.1229C128.311 39.6757 126.554 39.9906 123.188 38.0744C122.476 37.9623 122.432 37.9761 122.215 38.044ZM156.878 45.5862C161.326 46.5964 164.372 46.4004 168.111 45.5862C168.844 45.4608 169.513 43.3245 167.387 43.3245C164.025 44.003 161.371 44.2292 157.285 43.3245C156.154 43.1738 155.25 44.8474 156.878 45.5862ZM162.943 43.3804C162.587 43.4302 162.213 43.4825 161.855 43.2513C161.855 41.541 161.187 38.84 160.296 36.8451C158.64 33.8589 161.234 33.9128 161.234 33.9128C161.67 33.7591 161.899 33.5534 162.198 33.2843L162.198 33.2843C162.304 33.1895 162.418 33.0868 162.553 32.9757C162.774 33.443 163.066 33.6946 163.678 33.9128C163.702 33.918 163.742 33.9224 163.794 33.928L163.795 33.928L163.795 33.928C164.326 33.9852 166.088 34.1749 164.669 36.8451C163.679 38.5502 163.324 41.1381 163.09 42.8498L163.09 42.8498C163.064 43.0342 163.041 43.2083 163.017 43.3702L162.943 43.3804ZM157.986 42.9887C159.095 43.5646 161.15 43.4646 161.15 43.4646C161.15 43.4646 161.172 41.6679 160.651 40.7047C159.583 38.7322 155.321 38.5634 155.321 38.5634C155.321 38.5634 157.772 41.0616 157.986 42.9887ZM165.919 46.4446L165.919 46.4445C166.284 46.4044 166.668 46.3622 167.128 46.3052C168.077 50.4156 171.582 51.7029 174.228 51.2738C178.429 50.2368 179.146 46.3052 178.899 44.6993C178.94 44.6819 178.974 44.6673 179.006 44.6532C179.049 44.6342 179.09 44.6162 179.146 44.5934C182.287 49.0541 176.505 53.1701 174.381 53.1701C174.382 53.2205 174.382 53.2506 174.382 53.284V53.2843C174.381 53.3027 174.381 53.3221 174.381 53.3466C178.773 52.5899 180.172 49.5865 180.41 47.0915C180.628 42.7402 175.562 41.2035 174.505 43.4463C178.27 43.2879 177.022 49.9365 172.899 48.2641C168.396 46.1481 171.241 40.8703 174.505 40.0473C179.696 38.3686 181.971 43.5909 182.287 44.8934C182.975 42.4162 186.681 40.6967 188.464 41.8757C188.465 41.9377 188.465 41.9725 188.464 42.0345C186.287 42.6083 185.427 44.1646 184.552 45.7481C184.324 46.1611 184.094 46.576 183.84 46.9758C178.899 58.79 166.163 56.0766 164.057 46.6758C164.794 46.5683 165.333 46.509 165.919 46.4446ZM202.87 38.0744C202.833 38.0634 202.8 38.0532 202.771 38.044C202.554 37.9761 202.51 37.9623 201.798 38.0744C198.432 39.9906 196.675 39.6757 193.893 39.1229C192.978 38.8873 191.893 38.8617 190.977 38.8401L190.977 38.8401C190.699 38.8335 190.436 38.8273 190.199 38.8158C184.18 38.8158 182.062 42.8001 182.062 42.8001C182.062 42.8001 182.026 43.6014 182.416 43.4925C184.073 40.6573 189.409 39.9827 189.488 42.5221C187.189 42.3782 186.865 43.9401 186.986 45.0239C187.058 46.16 190.62 49.0029 192.472 45.2211C192.752 44.5016 193.604 42.1413 190.085 40.1582C190.128 40.1633 190.169 40.168 190.209 40.1727L190.288 40.1817C191.081 40.2726 191.4 40.3092 192.463 40.7637C192.509 40.7729 192.658 40.8503 192.887 40.9686C194.4 41.7513 199.379 44.3274 200.845 40.8542C200.931 40.6909 201.01 40.5297 201.088 40.3724L201.088 40.372C201.533 39.4704 201.916 38.6943 203.036 38.3507C203.007 38.3008 202.999 38.2649 202.993 38.2338C202.982 38.1817 202.974 38.1431 202.87 38.0744ZM163.836 43.4646C163.836 43.4646 165.891 43.5646 167 42.9887C167.214 41.0616 169.665 38.5634 169.665 38.5634C169.665 38.5634 165.403 38.7322 164.335 40.7047C163.814 41.6679 163.836 43.4646 163.836 43.4646Z" fill="#DCC67A"/>
</svg>
