<svg width="327" height="481" viewBox="0 0 327 481" fill="none" xmlns="http://www.w3.org/2000/svg">
<mask id="mask0_91_48" style="mask-type:alpha" maskUnits="userSpaceOnUse" x="0" y="0" width="327" height="481">
<path fill-rule="evenodd" clip-rule="evenodd" d="M325.375 92.8999H325.276C246.171 64.9361 211.439 44.7922 163.319 2.39558C110.081 47.448 74.318 66.9106 1.74911 92.8999H1.625V388.056C74.2772 414.067 110.205 433.526 163.473 478.604C211.593 436.208 246.268 416.02 325.373 388.056L325.375 388.056V92.8999Z" fill="#FFE58B"/>
<path d="M325.276 92.8999L324.776 94.3141L325.018 94.3999H325.276V92.8999ZM325.375 92.8999H326.875V91.3999H325.375V92.8999ZM163.319 2.39558L164.311 1.27011L163.339 0.413843L162.35 1.25055L163.319 2.39558ZM1.74911 92.8999V94.3999H2.00961L2.25485 94.3121L1.74911 92.8999ZM1.625 92.8999V91.3999H0.125V92.8999H1.625ZM1.625 388.056H0.125V389.112L1.11939 389.468L1.625 388.056ZM163.473 478.604L162.504 479.749L163.493 480.586L164.465 479.73L163.473 478.604ZM325.373 388.056L325.343 386.556L325.102 386.561L324.873 386.641L325.373 388.056ZM325.375 388.056L325.405 389.555L326.875 389.526V388.056H325.375ZM325.276 94.3999H325.375V91.3999H325.276V94.3999ZM162.328 3.52106C210.618 46.0683 245.528 66.2996 324.776 94.3141L325.775 91.4856C246.814 63.5725 212.26 43.5161 164.311 1.27011L162.328 3.52106ZM2.25485 94.3121C74.9637 68.2727 110.891 48.7276 164.288 3.54061L162.35 1.25055C109.271 46.1684 73.6724 65.5486 1.24337 91.4877L2.25485 94.3121ZM1.625 94.3999H1.74911V91.3999H1.625V94.3999ZM3.125 388.056V92.8999H0.125V388.056H3.125ZM1.11939 389.468C73.6332 415.43 109.396 434.807 162.504 479.749L164.442 477.459C111.014 432.246 74.9212 412.705 2.13061 386.643L1.11939 389.468ZM164.465 479.73C212.414 437.483 246.913 417.383 325.873 389.47L324.873 386.641C245.624 414.657 210.772 434.932 162.482 477.479L164.465 479.73ZM325.345 386.556L325.343 386.556L325.403 389.555L325.405 389.555L325.345 386.556ZM323.875 92.8999V388.056H326.875V92.8999H323.875Z" fill="#FFE58B"/>
</mask>
<g mask="url(#mask0_91_48)">
<rect x="1.625" y="2.39558" width="323.75" height="476.209" fill="#F4F0E1"/>
</g>
<path d="M325.276 92.8999L324.776 94.3141L325.018 94.3999H325.276V92.8999ZM325.375 92.8999H326.875V91.3999H325.375V92.8999ZM163.319 2.39558L164.311 1.27011L163.339 0.413843L162.35 1.25055L163.319 2.39558ZM1.74911 92.8999V94.3999H2.00961L2.25485 94.3121L1.74911 92.8999ZM1.625 92.8999V91.3999H0.125V92.8999H1.625ZM1.625 388.056H0.125V389.112L1.11939 389.468L1.625 388.056ZM163.473 478.604L162.504 479.749L163.493 480.586L164.465 479.73L163.473 478.604ZM325.373 388.056L325.343 386.556L325.102 386.561L324.873 386.641L325.373 388.056ZM325.375 388.056L325.405 389.555L326.875 389.526V388.056H325.375ZM325.276 94.3999H325.375V91.3999H325.276V94.3999ZM162.328 3.52106C210.618 46.0683 245.528 66.2996 324.776 94.3141L325.775 91.4856C246.814 63.5725 212.26 43.5161 164.311 1.27011L162.328 3.52106ZM2.25485 94.3121C74.9637 68.2727 110.891 48.7276 164.288 3.54061L162.35 1.25055C109.271 46.1684 73.6724 65.5486 1.24337 91.4877L2.25485 94.3121ZM1.625 94.3999H1.74911V91.3999H1.625V94.3999ZM3.125 388.056V92.8999H0.125V388.056H3.125ZM1.11939 389.468C73.6332 415.43 109.396 434.807 162.504 479.749L164.442 477.459C111.014 432.246 74.9212 412.705 2.13061 386.643L1.11939 389.468ZM164.465 479.73C212.414 437.483 246.913 417.383 325.873 389.47L324.873 386.641C245.624 414.657 210.772 434.932 162.482 477.479L164.465 479.73ZM325.345 386.556L325.343 386.556L325.403 389.555L325.405 389.555L325.345 386.556ZM323.875 92.8999V388.056H326.875V92.8999H323.875Z" fill="#DCC67A"/>
<path fill-rule="evenodd" clip-rule="evenodd" d="M164.585 26.5202C164.055 26.2659 163.467 25.318 163.467 25.318C163.467 25.318 163.056 25.9066 162.746 26.2659C162.379 26.5112 162.032 26.6469 161.699 26.777C161.295 26.935 160.912 27.0848 160.539 27.4128C159.852 28.0506 160.274 29.5487 160.864 31.6425C161.321 33.2667 161.88 35.2494 162.1 37.467C162.595 40.9346 162.476 41.6472 162.476 41.6472H162.216C162.216 41.6472 160.401 34.1781 154.524 34.4448C150.692 34.9386 151.41 38.7151 151.41 38.7151C152.786 42.7904 158.613 40.2126 156.124 37.2869C156.806 36.9732 160.154 38.9386 161.255 43.7958C161.634 45.0747 161.67 46.205 161.703 47.2288L161.703 47.229L161.703 47.2293L161.703 47.2296L161.703 47.2299L161.703 47.2302C161.712 47.5041 161.721 47.7704 161.735 48.0298C162.055 48.7102 162.278 49.3022 162.488 49.8587C162.563 50.0574 162.637 50.2517 162.712 50.4438H164.411C164.556 49.4324 164.726 49.0871 164.987 48.5559C165.062 48.4028 165.144 48.2342 165.236 48.0298C165.307 47.1555 165.326 46.5639 165.341 46.086V46.086C165.366 45.271 165.381 44.7869 165.628 43.7958C166.867 39.8528 168.636 37.3827 170.759 37.0847C170.76 37.1215 170.76 37.1507 170.759 37.1795C170.759 37.2124 170.758 37.2447 170.759 37.2869C169.323 38.776 171.086 40.9157 172.692 40.7878C174.704 40.5745 175.429 39.2807 175.429 37.93C175.429 35.9538 174.071 34.3926 171.872 34.3926C166.244 34.6032 164.705 41.6472 164.705 41.6472C164.705 41.6472 164.6 41.6561 164.496 41.6472C164.458 41.5591 164.579 39.7578 164.705 38.5508C164.953 36.3027 165.524 33.8553 165.99 31.8603L165.99 31.8602L165.99 31.8601C166.506 29.649 166.892 27.9938 166.563 27.7826C166.161 27.0131 165.452 26.8075 164.984 26.6717C164.806 26.6202 164.663 26.5787 164.585 26.5202ZM158.865 50.8479C159.325 50.7909 159.709 50.7487 160.074 50.7086L160.074 50.7085L160.074 50.7085L160.074 50.7085C160.66 50.6441 161.2 50.5848 161.936 50.4773C159.83 41.0765 147.094 38.3631 142.153 50.1773C141.899 50.5771 141.669 50.992 141.441 51.405C140.566 52.9885 139.706 54.5448 137.529 55.1186C137.528 55.1806 137.528 55.2154 137.529 55.2775C139.312 56.4564 143.018 54.7369 143.706 52.2597C144.022 53.5622 146.297 58.7845 151.488 57.1059C154.752 56.2828 157.597 51.005 153.094 48.889C148.971 47.2166 147.723 53.8652 151.488 53.7068C150.431 55.9496 145.365 54.413 145.583 50.0616C145.821 47.5666 147.22 44.5632 151.612 43.8065C151.612 43.831 151.612 43.8504 151.611 43.8688V43.869C151.611 43.9024 151.611 43.9325 151.612 43.983C149.488 43.983 143.706 48.099 146.847 52.5597C146.903 52.5369 146.944 52.5189 146.987 52.4999C147.019 52.4858 147.053 52.4712 147.094 52.4538C146.847 50.8479 147.564 46.9163 151.765 45.8793C154.411 45.4502 157.916 46.7375 158.865 50.8479ZM123.222 59.1091C123.193 59.0999 123.16 59.0897 123.123 59.0787C123.019 59.01 123.011 58.9715 123 58.9193C122.993 58.8882 122.986 58.8523 122.957 58.8024C124.077 58.4588 124.46 57.6827 124.905 56.7811L124.905 56.7811C124.983 56.6237 125.062 56.4624 125.148 56.2989C126.613 52.8257 131.593 55.4018 133.106 56.1845C133.334 56.3029 133.484 56.3802 133.53 56.3894C134.593 56.8439 134.912 56.8805 135.705 56.9714L135.788 56.981L135.908 56.9949C132.389 55.0118 133.241 52.6515 133.521 51.932C135.373 48.1502 138.935 50.9931 139.007 52.1292C139.128 53.2131 138.804 54.7749 136.505 54.631C136.584 57.1704 141.92 56.4958 143.577 53.6606C143.967 53.5517 143.931 54.3531 143.931 54.3531C143.931 54.3531 141.813 58.3374 135.794 58.3374C135.557 58.3258 135.295 58.3196 135.017 58.3131L135.017 58.313L135.017 58.313L135.016 58.313L135.016 58.313C134.1 58.2914 133.015 58.2658 132.1 58.0303C129.318 57.4775 127.561 57.1625 124.195 59.0787C123.483 59.1908 123.439 59.177 123.222 59.1091ZM157.885 51.5669C162.333 50.5568 165.379 50.7528 169.118 51.5669C169.851 51.6923 170.52 53.8286 168.394 53.8286C165.032 53.1501 162.378 52.9239 158.292 53.8286C157.162 53.9794 156.257 52.3057 157.885 51.5669ZM163.95 53.7727C163.594 53.7229 163.22 53.6706 162.862 53.9018C162.862 55.6121 162.194 58.3131 161.304 60.308C159.647 63.2942 162.241 63.2403 162.241 63.2403C162.677 63.394 162.906 63.5997 163.205 63.8688L163.205 63.8688C163.311 63.9636 163.425 64.0663 163.56 64.1774C163.781 63.7101 164.074 63.4585 164.685 63.2403C164.709 63.2351 164.749 63.2307 164.801 63.2251L164.802 63.2251L164.802 63.2251C165.333 63.1679 167.095 62.9782 165.676 60.308C164.686 58.6029 164.331 56.015 164.097 54.3034L164.097 54.3033C164.071 54.119 164.048 53.9448 164.025 53.7829L163.95 53.7727ZM158.993 54.1644C160.102 53.5885 162.157 53.6886 162.157 53.6886C162.157 53.6886 162.179 55.4852 161.658 56.4484C160.59 58.4209 156.328 58.5897 156.328 58.5897C156.328 58.5897 158.779 56.0915 158.993 54.1644ZM166.926 50.7085L166.926 50.7086C167.291 50.7487 167.675 50.7909 168.135 50.8479C169.085 46.7375 172.589 45.4502 175.235 45.8793C179.437 46.9163 180.153 50.8479 179.906 52.4538C179.947 52.4712 179.981 52.4858 180.013 52.4999C180.056 52.5189 180.097 52.5369 180.153 52.5597C183.294 48.099 177.512 43.983 175.388 43.983C175.389 43.9326 175.389 43.9025 175.389 43.8691V43.8688C175.388 43.8504 175.388 43.831 175.388 43.8065C179.78 44.5632 181.179 47.5666 181.417 50.0616C181.635 54.413 176.569 55.9496 175.512 53.7068C179.277 53.8652 178.03 47.2166 173.906 48.889C169.403 51.005 172.248 56.2828 175.512 57.1059C180.703 58.7845 182.978 53.5622 183.294 52.2597C183.982 54.7369 187.688 56.4564 189.471 55.2775C189.472 55.2154 189.472 55.1806 189.471 55.1186C187.294 54.5448 186.434 52.9885 185.559 51.405C185.331 50.992 185.101 50.5771 184.847 50.1773C179.906 38.3631 167.17 41.0765 165.064 50.4773C165.801 50.5848 166.34 50.6441 166.926 50.7085ZM203.878 59.0787C203.84 59.0897 203.807 59.0999 203.778 59.1091C203.561 59.177 203.517 59.1908 202.805 59.0787C199.439 57.1625 197.682 57.4775 194.9 58.0303C193.985 58.2658 192.9 58.2914 191.984 58.313L191.984 58.313C191.706 58.3196 191.443 58.3258 191.206 58.3374C185.187 58.3374 183.069 54.3531 183.069 54.3531C183.069 54.3531 183.033 53.5517 183.423 53.6606C185.08 56.4958 190.416 57.1704 190.495 54.631C188.196 54.7749 187.872 53.2131 187.993 52.1292C188.065 50.9931 191.627 48.1502 193.479 51.932C193.759 52.6515 194.611 55.0118 191.092 56.9949C191.135 56.9898 191.176 56.9851 191.216 56.9804L191.295 56.9714C192.088 56.8805 192.407 56.8439 193.47 56.3894C193.516 56.3802 193.666 56.3029 193.894 56.1845C195.407 55.4018 200.387 52.8257 201.852 56.2989C201.938 56.4622 202.017 56.6234 202.095 56.7807L202.095 56.7811C202.54 57.6827 202.923 58.4588 204.043 58.8024C204.014 58.8523 204.007 58.8882 204 58.9193C203.989 58.9715 203.981 59.01 203.878 59.0787ZM164.843 53.6886C164.843 53.6886 166.898 53.5885 168.007 54.1644C168.221 56.0915 170.672 58.5897 170.672 58.5897C170.672 58.5897 166.41 58.4209 165.342 56.4484C164.821 55.4852 164.843 53.6886 164.843 53.6886Z" fill="#DCC67A"/>
<path fill-rule="evenodd" clip-rule="evenodd" d="M164.585 457.215C164.055 457.469 163.467 458.417 163.467 458.417C163.467 458.417 163.056 457.829 162.746 457.469C162.379 457.224 162.032 457.089 161.699 456.958C161.295 456.8 160.912 456.651 160.539 456.323C159.852 455.685 160.274 454.187 160.864 452.093C161.321 450.469 161.88 448.486 162.1 446.268C162.595 442.801 162.476 442.088 162.476 442.088H162.216C162.216 442.088 160.401 449.557 154.524 449.291C150.692 448.797 151.41 445.02 151.41 445.02C152.786 440.945 158.613 443.523 156.124 446.449C156.806 446.762 160.154 444.797 161.255 439.94C161.634 438.661 161.67 437.53 161.703 436.507L161.703 436.506L161.703 436.506L161.703 436.506L161.703 436.506L161.703 436.505C161.712 436.231 161.721 435.965 161.735 435.706C162.055 435.025 162.278 434.433 162.488 433.877C162.563 433.678 162.637 433.484 162.712 433.292H164.411C164.556 434.303 164.726 434.648 164.987 435.179C165.062 435.333 165.144 435.501 165.236 435.706C165.307 436.58 165.326 437.172 165.341 437.649V437.649C165.366 438.464 165.381 438.948 165.628 439.94C166.867 443.883 168.636 446.353 170.759 446.651C170.76 446.614 170.76 446.585 170.759 446.556C170.759 446.523 170.758 446.491 170.759 446.449C169.323 444.959 171.086 442.82 172.692 442.948C174.704 443.161 175.429 444.455 175.429 445.805C175.429 447.782 174.071 449.343 171.872 449.343C166.244 449.132 164.705 442.088 164.705 442.088C164.705 442.088 164.6 442.079 164.496 442.088C164.458 442.176 164.579 443.978 164.705 445.185C164.953 447.433 165.524 449.88 165.99 451.875L165.99 451.875L165.99 451.875C166.506 454.086 166.892 455.742 166.563 455.953C166.161 456.722 165.452 456.928 164.984 457.064C164.806 457.115 164.663 457.157 164.585 457.215ZM158.865 432.887C159.325 432.945 159.709 432.987 160.074 433.027L160.074 433.027L160.074 433.027L160.074 433.027C160.66 433.091 161.2 433.151 161.936 433.258C159.83 442.659 147.094 445.372 142.153 433.558C141.899 433.158 141.669 432.743 141.441 432.33C140.566 430.747 139.706 429.191 137.529 428.617C137.528 428.555 137.528 428.52 137.529 428.458C139.312 427.279 143.018 428.998 143.706 431.476C144.022 430.173 146.297 424.951 151.488 426.63C154.752 427.453 157.597 432.73 153.094 434.846C148.971 436.519 147.723 429.87 151.488 430.029C150.431 427.786 145.365 429.322 145.583 433.674C145.821 436.169 147.22 439.172 151.612 439.929C151.612 439.904 151.612 439.885 151.611 439.867V439.866C151.611 439.833 151.611 439.803 151.612 439.752C149.488 439.752 143.706 435.636 146.847 431.176C146.903 431.198 146.944 431.217 146.987 431.236C147.019 431.25 147.053 431.264 147.094 431.282C146.847 432.887 147.564 436.819 151.765 437.856C154.411 438.285 157.916 436.998 158.865 432.887ZM123.222 424.626C123.193 424.636 123.16 424.646 123.123 424.657C123.019 424.725 123.011 424.764 123 424.816C122.993 424.847 122.986 424.883 122.957 424.933C124.077 425.277 124.46 426.053 124.905 426.954L124.905 426.954C124.983 427.112 125.062 427.273 125.148 427.436C126.613 430.91 131.593 428.334 133.106 427.551C133.334 427.433 133.484 427.355 133.53 427.346C134.593 426.891 134.912 426.855 135.705 426.764L135.788 426.754L135.908 426.741C132.389 428.724 133.241 431.084 133.521 431.803C135.373 435.585 138.935 432.742 139.007 431.606C139.128 430.522 138.804 428.96 136.505 429.104C136.584 426.565 141.92 427.24 143.577 430.075C143.967 430.184 143.931 429.382 143.931 429.382C143.931 429.382 141.813 425.398 135.794 425.398C135.557 425.41 135.295 425.416 135.017 425.422L135.017 425.422L135.017 425.422L135.016 425.422L135.016 425.422C134.1 425.444 133.015 425.47 132.1 425.705C129.318 426.258 127.561 426.573 124.195 424.657C123.483 424.545 123.439 424.558 123.222 424.626ZM157.885 432.168C162.333 433.179 165.379 432.983 169.118 432.168C169.851 432.043 170.52 429.907 168.394 429.907C165.032 430.585 162.378 430.811 158.292 429.907C157.162 429.756 156.257 431.43 157.885 432.168ZM163.95 429.963C163.594 430.013 163.22 430.065 162.862 429.834C162.862 428.123 162.194 425.422 161.304 423.427C159.647 420.441 162.241 420.495 162.241 420.495C162.677 420.341 162.906 420.136 163.205 419.867L163.205 419.867C163.311 419.772 163.425 419.669 163.56 419.558C163.781 420.025 164.074 420.277 164.685 420.495C164.709 420.5 164.749 420.505 164.801 420.51L164.802 420.51L164.802 420.51C165.333 420.568 167.095 420.757 165.676 423.427C164.686 425.133 164.331 427.72 164.097 429.432L164.097 429.432C164.071 429.616 164.048 429.791 164.025 429.952L163.95 429.963ZM158.993 429.571C160.102 430.147 162.157 430.047 162.157 430.047C162.157 430.047 162.179 428.25 161.658 427.287C160.59 425.315 156.328 425.146 156.328 425.146C156.328 425.146 158.779 427.644 158.993 429.571ZM166.926 433.027L166.926 433.027C167.291 432.987 167.675 432.945 168.135 432.887C169.085 436.998 172.589 438.285 175.235 437.856C179.437 436.819 180.153 432.887 179.906 431.282C179.947 431.264 179.981 431.25 180.013 431.236C180.056 431.217 180.097 431.198 180.153 431.176C183.294 435.636 177.512 439.752 175.388 439.752C175.389 439.803 175.389 439.833 175.389 439.866V439.867C175.388 439.885 175.388 439.904 175.388 439.929C179.78 439.172 181.179 436.169 181.417 433.674C181.635 429.322 176.569 427.786 175.512 430.029C179.277 429.87 178.03 436.519 173.906 434.846C169.403 432.73 172.248 427.453 175.512 426.63C180.703 424.951 182.978 430.173 183.294 431.476C183.982 428.998 187.688 427.279 189.471 428.458C189.472 428.52 189.472 428.555 189.471 428.617C187.294 429.191 186.434 430.747 185.559 432.33C185.331 432.743 185.101 433.158 184.847 433.558C179.906 445.372 167.17 442.659 165.064 433.258C165.801 433.151 166.34 433.091 166.926 433.027ZM203.878 424.657C203.84 424.646 203.807 424.636 203.778 424.626C203.561 424.558 203.517 424.545 202.805 424.657C199.439 426.573 197.682 426.258 194.9 425.705C193.985 425.47 192.9 425.444 191.984 425.422L191.984 425.422C191.706 425.416 191.443 425.41 191.206 425.398C185.187 425.398 183.069 429.382 183.069 429.382C183.069 429.382 183.033 430.184 183.423 430.075C185.08 427.24 190.416 426.565 190.495 429.104C188.196 428.96 187.872 430.522 187.993 431.606C188.065 432.742 191.627 435.585 193.479 431.803C193.759 431.084 194.611 428.724 191.092 426.741C191.135 426.746 191.176 426.75 191.216 426.755L191.295 426.764C192.088 426.855 192.407 426.891 193.47 427.346C193.516 427.355 193.666 427.433 193.894 427.551C195.407 428.334 200.387 430.91 201.852 427.436C201.938 427.273 202.017 427.112 202.095 426.955L202.095 426.954C202.54 426.053 202.923 425.277 204.043 424.933C204.014 424.883 204.007 424.847 204 424.816C203.989 424.764 203.981 424.725 203.878 424.657ZM164.843 430.047C164.843 430.047 166.898 430.147 168.007 429.571C168.221 427.644 170.672 425.146 170.672 425.146C170.672 425.146 166.41 425.315 165.342 427.287C164.821 428.25 164.843 430.047 164.843 430.047Z" fill="#DCC67A"/>
</svg>
