<svg width="381" height="35" viewBox="0 0 381 35" fill="none" xmlns="http://www.w3.org/2000/svg">
<rect x="0.895508" y="0.345154" width="379.929" height="22.9084" fill="#F4F0E1"/>
<path fill-rule="evenodd" clip-rule="evenodd" d="M25.4282 3.36339C25.4282 3.36339 25.6256 1.65875 25.4282 0.596337C20.803 0.596341 16.2133 0.904445 10.43 1.41881C10.0431 1.41881 9.68076 1.42543 9.33538 1.43174C7.45372 1.46612 6.0759 1.49129 3.97862 0.386587C3.48094 0.197226 3.48094 0.718357 3.48094 0.718357C4.24909 5.15972 7.81306 4.5958 8.34314 4.39279C7.58749 5.78003 9.08736 7.98506 10.7618 7.83331C12.3842 7.68628 13.9936 5.87025 12.6788 4.12838C12.5437 3.94944 12.5672 3.43492 12.9 3.29891C14.2596 2.74325 15.3327 2.70942 16.7172 2.66577C16.9861 2.6573 17.2667 2.64845 17.5634 2.63534C18.1171 2.61088 17.9922 2.69404 17.5389 2.99605C16.4983 3.68936 13.7265 5.53601 13.4578 9.88165C13.3911 10.9593 13.5466 11.8858 13.8655 12.6761L13.9348 13.3326L12.9076 13.0863L12.9282 13.1128C12.1944 12.7986 11.3631 12.6192 10.432 12.6192C6.23202 12.6192 4.32495 15.5109 3.58398 16.6345C3.26384 17.1199 3.16137 17.2753 3.1857 16.7248C3.19881 16.4281 3.20765 16.1475 3.21613 15.8786C3.25978 14.4942 3.29361 13.4211 3.84927 12.0614C3.98527 11.7286 4.49979 11.7051 4.67873 11.8402C6.42061 13.155 8.23663 11.5456 8.38367 9.92321C8.53541 8.24878 6.33038 6.7489 4.94314 7.50456C5.14615 6.97447 5.71007 3.4105 1.26871 2.64236C1.26871 2.64236 0.74758 2.64236 0.936941 3.14004C2.04164 5.23732 2.01647 6.61513 1.98209 8.4968C1.97578 8.84217 1.96916 9.20453 1.96916 9.59142C1.4548 15.3747 1.1467 19.9644 1.14669 24.5896C2.20911 24.787 3.91375 24.5896 3.91375 24.5896C3.91375 21.0327 5.92484 15.1229 10.5635 15.2503C15.4458 15.3843 15.0692 20.0194 14.2609 21.0327C13.7028 21.7323 12.8101 22.1299 12.6486 21.0327C12.487 19.9355 11.8092 17.9128 9.52097 18.1475C7.93606 18.249 6.82266 19.5546 6.76915 21.1418C6.83756 23.5088 9.3673 24.3507 10.2182 24.3507C10.5697 24.3507 11.0204 24.8051 10.2182 24.9196C6.79527 25.4081 4.2974 28.2175 6.89443 29.5011C7.92953 30.0126 8.19924 30.3875 8.68841 31.0673L8.76911 31.1793C10.709 33.9796 12.8533 30.6459 12.8533 27.5846C12.8533 26.1498 13.9045 27.2094 13.7816 27.5846C13.5416 28.3171 14.7421 31.3374 17.5845 30.0401C20.7053 28.6156 19.5227 24.9726 16.7161 24.3507C16.2778 24.2536 16.0322 23.8189 16.4466 23.2428C17.1857 22.2152 17.3889 20.4423 17.0204 18.636C18.9706 20.1905 23.3802 25.4806 22.9994 28.8699C22.9958 28.9018 22.9928 28.9347 22.9898 28.9679C22.9576 29.3235 22.9211 29.7253 22.084 29.6136C20.6536 29.4229 19.3201 30.5305 19.1469 31.9976C18.9454 33.7042 20.6536 34.9728 22.3891 34.9728C26.2416 34.8011 26.5849 29.6136 24.9066 26.1235C26.5658 27.3251 27.3228 29.2463 27.9389 30.8724C27.9956 31.0219 28.0511 31.1715 28.1062 31.3204C28.7197 32.9754 29.2956 34.5292 31.0395 34.6358C31.5352 34.6661 31.9245 34.4838 32.3027 34.3067L32.3028 34.3067C32.5941 34.1703 32.8789 34.037 33.2007 34.0062C33.647 33.9634 33.8202 33.9653 34.3488 34.0062L34.2116 33.8651L34.3433 33.9977C34.3119 33.4685 34.3132 33.2953 34.364 32.8498C34.4006 32.5285 34.5391 32.2462 34.6807 31.9574C34.8646 31.5823 35.0538 31.1964 35.0325 30.7002C34.9574 28.9547 33.4142 28.3509 31.7705 27.7077L31.77 27.7075L31.7675 27.7065C31.6207 27.6491 31.4731 27.5913 31.3256 27.5324C29.7109 26.8869 27.8036 26.0955 26.6322 24.4148C30.0915 26.1558 35.2843 25.9061 35.5254 22.0574C35.5567 20.3221 34.3191 18.5914 32.6092 18.7621C31.1392 18.9088 30.0078 20.222 30.1727 21.6556C30.2692 22.4947 29.8668 22.5239 29.5107 22.5497C29.4774 22.5521 29.4445 22.5545 29.4125 22.5575C26.0624 22.8729 20.9463 18.4926 19.351 16.4757C21.2678 16.7799 23.1416 16.5117 24.0813 15.8962C24.6575 15.4818 25.0922 15.7275 25.1893 16.1657C25.8112 18.9723 29.4542 20.1549 30.8786 17.0341C32.176 14.1917 29.1557 12.9912 28.4232 13.2312C28.048 13.3542 26.9884 12.3029 28.4232 12.3029C31.4845 12.3029 34.8182 10.1586 32.0179 8.21875C31.9797 8.19112 31.9423 8.16427 31.9059 8.13805C31.2261 7.64889 30.8512 7.37918 30.3397 6.34408C29.0561 3.74705 26.2467 6.24491 25.7582 9.66787C25.6437 10.47 25.1893 10.0193 25.1893 9.66787C25.1893 8.81694 24.3474 6.28721 21.9804 6.21879C20.3932 6.2723 19.0876 7.3857 18.9861 8.97061C18.7513 11.2588 20.7741 11.9367 21.8713 12.0982C22.9685 12.2598 22.5709 13.1525 21.8713 13.7105C20.858 14.5189 16.2229 14.8955 16.0888 10.0132C15.9615 5.37448 21.8713 3.36339 25.4282 3.36339Z" fill="#DCC67A"/>
<path fill-rule="evenodd" clip-rule="evenodd" d="M356.293 3.36431C356.293 3.36431 356.096 1.65967 356.293 0.597253C360.919 0.597257 365.508 0.90536 371.292 1.41972C371.679 1.41972 372.041 1.42634 372.386 1.43265C374.268 1.46703 375.646 1.4922 377.743 0.387502C378.241 0.198142 378.241 0.719273 378.241 0.719273C377.473 5.16063 373.909 4.59671 373.379 4.3937C374.134 5.78094 372.634 7.98597 370.96 7.83423C369.337 7.68719 367.728 5.87117 369.043 4.12929C369.178 3.95035 369.155 3.43583 368.822 3.29983C367.462 2.74417 366.389 2.71034 365.005 2.66669C364.736 2.65821 364.455 2.64937 364.158 2.63626C363.605 2.61179 363.729 2.69495 364.183 2.99696C365.223 3.69027 367.995 5.53693 368.264 9.88257C368.331 10.9614 368.175 11.8887 367.855 12.6795L367.786 13.3327L368.81 13.0872L368.789 13.1149C369.523 12.8 370.355 12.6201 371.288 12.6201C375.488 12.6201 377.395 15.5118 378.136 16.6354C378.456 17.1208 378.558 17.2762 378.534 16.7257C378.521 16.429 378.512 16.1484 378.504 15.8795C378.46 14.4951 378.426 13.422 377.87 12.0623C377.734 11.7295 377.22 11.706 377.041 11.8411C375.299 13.1559 373.483 11.5465 373.336 9.92412C373.184 8.24969 375.389 6.74982 376.777 7.50547C376.574 6.97539 376.01 3.41142 380.451 2.64327C380.451 2.64327 380.972 2.64327 380.783 3.14095C379.678 5.23823 379.703 6.61605 379.738 8.49771C379.744 8.84309 379.751 9.20544 379.751 9.59234C380.265 15.3756 380.573 19.9653 380.573 24.5905C379.511 24.7879 377.806 24.5905 377.806 24.5905C377.806 21.0336 375.795 15.1238 371.156 15.2512C366.274 15.3852 366.651 20.0203 367.459 21.0336C368.017 21.7332 368.91 22.1308 369.071 21.0336C369.233 19.9364 369.911 17.9137 372.199 18.1485C373.784 18.2499 374.897 19.5555 374.951 21.1427C374.882 23.5098 372.352 24.3516 371.502 24.3516C371.15 24.3516 370.699 24.8061 371.502 24.9205C374.924 25.409 377.422 28.2185 374.825 29.502C373.79 30.0136 373.52 30.3884 373.031 31.0682L372.951 31.1802C371.011 33.9805 368.866 30.6468 368.866 27.5856C368.866 26.1507 367.815 27.2103 367.938 27.5856C368.178 28.318 366.978 31.3383 364.135 30.041C361.014 28.6165 362.197 24.9735 365.004 24.3516C365.442 24.2545 365.688 23.8198 365.273 23.2437C364.534 22.2158 364.331 20.442 364.7 18.635C362.751 20.1871 358.337 25.4802 358.718 28.8708C358.722 28.9028 358.725 28.9356 358.728 28.9688C358.76 29.3244 358.797 29.7262 359.634 29.6146C361.064 29.4238 362.398 30.5314 362.571 31.9985C362.772 33.7051 361.064 34.9737 359.329 34.9737C355.476 34.8021 355.133 29.6146 356.811 26.1245C355.152 27.326 354.395 29.2472 353.779 30.8733C353.722 31.0228 353.667 31.1725 353.612 31.3213C352.998 32.9763 352.422 34.5301 350.678 34.6367C350.183 34.667 349.793 34.4847 349.415 34.3076C349.124 34.1712 348.839 34.0379 348.517 34.0071C348.071 33.9644 347.898 33.9662 347.369 34.0071L347.391 33.9839L347.378 33.9977C347.409 33.4685 347.408 33.2953 347.357 32.8498C347.32 32.5286 347.182 32.2462 347.04 31.9574C346.856 31.5824 346.667 31.1964 346.689 30.7003C346.764 28.9548 348.307 28.3509 349.951 27.7077L349.951 27.7075C350.099 27.6498 350.247 27.5917 350.395 27.5324C352.01 26.887 353.917 26.0955 355.089 24.4148C351.63 26.1558 346.437 25.9061 346.196 22.0574C346.164 20.3221 347.402 18.5914 349.112 18.7621C350.582 18.9088 351.713 20.2221 351.548 21.6556C351.452 22.4947 351.854 22.5239 352.21 22.5497C352.244 22.5521 352.277 22.5545 352.309 22.5575C355.658 22.8728 360.773 18.4943 362.369 16.4769C360.453 16.7807 358.58 16.5125 357.64 15.8972C357.064 15.4827 356.63 15.7284 356.532 16.1667C355.911 18.9732 352.268 20.1559 350.843 17.035C349.546 14.1927 352.566 12.9921 353.298 13.2321C353.674 13.3551 354.733 12.3039 353.298 12.3039C350.237 12.3039 346.903 10.1595 349.704 8.21967C349.742 8.19204 349.779 8.16519 349.816 8.13897C350.496 7.6498 350.87 7.38009 351.382 6.34499C352.666 3.74796 355.475 6.24583 355.963 9.66879C356.078 10.4709 356.532 10.0202 356.532 9.66879C356.532 8.81786 357.374 6.28813 359.741 6.21971C361.329 6.27322 362.634 7.38662 362.736 8.97153C362.97 11.2598 360.948 11.9376 359.85 12.0992C358.753 12.2607 359.151 13.1534 359.85 13.7115C360.864 14.5198 365.499 14.8964 365.633 10.0141C365.76 5.3754 359.85 3.36431 356.293 3.36431Z" fill="#DCC67A"/>
<path d="M356.657 3.36328H25.1021V0.597473H356.657V3.36328Z" fill="#DCC67A"/>
</svg>
