<svg width="194" height="249" viewBox="0 0 194 249" fill="none" xmlns="http://www.w3.org/2000/svg">
<path d="M193.084 246.402C193.813 247.304 191.948 248.507 191.368 247.789C185.375 240.374 177.466 238.368 168.13 240.302C165.244 240.899 162.33 240.749 160.321 238.262C158.493 236.001 158.448 232.966 161.062 230.853C166.842 226.182 174.841 233.337 182.196 237.042C173.851 226.716 15.4019 24.9433 2.44702 11.5927C-0.258205 8.80482 -0.160397 4.21474 2.81232 1.81231C5.47458 -0.339225 9.5988 0.972312 11.6178 4.18147C21.8944 20.5157 168.372 215.291 184.538 235.295C184.993 233.283 174.458 220.027 182.739 213.336C185.081 211.443 187.916 212.519 189.599 214.602C190.717 215.985 192.075 220.084 190.15 222.507C185.625 228.204 187.505 239.498 193.084 246.402Z" fill="#917108"/>
</svg>
