<svg width="64" height="64" viewBox="0 0 64 64" fill="none" xmlns="http://www.w3.org/2000/svg">
<path d="M40.9802 10.5415L54.0403 24.1493L54.0403 43.3935L40.9802 57.0012L22.5104 57.0012L9.45033 43.3935L9.45033 24.1493L22.5104 10.5415L40.9802 10.5415Z" fill="#F4F0E1"/>
<path fill-rule="evenodd" clip-rule="evenodd" d="M21.9407 8.89363L41.6354 8.89364L55.5617 23.4038V44.0501L41.5501 58.6492H21.8554L7.92911 44.139L7.92911 23.4927L21.9407 8.89363ZM42.8402 5.86298L58.5307 22.2114V45.3315L42.8402 61.6799H20.6506L4.96008 45.3315L4.96008 22.2114L20.6506 5.86298L42.8402 5.86298ZM22.9405 11.5518L40.5786 11.5518L53.0506 24.5468V42.9664L40.5502 55.991H22.912L10.44 42.996L10.44 24.5764L22.9405 11.5518ZM40.9802 10.5416L54.0403 24.1493V43.3935L40.9802 57.0013H22.5104L9.45034 43.3935L9.45035 24.1493L22.5104 10.5416H40.9802Z" fill="#917108"/>
</svg>
