<svg width="345" height="523" viewBox="0 0 345 523" fill="none" xmlns="http://www.w3.org/2000/svg">
<path d="M2.82716 139.503C2.82717 82.339 172.5 0.417114 172.5 0.417114C172.5 0.417114 342.173 82.339 342.173 139.503C342.173 267.554 342.173 516.381 342.173 516.381H2.82716C2.82716 516.381 2.82714 263.189 2.82716 139.503Z" fill="#F7F5F1"/>
<path d="M340.694 141.16V141.921V142.684V143.45V144.219V144.991V145.765V146.542V147.322V148.105V148.89V149.677V150.468V151.261V152.056V152.854V153.655V154.458V155.263V156.072V156.882V157.695V158.511V159.329V160.149V160.972V161.797V162.624V163.454V164.286V165.121V165.958V166.797V167.638V168.482V169.327V170.175V171.026V171.878V172.733V173.589V174.448V175.309V176.172V177.037V177.904V178.773V179.645V180.518V181.393V182.27V183.15V184.031V184.914V185.799V186.686V187.574V188.465V189.357V190.252V191.148V192.046V192.945V193.847V194.75V195.655V196.561V197.47V198.38V199.291V200.204V201.119V202.036V202.954V203.874V204.795V205.718V206.642V207.568V208.495V209.424V210.354V211.286V212.219V213.153V214.089V215.027V215.965V216.905V217.847V218.789V219.733V220.678V221.625V222.573V223.521V224.472V225.423V226.375V227.329V228.284V229.24V230.197V231.155V232.114V233.074V234.036V234.998V235.961V236.926V237.891V238.857V239.825V240.793V241.762V242.732V243.702V244.674V245.647V246.62V247.594V248.569V249.545V250.521V251.498V252.476V253.455V254.434V255.414V256.395V257.376V258.358V259.341V260.324V261.307V262.292V263.276V264.262V265.247V266.234V267.221V268.208V269.195V270.184V271.172V272.161V273.15V274.14V275.13V276.12V277.111V278.102V279.093V280.084V281.076V282.068V283.06V284.052V285.044V286.037V287.03V288.023V289.016V290.009V291.002V291.995V292.988V293.981V294.975V295.968V296.961V297.954V298.947V299.94V300.933V301.926V302.919V303.911V304.904V305.896V306.888V307.88V308.871V309.862V310.853V311.844V312.835V313.825V314.815V315.804V316.793V317.782V318.77V319.758V320.746V321.733V322.719V323.706V324.691V325.676V326.661V327.645V328.628V329.611V330.594V331.575V332.556V333.537V334.516V335.495V336.474V337.451V338.428V339.405V340.38V341.355V342.328V343.301V344.274V345.245V346.215V347.185V348.154V349.121V350.088V351.054V352.019V352.983V353.946V354.908V355.869V356.829V357.787V358.745V359.702V360.657V361.612V362.565V363.517V364.468V365.417V366.366V367.313V368.259V369.204V370.147V371.089V372.03V372.97V373.908V374.845V375.78V376.714V377.646V378.578V379.507V380.436V381.362V382.288V383.211V384.133V385.054V385.973V386.891V387.806V388.721V389.633V390.544V391.454V392.361V393.267V394.171V395.074V395.975V396.874V397.771V398.666V399.56V400.452V401.341V402.229V403.116V404V404.882V405.762V406.641V407.517V408.392V409.264V410.135V411.003V411.87V412.734V413.596V414.456V415.314V416.17V417.024V417.875V418.725V419.572V420.417V421.259V422.1V422.938V423.774V424.608V425.439V426.268V427.094V427.919V428.74V429.56V430.377V431.191V432.004V432.813V433.62V434.425V435.227V436.027V436.824V437.618V438.41V439.199V439.986V440.77V441.552V442.33V443.106V443.88V444.65V445.418V446.183V446.946V447.705V448.462V449.216V449.967V450.715V451.461V452.203V452.943V453.679V454.413V455.144V455.872V456.596V457.318V458.037V458.753V459.465V460.175V460.882V461.585V462.285V462.982V463.676V464.367V465.055V465.739V466.421V467.099V467.773V468.445V469.113V469.778V470.439V471.098V471.752V472.404V473.052V473.697V474.338V474.976V475.61V476.241V476.868V477.492V478.113V478.73V479.343V479.953V480.559V481.161V481.76V482.355V482.947V483.535V484.119V484.7V485.276V485.85V486.419V486.984V487.546V488.104V488.658V489.208V489.755V490.297V490.836V491.371V491.902V492.428V492.951V493.47V493.985V494.496V495.003V495.506V496.005V496.5V496.99V497.477V497.959V498.438V498.912V499.382V499.847V500.309V500.766V501.219V501.668V502.113V502.553V502.989V503.421V503.848V504.271V504.689V505.103V505.513V505.919V506.319V506.716V507.108V507.495V507.878V508.257V508.631V509V509.365V509.725V510.08V510.431V510.777V511.119V511.456V511.788V512.116V512.439V512.757V513.07V513.378V513.682V513.981V514.275V514.565V514.849V515.128V515.403V515.673V515.938V516.197V516.452V516.702V516.947V517.187V517.422V517.652V517.876V518.096V518.311V518.52V518.725V518.924V519.028H4.30567L4.30567 511.275L4.30567 480.54L4.30567 378.779L4.30567 141.16C4.30568 134.785 6.67928 127.793 11.1822 120.309C15.6758 112.841 22.1682 105.086 30.093 97.2552C45.9453 81.5902 67.1826 65.9541 88.5629 52.0295C109.918 38.1218 131.289 26.002 147.333 17.3547C155.352 13.0328 162.033 9.58232 166.705 7.21396C169.041 6.02985 170.875 5.11647 172.122 4.50014C172.255 4.43462 172.381 4.37245 172.5 4.31367C172.619 4.37245 172.745 4.43462 172.878 4.50014C174.125 5.11647 175.959 6.02985 178.295 7.21396C182.967 9.58232 189.648 13.0328 197.667 17.3547C213.711 26.0019 235.082 38.1218 256.437 52.0295C277.817 65.9541 299.055 81.5902 314.907 97.2552C322.832 105.086 329.324 112.841 333.818 120.309C338.321 127.793 340.694 134.785 340.694 141.16Z" stroke="#DCC67A" stroke-width="7"/>
<path fill-rule="evenodd" clip-rule="evenodd" d="M173.585 20.4722C173.055 20.2179 172.467 19.27 172.467 19.27C172.467 19.27 172.056 19.8586 171.746 20.2179C171.379 20.4632 171.032 20.5989 170.699 20.729C170.295 20.887 169.912 21.0368 169.539 21.3648C168.852 22.0026 169.274 23.5007 169.864 25.5945L169.864 25.5945C170.321 27.2187 170.88 29.2014 171.1 31.419C171.595 34.8866 171.476 35.5992 171.476 35.5992H171.216C171.216 35.5992 169.401 28.1301 163.524 28.3968C159.692 28.8906 160.41 32.6671 160.41 32.6671C161.786 36.7424 167.613 34.1646 165.124 31.2389C165.806 30.9252 169.154 32.8906 170.255 37.7478C170.634 39.0267 170.67 40.157 170.703 41.1808L170.703 41.181L170.703 41.1813L170.703 41.1816L170.703 41.182C170.712 41.4559 170.721 41.7223 170.735 41.9818C171.055 42.6622 171.278 43.2542 171.488 43.8107L171.488 43.8112L171.489 43.8125L171.489 43.8125L171.489 43.813C171.564 44.0109 171.637 44.2044 171.712 44.3958H173.411C173.556 43.3844 173.726 43.0391 173.987 42.5079C174.062 42.3548 174.144 42.1862 174.236 41.9818C174.307 41.1075 174.326 40.5159 174.341 40.038V40.038C174.366 39.223 174.381 38.7389 174.628 37.7478C175.867 33.8048 177.636 31.3347 179.759 31.0367C179.76 31.0734 179.76 31.1027 179.759 31.1314C179.759 31.1644 179.758 31.1967 179.759 31.2389C178.323 32.728 180.086 34.8677 181.692 34.7398C183.704 34.5265 184.429 33.2327 184.429 31.882C184.429 29.9058 183.071 28.3446 180.872 28.3446C175.244 28.5552 173.705 35.5992 173.705 35.5992C173.705 35.5992 173.6 35.6081 173.496 35.5992C173.458 35.5111 173.579 33.7098 173.705 32.5027C173.953 30.2547 174.524 27.8073 174.99 25.8123L174.99 25.8122L174.99 25.8121C175.506 23.601 175.892 21.9458 175.563 21.7346C175.161 20.965 174.452 20.7595 173.984 20.6237C173.806 20.5722 173.663 20.5307 173.585 20.4722ZM167.865 44.7999C168.325 44.7428 168.709 44.7007 169.074 44.6605L169.074 44.6605L169.074 44.6605L169.074 44.6605C169.66 44.5961 170.2 44.5368 170.936 44.4293C168.83 35.0285 156.094 32.3151 151.153 44.1293C150.899 44.5291 150.669 44.944 150.441 45.357C149.566 46.9405 148.706 48.4968 146.529 49.0706C146.528 49.1326 146.528 49.1674 146.529 49.2295C148.312 50.4084 152.018 48.6889 152.706 46.2117C153.022 47.5142 155.297 52.7365 160.488 51.0578C163.752 50.2348 166.597 44.957 162.094 42.841C157.971 41.1686 156.723 47.8172 160.488 47.6588C159.431 49.9016 154.365 48.365 154.583 44.0136C154.821 41.5186 156.22 38.5152 160.612 37.7585L160.612 37.7928L160.611 37.8208C160.611 37.8543 160.611 37.8844 160.612 37.935C158.488 37.935 152.706 42.051 155.847 46.5117C155.903 46.4889 155.944 46.4709 155.987 46.4519L155.987 46.4518C156.02 46.4378 156.053 46.4232 156.094 46.4058C155.847 44.7999 156.564 40.8683 160.765 39.8313C163.411 39.4022 166.916 40.6895 167.865 44.7999ZM132.222 53.0611C132.193 53.0519 132.16 53.0417 132.123 53.0307C132.019 52.962 132.011 52.9234 132 52.8713C131.993 52.8402 131.986 52.8043 131.957 52.7544C133.077 52.4108 133.46 51.6347 133.905 50.7331C133.983 50.5757 134.062 50.4144 134.148 50.2509C135.613 46.7777 140.593 49.3538 142.106 50.1365C142.334 50.2548 142.484 50.3322 142.53 50.3414C143.593 50.7959 143.912 50.8325 144.705 50.9234C144.769 50.9308 144.837 50.9385 144.908 50.9469C141.389 48.9638 142.241 46.6035 142.521 45.884C144.373 42.1022 147.935 44.9451 148.007 46.0812C148.128 47.1651 147.804 48.7269 145.505 48.583C145.584 51.1224 150.92 50.4478 152.577 47.6126C152.967 47.5037 152.931 48.305 152.931 48.305C152.931 48.305 150.813 52.2894 144.794 52.2894C144.557 52.2778 144.295 52.2716 144.017 52.2651L144.017 52.265L144.017 52.265L144.016 52.265L144.016 52.265C143.1 52.2434 142.015 52.2178 141.1 51.9822C138.318 51.4295 136.561 51.1145 133.195 53.0307C132.483 53.1428 132.439 53.129 132.222 53.0611ZM166.885 45.5189C171.333 44.5087 174.379 44.7047 178.118 45.5189C178.851 45.6443 179.52 47.7806 177.394 47.7806C174.032 47.1021 171.378 46.8759 167.292 47.7806C166.162 47.9314 165.257 46.2577 166.885 45.5189ZM172.95 47.7247C172.594 47.6749 172.22 47.6226 171.862 47.8538C171.862 49.5641 171.194 52.2651 170.304 54.26C168.647 57.2462 171.241 57.1923 171.241 57.1923C171.677 57.346 171.906 57.5517 172.205 57.8208L172.205 57.8208C172.311 57.9156 172.425 58.0183 172.56 58.1294C172.781 57.6621 173.074 57.4105 173.685 57.1923C173.709 57.1871 173.749 57.1827 173.802 57.1771L173.802 57.1771L173.802 57.1771C174.333 57.1199 176.095 56.9302 174.676 54.26C173.686 52.5548 173.331 49.967 173.097 48.2554L173.097 48.2553C173.072 48.0709 173.048 47.8968 173.025 47.7349L172.95 47.7247ZM167.993 48.1164C169.102 47.5405 171.157 47.6405 171.157 47.6405C171.157 47.6405 171.179 49.4372 170.658 50.4004C169.59 52.3729 165.328 52.5417 165.328 52.5417C165.328 52.5417 167.779 50.0435 167.993 48.1164ZM175.926 44.6605L175.926 44.6606C176.291 44.7007 176.675 44.7429 177.135 44.7999C178.085 40.6895 181.589 39.4022 184.235 39.8313C188.437 40.8683 189.153 44.7999 188.906 46.4058C188.933 46.417 188.956 46.427 188.977 46.4364L189.013 46.4519C189.056 46.4709 189.097 46.4889 189.153 46.5117C192.294 42.051 186.512 37.935 184.388 37.935C184.389 37.8844 184.389 37.8543 184.389 37.8208C184.388 37.8024 184.388 37.783 184.388 37.7585C188.78 38.5152 190.179 41.5186 190.417 44.0136C190.635 48.365 185.569 49.9016 184.512 47.6588C188.277 47.8172 187.03 41.1686 182.906 42.841C178.403 44.957 181.248 50.2348 184.512 51.0578C189.703 52.7365 191.978 47.5142 192.294 46.2117C192.982 48.6889 196.688 50.4084 198.471 49.2295C198.472 49.1674 198.472 49.1326 198.471 49.0706C196.294 48.4968 195.434 46.9405 194.559 45.357C194.331 44.944 194.101 44.5291 193.847 44.1293C188.906 32.3151 176.17 35.0285 174.064 44.4293C174.801 44.5368 175.34 44.5961 175.926 44.6605ZM212.878 53.0307C212.84 53.0417 212.807 53.0519 212.778 53.0611C212.561 53.129 212.517 53.1428 211.805 53.0307C208.439 51.1145 206.682 51.4295 203.9 51.9822C202.985 52.2178 201.9 52.2434 200.984 52.265L200.984 52.265C200.706 52.2716 200.443 52.2778 200.206 52.2894C194.187 52.2894 192.069 48.305 192.069 48.305C192.069 48.305 192.033 47.5037 192.423 47.6126C194.08 50.4478 199.416 51.1224 199.495 48.583C197.196 48.7269 196.872 47.1651 196.993 46.0812C197.065 44.9451 200.627 42.1022 202.479 45.884C202.759 46.6035 203.611 48.9638 200.092 50.9469C200.163 50.9385 200.231 50.9308 200.295 50.9234C201.088 50.8325 201.407 50.7959 202.47 50.3414C202.516 50.3322 202.666 50.2548 202.894 50.1365C204.407 49.3538 209.387 46.7777 210.852 50.2509C210.938 50.4144 211.018 50.5757 211.095 50.7331C211.54 51.6347 211.923 52.4108 213.043 52.7544C213.014 52.8043 213.007 52.8402 213 52.8713C212.989 52.9234 212.981 52.962 212.878 53.0307ZM173.843 47.6405C173.843 47.6405 175.898 47.5405 177.007 48.1164C177.221 50.0435 179.672 52.5417 179.672 52.5417C179.672 52.5417 175.41 52.3729 174.342 50.4004C173.821 49.4372 173.843 47.6405 173.843 47.6405Z" fill="#DCC67A"/>
</svg>
