<svg width="643" height="1024" viewBox="0 0 643 1024" fill="none" xmlns="http://www.w3.org/2000/svg">
<path d="M62.2943 62.5729H62.7943V62.0729V20C62.7943 9.23045 71.5247 0.5 82.2943 0.5H560.2C570.97 0.5 579.7 9.23045 579.7 20V62.0873V62.5873H580.2H622.341C633.111 62.5873 641.841 71.3178 641.841 82.0873V942.016C641.841 952.785 633.111 961.516 622.341 961.516H580.203H579.703V962.016V1004C579.703 1014.77 570.973 1023.5 560.203 1023.5H82.2938C71.5243 1023.5 62.7938 1014.77 62.7938 1004V961.999V961.499H62.2938H20.217C9.44748 961.499 0.717041 952.769 0.717041 941.999V82.0729C0.717041 71.3034 9.44749 62.5729 20.217 62.5729H62.2943Z" fill="#F4F0E1" stroke="#917108"/>
<path d="M566.699 958.251C564.712 958.881 562.409 961.424 562.409 961.424C562.409 961.424 564.503 963.566 566.253 964.086C569.838 965.151 575.059 960.322 575.059 960.322C575.059 960.322 569.882 957.242 566.699 958.251Z" fill="#DCC67A"/>
<path d="M577.572 948.186C578.353 946.254 581.065 944.152 581.065 944.152C581.065 944.152 583.04 946.404 583.424 948.19C584.21 951.846 578.995 956.68 578.995 956.68C578.995 956.68 576.368 951.166 577.572 948.186Z" fill="#DCC67A"/>
<path d="M583.146 958.392C583.938 958.142 584.857 957.129 584.857 957.129C584.857 957.129 584.022 956.274 583.325 956.066C581.896 955.641 579.813 957.565 579.813 957.565C579.813 957.565 582.139 957.587 583.146 958.392Z" fill="#DCC67A"/>
<path d="M576.209 964.812C575.897 965.582 574.816 966.42 574.816 966.42C574.816 966.42 574.029 965.522 573.876 964.81C573.563 963.353 575.642 961.426 575.642 961.426C575.642 961.426 575.484 963.746 576.209 964.812Z" fill="#DCC67A"/>
<path d="M575.226 951.301C573.832 949.794 571.479 949.703 569.972 951.097C568.465 952.492 568.374 954.844 569.769 956.352C570.381 957.013 571.177 957.402 572.006 957.512C573.065 957.652 576.166 957.791 576.166 957.791C576.166 957.791 576.268 954.689 576.21 953.622C576.164 952.787 575.839 951.963 575.226 951.301Z" fill="#DCC67A"/>
<path d="M67.9164 946.295C67.2865 944.309 64.7441 942.006 64.7441 942.006C64.7441 942.006 62.6014 944.099 62.0817 945.85C61.0173 949.435 65.8458 954.655 65.8458 954.655C65.8458 954.655 68.926 949.479 67.9164 946.295Z" fill="#DCC67A"/>
<path d="M77.9823 957.169C79.9142 957.949 82.0157 960.661 82.0157 960.661C82.0157 960.661 79.7635 962.637 77.978 963.021C74.3217 963.806 69.4878 958.591 69.4878 958.591C69.4878 958.591 75.0015 955.965 77.9823 957.169Z" fill="#DCC67A"/>
<path d="M67.7756 962.742C68.0262 963.534 69.0392 964.453 69.0392 964.453C69.0392 964.453 69.8938 963.619 70.1015 962.921C70.5267 961.492 68.603 959.41 68.603 959.41C68.603 959.41 68.5807 961.736 67.7756 962.742Z" fill="#DCC67A"/>
<path d="M61.3559 955.805C60.5858 955.494 59.748 954.413 59.748 954.413C59.748 954.413 60.6458 953.625 61.3576 953.472C62.8152 953.159 64.7423 955.238 64.7423 955.238C64.7423 955.238 62.4216 955.08 61.3559 955.805Z" fill="#DCC67A"/>
<path d="M74.8668 954.823C76.3739 953.428 76.4651 951.076 75.0705 949.569C73.6759 948.062 71.3236 947.971 69.8164 949.365C69.1549 949.977 68.7661 950.774 68.6561 951.603C68.5155 952.662 68.3772 955.763 68.3772 955.763C68.3772 955.763 71.4791 955.865 72.5461 955.807C73.3808 955.761 74.2052 955.435 74.8668 954.823Z" fill="#DCC67A"/>
<path d="M78.2228 67.6281C80.2089 66.9983 82.5125 64.4558 82.5125 64.4558C82.5125 64.4558 80.4188 62.3132 78.668 61.7934C75.0829 60.7291 69.8626 65.5576 69.8626 65.5576C69.8626 65.5576 75.0391 68.6378 78.2228 67.6281Z" fill="#DCC67A"/>
<path d="M67.349 77.6941C66.5685 79.6259 63.8566 81.7274 63.8566 81.7274C63.8566 81.7274 61.8811 79.4752 61.4974 77.6897C60.7116 74.0335 65.9268 69.1995 65.9268 69.1995C65.9268 69.1995 68.5534 74.7133 67.349 77.6941Z" fill="#DCC67A"/>
<path d="M61.7759 67.4874C60.984 67.738 60.065 68.751 60.065 68.751C60.065 68.751 60.8992 69.6057 61.597 69.8133C63.0259 70.2385 65.1082 68.3149 65.1082 68.3149C65.1082 68.3149 62.7823 68.2925 61.7759 67.4874Z" fill="#DCC67A"/>
<path d="M68.7131 61.0677C69.0243 60.2976 70.1054 59.4598 70.1054 59.4598C70.1054 59.4598 70.8929 60.3576 71.0459 61.0694C71.3591 62.527 69.2801 64.4541 69.2801 64.4541C69.2801 64.4541 69.4379 62.1334 68.7131 61.0677Z" fill="#DCC67A"/>
<path d="M69.695 74.5784C71.0896 76.0856 73.4419 76.1768 74.9491 74.7822C76.4562 73.3876 76.5474 71.0352 75.1528 69.5281C74.5406 68.8665 73.7439 68.4778 72.9152 68.3678C71.8559 68.2272 68.7555 68.0889 68.7555 68.0889C68.7555 68.0889 68.6533 71.1908 68.7114 72.2577C68.757 73.0925 69.0828 73.9169 69.695 74.5784Z" fill="#DCC67A"/>
<path d="M574.368 77.9345C574.998 79.9206 577.541 82.2242 577.541 82.2242C577.541 82.2242 579.683 80.1304 580.203 78.3797C581.267 74.7946 576.439 69.5743 576.439 69.5743C576.439 69.5743 573.359 74.7508 574.368 77.9345Z" fill="#DCC67A"/>
<path d="M564.302 67.0608C562.371 66.2803 560.269 63.5684 560.269 63.5684C560.269 63.5684 562.521 61.5929 564.307 61.2092C567.963 60.4234 572.797 65.6386 572.797 65.6386C572.797 65.6386 567.283 68.2652 564.302 67.0608Z" fill="#DCC67A"/>
<path d="M574.509 61.4876C574.258 60.6957 573.246 59.7767 573.246 59.7767C573.246 59.7767 572.391 60.6109 572.183 61.3087C571.758 62.7376 573.682 64.8199 573.682 64.8199C573.682 64.8199 573.704 62.494 574.509 61.4876Z" fill="#DCC67A"/>
<path d="M580.929 68.4249C581.699 68.7361 582.536 69.8172 582.536 69.8172C582.536 69.8172 581.639 70.6047 580.927 70.7577C579.469 71.0709 577.542 68.9919 577.542 68.9919C577.542 68.9919 579.863 69.1497 580.929 68.4249Z" fill="#DCC67A"/>
<path d="M567.418 69.4067C565.911 70.8013 565.82 73.1536 567.215 74.6607C568.609 76.1679 570.962 76.2591 572.469 74.8645C573.13 74.2523 573.519 73.4556 573.629 72.6269C573.77 71.5676 573.908 68.4671 573.908 68.4671C573.908 68.4671 570.806 68.3649 569.739 68.4231C568.904 68.4686 568.08 68.7945 567.418 69.4067Z" fill="#DCC67A"/>
<path fill-rule="evenodd" clip-rule="evenodd" d="M608.964 988.37C609.136 988.366 609.439 988.366 609.661 988.37C609.84 988.336 609.848 988.146 609.848 988.146C609.848 988.146 611.023 981.77 611.537 978.208C612.279 974.188 606.173 974.25 607.202 978.631C607.782 981.102 608.804 988.172 608.804 988.172C608.804 988.172 608.804 988.37 608.964 988.37ZM608.495 988.495C608.288 988.577 608.176 988.625 608.019 988.697C607.803 988.77 607.695 988.618 607.695 988.618C607.695 988.618 604.084 982.53 602.591 980.477C599.945 976.837 605.578 974.338 606.453 978.332C607.359 981.814 608.594 988.227 608.594 988.227C608.594 988.227 608.646 988.395 608.495 988.495ZM607.121 989.438C607.16 989.401 607.195 989.368 607.23 989.335L607.23 989.335L607.23 989.335L607.23 989.335C607.307 989.262 607.382 989.19 607.5 989.092C607.612 988.949 607.56 988.806 607.56 988.806C607.56 988.806 603.763 983.538 601.811 980.516C599.608 977.247 595.136 981.237 598.875 983.754C600.935 985.236 606.775 989.438 606.775 989.438C606.775 989.438 606.939 989.574 607.121 989.438ZM606.656 990.354C606.7 990.253 606.729 990.196 606.771 990.115L606.771 990.115C606.794 990.07 606.821 990.018 606.856 989.947C606.901 989.771 606.725 989.677 606.725 989.677C606.725 989.677 601.227 986.258 598.223 984.278C594.888 982.175 592.404 987.629 596.84 988.426C599.324 988.952 606.365 990.5 606.365 990.5C606.365 990.5 606.545 990.553 606.656 990.354ZM610.749 988.685C610.544 988.598 610.301 988.497 610.139 988.437C609.992 988.377 610.082 988.13 610.082 988.13C610.082 988.13 611.774 981.388 612.162 978.88C612.849 974.432 618.586 976.62 616.392 980.07C614.492 983.058 611.06 988.497 611.06 988.497C611.06 988.497 610.927 988.721 610.749 988.685ZM611.183 989.029C611.234 989.077 611.288 989.12 611.345 989.166C611.427 989.233 611.515 989.304 611.607 989.399C611.758 989.5 611.873 989.399 611.873 989.399C611.873 989.399 617.263 985.745 620.132 983.574C623.487 981.237 619.102 976.988 616.753 980.826C615.428 982.991 611.183 988.737 611.183 988.737C611.183 988.737 611.07 988.916 611.183 989.029ZM612.156 990.399C612.079 990.19 612.037 990.088 611.97 989.929C611.912 989.78 612.024 989.641 612.024 989.641C612.024 989.641 618.105 985.876 620.195 984.436C623.901 981.884 626.181 987.548 622.166 988.321C618.662 989.138 612.444 990.485 612.444 990.485C612.444 990.485 612.253 990.553 612.156 990.399ZM612.278 990.894C612.281 991.064 612.285 991.279 612.278 991.495C612.31 991.674 612.546 991.723 612.546 991.723C612.546 991.723 618.817 992.797 622.373 993.348C626.385 994.132 626.421 988.138 622.03 989.121C619.553 989.675 612.409 990.677 612.409 990.677C612.409 990.677 612.28 990.719 612.278 990.879L612.278 990.894ZM609.807 994.114C609.635 994.119 609.332 994.118 609.11 994.114C608.931 994.148 608.923 994.338 608.923 994.338C608.923 994.338 607.748 1000.71 607.234 1004.28C606.492 1008.3 612.598 1008.23 611.569 1003.85C610.989 1001.38 609.967 994.312 609.967 994.312C609.967 994.312 609.967 994.114 609.807 994.114ZM610.276 993.989C610.483 993.907 610.595 993.859 610.752 993.788C610.968 993.715 611.076 993.866 611.076 993.866C611.076 993.866 614.687 999.954 616.18 1002.01C618.826 1005.65 613.193 1008.15 612.318 1004.15C611.412 1000.67 610.177 994.257 610.177 994.257C610.177 994.257 610.125 994.089 610.276 993.989ZM611.541 993.149L611.541 993.149C611.464 993.222 611.389 993.294 611.271 993.393C611.159 993.535 611.211 993.679 611.211 993.679C611.211 993.679 615.008 998.946 616.96 1001.97C619.163 1005.24 623.635 1001.25 619.896 998.73C617.836 997.248 611.996 993.047 611.996 993.047C611.996 993.047 611.832 992.91 611.65 993.047C611.611 993.083 611.576 993.116 611.541 993.149L611.541 993.149ZM612.115 992.13C612.071 992.231 612.042 992.288 612 992.369L612 992.369L612 992.369C611.977 992.414 611.95 992.466 611.915 992.538C611.87 992.713 612.046 992.807 612.046 992.807C612.046 992.807 617.544 996.226 620.548 998.206C623.883 1000.31 626.367 994.856 621.931 994.058C619.447 993.533 612.406 991.985 612.406 991.985C612.406 991.985 612.226 991.931 612.115 992.13ZM608.022 993.799C608.227 993.887 608.47 993.987 608.632 994.047C608.779 994.107 608.689 994.355 608.689 994.355C608.689 994.355 606.997 1001.1 606.609 1003.6C605.922 1008.05 600.185 1005.86 602.379 1002.41C604.279 999.427 607.711 993.987 607.711 993.987C607.711 993.987 607.844 993.764 608.022 993.799ZM607.588 993.456C607.537 993.408 607.483 993.364 607.426 993.318C607.344 993.252 607.256 993.18 607.164 993.086C607.013 992.984 606.898 993.086 606.898 993.086C606.898 993.086 601.508 996.74 598.639 998.91C595.284 1001.25 599.669 1005.5 602.018 1001.66C603.343 999.493 607.588 993.747 607.588 993.747C607.588 993.747 607.701 993.568 607.588 993.456ZM606.615 992.085C606.691 992.294 606.734 992.396 606.801 992.555C606.859 992.704 606.747 992.843 606.747 992.843C606.747 992.843 600.666 996.608 598.576 998.048C594.87 1000.6 592.59 994.936 596.605 994.164C600.109 993.346 606.327 991.999 606.327 991.999C606.327 991.999 606.518 991.931 606.615 992.085ZM606.493 991.59C606.49 991.42 606.486 991.205 606.493 990.989C606.461 990.81 606.225 990.761 606.225 990.761C606.225 990.761 599.954 989.687 596.398 989.136C592.386 988.352 592.35 994.347 596.741 993.364C599.218 992.809 606.362 991.807 606.362 991.807C606.362 991.807 606.491 991.765 606.493 991.605L606.493 991.59ZM611.054 991.274C611.054 992.18 610.319 992.915 609.413 992.915C608.506 992.915 607.772 992.18 607.772 991.274C607.772 990.367 608.506 989.633 609.413 989.633C610.319 989.633 611.054 990.367 611.054 991.274Z" fill="#DCC67A"/>
<path fill-rule="evenodd" clip-rule="evenodd" d="M608.964 29.8854C609.136 29.8808 609.439 29.8809 609.661 29.8854C609.84 29.8515 609.848 29.6613 609.848 29.6613C609.848 29.6613 611.023 23.2846 611.537 19.7235C612.279 15.7031 606.173 15.7651 607.202 20.1459C607.782 22.6171 608.804 29.6873 608.804 29.6873C608.804 29.6873 608.804 29.8854 608.964 29.8854ZM608.495 30.0104C608.288 30.0925 608.176 30.1404 608.019 30.2116C607.803 30.2846 607.695 30.133 607.695 30.133C607.695 30.133 604.084 24.045 602.591 21.9918C599.945 18.3521 605.578 15.853 606.453 19.8465C607.359 23.3286 608.594 29.742 608.594 29.742C608.594 29.742 608.646 29.91 608.495 30.0104ZM607.121 30.9527C607.16 30.9164 607.195 30.8831 607.23 30.8502L607.23 30.8502L607.23 30.8501L607.23 30.8501C607.307 30.7768 607.382 30.7052 607.5 30.6067C607.612 30.464 607.56 30.3205 607.56 30.3205C607.56 30.3205 603.763 25.0533 601.811 22.0306C599.608 18.762 595.136 22.7518 598.875 25.2691C600.935 26.7511 606.775 30.9527 606.775 30.9527C606.775 30.9527 606.939 31.0895 607.121 30.9527ZM606.656 31.8694C606.7 31.7678 606.729 31.7109 606.771 31.6302L606.771 31.6302C606.794 31.5853 606.821 31.533 606.856 31.4616C606.901 31.2859 606.725 31.192 606.725 31.192C606.725 31.192 601.227 27.7732 598.223 25.7934C594.888 23.6902 592.404 29.1437 596.84 29.9408C599.324 30.4666 606.365 32.0145 606.365 32.0145C606.365 32.0145 606.545 32.0678 606.656 31.8694ZM610.749 30.2004C610.544 30.1127 610.301 30.0124 610.139 29.9521C609.992 29.8923 610.082 29.6447 610.082 29.6447C610.082 29.6447 611.774 22.9032 612.162 20.3946C612.849 15.9474 618.586 18.1352 616.392 21.5849C614.492 24.5726 611.06 30.0119 611.06 30.0119C611.06 30.0119 610.927 30.2356 610.749 30.2004ZM611.183 30.5436C611.234 30.5915 611.288 30.6353 611.345 30.681C611.427 30.7478 611.515 30.8189 611.607 30.9138C611.758 31.0149 611.873 30.9138 611.873 30.9138C611.873 30.9138 617.263 27.2597 620.132 25.0892C623.487 22.752 619.102 18.5027 616.753 22.341C615.428 24.5061 611.183 30.2518 611.183 30.2518C611.183 30.2518 611.07 30.4315 611.183 30.5436ZM612.156 31.9144C612.079 31.7053 612.037 31.603 611.97 31.444C611.912 31.2954 612.024 31.1562 612.024 31.1562C612.024 31.1562 618.105 27.3913 620.195 25.9514C623.901 23.3988 626.181 29.0631 622.166 29.8357C618.662 30.6529 612.444 31.9999 612.444 31.9999C612.444 31.9999 612.253 32.068 612.156 31.9144ZM612.278 32.409C612.281 32.5793 612.285 32.7941 612.278 33.0103C612.31 33.1889 612.546 33.2381 612.546 33.2381C612.546 33.2381 618.817 34.3122 622.373 34.8635C626.385 35.6469 626.421 29.6527 622.03 30.6356C619.553 31.1901 612.409 32.1921 612.409 32.1921C612.409 32.1921 612.28 32.2345 612.278 32.394L612.278 32.409ZM609.807 35.6289C609.635 35.6335 609.332 35.6334 609.11 35.6289C608.931 35.6628 608.923 35.853 608.923 35.853C608.923 35.853 607.748 42.2297 607.234 45.7908C606.492 49.8112 612.598 49.7492 611.569 45.3684C610.989 42.8972 609.967 35.827 609.967 35.827C609.967 35.827 609.967 35.6289 609.807 35.6289ZM610.276 35.5039C610.483 35.4218 610.595 35.3739 610.752 35.3027C610.968 35.2297 611.076 35.3813 611.076 35.3813C611.076 35.3813 614.687 41.4693 616.18 43.5225C618.826 47.1622 613.193 49.6613 612.318 45.6678C611.412 42.1857 610.177 35.7723 610.177 35.7723C610.177 35.7723 610.125 35.6043 610.276 35.5039ZM611.541 34.6641L611.541 34.6641L611.541 34.6641C611.464 34.7375 611.389 34.8091 611.271 34.9076C611.159 35.0503 611.211 35.1938 611.211 35.1938C611.211 35.1938 615.008 40.461 616.96 43.4837C619.163 46.7523 623.635 42.7625 619.896 40.2452C617.836 38.7632 611.996 34.5616 611.996 34.5616C611.996 34.5616 611.832 34.4248 611.65 34.5616C611.611 34.5979 611.576 34.6312 611.541 34.6641ZM612.115 33.6449C612.071 33.7465 612.042 33.8035 612 33.8841L612 33.8841C611.977 33.929 611.95 33.9813 611.915 34.0527C611.87 34.2284 612.046 34.3223 612.046 34.3223C612.046 34.3223 617.544 37.7411 620.548 39.7209C623.883 41.8241 626.367 36.3706 621.931 35.5735C619.447 35.0477 612.406 33.4998 612.406 33.4998C612.406 33.4998 612.226 33.4465 612.115 33.6449ZM608.022 35.3139C608.227 35.4016 608.47 35.5019 608.632 35.5622C608.779 35.622 608.689 35.8696 608.689 35.8696C608.689 35.8696 606.997 42.6111 606.609 45.1197C605.922 49.5669 600.185 47.3791 602.379 43.9294C604.279 40.9417 607.711 35.5024 607.711 35.5024C607.711 35.5024 607.844 35.2787 608.022 35.3139ZM607.588 34.9707C607.537 34.9228 607.483 34.8791 607.426 34.8333C607.344 34.7665 607.256 34.6954 607.164 34.6005C607.013 34.4994 606.898 34.6005 606.898 34.6005C606.898 34.6005 601.508 38.2546 598.639 40.4251C595.284 42.7623 599.669 47.0116 602.018 43.1733C603.343 41.0082 607.588 35.2625 607.588 35.2625C607.588 35.2625 607.701 35.0828 607.588 34.9707ZM606.615 33.5999C606.691 33.809 606.734 33.9114 606.801 34.0704C606.859 34.2189 606.747 34.3581 606.747 34.3581C606.747 34.3581 600.666 38.123 598.576 39.5629C594.87 42.1155 592.59 36.4512 596.605 35.6786C600.109 34.8614 606.327 33.5144 606.327 33.5144C606.327 33.5144 606.518 33.4463 606.615 33.5999ZM606.493 33.1053C606.49 32.935 606.486 32.7202 606.493 32.504C606.461 32.3255 606.225 32.2762 606.225 32.2762C606.225 32.2762 599.954 31.2021 596.398 30.6508C592.386 29.8674 592.35 35.8616 596.741 34.8787C599.218 34.3242 606.362 33.3222 606.362 33.3222C606.362 33.3222 606.491 33.2798 606.493 33.1203L606.493 33.1053ZM611.054 32.7889C611.054 33.6953 610.319 34.4302 609.413 34.4302C608.506 34.4302 607.772 33.6953 607.772 32.7889C607.772 31.8824 608.506 31.1476 609.413 31.1476C610.319 31.1476 611.054 31.8824 611.054 32.7889Z" fill="#DCC67A"/>
<path fill-rule="evenodd" clip-rule="evenodd" d="M37.5468 29.8854C37.7194 29.8808 38.0217 29.8809 38.2444 29.8854C38.4226 29.8515 38.4315 29.6613 38.4315 29.6613C38.4315 29.6613 39.6061 23.2846 40.1201 19.7235C40.8616 15.7031 34.756 15.7651 35.7848 20.1459C36.3651 22.6171 37.3874 29.6873 37.3874 29.6873C37.3874 29.6873 37.3874 29.8854 37.5468 29.8854ZM37.0776 30.0104C36.8705 30.0925 36.7589 30.1404 36.6017 30.2116C36.3863 30.2846 36.2776 30.133 36.2776 30.133C36.2776 30.133 32.6667 24.045 31.174 21.9918C28.5278 18.3521 34.1609 15.853 35.0355 19.8465C35.9418 23.3286 37.1766 29.742 37.1766 29.742C37.1766 29.742 37.2287 29.91 37.0776 30.0104ZM35.7035 30.9527C35.7429 30.9164 35.7779 30.8831 35.8126 30.8502L35.8126 30.8502L35.8126 30.8501L35.8127 30.8501C35.8897 30.7768 35.9649 30.7052 36.0828 30.6067C36.1948 30.464 36.1427 30.3205 36.1427 30.3205C36.1427 30.3205 32.346 25.0533 30.3943 22.0306C28.1906 18.762 23.7193 22.7518 27.4576 25.2691C29.5184 26.7511 35.3575 30.9527 35.3575 30.9527C35.3575 30.9527 35.5219 31.0895 35.7035 30.9527ZM35.2387 31.8694C35.2831 31.7678 35.3124 31.7109 35.3539 31.6302L35.3539 31.6302C35.377 31.5853 35.4038 31.533 35.4392 31.4616C35.4842 31.2859 35.3079 31.192 35.3079 31.192C35.3079 31.192 29.81 27.7732 26.8056 25.7934C23.4714 23.6902 20.9874 29.1437 25.4231 29.9408C27.9065 30.4666 34.9484 32.0145 34.9484 32.0145C34.9484 32.0145 35.1277 32.0678 35.2387 31.8694ZM39.3318 30.2004C39.127 30.1127 38.8841 30.0124 38.7224 29.9521C38.5745 29.8923 38.6648 29.6447 38.6648 29.6447C38.6648 29.6447 40.3567 22.9032 40.7446 20.3946C41.4322 15.9474 47.1691 18.1352 44.9753 21.5849C43.0752 24.5726 39.6425 30.0119 39.6425 30.0119C39.6425 30.0119 39.5097 30.2356 39.3318 30.2004ZM39.766 30.5436C39.8171 30.5915 39.8711 30.6353 39.9276 30.681C40.0101 30.7478 40.098 30.8189 40.1901 30.9138C40.3407 31.0149 40.4565 30.9138 40.4565 30.9138C40.4565 30.9138 45.8457 27.2597 48.7154 25.0892C52.0696 22.752 47.685 18.5027 45.3359 22.341C44.0108 24.5061 39.766 30.2518 39.766 30.2518C39.766 30.2518 39.6526 30.4315 39.766 30.5436ZM40.7393 31.9144C40.6625 31.7053 40.6198 31.603 40.5527 31.444C40.4946 31.2954 40.6071 31.1562 40.6071 31.1562C40.6071 31.1562 46.6876 27.3913 48.7781 25.9514C52.4841 23.3988 54.7639 29.0631 50.7494 29.8357C47.2453 30.6529 41.027 31.9999 41.027 31.9999C41.027 31.9999 40.8358 32.068 40.7393 31.9144ZM40.8612 32.409C40.864 32.5793 40.8676 32.7941 40.8609 33.0103C40.893 33.1889 41.1292 33.2381 41.1292 33.2381C41.1292 33.2381 47.4004 34.3122 50.956 34.8635C54.9684 35.6469 55.0044 29.6527 50.6131 30.6356C48.1359 31.1901 40.9918 32.1921 40.9918 32.1921C40.9918 32.1921 40.8626 32.2345 40.8609 32.394L40.8612 32.409ZM38.3901 35.6289C38.2176 35.6335 37.9153 35.6334 37.6925 35.6289C37.5144 35.6628 37.5055 35.853 37.5055 35.853C37.5055 35.853 36.3309 42.2297 35.8169 45.7908C35.0754 49.8112 41.181 49.7492 40.1522 45.3684C39.5719 42.8972 38.5496 35.827 38.5496 35.827C38.5496 35.827 38.5496 35.6289 38.3901 35.6289ZM38.8594 35.5039C39.0664 35.4218 39.1781 35.3739 39.3353 35.3027C39.5507 35.2297 39.6594 35.3813 39.6594 35.3813C39.6594 35.3813 43.2703 41.4693 44.763 43.5225C47.4092 47.1622 41.7761 49.6613 40.9015 45.6678C39.9952 42.1857 38.7603 35.7723 38.7603 35.7723C38.7603 35.7723 38.7083 35.6043 38.8594 35.5039ZM40.1244 34.6641L40.1244 34.6641L40.1244 34.6641C40.0474 34.7375 39.9721 34.8091 39.8542 34.9076C39.7421 35.0503 39.7943 35.1938 39.7943 35.1938C39.7943 35.1938 43.591 40.461 45.5426 43.4837C47.7464 46.7523 52.2177 42.7625 48.4794 40.2452C46.4185 38.7632 40.5795 34.5616 40.5795 34.5616C40.5795 34.5616 40.4151 34.4248 40.2334 34.5616C40.1941 34.5979 40.1591 34.6312 40.1244 34.6641ZM40.6983 33.6449C40.6539 33.7465 40.6246 33.8035 40.5831 33.8841L40.5831 33.8841C40.56 33.929 40.5332 33.9813 40.4978 34.0527C40.4528 34.2284 40.6291 34.3223 40.6291 34.3223C40.6291 34.3223 46.127 37.7411 49.1314 39.7209C52.4656 41.8241 54.9496 36.3706 50.5139 35.5735C48.0305 35.0477 40.9886 33.4998 40.9886 33.4998C40.9886 33.4998 40.8093 33.4465 40.6983 33.6449ZM36.6052 35.3139C36.81 35.4016 37.0529 35.5019 37.2146 35.5622C37.3625 35.622 37.2722 35.8696 37.2722 35.8696C37.2722 35.8696 35.5803 42.6111 35.1924 45.1197C34.5048 49.5669 28.7679 47.3791 30.9617 43.9294C32.8618 40.9417 36.2944 35.5024 36.2944 35.5024C36.2944 35.5024 36.4273 35.2787 36.6052 35.3139ZM36.171 34.9707C36.1199 34.9228 36.0659 34.8791 36.0094 34.8333C35.9268 34.7665 35.839 34.6954 35.7469 34.6005C35.5963 34.4994 35.4805 34.6005 35.4805 34.6005C35.4805 34.6005 30.0913 38.2546 27.2216 40.4251C23.8674 42.7623 28.252 47.0116 30.6011 43.1733C31.9262 41.0082 36.171 35.2625 36.171 35.2625C36.171 35.2625 36.2844 35.0828 36.171 34.9707ZM35.1977 33.5999C35.2745 33.809 35.3172 33.9114 35.3843 34.0704C35.4423 34.2189 35.3299 34.3581 35.3299 34.3581C35.3299 34.3581 29.2494 38.123 27.1589 39.5629C23.4529 42.1155 21.1731 36.4512 25.1876 35.6786C28.6917 34.8614 34.91 33.5144 34.91 33.5144C34.91 33.5144 35.1012 33.4463 35.1977 33.5999ZM35.0758 33.1053C35.073 32.935 35.0694 32.7202 35.0761 32.504C35.044 32.3255 34.8078 32.2762 34.8078 32.2762C34.8078 32.2762 28.5366 31.2021 24.981 30.6508C20.9686 29.8674 20.9325 35.8616 25.3239 34.8787C27.8011 34.3242 34.9452 33.3222 34.9452 33.3222C34.9452 33.3222 35.0744 33.2798 35.0761 33.1203L35.0758 33.1053ZM39.6372 32.7889C39.6372 33.6953 38.9023 34.4302 37.9959 34.4302C37.0894 34.4302 36.3546 33.6953 36.3546 32.7889C36.3546 31.8824 37.0894 31.1476 37.9959 31.1476C38.9023 31.1476 39.6372 31.8824 39.6372 32.7889Z" fill="#DCC67A"/>
<path fill-rule="evenodd" clip-rule="evenodd" d="M32.4423 988.37C32.6149 988.366 32.9172 988.366 33.14 988.37C33.3181 988.336 33.327 988.146 33.327 988.146C33.327 988.146 34.5016 981.77 35.0156 978.208C35.7571 974.188 29.6515 974.25 30.6803 978.631C31.2606 981.102 32.2829 988.172 32.2829 988.172C32.2829 988.172 32.2829 988.37 32.4423 988.37ZM31.9731 988.495C31.7661 988.577 31.6544 988.625 31.4972 988.697C31.2818 988.77 31.1731 988.618 31.1731 988.618C31.1731 988.618 27.5622 982.53 26.0695 980.477C23.4233 976.837 29.0564 974.338 29.931 978.332C30.8373 981.814 32.0722 988.227 32.0722 988.227C32.0722 988.227 32.1242 988.395 31.9731 988.495ZM30.599 989.438C30.6384 989.401 30.6734 989.368 30.7081 989.335L30.7081 989.335L30.7082 989.335L30.7082 989.335C30.7852 989.262 30.8605 989.19 30.9783 989.092C31.0904 988.949 31.0382 988.806 31.0382 988.806C31.0382 988.806 27.2415 983.538 25.2899 980.516C23.0861 977.247 18.6148 981.237 22.3531 983.754C24.4139 985.236 30.253 989.438 30.253 989.438C30.253 989.438 30.4174 989.574 30.599 989.438ZM30.1342 990.354C30.1786 990.253 30.2079 990.196 30.2494 990.115L30.2494 990.115C30.2725 990.07 30.2993 990.018 30.3347 989.947C30.3797 989.771 30.2034 989.677 30.2034 989.677C30.2034 989.677 24.7055 986.258 21.7011 984.278C18.3669 982.175 15.8829 987.629 20.3186 988.426C22.802 988.952 29.8439 990.5 29.8439 990.5C29.8439 990.5 30.0232 990.553 30.1342 990.354ZM34.2273 988.685C34.0225 988.598 33.7796 988.497 33.6179 988.437C33.47 988.377 33.5603 988.13 33.5603 988.13C33.5603 988.13 35.2522 981.388 35.6401 978.88C36.3277 974.432 42.0646 976.62 39.8708 980.07C37.9707 983.058 34.5381 988.497 34.5381 988.497C34.5381 988.497 34.4052 988.721 34.2273 988.685ZM34.6615 989.029C34.7126 989.077 34.7666 989.12 34.8231 989.166C34.9056 989.233 34.9935 989.304 35.0856 989.399C35.2362 989.5 35.352 989.399 35.352 989.399C35.352 989.399 40.7412 985.745 43.6109 983.574C46.9651 981.237 42.5805 976.988 40.2314 980.826C38.9063 982.991 34.6615 988.737 34.6615 988.737C34.6615 988.737 34.5481 988.916 34.6615 989.029ZM35.6348 990.399C35.558 990.19 35.5153 990.088 35.4482 989.929C35.3901 989.78 35.5026 989.641 35.5026 989.641C35.5026 989.641 41.5831 985.876 43.6736 984.436C47.3796 981.884 49.6594 987.548 45.6449 988.321C42.1408 989.138 35.9225 990.485 35.9225 990.485C35.9225 990.485 35.7313 990.553 35.6348 990.399ZM35.7567 990.894C35.7595 991.064 35.7631 991.279 35.7564 991.495C35.7885 991.674 36.0247 991.723 36.0247 991.723C36.0247 991.723 42.2959 992.797 45.8515 993.348C49.8639 994.132 49.9 988.138 45.5086 989.121C43.0314 989.675 35.8873 990.677 35.8873 990.677C35.8873 990.677 35.7581 990.719 35.7564 990.879L35.7567 990.894ZM33.2857 994.114C33.1131 994.119 32.8108 994.118 32.588 994.114C32.4099 994.148 32.401 994.338 32.401 994.338C32.401 994.338 31.2264 1000.71 30.7124 1004.28C29.9709 1008.3 36.0765 1008.23 35.0477 1003.85C34.4674 1001.38 33.4451 994.312 33.4451 994.312C33.4451 994.312 33.4451 994.114 33.2857 994.114ZM33.7549 993.989C33.962 993.907 34.0736 993.859 34.2308 993.788C34.4462 993.715 34.5549 993.866 34.5549 993.866C34.5549 993.866 38.1658 999.954 39.6585 1002.01C42.3047 1005.65 36.6716 1008.15 35.797 1004.15C34.8907 1000.67 33.6558 994.257 33.6558 994.257C33.6558 994.257 33.6038 994.089 33.7549 993.989ZM35.02 993.149L35.0199 993.149L35.0199 993.149C34.9429 993.222 34.8676 993.294 34.7497 993.393C34.6376 993.535 34.6898 993.679 34.6898 993.679C34.6898 993.679 38.4865 998.946 40.4381 1001.97C42.6419 1005.24 47.1132 1001.25 43.3749 998.73C41.3141 997.248 35.475 993.047 35.475 993.047C35.475 993.047 35.3106 992.91 35.129 993.047C35.0896 993.083 35.0546 993.116 35.02 993.149ZM35.5938 992.13C35.5494 992.231 35.5201 992.288 35.4786 992.369L35.4786 992.369C35.4555 992.414 35.4287 992.466 35.3933 992.538C35.3483 992.713 35.5246 992.807 35.5246 992.807C35.5246 992.807 41.0225 996.226 44.0269 998.206C47.3611 1000.31 49.8451 994.856 45.4094 994.058C42.926 993.533 35.8841 991.985 35.8841 991.985C35.8841 991.985 35.7048 991.931 35.5938 992.13ZM31.5007 993.799C31.7055 993.887 31.9484 993.987 32.1101 994.047C32.258 994.107 32.1677 994.355 32.1677 994.355C32.1677 994.355 30.4758 1001.1 30.0879 1003.6C29.4003 1008.05 23.6634 1005.86 25.8572 1002.41C27.7573 999.427 31.19 993.987 31.19 993.987C31.19 993.987 31.3228 993.764 31.5007 993.799ZM31.0665 993.456C31.0154 993.408 30.9614 993.364 30.9049 993.318C30.8224 993.252 30.7345 993.18 30.6424 993.086C30.4918 992.984 30.376 993.086 30.376 993.086C30.376 993.086 24.9868 996.74 22.1171 998.91C18.7629 1001.25 23.1475 1005.5 25.4966 1001.66C26.8217 999.493 31.0665 993.747 31.0665 993.747C31.0665 993.747 31.1799 993.568 31.0665 993.456ZM30.0932 992.085C30.17 992.294 30.2127 992.396 30.2798 992.555C30.3379 992.704 30.2254 992.843 30.2254 992.843C30.2254 992.843 24.1449 996.608 22.0544 998.048C18.3484 1000.6 16.0686 994.936 20.0831 994.164C23.5872 993.346 29.8055 991.999 29.8055 991.999C29.8055 991.999 29.9967 991.931 30.0932 992.085ZM29.9713 991.59C29.9685 991.42 29.9649 991.205 29.9716 990.989C29.9395 990.81 29.7033 990.761 29.7033 990.761C29.7033 990.761 23.4321 989.687 19.8765 989.136C15.8641 988.352 15.8281 994.347 20.2194 993.364C22.6966 992.809 29.8407 991.807 29.8407 991.807C29.8407 991.807 29.9699 991.765 29.9716 991.605L29.9713 991.59ZM34.5327 991.274C34.5327 992.18 33.7978 992.915 32.8914 992.915C31.9849 992.915 31.2501 992.18 31.2501 991.274C31.2501 990.367 31.9849 989.633 32.8914 989.633C33.7978 989.633 34.5327 990.367 34.5327 991.274Z" fill="#DCC67A"/>
</svg>
