<svg width="261" height="414" viewBox="0 0 261 414" fill="none" xmlns="http://www.w3.org/2000/svg">
<path d="M27.7882 27.2192H28.2882V26.7192V20.1894C28.2882 9.41989 37.0186 0.689453 47.7882 0.689453H216.653C227.422 0.689453 236.153 9.4199 236.153 20.1894V26.7192V27.2192H236.653H240.06C250.829 27.2192 259.56 35.9497 259.56 46.7192V365.531C259.56 376.301 250.829 385.031 240.06 385.031H236.653H236.153V385.531V393.41C236.153 404.179 227.422 412.91 216.653 412.91H47.7882C37.0186 412.91 28.2882 404.179 28.2882 393.41V385.531V385.031H27.7882H20.9399C10.1704 385.031 1.43994 376.301 1.43994 365.531V46.7192C1.43994 35.9496 10.1704 27.2192 20.9399 27.2192H27.7882Z" fill="#F4F0E1" stroke="#917108"/>
</svg>
