<svg width="642" height="83" viewBox="0 0 642 83" fill="none" xmlns="http://www.w3.org/2000/svg">
<g clip-path="url(#clip0_61_2)">
<rect width="1440" height="1024" transform="translate(-699)" fill="white"/>
<rect x="61.7844" y="62.5773" width="516.921" height="898.939" stroke="black"/>
<rect x="-0.0378418" width="641.379" height="1024" fill="#C87A74"/>
<path d="M61.2943 63.5729H62.7943V62.0729V20C62.7943 9.78273 71.077 1.5 81.2943 1.5H559.2C569.417 1.5 577.7 9.78273 577.7 20V62.0873V63.5873H579.2H621.341C631.559 63.5873 639.841 71.8701 639.841 82.0873V942.016C639.841 952.233 631.559 960.516 621.341 960.516H579.203H577.703V962.016V1004C577.703 1014.22 569.42 1022.5 559.203 1022.5H81.2938C71.0765 1022.5 62.7938 1014.22 62.7938 1004V961.999V960.499H61.2938H19.217C8.99976 960.499 0.717041 952.217 0.717041 941.999V82.0729C0.717041 71.8556 8.99978 63.5729 19.217 63.5729H61.2943Z" fill="#F4F0E1" stroke="#917108" stroke-width="3"/>
<path d="M77.2228 67.6281C79.2089 66.9983 81.5125 64.4558 81.5125 64.4558C81.5125 64.4558 79.4188 62.3132 77.668 61.7934C74.0829 60.7291 68.8626 65.5576 68.8626 65.5576C68.8626 65.5576 74.0391 68.6378 77.2228 67.6281Z" fill="#DCC67A"/>
<path d="M66.349 77.6941C65.5685 79.6259 62.8566 81.7274 62.8566 81.7274C62.8566 81.7274 60.8811 79.4752 60.4974 77.6897C59.7116 74.0335 64.9268 69.1995 64.9268 69.1995C64.9268 69.1995 67.5534 74.7133 66.349 77.6941Z" fill="#DCC67A"/>
<path d="M60.7759 67.4874C59.984 67.738 59.065 68.751 59.065 68.751C59.065 68.751 59.8992 69.6057 60.597 69.8133C62.0259 70.2385 64.1082 68.3149 64.1082 68.3149C64.1082 68.3149 61.7823 68.2925 60.7759 67.4874Z" fill="#DCC67A"/>
<path d="M67.7131 61.0677C68.0243 60.2976 69.1054 59.4598 69.1054 59.4598C69.1054 59.4598 69.8929 60.3576 70.0459 61.0694C70.3591 62.527 68.2801 64.4541 68.2801 64.4541C68.2801 64.4541 68.4379 62.1334 67.7131 61.0677Z" fill="#DCC67A"/>
<path d="M68.695 74.5784C70.0896 76.0856 72.4419 76.1768 73.9491 74.7822C75.4562 73.3876 75.5474 71.0352 74.1528 69.5281C73.5406 68.8665 72.7439 68.4778 71.9152 68.3678C70.8559 68.2272 67.7555 68.0889 67.7555 68.0889C67.7555 68.0889 67.6533 71.1908 67.7114 72.2577C67.757 73.0925 68.0828 73.9169 68.695 74.5784Z" fill="#DCC67A"/>
<path d="M573.368 77.9345C573.998 79.9206 576.541 82.2242 576.541 82.2242C576.541 82.2242 578.683 80.1304 579.203 78.3797C580.267 74.7946 575.439 69.5743 575.439 69.5743C575.439 69.5743 572.359 74.7508 573.368 77.9345Z" fill="#DCC67A"/>
<path d="M563.302 67.0608C561.371 66.2803 559.269 63.5684 559.269 63.5684C559.269 63.5684 561.521 61.5929 563.307 61.2092C566.963 60.4234 571.797 65.6386 571.797 65.6386C571.797 65.6386 566.283 68.2652 563.302 67.0608Z" fill="#DCC67A"/>
<path d="M573.509 61.4876C573.258 60.6957 572.246 59.7767 572.246 59.7767C572.246 59.7767 571.391 60.6109 571.183 61.3087C570.758 62.7376 572.682 64.8199 572.682 64.8199C572.682 64.8199 572.704 62.494 573.509 61.4876Z" fill="#DCC67A"/>
<path d="M579.929 68.4249C580.699 68.7361 581.536 69.8172 581.536 69.8172C581.536 69.8172 580.639 70.6047 579.927 70.7577C578.469 71.0709 576.542 68.9919 576.542 68.9919C576.542 68.9919 578.863 69.1497 579.929 68.4249Z" fill="#DCC67A"/>
<path d="M566.418 69.4067C564.911 70.8013 564.82 73.1536 566.215 74.6607C567.609 76.1679 569.962 76.2591 571.469 74.8645C572.13 74.2523 572.519 73.4556 572.629 72.6269C572.77 71.5676 572.908 68.4671 572.908 68.4671C572.908 68.4671 569.806 68.3649 568.739 68.4231C567.904 68.4686 567.08 68.7945 566.418 69.4067Z" fill="#DCC67A"/>
<path fill-rule="evenodd" clip-rule="evenodd" d="M607.964 29.8854C608.136 29.8808 608.439 29.8809 608.661 29.8854C608.84 29.8515 608.848 29.6613 608.848 29.6613C608.848 29.6613 610.023 23.2846 610.537 19.7235C611.279 15.7031 605.173 15.7651 606.202 20.1459C606.782 22.6171 607.804 29.6873 607.804 29.6873C607.804 29.6873 607.804 29.8854 607.964 29.8854ZM607.495 30.0104C607.288 30.0925 607.176 30.1404 607.019 30.2116C606.803 30.2846 606.695 30.133 606.695 30.133C606.695 30.133 603.084 24.045 601.591 21.9918C598.945 18.3521 604.578 15.853 605.453 19.8465C606.359 23.3286 607.594 29.742 607.594 29.742C607.594 29.742 607.646 29.91 607.495 30.0104ZM606.121 30.9527C606.16 30.9164 606.195 30.8831 606.23 30.8502L606.23 30.8502L606.23 30.8501L606.23 30.8501C606.307 30.7768 606.382 30.7052 606.5 30.6067C606.612 30.464 606.56 30.3205 606.56 30.3205C606.56 30.3205 602.763 25.0533 600.811 22.0306C598.608 18.762 594.136 22.7518 597.875 25.2691C599.935 26.7511 605.775 30.9527 605.775 30.9527C605.775 30.9527 605.939 31.0895 606.121 30.9527ZM605.656 31.8694C605.7 31.7678 605.729 31.7109 605.771 31.6302L605.771 31.6302C605.794 31.5853 605.821 31.533 605.856 31.4616C605.901 31.2859 605.725 31.192 605.725 31.192C605.725 31.192 600.227 27.7732 597.223 25.7934C593.888 23.6902 591.404 29.1437 595.84 29.9408C598.324 30.4666 605.365 32.0145 605.365 32.0145C605.365 32.0145 605.545 32.0678 605.656 31.8694ZM609.749 30.2004C609.544 30.1127 609.301 30.0124 609.139 29.9521C608.992 29.8923 609.082 29.6447 609.082 29.6447C609.082 29.6447 610.774 22.9032 611.162 20.3946C611.849 15.9474 617.586 18.1352 615.392 21.5849C613.492 24.5726 610.06 30.0119 610.06 30.0119C610.06 30.0119 609.927 30.2356 609.749 30.2004ZM610.183 30.5436C610.234 30.5915 610.288 30.6353 610.345 30.681C610.427 30.7478 610.515 30.8189 610.607 30.9138C610.758 31.0149 610.873 30.9138 610.873 30.9138C610.873 30.9138 616.263 27.2597 619.132 25.0892C622.487 22.752 618.102 18.5027 615.753 22.341C614.428 24.5061 610.183 30.2518 610.183 30.2518C610.183 30.2518 610.07 30.4315 610.183 30.5436ZM611.156 31.9144C611.079 31.7053 611.037 31.603 610.97 31.444C610.912 31.2954 611.024 31.1562 611.024 31.1562C611.024 31.1562 617.105 27.3913 619.195 25.9514C622.901 23.3988 625.181 29.0631 621.166 29.8357C617.662 30.6529 611.444 31.9999 611.444 31.9999C611.444 31.9999 611.253 32.068 611.156 31.9144ZM611.278 32.409C611.281 32.5793 611.285 32.7941 611.278 33.0103C611.31 33.1889 611.546 33.2381 611.546 33.2381C611.546 33.2381 617.817 34.3122 621.373 34.8635C625.385 35.6469 625.421 29.6527 621.03 30.6356C618.553 31.1901 611.409 32.1921 611.409 32.1921C611.409 32.1921 611.28 32.2345 611.278 32.394L611.278 32.409ZM608.807 35.6289C608.635 35.6335 608.332 35.6334 608.11 35.6289C607.931 35.6628 607.923 35.853 607.923 35.853C607.923 35.853 606.748 42.2297 606.234 45.7908C605.492 49.8112 611.598 49.7492 610.569 45.3684C609.989 42.8972 608.967 35.827 608.967 35.827C608.967 35.827 608.967 35.6289 608.807 35.6289ZM609.276 35.5039C609.483 35.4218 609.595 35.3739 609.752 35.3027C609.968 35.2297 610.076 35.3813 610.076 35.3813C610.076 35.3813 613.687 41.4693 615.18 43.5225C617.826 47.1622 612.193 49.6613 611.318 45.6678C610.412 42.1857 609.177 35.7723 609.177 35.7723C609.177 35.7723 609.125 35.6043 609.276 35.5039ZM610.541 34.6641L610.541 34.6641L610.541 34.6641C610.464 34.7375 610.389 34.8091 610.271 34.9076C610.159 35.0503 610.211 35.1938 610.211 35.1938C610.211 35.1938 614.008 40.461 615.96 43.4837C618.163 46.7523 622.635 42.7625 618.896 40.2452C616.836 38.7632 610.996 34.5616 610.996 34.5616C610.996 34.5616 610.832 34.4248 610.65 34.5616C610.611 34.5979 610.576 34.6312 610.541 34.6641ZM611.115 33.6449C611.071 33.7465 611.042 33.8035 611 33.8841L611 33.8841C610.977 33.929 610.95 33.9813 610.915 34.0527C610.87 34.2284 611.046 34.3223 611.046 34.3223C611.046 34.3223 616.544 37.7411 619.548 39.7209C622.883 41.8241 625.367 36.3706 620.931 35.5735C618.447 35.0477 611.406 33.4998 611.406 33.4998C611.406 33.4998 611.226 33.4465 611.115 33.6449ZM607.022 35.3139C607.227 35.4016 607.47 35.5019 607.632 35.5622C607.779 35.622 607.689 35.8696 607.689 35.8696C607.689 35.8696 605.997 42.6111 605.609 45.1197C604.922 49.5669 599.185 47.3791 601.379 43.9294C603.279 40.9417 606.711 35.5024 606.711 35.5024C606.711 35.5024 606.844 35.2787 607.022 35.3139ZM606.588 34.9707C606.537 34.9228 606.483 34.8791 606.426 34.8333C606.344 34.7665 606.256 34.6954 606.164 34.6005C606.013 34.4994 605.898 34.6005 605.898 34.6005C605.898 34.6005 600.508 38.2546 597.639 40.4251C594.284 42.7623 598.669 47.0116 601.018 43.1733C602.343 41.0082 606.588 35.2625 606.588 35.2625C606.588 35.2625 606.701 35.0828 606.588 34.9707ZM605.615 33.5999C605.691 33.809 605.734 33.9114 605.801 34.0704C605.859 34.2189 605.747 34.3581 605.747 34.3581C605.747 34.3581 599.666 38.123 597.576 39.5629C593.87 42.1155 591.59 36.4512 595.605 35.6786C599.109 34.8614 605.327 33.5144 605.327 33.5144C605.327 33.5144 605.518 33.4463 605.615 33.5999ZM605.493 33.1053C605.49 32.935 605.486 32.7202 605.493 32.504C605.461 32.3255 605.225 32.2762 605.225 32.2762C605.225 32.2762 598.954 31.2021 595.398 30.6508C591.386 29.8674 591.35 35.8616 595.741 34.8787C598.218 34.3242 605.362 33.3222 605.362 33.3222C605.362 33.3222 605.491 33.2798 605.493 33.1203L605.493 33.1053ZM610.054 32.7889C610.054 33.6953 609.319 34.4302 608.413 34.4302C607.506 34.4302 606.772 33.6953 606.772 32.7889C606.772 31.8824 607.506 31.1476 608.413 31.1476C609.319 31.1476 610.054 31.8824 610.054 32.7889Z" fill="#DCC67A"/>
<path fill-rule="evenodd" clip-rule="evenodd" d="M36.5468 29.8854C36.7194 29.8808 37.0217 29.8809 37.2444 29.8854C37.4226 29.8515 37.4315 29.6613 37.4315 29.6613C37.4315 29.6613 38.6061 23.2846 39.1201 19.7235C39.8616 15.7031 33.756 15.7651 34.7848 20.1459C35.3651 22.6171 36.3874 29.6873 36.3874 29.6873C36.3874 29.6873 36.3874 29.8854 36.5468 29.8854ZM36.0776 30.0104C35.8705 30.0925 35.7589 30.1404 35.6017 30.2116C35.3863 30.2846 35.2776 30.133 35.2776 30.133C35.2776 30.133 31.6667 24.045 30.174 21.9918C27.5278 18.3521 33.1609 15.853 34.0355 19.8465C34.9418 23.3286 36.1766 29.742 36.1766 29.742C36.1766 29.742 36.2287 29.91 36.0776 30.0104ZM34.7035 30.9527C34.7429 30.9164 34.7779 30.8831 34.8126 30.8502L34.8126 30.8502L34.8126 30.8501L34.8127 30.8501C34.8897 30.7768 34.9649 30.7052 35.0828 30.6067C35.1948 30.464 35.1427 30.3205 35.1427 30.3205C35.1427 30.3205 31.346 25.0533 29.3943 22.0306C27.1906 18.762 22.7193 22.7518 26.4576 25.2691C28.5184 26.7511 34.3575 30.9527 34.3575 30.9527C34.3575 30.9527 34.5219 31.0895 34.7035 30.9527ZM34.2387 31.8694C34.2831 31.7678 34.3124 31.7109 34.3539 31.6302L34.3539 31.6302C34.377 31.5853 34.4038 31.533 34.4392 31.4616C34.4842 31.2859 34.3079 31.192 34.3079 31.192C34.3079 31.192 28.81 27.7732 25.8056 25.7934C22.4714 23.6902 19.9874 29.1437 24.4231 29.9408C26.9065 30.4666 33.9484 32.0145 33.9484 32.0145C33.9484 32.0145 34.1277 32.0678 34.2387 31.8694ZM38.3318 30.2004C38.127 30.1127 37.8841 30.0124 37.7224 29.9521C37.5745 29.8923 37.6648 29.6447 37.6648 29.6447C37.6648 29.6447 39.3567 22.9032 39.7446 20.3946C40.4322 15.9474 46.1691 18.1352 43.9753 21.5849C42.0752 24.5726 38.6425 30.0119 38.6425 30.0119C38.6425 30.0119 38.5097 30.2356 38.3318 30.2004ZM38.766 30.5436C38.8171 30.5915 38.8711 30.6353 38.9276 30.681C39.0101 30.7478 39.098 30.8189 39.1901 30.9138C39.3407 31.0149 39.4565 30.9138 39.4565 30.9138C39.4565 30.9138 44.8457 27.2597 47.7154 25.0892C51.0696 22.752 46.685 18.5027 44.3359 22.341C43.0108 24.5061 38.766 30.2518 38.766 30.2518C38.766 30.2518 38.6526 30.4315 38.766 30.5436ZM39.7393 31.9144C39.6625 31.7053 39.6198 31.603 39.5527 31.444C39.4946 31.2954 39.6071 31.1562 39.6071 31.1562C39.6071 31.1562 45.6876 27.3913 47.7781 25.9514C51.4841 23.3988 53.7639 29.0631 49.7494 29.8357C46.2453 30.6529 40.027 31.9999 40.027 31.9999C40.027 31.9999 39.8358 32.068 39.7393 31.9144ZM39.8612 32.409C39.864 32.5793 39.8676 32.7941 39.8609 33.0103C39.893 33.1889 40.1292 33.2381 40.1292 33.2381C40.1292 33.2381 46.4004 34.3122 49.956 34.8635C53.9684 35.6469 54.0044 29.6527 49.6131 30.6356C47.1359 31.1901 39.9918 32.1921 39.9918 32.1921C39.9918 32.1921 39.8626 32.2345 39.8609 32.394L39.8612 32.409ZM37.3901 35.6289C37.2176 35.6335 36.9153 35.6334 36.6925 35.6289C36.5144 35.6628 36.5055 35.853 36.5055 35.853C36.5055 35.853 35.3309 42.2297 34.8169 45.7908C34.0754 49.8112 40.181 49.7492 39.1522 45.3684C38.5719 42.8972 37.5496 35.827 37.5496 35.827C37.5496 35.827 37.5496 35.6289 37.3901 35.6289ZM37.8594 35.5039C38.0664 35.4218 38.1781 35.3739 38.3353 35.3027C38.5507 35.2297 38.6594 35.3813 38.6594 35.3813C38.6594 35.3813 42.2703 41.4693 43.763 43.5225C46.4092 47.1622 40.7761 49.6613 39.9015 45.6678C38.9952 42.1857 37.7603 35.7723 37.7603 35.7723C37.7603 35.7723 37.7083 35.6043 37.8594 35.5039ZM39.1244 34.6641L39.1244 34.6641L39.1244 34.6641C39.0474 34.7375 38.9721 34.8091 38.8542 34.9076C38.7421 35.0503 38.7943 35.1938 38.7943 35.1938C38.7943 35.1938 42.591 40.461 44.5426 43.4837C46.7464 46.7523 51.2177 42.7625 47.4794 40.2452C45.4185 38.7632 39.5795 34.5616 39.5795 34.5616C39.5795 34.5616 39.4151 34.4248 39.2334 34.5616C39.1941 34.5979 39.1591 34.6312 39.1244 34.6641ZM39.6983 33.6449C39.6539 33.7465 39.6246 33.8035 39.5831 33.8841L39.5831 33.8841C39.56 33.929 39.5332 33.9813 39.4978 34.0527C39.4528 34.2284 39.6291 34.3223 39.6291 34.3223C39.6291 34.3223 45.127 37.7411 48.1314 39.7209C51.4656 41.8241 53.9496 36.3706 49.5139 35.5735C47.0305 35.0477 39.9886 33.4998 39.9886 33.4998C39.9886 33.4998 39.8093 33.4465 39.6983 33.6449ZM35.6052 35.3139C35.81 35.4016 36.0529 35.5019 36.2146 35.5622C36.3625 35.622 36.2722 35.8696 36.2722 35.8696C36.2722 35.8696 34.5803 42.6111 34.1924 45.1197C33.5048 49.5669 27.7679 47.3791 29.9617 43.9294C31.8618 40.9417 35.2944 35.5024 35.2944 35.5024C35.2944 35.5024 35.4273 35.2787 35.6052 35.3139ZM35.171 34.9707C35.1199 34.9228 35.0659 34.8791 35.0094 34.8333C34.9268 34.7665 34.839 34.6954 34.7469 34.6005C34.5963 34.4994 34.4805 34.6005 34.4805 34.6005C34.4805 34.6005 29.0913 38.2546 26.2216 40.4251C22.8674 42.7623 27.252 47.0116 29.6011 43.1733C30.9262 41.0082 35.171 35.2625 35.171 35.2625C35.171 35.2625 35.2844 35.0828 35.171 34.9707ZM34.1977 33.5999C34.2745 33.809 34.3172 33.9114 34.3843 34.0704C34.4423 34.2189 34.3299 34.3581 34.3299 34.3581C34.3299 34.3581 28.2494 38.123 26.1589 39.5629C22.4529 42.1155 20.1731 36.4512 24.1876 35.6786C27.6917 34.8614 33.91 33.5144 33.91 33.5144C33.91 33.5144 34.1012 33.4463 34.1977 33.5999ZM34.0758 33.1053C34.073 32.935 34.0694 32.7202 34.0761 32.504C34.044 32.3255 33.8078 32.2762 33.8078 32.2762C33.8078 32.2762 27.5366 31.2021 23.981 30.6508C19.9686 29.8674 19.9325 35.8616 24.3239 34.8787C26.8011 34.3242 33.9452 33.3222 33.9452 33.3222C33.9452 33.3222 34.0744 33.2798 34.0761 33.1203L34.0758 33.1053ZM38.6372 32.7889C38.6372 33.6953 37.9023 34.4302 36.9959 34.4302C36.0894 34.4302 35.3546 33.6953 35.3546 32.7889C35.3546 31.8824 36.0894 31.1476 36.9959 31.1476C37.9023 31.1476 38.6372 31.8824 38.6372 32.7889Z" fill="#DCC67A"/>
</g>
<defs>
<clipPath id="clip0_61_2">
<rect width="1440" height="1024" fill="white" transform="translate(-699)"/>
</clipPath>
</defs>
</svg>
