<svg width="643" height="83" viewBox="0 0 643 83" fill="none" xmlns="http://www.w3.org/2000/svg">
<g clip-path="url(#clip0_61_2)">
<rect width="1440" height="1024" transform="translate(-698)" fill="white"/>
<rect x="62.7844" y="62.5773" width="516.921" height="898.939" stroke="black"/>
<rect x="0.217041" width="642.124" height="1024" fill="#C87A74"/>
<path d="M62.2943 63.5729H63.7943V62.0729V20C63.7943 9.78273 72.077 1.5 82.2943 1.5H560.2C570.417 1.5 578.7 9.78273 578.7 20V62.0873V63.5873H580.2H622.341C632.559 63.5873 640.841 71.8701 640.841 82.0873V942.016C640.841 952.233 632.559 960.516 622.341 960.516H580.203H578.703V962.016V1004C578.703 1014.22 570.42 1022.5 560.203 1022.5H82.2938C72.0765 1022.5 63.7938 1014.22 63.7938 1004V961.999V960.499H62.2938H20.217C9.99976 960.499 1.71704 952.217 1.71704 941.999V82.0729C1.71704 71.8556 9.99978 63.5729 20.217 63.5729H62.2943Z" fill="#F4F0E1" stroke="#917108" stroke-width="3"/>
<path d="M78.2228 67.6281C80.2089 66.9983 82.5125 64.4558 82.5125 64.4558C82.5125 64.4558 80.4188 62.3132 78.668 61.7934C75.0829 60.7291 69.8626 65.5576 69.8626 65.5576C69.8626 65.5576 75.0391 68.6378 78.2228 67.6281Z" fill="#DCC67A"/>
<path d="M67.349 77.6941C66.5685 79.6259 63.8566 81.7274 63.8566 81.7274C63.8566 81.7274 61.8811 79.4752 61.4974 77.6897C60.7116 74.0335 65.9268 69.1995 65.9268 69.1995C65.9268 69.1995 68.5534 74.7133 67.349 77.6941Z" fill="#DCC67A"/>
<path d="M61.7759 67.4874C60.984 67.738 60.065 68.751 60.065 68.751C60.065 68.751 60.8992 69.6057 61.597 69.8133C63.0259 70.2385 65.1082 68.3149 65.1082 68.3149C65.1082 68.3149 62.7823 68.2925 61.7759 67.4874Z" fill="#DCC67A"/>
<path d="M68.7131 61.0677C69.0243 60.2976 70.1054 59.4598 70.1054 59.4598C70.1054 59.4598 70.8929 60.3576 71.0459 61.0694C71.3591 62.527 69.2801 64.4541 69.2801 64.4541C69.2801 64.4541 69.4379 62.1334 68.7131 61.0677Z" fill="#DCC67A"/>
<path d="M69.695 74.5784C71.0896 76.0856 73.4419 76.1768 74.9491 74.7822C76.4562 73.3876 76.5474 71.0352 75.1528 69.5281C74.5406 68.8665 73.7439 68.4778 72.9152 68.3678C71.8559 68.2272 68.7555 68.0889 68.7555 68.0889C68.7555 68.0889 68.6533 71.1908 68.7114 72.2577C68.757 73.0925 69.0828 73.9169 69.695 74.5784Z" fill="#DCC67A"/>
<path d="M574.368 77.9345C574.998 79.9206 577.541 82.2242 577.541 82.2242C577.541 82.2242 579.683 80.1304 580.203 78.3797C581.267 74.7946 576.439 69.5743 576.439 69.5743C576.439 69.5743 573.359 74.7508 574.368 77.9345Z" fill="#DCC67A"/>
<path d="M564.302 67.0608C562.371 66.2803 560.269 63.5684 560.269 63.5684C560.269 63.5684 562.521 61.5929 564.307 61.2092C567.963 60.4234 572.797 65.6386 572.797 65.6386C572.797 65.6386 567.283 68.2652 564.302 67.0608Z" fill="#DCC67A"/>
<path d="M574.509 61.4876C574.258 60.6957 573.246 59.7767 573.246 59.7767C573.246 59.7767 572.391 60.6109 572.183 61.3087C571.758 62.7376 573.682 64.8199 573.682 64.8199C573.682 64.8199 573.704 62.494 574.509 61.4876Z" fill="#DCC67A"/>
<path d="M580.929 68.4249C581.699 68.7361 582.536 69.8172 582.536 69.8172C582.536 69.8172 581.639 70.6047 580.927 70.7577C579.469 71.0709 577.542 68.9919 577.542 68.9919C577.542 68.9919 579.863 69.1497 580.929 68.4249Z" fill="#DCC67A"/>
<path d="M567.418 69.4067C565.911 70.8013 565.82 73.1536 567.215 74.6607C568.609 76.1679 570.962 76.2591 572.469 74.8645C573.13 74.2523 573.519 73.4556 573.629 72.6269C573.77 71.5676 573.908 68.4671 573.908 68.4671C573.908 68.4671 570.806 68.3649 569.739 68.4231C568.904 68.4686 568.08 68.7945 567.418 69.4067Z" fill="#DCC67A"/>
<path fill-rule="evenodd" clip-rule="evenodd" d="M608.964 29.8854C609.136 29.8808 609.439 29.8809 609.661 29.8854C609.84 29.8515 609.848 29.6613 609.848 29.6613C609.848 29.6613 611.023 23.2846 611.537 19.7235C612.279 15.7031 606.173 15.7651 607.202 20.1459C607.782 22.6171 608.804 29.6873 608.804 29.6873C608.804 29.6873 608.804 29.8854 608.964 29.8854ZM608.495 30.0104C608.288 30.0925 608.176 30.1404 608.019 30.2116C607.803 30.2846 607.695 30.133 607.695 30.133C607.695 30.133 604.084 24.045 602.591 21.9918C599.945 18.3521 605.578 15.853 606.453 19.8465C607.359 23.3286 608.594 29.742 608.594 29.742C608.594 29.742 608.646 29.91 608.495 30.0104ZM607.121 30.9527C607.16 30.9164 607.195 30.8831 607.23 30.8502L607.23 30.8502L607.23 30.8501L607.23 30.8501C607.307 30.7768 607.382 30.7052 607.5 30.6067C607.612 30.464 607.56 30.3205 607.56 30.3205C607.56 30.3205 603.763 25.0533 601.811 22.0306C599.608 18.762 595.136 22.7518 598.875 25.2691C600.935 26.7511 606.775 30.9527 606.775 30.9527C606.775 30.9527 606.939 31.0895 607.121 30.9527ZM606.656 31.8694C606.7 31.7678 606.729 31.7109 606.771 31.6302L606.771 31.6302C606.794 31.5853 606.821 31.533 606.856 31.4616C606.901 31.2859 606.725 31.192 606.725 31.192C606.725 31.192 601.227 27.7732 598.223 25.7934C594.888 23.6902 592.404 29.1437 596.84 29.9408C599.324 30.4666 606.365 32.0145 606.365 32.0145C606.365 32.0145 606.545 32.0678 606.656 31.8694ZM610.749 30.2004C610.544 30.1127 610.301 30.0124 610.139 29.9521C609.992 29.8923 610.082 29.6447 610.082 29.6447C610.082 29.6447 611.774 22.9032 612.162 20.3946C612.849 15.9474 618.586 18.1352 616.392 21.5849C614.492 24.5726 611.06 30.0119 611.06 30.0119C611.06 30.0119 610.927 30.2356 610.749 30.2004ZM611.183 30.5436C611.234 30.5915 611.288 30.6353 611.345 30.681C611.427 30.7478 611.515 30.8189 611.607 30.9138C611.758 31.0149 611.873 30.9138 611.873 30.9138C611.873 30.9138 617.263 27.2597 620.132 25.0892C623.487 22.752 619.102 18.5027 616.753 22.341C615.428 24.5061 611.183 30.2518 611.183 30.2518C611.183 30.2518 611.07 30.4315 611.183 30.5436ZM612.156 31.9144C612.079 31.7053 612.037 31.603 611.97 31.444C611.912 31.2954 612.024 31.1562 612.024 31.1562C612.024 31.1562 618.105 27.3913 620.195 25.9514C623.901 23.3988 626.181 29.0631 622.166 29.8357C618.662 30.6529 612.444 31.9999 612.444 31.9999C612.444 31.9999 612.253 32.068 612.156 31.9144ZM612.278 32.409C612.281 32.5793 612.285 32.7941 612.278 33.0103C612.31 33.1889 612.546 33.2381 612.546 33.2381C612.546 33.2381 618.817 34.3122 622.373 34.8635C626.385 35.6469 626.421 29.6527 622.03 30.6356C619.553 31.1901 612.409 32.1921 612.409 32.1921C612.409 32.1921 612.28 32.2345 612.278 32.394L612.278 32.409ZM609.807 35.6289C609.635 35.6335 609.332 35.6334 609.11 35.6289C608.931 35.6628 608.923 35.853 608.923 35.853C608.923 35.853 607.748 42.2297 607.234 45.7908C606.492 49.8112 612.598 49.7492 611.569 45.3684C610.989 42.8972 609.967 35.827 609.967 35.827C609.967 35.827 609.967 35.6289 609.807 35.6289ZM610.276 35.5039C610.483 35.4218 610.595 35.3739 610.752 35.3027C610.968 35.2297 611.076 35.3813 611.076 35.3813C611.076 35.3813 614.687 41.4693 616.18 43.5225C618.826 47.1622 613.193 49.6613 612.318 45.6678C611.412 42.1857 610.177 35.7723 610.177 35.7723C610.177 35.7723 610.125 35.6043 610.276 35.5039ZM611.541 34.6641L611.541 34.6641L611.541 34.6641C611.464 34.7375 611.389 34.8091 611.271 34.9076C611.159 35.0503 611.211 35.1938 611.211 35.1938C611.211 35.1938 615.008 40.461 616.96 43.4837C619.163 46.7523 623.635 42.7625 619.896 40.2452C617.836 38.7632 611.996 34.5616 611.996 34.5616C611.996 34.5616 611.832 34.4248 611.65 34.5616C611.611 34.5979 611.576 34.6312 611.541 34.6641ZM612.115 33.6449C612.071 33.7465 612.042 33.8035 612 33.8841L612 33.8841C611.977 33.929 611.95 33.9813 611.915 34.0527C611.87 34.2284 612.046 34.3223 612.046 34.3223C612.046 34.3223 617.544 37.7411 620.548 39.7209C623.883 41.8241 626.367 36.3706 621.931 35.5735C619.447 35.0477 612.406 33.4998 612.406 33.4998C612.406 33.4998 612.226 33.4465 612.115 33.6449ZM608.022 35.3139C608.227 35.4016 608.47 35.5019 608.632 35.5622C608.779 35.622 608.689 35.8696 608.689 35.8696C608.689 35.8696 606.997 42.6111 606.609 45.1197C605.922 49.5669 600.185 47.3791 602.379 43.9294C604.279 40.9417 607.711 35.5024 607.711 35.5024C607.711 35.5024 607.844 35.2787 608.022 35.3139ZM607.588 34.9707C607.537 34.9228 607.483 34.8791 607.426 34.8333C607.344 34.7665 607.256 34.6954 607.164 34.6005C607.013 34.4994 606.898 34.6005 606.898 34.6005C606.898 34.6005 601.508 38.2546 598.639 40.4251C595.284 42.7623 599.669 47.0116 602.018 43.1733C603.343 41.0082 607.588 35.2625 607.588 35.2625C607.588 35.2625 607.701 35.0828 607.588 34.9707ZM606.615 33.5999C606.691 33.809 606.734 33.9114 606.801 34.0704C606.859 34.2189 606.747 34.3581 606.747 34.3581C606.747 34.3581 600.666 38.123 598.576 39.5629C594.87 42.1155 592.59 36.4512 596.605 35.6786C600.109 34.8614 606.327 33.5144 606.327 33.5144C606.327 33.5144 606.518 33.4463 606.615 33.5999ZM606.493 33.1053C606.49 32.935 606.486 32.7202 606.493 32.504C606.461 32.3255 606.225 32.2762 606.225 32.2762C606.225 32.2762 599.954 31.2021 596.398 30.6508C592.386 29.8674 592.35 35.8616 596.741 34.8787C599.218 34.3242 606.362 33.3222 606.362 33.3222C606.362 33.3222 606.491 33.2798 606.493 33.1203L606.493 33.1053ZM611.054 32.7889C611.054 33.6953 610.319 34.4302 609.413 34.4302C608.506 34.4302 607.772 33.6953 607.772 32.7889C607.772 31.8824 608.506 31.1476 609.413 31.1476C610.319 31.1476 611.054 31.8824 611.054 32.7889Z" fill="#DCC67A"/>
<path fill-rule="evenodd" clip-rule="evenodd" d="M37.5468 29.8854C37.7194 29.8808 38.0217 29.8809 38.2444 29.8854C38.4226 29.8515 38.4315 29.6613 38.4315 29.6613C38.4315 29.6613 39.6061 23.2846 40.1201 19.7235C40.8616 15.7031 34.756 15.7651 35.7848 20.1459C36.3651 22.6171 37.3874 29.6873 37.3874 29.6873C37.3874 29.6873 37.3874 29.8854 37.5468 29.8854ZM37.0776 30.0104C36.8705 30.0925 36.7589 30.1404 36.6017 30.2116C36.3863 30.2846 36.2776 30.133 36.2776 30.133C36.2776 30.133 32.6667 24.045 31.174 21.9918C28.5278 18.3521 34.1609 15.853 35.0355 19.8465C35.9418 23.3286 37.1766 29.742 37.1766 29.742C37.1766 29.742 37.2287 29.91 37.0776 30.0104ZM35.7035 30.9527C35.7429 30.9164 35.7779 30.8831 35.8126 30.8502L35.8126 30.8502L35.8126 30.8501L35.8127 30.8501C35.8897 30.7768 35.9649 30.7052 36.0828 30.6067C36.1948 30.464 36.1427 30.3205 36.1427 30.3205C36.1427 30.3205 32.346 25.0533 30.3943 22.0306C28.1906 18.762 23.7193 22.7518 27.4576 25.2691C29.5184 26.7511 35.3575 30.9527 35.3575 30.9527C35.3575 30.9527 35.5219 31.0895 35.7035 30.9527ZM35.2387 31.8694C35.2831 31.7678 35.3124 31.7109 35.3539 31.6302L35.3539 31.6302C35.377 31.5853 35.4038 31.533 35.4392 31.4616C35.4842 31.2859 35.3079 31.192 35.3079 31.192C35.3079 31.192 29.81 27.7732 26.8056 25.7934C23.4714 23.6902 20.9874 29.1437 25.4231 29.9408C27.9065 30.4666 34.9484 32.0145 34.9484 32.0145C34.9484 32.0145 35.1277 32.0678 35.2387 31.8694ZM39.3318 30.2004C39.127 30.1127 38.8841 30.0124 38.7224 29.9521C38.5745 29.8923 38.6648 29.6447 38.6648 29.6447C38.6648 29.6447 40.3567 22.9032 40.7446 20.3946C41.4322 15.9474 47.1691 18.1352 44.9753 21.5849C43.0752 24.5726 39.6425 30.0119 39.6425 30.0119C39.6425 30.0119 39.5097 30.2356 39.3318 30.2004ZM39.766 30.5436C39.8171 30.5915 39.8711 30.6353 39.9276 30.681C40.0101 30.7478 40.098 30.8189 40.1901 30.9138C40.3407 31.0149 40.4565 30.9138 40.4565 30.9138C40.4565 30.9138 45.8457 27.2597 48.7154 25.0892C52.0696 22.752 47.685 18.5027 45.3359 22.341C44.0108 24.5061 39.766 30.2518 39.766 30.2518C39.766 30.2518 39.6526 30.4315 39.766 30.5436ZM40.7393 31.9144C40.6625 31.7053 40.6198 31.603 40.5527 31.444C40.4946 31.2954 40.6071 31.1562 40.6071 31.1562C40.6071 31.1562 46.6876 27.3913 48.7781 25.9514C52.4841 23.3988 54.7639 29.0631 50.7494 29.8357C47.2453 30.6529 41.027 31.9999 41.027 31.9999C41.027 31.9999 40.8358 32.068 40.7393 31.9144ZM40.8612 32.409C40.864 32.5793 40.8676 32.7941 40.8609 33.0103C40.893 33.1889 41.1292 33.2381 41.1292 33.2381C41.1292 33.2381 47.4004 34.3122 50.956 34.8635C54.9684 35.6469 55.0044 29.6527 50.6131 30.6356C48.1359 31.1901 40.9918 32.1921 40.9918 32.1921C40.9918 32.1921 40.8626 32.2345 40.8609 32.394L40.8612 32.409ZM38.3901 35.6289C38.2176 35.6335 37.9153 35.6334 37.6925 35.6289C37.5144 35.6628 37.5055 35.853 37.5055 35.853C37.5055 35.853 36.3309 42.2297 35.8169 45.7908C35.0754 49.8112 41.181 49.7492 40.1522 45.3684C39.5719 42.8972 38.5496 35.827 38.5496 35.827C38.5496 35.827 38.5496 35.6289 38.3901 35.6289ZM38.8594 35.5039C39.0664 35.4218 39.1781 35.3739 39.3353 35.3027C39.5507 35.2297 39.6594 35.3813 39.6594 35.3813C39.6594 35.3813 43.2703 41.4693 44.763 43.5225C47.4092 47.1622 41.7761 49.6613 40.9015 45.6678C39.9952 42.1857 38.7603 35.7723 38.7603 35.7723C38.7603 35.7723 38.7083 35.6043 38.8594 35.5039ZM40.1244 34.6641L40.1244 34.6641L40.1244 34.6641C40.0474 34.7375 39.9721 34.8091 39.8542 34.9076C39.7421 35.0503 39.7943 35.1938 39.7943 35.1938C39.7943 35.1938 43.591 40.461 45.5426 43.4837C47.7464 46.7523 52.2177 42.7625 48.4794 40.2452C46.4185 38.7632 40.5795 34.5616 40.5795 34.5616C40.5795 34.5616 40.4151 34.4248 40.2334 34.5616C40.1941 34.5979 40.1591 34.6312 40.1244 34.6641ZM40.6983 33.6449C40.6539 33.7465 40.6246 33.8035 40.5831 33.8841L40.5831 33.8841C40.56 33.929 40.5332 33.9813 40.4978 34.0527C40.4528 34.2284 40.6291 34.3223 40.6291 34.3223C40.6291 34.3223 46.127 37.7411 49.1314 39.7209C52.4656 41.8241 54.9496 36.3706 50.5139 35.5735C48.0305 35.0477 40.9886 33.4998 40.9886 33.4998C40.9886 33.4998 40.8093 33.4465 40.6983 33.6449ZM36.6052 35.3139C36.81 35.4016 37.0529 35.5019 37.2146 35.5622C37.3625 35.622 37.2722 35.8696 37.2722 35.8696C37.2722 35.8696 35.5803 42.6111 35.1924 45.1197C34.5048 49.5669 28.7679 47.3791 30.9617 43.9294C32.8618 40.9417 36.2944 35.5024 36.2944 35.5024C36.2944 35.5024 36.4273 35.2787 36.6052 35.3139ZM36.171 34.9707C36.1199 34.9228 36.0659 34.8791 36.0094 34.8333C35.9268 34.7665 35.839 34.6954 35.7469 34.6005C35.5963 34.4994 35.4805 34.6005 35.4805 34.6005C35.4805 34.6005 30.0913 38.2546 27.2216 40.4251C23.8674 42.7623 28.252 47.0116 30.6011 43.1733C31.9262 41.0082 36.171 35.2625 36.171 35.2625C36.171 35.2625 36.2844 35.0828 36.171 34.9707ZM35.1977 33.5999C35.2745 33.809 35.3172 33.9114 35.3843 34.0704C35.4423 34.2189 35.3299 34.3581 35.3299 34.3581C35.3299 34.3581 29.2494 38.123 27.1589 39.5629C23.4529 42.1155 21.1731 36.4512 25.1876 35.6786C28.6917 34.8614 34.91 33.5144 34.91 33.5144C34.91 33.5144 35.1012 33.4463 35.1977 33.5999ZM35.0758 33.1053C35.073 32.935 35.0694 32.7202 35.0761 32.504C35.044 32.3255 34.8078 32.2762 34.8078 32.2762C34.8078 32.2762 28.5366 31.2021 24.981 30.6508C20.9686 29.8674 20.9325 35.8616 25.3239 34.8787C27.8011 34.3242 34.9452 33.3222 34.9452 33.3222C34.9452 33.3222 35.0744 33.2798 35.0761 33.1203L35.0758 33.1053ZM39.6372 32.7889C39.6372 33.6953 38.9023 34.4302 37.9959 34.4302C37.0894 34.4302 36.3546 33.6953 36.3546 32.7889C36.3546 31.8824 37.0894 31.1476 37.9959 31.1476C38.9023 31.1476 39.6372 31.8824 39.6372 32.7889Z" fill="#DCC67A"/>
</g>
<defs>
<clipPath id="clip0_61_2">
<rect width="1440" height="1024" fill="white" transform="translate(-698)"/>
</clipPath>
</defs>
</svg>
