<svg width="153" height="62" viewBox="0 0 153 62" fill="none" xmlns="http://www.w3.org/2000/svg">
<path d="M151.87 29.342C150.803 28.7916 151.016 28.703 148.042 28.5943C134.686 33.0889 128.631 30.7387 119.085 26.8252C115.038 24.8965 109.714 24.0412 106.109 23.1526C84.6164 18.955 74.2759 31.7045 74.2759 31.7045C74.2759 31.7045 73.5883 34.5405 75.0576 34.4241C82.951 25.456 102.475 26.7687 100.985 35.8904C92.8784 33.7738 90.63 39.1242 90.3073 43.0786C89.7712 47.1853 100.509 59.8206 109.757 47.6083C111.261 45.2351 115.946 37.4008 104.765 27.8666C108.077 28.9255 109.072 29.1305 112.834 31.6866C114.038 32.182 133.887 50.9551 142.7 37.8551C145.525 34.3309 147.288 30.9673 152.269 30.444C152.083 29.9115 152.385 29.8487 151.87 29.342Z" fill="#DCC67A"/>
<path d="M1.43794 33.1858C2.50506 33.7362 2.2926 33.8249 5.26633 33.9335C18.622 29.4389 24.6772 31.7892 34.2234 35.7026C38.2701 37.6314 43.5939 38.4866 47.1992 39.3752C68.6917 43.5728 79.0322 30.8234 79.0322 30.8234C79.0322 30.8234 79.7198 27.9873 78.2505 28.1038C70.3571 37.0719 50.8328 35.7591 52.3233 26.6374C60.4298 28.754 62.6781 23.4036 63.0008 19.4492C63.5369 15.3425 52.7994 2.70726 43.5515 14.9195C42.0472 17.2928 37.3622 25.127 48.5427 34.6613C45.2313 33.6023 44.236 33.3973 40.4744 30.8413C39.2702 30.3459 19.4209 11.5727 10.6078 24.6727C7.78266 28.1969 6.01988 31.5605 1.03889 32.0838C1.22537 32.6163 0.922627 32.6791 1.43794 33.1858Z" fill="#DCC67A"/>
</svg>
