<svg width="375" height="70" viewBox="0 0 375 70" fill="none" xmlns="http://www.w3.org/2000/svg">
<mask id="mask0_36_735" style="mask-type:alpha" maskUnits="userSpaceOnUse" x="0" y="0" width="375" height="70">
<rect y="0.893066" width="375" height="68.2971" fill="#C4C4C4"/>
</mask>
<g mask="url(#mask0_36_735)">
<rect y="0.893066" width="375" height="9.64307" fill="#917108"/>
<rect width="375" height="9.64307" transform="matrix(1 0 0 -1 0 69.1901)" fill="#917108"/>
<rect y="12.614" width="375" height="1.74633" fill="#DCC67A"/>
<rect width="375" height="1.74633" transform="matrix(1 0 0 -1 0 57.5319)" fill="#DCC67A"/>
<path fill-rule="evenodd" clip-rule="evenodd" d="M273.931 19.1466C266.087 19.4978 257.76 23.2206 256.173 33.5C255.378 38.651 258.559 48.7638 266.893 49.474C270.734 49.8013 276.209 48.1067 276.209 42.3629C275.987 39.1397 271.993 38.1445 271.078 41.6383C270.734 42.9521 272.695 44.5175 273.8 42.7624C275.121 43.5709 274.076 46.8249 271.078 46.8249C270.309 46.8249 267.765 46.1741 267.449 43.0976C267.177 40.445 270.348 37.1814 273.997 37.9505C273.026 37.3806 269.452 36.5517 266.395 41.6383C266.172 42.0095 264.147 44.9257 261.193 44.4807C260.029 40.1025 266.847 33.8084 273.559 36.1875C273.448 36.1356 273.325 36.0695 273.189 35.9958C271.993 35.3489 269.707 34.1131 264.284 36.6533C258.491 39.367 257.596 35.3895 257.596 34.7493C257.596 33.8528 258.451 31.5222 260.523 31.7231C259.55 34.1816 262.014 34.5373 263.157 34.1816C265.124 33.5692 266.637 33.161 268.254 33.0868C273.1 32.8644 276.724 36.1014 277.838 39.494C278.989 42.9982 276.362 47.3564 275.177 48.1469C283.135 43.3038 283.486 30.671 276.394 30.082C276.344 29.972 276.335 29.8493 276.324 29.7122C276.294 29.3221 276.254 28.8157 275.27 28.1531C279.722 27.3078 281.445 32.7099 281.905 34.1731C281.463 29.9819 278.305 27.3078 275.918 27.3078C275.235 27.3078 273.559 27.8103 273.559 28.6359V28.64C273.559 28.8577 273.559 29.3538 274.159 29.3538C274.518 29.3538 274.805 28.7794 274.613 28.4499C274.613 28.4499 275.805 28.1531 276.061 29.9101C276.177 30.7008 275.119 32.5006 273.559 32.4227C271.812 32.4929 270.682 30.7573 270.857 29.5691C271.347 26.2309 274.47 25.7323 276.636 26.231C273.134 24.5882 270.857 27.6224 270.671 27.988C268.633 31.9931 266.145 31.5579 265.731 31.4854C265.702 31.4804 265.684 31.4771 265.676 31.4771C265.075 26.7495 271.372 24.5014 273.732 24.6028C269.588 24.0714 266.791 26.6304 266.164 27.2037C266.106 27.2567 266.067 27.2928 266.047 27.3078C264.407 28.7746 263.561 28.9462 263.073 28.9462C261.475 28.9462 260.775 27.3078 260.806 26.7694C260.806 25.7823 261.673 25.0285 261.973 25.0285C261.973 25.6712 262.36 25.7823 262.511 25.7823C263.781 25.6688 264.704 25.1367 265.43 24.7181C265.584 24.6293 265.729 24.5456 265.867 24.4722C270.393 22.0579 274.089 22.5457 277.82 24.849C280.059 26.231 283.085 29.9101 283.447 34.058C283.576 35.5378 283.539 36.2176 283.48 37.3214C283.469 37.5157 283.458 37.7232 283.447 37.9505C283.161 43.7767 277.4 48.2507 276.376 49.0186C275.549 49.6395 270.857 52.0954 266.395 50.9929C268.699 52.0653 277.838 52.784 286.102 39.494C289.202 34.508 285.025 33.6378 284.693 35.03C283.712 34.3405 284.428 31.9406 286.576 31.9406C289.308 31.9406 289.56 34.3538 289.56 34.9106C289.56 36.5947 288.637 37.8217 288.058 38.5917C287.925 38.7674 287.811 38.9194 287.73 39.0475C288.821 38.2643 289.651 36.567 290.112 35.6239C290.127 35.593 290.142 35.563 290.156 35.5338C291.301 33.1964 293.208 33.5406 294.043 33.6913C294.136 33.7082 294.216 33.7226 294.28 33.7306C294.731 36.1835 292.437 37.3901 291.734 37.5625C290.895 37.7683 290.211 38.3031 289.308 39.0089C289.027 39.2278 288.726 39.4633 288.393 39.7104C288.493 39.6537 288.6 39.5921 288.713 39.5269C289.924 38.8301 291.838 37.7294 292.949 37.9505C295.316 38.4215 295.775 39.5958 295.775 40.6389C295.775 42.5923 293.404 43.1422 292.342 42.0802C293.404 40.8665 292.001 40.2786 291.413 40.2786C290.635 40.2786 288.571 40.3953 285.42 43.4457C281.836 46.9162 277.641 50.5196 273.8 51.8092C273.8 51.8092 276.376 51.8092 281.794 47.677C285.221 45.0633 290.6 43.3352 293.23 43.3352C296.263 43.3352 299.123 45.7889 299.44 46.0604L299.447 46.0666C299.545 46.1509 299.666 46.2554 299.805 46.376C301.281 47.6565 304.855 50.755 306.215 50.755C307.206 50.755 307.473 50.4367 308.086 49.706C308.103 49.6858 308.12 49.6653 308.137 49.6444C309.354 51.788 307.211 53.7241 305.178 53.7241C302.748 53.7241 300.828 51.1445 299.439 49.2786C299.105 48.8294 298.801 48.4216 298.529 48.101C298.422 47.9746 298.307 47.8207 298.178 47.648C297.416 46.6274 296.167 44.9546 293.099 44.4711C297.422 45.9872 299.167 49.9515 299.055 51.3822C298.938 52.8594 298.418 53.6312 297.168 53.7591C295.515 53.9283 294.842 52.1738 294.9 50.7256C294.924 50.1278 295.028 49.8789 295.114 49.6747C295.205 49.4579 295.274 49.2914 295.205 48.8115C294.923 46.8654 293.615 45.2361 291.756 45.1428C294.525 45.8524 294.649 48.3613 294.649 49.057C294.649 50.6354 293.05 52.1978 291.213 52.2735C289.772 52.3329 287.272 50.7256 287.453 48.6254C287.736 45.3488 292.072 45.6938 291.213 48.1537C290.939 47.7274 290.626 47.7473 290.436 47.7594C290.409 47.7611 290.384 47.7627 290.362 47.7627C289.669 47.7627 290.077 48.9188 290.666 48.9188C291.592 48.9188 291.976 48.3743 292.031 47.5983C292.105 46.5491 290.818 45.8811 289.344 45.8811C287.707 45.8811 281.066 48.7971 280.925 49.6106C281.039 49.5697 281.403 49.3876 281.914 49.1325C283.562 48.3085 286.736 46.7225 287.912 46.6704C287.453 47.2304 287.286 47.8783 287.088 48.7459C284.969 48.8826 283.95 49.3914 282.593 50.0683C282.234 50.2473 281.851 50.4381 281.419 50.6369L281.358 50.6649C279.705 51.4247 274.586 53.778 270.11 53.4137C255.895 52.2568 252.565 40.1257 253.6 32.7312C252.985 34.3843 251.202 39.494 250.903 43.7466C250.852 44.4821 251.359 44.1671 251.571 44.0353C251.593 44.0221 251.611 44.0107 251.625 44.0024C253.527 42.8141 253.999 44.5513 254.115 45.0548C254.407 46.3279 252.553 47.3521 251.195 46.4694C251.34 46.6629 251.583 46.7899 251.848 46.9283C252.375 47.2027 252.988 47.5223 253.085 48.4951C253.222 49.8538 251.376 51.2677 249.939 49.0836C249.765 48.8193 249.748 49.1585 249.765 49.2064C249.798 49.2974 249.881 49.4467 249.986 49.6351C250.28 50.1631 250.744 50.998 250.744 51.7173C250.744 52.9115 249.623 53.7953 248.51 53.7107C247.251 53.615 246.59 52.7514 246.59 51.5913C246.59 50.469 247.221 49.8428 247.627 49.4401C247.806 49.263 247.941 49.1292 247.959 49.0153C246.736 49.9845 246.466 49.9808 246.125 49.9761C246.1 49.9758 246.076 49.9755 246.051 49.9755C245.152 49.9755 244.668 49.2731 244.576 48.3479C244.402 47.1039 245.861 46.7114 246.96 46.4158C247.029 46.3973 247.096 46.3791 247.162 46.3611C244.968 46.6494 244.576 45.0548 244.576 44.5073C244.576 43.3742 245.616 42.8212 246.297 42.8212C247.476 42.8212 247.744 43.4842 247.888 43.843C247.914 43.908 247.937 43.9631 247.959 44.0024C248.155 44.3378 248.89 44.0024 249.011 43.2945C249.104 42.7486 252.174 32.3904 253.024 31.5466C253.024 31.5466 251.798 30.3474 251.16 29.4608C257.049 22.3728 264.284 15.9529 274.159 16.4673C283.835 17.2283 289.342 22.4914 292.342 25.9794C296.936 31.3188 297.867 32.4976 302.153 38.3649C301.102 36.4574 298.429 27.4232 298.343 26.9143C298.222 26.2065 297.486 25.8711 297.291 26.2065C297.268 26.2458 297.246 26.3008 297.22 26.3659C297.075 26.7246 296.808 27.3877 295.628 27.3877C294.948 27.3877 293.907 26.8347 293.907 25.7016C293.907 25.1541 294.299 23.5595 296.494 23.8477C296.428 23.8298 296.36 23.8116 296.291 23.793C295.193 23.4975 293.734 23.105 293.907 21.861C294 20.9358 294.484 20.2334 295.383 20.2334C295.408 20.2334 295.432 20.2331 295.456 20.2327C295.798 20.2281 296.067 20.2244 297.291 21.1935C297.273 21.0797 297.138 20.9458 296.959 20.7688C296.553 20.366 295.921 19.7399 295.921 18.6175C295.921 17.4575 296.583 16.5938 297.841 16.4982C298.955 16.4135 300.076 17.2973 300.076 18.4916C300.076 19.2108 299.611 20.0458 299.317 20.5738C299.213 20.7621 299.129 20.9114 299.097 21.0025C299.08 21.0503 299.097 21.3895 299.271 21.1253C300.708 18.9411 302.553 20.3551 302.417 21.7138C302.319 22.6866 301.706 23.0062 301.18 23.2806C300.915 23.419 300.671 23.5459 300.527 23.7395C301.885 22.8567 303.739 23.8809 303.447 25.1541C303.331 25.6575 302.858 27.3948 300.957 26.2065C300.943 26.1982 300.924 26.1868 300.903 26.1735C300.691 26.0418 300.183 25.7268 300.235 26.4622C300.534 30.7149 302.316 35.8246 302.932 37.4776C301.897 30.0831 305.227 17.952 319.442 16.7951C323.917 16.4309 329.036 18.7841 330.689 19.544L330.75 19.572C331.183 19.7708 331.565 19.9616 331.924 20.1406C333.281 20.8175 334.301 21.3263 336.42 21.463C336.618 22.3306 336.785 22.9785 337.244 23.5385C336.067 23.4864 332.894 21.9004 331.245 21.0764C330.735 20.8213 330.37 20.6392 330.257 20.5983C330.398 21.4118 337.039 24.3277 338.675 24.3277C340.15 24.3277 341.437 23.6598 341.363 22.6106C341.308 21.8345 340.923 21.2901 339.998 21.2901C339.408 21.2901 339 22.4461 339.693 22.4461C339.715 22.4461 339.74 22.4477 339.768 22.4495C339.957 22.4615 340.271 22.4815 340.545 22.0552C341.404 24.5151 337.068 24.8601 336.785 21.5835C336.604 19.4833 339.104 17.8759 340.545 17.9354C342.381 18.0111 343.981 19.5735 343.981 21.1519C343.981 21.8476 343.857 24.3565 341.087 25.0661C342.947 24.9727 344.255 23.3435 344.537 21.3974C344.606 20.9175 344.536 20.751 344.446 20.5342C344.36 20.33 344.256 20.081 344.232 19.4833C344.173 18.0351 344.847 16.2805 346.5 16.4498C347.75 16.5777 348.27 17.3495 348.386 18.8267C348.499 20.2574 346.754 24.2217 342.431 25.7378C345.499 25.2543 346.748 23.5814 347.509 22.5609C347.638 22.3882 347.753 22.2343 347.861 22.1079C348.133 21.7873 348.437 21.3795 348.771 20.9303C350.16 19.0644 352.08 16.4848 354.51 16.4848C356.542 16.4848 358.686 18.4209 357.469 20.5644L357.417 20.5028C356.805 19.7721 356.538 19.4539 355.546 19.4539C354.186 19.4539 350.613 22.5525 349.137 23.8329C348.997 23.9535 348.877 24.058 348.779 24.1422L348.771 24.1485C348.455 24.42 345.594 26.8737 342.561 26.8737C339.932 26.8737 334.553 25.1456 331.126 22.5319C325.708 18.3997 323.131 18.3997 323.131 18.3997C326.973 19.6893 331.167 23.2927 334.752 26.7632C337.902 29.8136 339.967 29.9303 340.745 29.9303C341.333 29.9303 342.736 29.3424 341.674 28.1286C342.736 27.0666 345.107 27.6166 345.107 29.57C345.107 30.613 344.647 31.7874 342.281 32.2584C341.17 32.4795 339.256 31.3788 338.045 30.6819C337.931 30.6168 337.824 30.5551 337.724 30.4984C338.058 30.7456 338.359 30.9811 338.639 31.2C339.542 31.9058 340.226 32.4406 341.066 32.6464C341.768 32.8188 344.062 34.0254 343.611 36.4783C343.547 36.4863 343.468 36.5007 343.374 36.5176C342.539 36.6683 340.633 37.0125 339.488 34.6751C339.474 34.6459 339.459 34.6159 339.444 34.585C338.983 33.6419 338.153 31.9446 337.061 31.1614C337.143 31.2895 337.257 31.4414 337.389 31.6172C337.968 32.3871 338.891 33.6142 338.891 35.2982C338.891 35.8551 338.639 38.2683 335.908 38.2683C333.76 38.2683 333.044 35.8684 334.025 35.1789C334.357 36.5711 338.534 35.7009 335.433 30.7149C327.17 17.4249 318.03 18.1435 315.727 19.216C320.188 18.1134 324.88 20.5694 325.708 21.1903C326.732 21.9582 332.493 26.4322 332.778 32.2584C332.79 32.4857 332.801 32.6932 332.811 32.8875C332.871 33.9913 332.907 34.6711 332.778 36.1508C332.417 40.2988 329.39 43.9779 327.152 45.3598C323.421 47.6631 319.724 48.151 315.199 45.7367C315.061 45.6632 314.916 45.5795 314.762 45.4907C314.036 45.0722 313.112 44.54 311.843 44.4266C311.691 44.4266 311.304 44.5377 311.304 45.1804C311.005 45.1804 310.138 44.4266 310.138 43.4395C310.106 42.9011 310.807 41.2626 312.404 41.2626C312.893 41.2626 313.738 41.4343 315.378 42.9011C315.399 42.9161 315.438 42.9522 315.496 43.0052C316.122 43.5785 318.919 46.1375 323.064 45.6061C320.703 45.7075 314.407 43.4594 315.007 38.7317C315.015 38.7317 315.034 38.7285 315.062 38.7235C315.477 38.651 317.965 38.2158 320.002 42.2209C320.188 42.5865 322.465 45.6207 325.967 43.9779C323.801 44.4766 320.679 43.9779 320.188 40.6398C320.014 39.4515 321.144 37.7159 322.89 37.7861C324.45 37.7083 325.508 39.5081 325.393 40.2988C325.137 42.0557 323.945 41.759 323.945 41.759C324.137 41.4294 323.849 40.8551 323.491 40.8551C322.89 40.8551 322.89 41.3512 322.89 41.5688V41.573C322.89 42.3986 324.566 42.9011 325.249 42.9011C327.636 42.9011 330.795 40.227 331.236 36.0358C330.777 37.499 329.054 42.9011 324.602 42.0557C325.586 41.3931 325.625 40.8867 325.656 40.4967C325.667 40.3596 325.676 40.2369 325.725 40.1268C332.817 39.5379 332.467 26.9051 324.508 22.062C325.693 22.8525 328.321 27.2106 327.17 30.7149C326.055 34.1075 322.431 37.3445 317.586 37.1221C315.968 37.0478 314.456 36.6396 312.489 36.0273C311.346 35.6716 308.881 36.0273 309.854 38.4858C307.783 38.6867 306.928 36.3561 306.928 35.4595C306.928 34.8194 307.822 30.8419 313.616 33.5556C319.038 36.0957 321.324 34.86 322.521 34.213C322.657 34.1394 322.779 34.0733 322.89 34.0214C316.179 36.4005 309.36 30.1064 310.524 25.7282C313.479 25.2832 315.504 28.1994 315.727 28.5706C318.783 33.6571 322.358 32.8282 323.328 32.2584C319.68 33.0275 316.509 29.7639 316.781 27.1112C317.097 24.0348 319.641 23.384 320.41 23.384C323.407 23.384 324.452 26.6379 323.131 27.4465C322.027 25.6913 320.066 27.2567 320.41 28.5706C321.324 32.0644 325.319 31.0692 325.541 27.846C325.541 22.1022 320.066 20.4076 316.225 20.7349C307.891 21.445 304.71 31.5578 305.505 36.7089C307.092 46.9883 315.419 50.7111 323.262 51.0623C333.69 51.0623 341.907 40.0345 348.689 30.9321C349.058 30.4371 349.423 29.9477 349.783 29.4661C350.603 30.0839 351.094 30.6358 351.746 31.429C347.278 37.5487 346.342 38.8034 341.674 44.2295C338.673 47.7174 333.166 52.9806 323.491 53.7416C313.616 54.256 306.382 47.8372 300.493 40.75C300.492 40.7507 300.492 40.7514 300.491 40.7521C300.146 40.292 299.798 39.8248 299.446 39.3522C292.65 30.2364 284.384 19.1466 273.931 19.1466Z" fill="#DCC67A"/>
<path fill-rule="evenodd" clip-rule="evenodd" d="M76.6449 19.1466C68.8013 19.4978 60.4747 23.2206 58.8875 33.5C58.0921 38.651 61.2737 48.7638 69.6071 49.474C73.4483 49.8013 78.9237 48.1067 78.9237 42.3629C78.7013 39.1397 74.707 38.1445 73.7924 41.6383C73.4484 42.9521 75.4095 44.5175 76.5138 42.7624C77.8351 43.5709 76.7899 46.8249 73.7924 46.8249C73.0232 46.8249 70.4793 46.1741 70.1637 43.0976C69.8917 40.445 73.0627 37.1814 76.711 37.9505C75.7404 37.3806 72.1658 36.5517 69.1093 41.6383C68.8862 42.0095 66.8614 44.9257 63.9071 44.4807C62.7429 40.1025 69.5611 33.8084 76.273 36.1875C76.1619 36.1356 76.0397 36.0695 75.9035 35.9958C74.7068 35.3489 72.4211 34.1131 66.9982 36.6533C61.2049 39.367 60.3107 35.3895 60.3107 34.7493C60.3107 33.8528 61.1656 31.5222 63.2369 31.7231C62.264 34.1816 64.7286 34.5373 65.8714 34.1816C67.8387 33.5692 69.3509 33.161 70.9685 33.0868C75.8139 32.8644 79.4378 36.1014 80.5523 39.494C81.7035 42.9982 79.0758 47.3564 77.8909 48.1469C85.8497 43.3038 86.2001 30.671 79.1079 30.082C79.0588 29.972 79.0492 29.8493 79.0384 29.7122C79.0079 29.3221 78.9682 28.8157 77.9844 28.1531C82.4368 27.3078 84.1597 32.7099 84.6191 34.1731C84.1777 29.9819 81.019 27.3078 78.632 27.3078C77.9491 27.3078 76.273 27.8103 76.273 28.6359V28.64C76.2729 28.8577 76.2729 29.3538 76.8731 29.3538C77.2321 29.3538 77.5192 28.7794 77.3273 28.4499C77.3273 28.4499 78.5193 28.1531 78.7756 29.9101C78.8909 30.7008 77.833 32.5006 76.273 32.4227C74.5267 32.4929 73.3962 30.7573 73.5708 29.5691C74.0614 26.2309 77.184 25.7323 79.3499 26.231C75.848 24.5882 73.5708 27.6224 73.3849 27.988C71.3476 31.9931 68.8593 31.5579 68.445 31.4854C68.4166 31.4804 68.3979 31.4771 68.3898 31.4771C67.7891 26.7495 74.0859 24.5014 76.4461 24.6028C72.302 24.0714 69.5051 26.6304 68.8785 27.2037C68.8205 27.2567 68.7811 27.2928 68.761 27.3078C67.1209 28.7746 66.2757 28.9462 65.7871 28.9462C64.1892 28.9462 63.4888 27.3078 63.5204 26.7694C63.5204 25.7823 64.3872 25.0285 64.6869 25.0285C64.6869 25.6712 65.074 25.7823 65.2253 25.7823C66.495 25.6688 67.4182 25.1367 68.1445 24.7181C68.2985 24.6293 68.4437 24.5456 68.5815 24.4722C73.1068 22.0579 76.8033 22.5457 80.5344 24.849C82.773 26.231 85.7991 29.9101 86.161 34.058C86.2901 35.5378 86.2534 36.2176 86.1938 37.3214C86.1833 37.5157 86.1721 37.7232 86.161 37.9505C85.8757 43.7767 80.1146 48.2507 79.0907 49.0186C78.2629 49.6395 73.5708 52.0954 69.1093 50.9929C71.413 52.0653 80.5523 52.784 88.8159 39.494C91.9161 34.508 87.7393 33.6378 87.4078 35.03C86.4266 34.3405 87.1426 31.9406 89.2906 31.9406C92.0219 31.9406 92.2739 34.3538 92.2739 34.9106C92.2739 36.5947 91.351 37.8217 90.7718 38.5917C90.6397 38.7674 90.5254 38.9194 90.4441 39.0475C91.5355 38.2643 92.3653 36.567 92.8265 35.6239C92.8416 35.593 92.8562 35.563 92.8705 35.5338C94.0154 33.1964 95.9219 33.5406 96.7568 33.6913C96.8502 33.7082 96.9301 33.7226 96.9941 33.7306C97.4449 36.1835 95.1511 37.3901 94.4484 37.5625C93.6091 37.7683 92.9249 38.3031 92.0219 39.0089C91.7417 39.2278 91.4405 39.4633 91.1071 39.7104C91.2068 39.6537 91.314 39.5921 91.4273 39.5269C92.6387 38.8301 94.5523 37.7294 95.6634 37.9505C98.0298 38.4215 98.4891 39.5958 98.4891 40.6389C98.4891 42.5923 96.1185 43.1422 95.0565 42.0802C96.1185 40.8665 94.7152 40.2786 94.1273 40.2786C93.3497 40.2786 91.2848 40.3953 88.1344 43.4457C84.5501 46.9162 80.3551 50.5196 76.5138 51.8092C76.5138 51.8092 79.0907 51.8092 84.5086 47.677C87.9355 45.0633 93.3145 43.3352 95.9441 43.3352C98.9769 43.3352 101.838 45.7889 102.154 46.0604L102.161 46.0666C102.26 46.1509 102.38 46.2554 102.519 46.376C103.996 47.6565 107.569 50.755 108.929 50.755C109.921 50.755 110.187 50.4367 110.8 49.706C110.817 49.6858 110.834 49.6653 110.852 49.6444C112.069 51.788 109.925 53.7241 107.892 53.7241C105.462 53.7241 103.542 51.1445 102.154 49.2786C101.819 48.8294 101.516 48.4216 101.243 48.101C101.136 47.9746 101.021 47.8207 100.892 47.648C100.13 46.6274 98.8818 44.9546 95.8136 44.4711C100.136 45.9872 101.882 49.9515 101.769 51.3822C101.652 52.8594 101.132 53.6312 99.8828 53.7591C98.2295 53.9283 97.5558 52.1738 97.6142 50.7256C97.6383 50.1278 97.7426 49.8789 97.8282 49.6747C97.919 49.4579 97.9887 49.2914 97.9192 48.8115C97.6373 46.8654 96.3298 45.2361 94.4701 45.1428C97.2394 45.8524 97.3637 48.3613 97.3637 49.057C97.3637 50.6354 95.7641 52.1978 93.9276 52.2735C92.4867 52.3329 89.9862 50.7256 90.1675 48.6254C90.4505 45.3488 94.7866 45.6938 93.9276 48.1537C93.6538 47.7274 93.3399 47.7473 93.1506 47.7594C93.1229 47.7611 93.0979 47.7627 93.0761 47.7627C92.383 47.7627 92.791 48.9188 93.3807 48.9188C94.3061 48.9188 94.6904 48.3743 94.7452 47.5983C94.8192 46.5491 93.5322 45.8811 92.0579 45.8811C90.4214 45.8811 83.7803 48.7971 83.6395 49.6106C83.7531 49.5697 84.1174 49.3876 84.6279 49.1325C86.2765 48.3085 89.4499 46.7225 90.6263 46.6704C90.1675 47.2304 90.0004 47.8783 89.8027 48.7459C87.6838 48.8826 86.6638 49.3914 85.3069 50.0683C84.948 50.2473 84.5655 50.4381 84.1329 50.6369L84.0719 50.6649C82.419 51.4247 77.3001 53.778 72.8247 53.4137C58.6095 52.2568 55.2794 40.1257 56.3143 32.7312C55.6989 34.3843 53.9161 39.494 53.6177 43.7466C53.5661 44.4821 54.0734 44.1671 54.2855 44.0353C54.3068 44.0221 54.3252 44.0107 54.3397 44.0024C56.2409 42.8141 56.7138 44.5513 56.8294 45.0548C57.1218 46.3279 55.2677 47.3521 53.9097 46.4694C54.0539 46.6629 54.2973 46.7899 54.5628 46.9283C55.089 47.2027 55.7019 47.5223 55.7996 48.4951C55.9361 49.8538 54.0908 51.2677 52.6535 49.0836C52.4796 48.8193 52.4626 49.1585 52.4796 49.2064C52.5121 49.2974 52.5952 49.4467 52.7 49.6351C52.9938 50.1631 53.4584 50.998 53.4584 51.7173C53.4584 52.9115 52.3378 53.7953 51.2241 53.7107C49.9656 53.615 49.3038 52.7514 49.3038 51.5913C49.3038 50.469 49.9354 49.8428 50.3415 49.4401C50.5202 49.263 50.6552 49.1292 50.6738 49.0153C49.4499 49.9845 49.1807 49.9808 48.8388 49.9761C48.8147 49.9758 48.7903 49.9755 48.7652 49.9755C47.8662 49.9755 47.3825 49.2731 47.2898 48.3479C47.1164 47.1039 48.5755 46.7114 49.674 46.4158C49.743 46.3973 49.8106 46.3791 49.8762 46.3611C47.6821 46.6494 47.2898 45.0548 47.2898 44.5073C47.2898 43.3742 48.3307 42.8212 49.0111 42.8212C50.1907 42.8212 50.4579 43.4842 50.6025 43.843C50.6287 43.908 50.6509 43.9631 50.6738 44.0024C50.8691 44.3378 51.6043 44.0024 51.7252 43.2945C51.8184 42.7486 54.888 32.3904 55.7379 31.5466C55.7379 31.5466 54.5124 30.3474 53.8744 29.4608C59.763 22.3728 66.9982 15.9529 76.8731 16.4673C86.549 17.2283 92.0558 22.4914 95.0565 25.9794C99.65 31.3188 100.582 32.4976 104.867 38.3649C103.817 36.4574 101.144 27.4232 101.057 26.9143C100.936 26.2065 100.201 25.8711 100.005 26.2065C99.9826 26.2458 99.9604 26.3008 99.9342 26.3659C99.7896 26.7246 99.5224 27.3877 98.3427 27.3877C97.6624 27.3877 96.6215 26.8347 96.6215 25.7016C96.6215 25.1541 97.0137 23.5595 99.2079 23.8477C99.1422 23.8298 99.0747 23.8116 99.0057 23.793C97.9072 23.4975 96.4481 23.105 96.6215 21.861C96.7142 20.9358 97.1979 20.2334 98.0968 20.2334C98.122 20.2334 98.1464 20.2331 98.1705 20.2327C98.5123 20.2281 98.7815 20.2244 100.005 21.1935C99.9869 21.0797 99.8518 20.9458 99.6732 20.7688C99.267 20.366 98.6355 19.7399 98.6355 18.6175C98.6355 17.4575 99.2972 16.5938 100.556 16.4982C101.669 16.4135 102.79 17.2973 102.79 18.4916C102.79 19.2108 102.325 20.0458 102.032 20.5738C101.927 20.7621 101.844 20.9114 101.811 21.0025C101.794 21.0503 101.811 21.3895 101.985 21.1253C103.422 18.9411 105.268 20.3551 105.131 21.7138C105.034 22.6866 104.421 23.0062 103.894 23.2806C103.629 23.419 103.386 23.5459 103.241 23.7395C104.599 22.8567 106.453 23.8809 106.161 25.1541C106.045 25.6575 105.573 27.3948 103.671 26.2065C103.657 26.1982 103.639 26.1868 103.617 26.1735C103.405 26.0418 102.898 25.7268 102.949 26.4622C103.248 30.7149 105.031 35.8246 105.646 37.4776C104.611 30.0831 107.941 17.952 122.156 16.7951C126.632 16.4309 131.751 18.7841 133.404 19.544L133.465 19.572C133.897 19.7708 134.28 19.9616 134.639 20.1406C135.995 20.8175 137.015 21.3263 139.134 21.463C139.332 22.3306 139.499 22.9785 139.958 23.5385C138.782 23.4864 135.608 21.9004 133.96 21.0764C133.449 20.8213 133.085 20.6392 132.971 20.5983C133.112 21.4118 139.753 24.3277 141.39 24.3277C142.864 24.3277 144.151 23.6598 144.077 22.6106C144.022 21.8345 143.638 21.2901 142.712 21.2901C142.123 21.2901 141.715 22.4461 142.408 22.4461C142.43 22.4461 142.455 22.4477 142.482 22.4495C142.672 22.4615 142.985 22.4815 143.259 22.0552C144.118 24.5151 139.782 24.8601 139.499 21.5835C139.318 19.4833 141.818 17.8759 143.259 17.9354C145.096 18.0111 146.695 19.5735 146.695 21.1519C146.695 21.8476 146.571 24.3565 143.802 25.0661C145.661 24.9727 146.969 23.3435 147.251 21.3974C147.32 20.9175 147.251 20.751 147.16 20.5342C147.074 20.33 146.97 20.081 146.946 19.4833C146.887 18.0351 147.561 16.2805 149.214 16.4498C150.464 16.5777 150.984 17.3495 151.1 18.8267C151.213 20.2574 149.468 24.2217 145.145 25.7378C148.213 25.2543 149.462 23.5814 150.224 22.5609C150.353 22.3882 150.468 22.2343 150.575 22.1079C150.847 21.7873 151.151 21.3795 151.485 20.9303C152.874 19.0644 154.794 16.4848 157.224 16.4848C159.257 16.4848 161.4 18.4209 160.183 20.5644L160.132 20.5028C159.519 19.7721 159.252 19.4539 158.261 19.4539C156.901 19.4539 153.327 22.5525 151.851 23.8329C151.712 23.9535 151.591 24.058 151.493 24.1422L151.486 24.1485C151.169 24.42 148.309 26.8737 145.276 26.8737C142.646 26.8737 137.267 25.1456 133.84 22.5319C128.422 18.3997 125.846 18.3997 125.846 18.3997C129.687 19.6893 133.882 23.2927 137.466 26.7632C140.616 29.8136 142.681 29.9303 143.459 29.9303C144.047 29.9303 145.45 29.3424 144.388 28.1286C145.45 27.0666 147.821 27.6166 147.821 29.57C147.821 30.613 147.361 31.7874 144.995 32.2584C143.884 32.4795 141.97 31.3788 140.759 30.6819C140.646 30.6168 140.539 30.5551 140.439 30.4984C140.772 30.7456 141.073 30.9811 141.354 31.2C142.257 31.9058 142.941 32.4406 143.78 32.6464C144.483 32.8188 146.777 34.0254 146.326 36.4783C146.262 36.4863 146.182 36.5007 146.088 36.5176C145.254 36.6683 143.347 37.0125 142.202 34.6751C142.188 34.6459 142.173 34.6159 142.158 34.585C141.697 33.6419 140.867 31.9446 139.776 31.1614C139.857 31.2895 139.971 31.4414 140.104 31.6172C140.683 32.3871 141.606 33.6142 141.606 35.2982C141.606 35.8551 141.354 38.2683 138.622 38.2683C136.474 38.2683 135.758 35.8684 136.739 35.1789C137.071 36.5711 141.248 35.7009 138.148 30.7149C129.884 17.4249 120.745 18.1435 118.441 19.216C122.903 18.1134 127.595 20.5694 128.422 21.1903C129.446 21.9582 135.207 26.4322 135.493 32.2584C135.504 32.4857 135.515 32.6932 135.525 32.8875C135.585 33.9913 135.622 34.6711 135.493 36.1508C135.131 40.2988 132.105 43.9779 129.866 45.3598C126.135 47.6631 122.438 48.151 117.913 45.7367C117.775 45.6632 117.63 45.5795 117.476 45.4907C116.75 45.0722 115.827 44.54 114.557 44.4266C114.406 44.4266 114.019 44.5377 114.019 45.1804C113.719 45.1804 112.852 44.4266 112.852 43.4395C112.82 42.9011 113.521 41.2626 115.119 41.2626C115.607 41.2626 116.453 41.4343 118.093 42.9011C118.113 42.9161 118.152 42.9522 118.21 43.0052C118.837 43.5785 121.634 46.1375 125.778 45.6061C123.418 45.7075 117.121 43.4594 117.722 38.7317C117.73 38.7317 117.748 38.7285 117.777 38.7235C118.191 38.651 120.679 38.2158 122.717 42.2209C122.903 42.5865 125.18 45.6207 128.682 43.9779C126.516 44.4766 123.393 43.9779 122.903 40.6398C122.728 39.4515 123.858 37.7159 125.605 37.7861C127.165 37.7083 128.223 39.5081 128.107 40.2988C127.851 42.0557 126.659 41.759 126.659 41.759C126.851 41.4294 126.564 40.8551 126.205 40.8551C125.605 40.8551 125.605 41.3512 125.605 41.5688V41.573C125.605 42.3986 127.281 42.9011 127.964 42.9011C130.351 42.9011 133.509 40.227 133.951 36.0358C133.491 37.499 131.768 42.9011 127.316 42.0557C128.3 41.3931 128.34 40.8867 128.37 40.4967C128.381 40.3596 128.39 40.2369 128.44 40.1268C135.532 39.5379 135.181 26.9051 127.223 22.062C128.408 22.8525 131.035 27.2106 129.884 30.7149C128.77 34.1075 125.146 37.3445 120.3 37.1221C118.683 37.0478 117.17 36.6396 115.203 36.0273C114.06 35.6716 111.596 36.0273 112.569 38.4858C110.497 38.6867 109.642 36.3561 109.642 35.4595C109.642 34.8194 110.537 30.8419 116.33 33.5556C121.753 36.0957 124.039 34.86 125.235 34.213C125.371 34.1394 125.494 34.0733 125.605 34.0214C118.893 36.4005 112.075 30.1064 113.239 25.7282C116.193 25.2832 118.218 28.1994 118.441 28.5706C121.498 33.6571 125.072 32.8282 126.043 32.2584C122.394 33.0275 119.223 29.7639 119.495 27.1112C119.811 24.0348 122.355 23.384 123.124 23.384C126.122 23.384 127.167 26.6379 125.846 27.4465C124.741 25.6913 122.78 27.2567 123.124 28.5706C124.039 32.0644 128.033 31.0692 128.255 27.846C128.255 22.1022 122.78 20.4076 118.939 20.7349C110.605 21.445 107.424 31.5578 108.219 36.7089C109.806 46.9883 118.133 50.7111 125.977 51.0623C136.436 51.0623 144.453 40.3095 151.226 31.2245C151.572 30.7596 151.915 30.2991 152.256 29.8447C152.507 30.0337 152.743 30.1916 152.968 30.3423C153.479 30.6842 153.936 30.9896 154.388 31.54C149.921 37.6598 149.056 38.8034 144.388 44.2295C141.387 47.7174 135.881 52.9806 126.205 53.7416C116.331 54.256 109.096 47.8372 103.208 40.75C103.207 40.7507 103.206 40.7514 103.205 40.7521C102.86 40.292 102.512 39.8248 102.16 39.3522C95.3647 30.2364 87.0981 19.1466 76.6449 19.1466Z" fill="#DCC67A"/>
<path fill-rule="evenodd" clip-rule="evenodd" d="M-21.9676 19.1466C-29.8112 19.4978 -38.1378 23.2206 -39.725 33.5C-40.5203 38.651 -37.3388 48.7638 -29.0054 49.474C-25.1641 49.8013 -19.6888 48.1067 -19.6888 42.3629C-19.9111 39.1397 -23.9055 38.1445 -24.8201 41.6383C-25.1641 42.9521 -23.203 44.5175 -22.0987 42.7624C-20.7774 43.5709 -21.8226 46.8249 -24.8201 46.8249C-25.5892 46.8249 -28.1332 46.1741 -28.4488 43.0976C-28.7208 40.445 -25.5498 37.1814 -21.9015 37.9505C-22.8721 37.3806 -26.4467 36.5517 -29.5032 41.6383C-29.7262 42.0095 -31.7511 44.9257 -34.7054 44.4807C-35.8696 40.1025 -29.0513 33.8084 -22.3395 36.1875C-22.4506 36.1356 -22.5727 36.0695 -22.709 35.9958C-23.9057 35.3489 -26.1914 34.1131 -31.6143 36.6533C-37.4076 39.367 -38.3018 35.3895 -38.3018 34.7493C-38.3018 33.8528 -37.4469 31.5222 -35.3756 31.7231C-36.3484 34.1816 -33.8839 34.5373 -32.741 34.1816C-30.7738 33.5692 -29.2616 33.161 -27.644 33.0868C-22.7986 32.8644 -19.1747 36.1014 -18.0602 39.494C-16.909 42.9982 -19.5367 47.3564 -20.7216 48.1469C-12.7627 43.3038 -12.4124 30.671 -19.5046 30.082C-19.5537 29.972 -19.5633 29.8493 -19.5741 29.7122C-19.6046 29.3221 -19.6443 28.8157 -20.628 28.1531C-16.1757 27.3078 -14.4528 32.7099 -13.9934 34.1731C-14.4348 29.9819 -17.5935 27.3078 -19.9805 27.3078C-20.6634 27.3078 -22.3395 27.8103 -22.3395 28.6359V28.64C-22.3395 28.8577 -22.3396 29.3538 -21.7394 29.3538C-21.3804 29.3538 -21.0933 28.7794 -21.2851 28.4499C-21.2851 28.4499 -20.0932 28.1531 -19.8369 29.9101C-19.7216 30.7008 -20.7795 32.5006 -22.3395 32.4227C-24.0858 32.4929 -25.2163 30.7573 -25.0417 29.5691C-24.5511 26.2309 -21.4285 25.7323 -19.2626 26.231C-22.7645 24.5882 -25.0416 27.6224 -25.2276 27.988C-27.2649 31.9931 -29.7532 31.5579 -30.1675 31.4854C-30.1959 31.4804 -30.2146 31.4771 -30.2227 31.4771C-30.8233 26.7495 -24.5265 24.5014 -22.1663 24.6028C-26.3105 24.0714 -29.1074 26.6304 -29.734 27.2037C-29.792 27.2567 -29.8314 27.2928 -29.8515 27.3078C-31.4916 28.7746 -32.3368 28.9462 -32.8254 28.9462C-34.4233 28.9462 -35.1237 27.3078 -35.0921 26.7694C-35.0921 25.7823 -34.2252 25.0285 -33.9256 25.0285C-33.9256 25.6712 -33.5385 25.7823 -33.3871 25.7823C-32.1175 25.6688 -31.1942 25.1367 -30.468 24.7181C-30.314 24.6293 -30.1688 24.5456 -30.031 24.4722C-25.5057 22.0579 -21.8092 22.5457 -18.0781 24.849C-15.8395 26.231 -12.8134 29.9101 -12.4515 34.058C-12.3224 35.5378 -12.3591 36.2176 -12.4187 37.3214C-12.4292 37.5157 -12.4404 37.7232 -12.4515 37.9505C-12.7368 43.7767 -18.4979 48.2507 -19.5218 49.0186C-20.3496 49.6395 -25.0416 52.0954 -29.5032 50.9929C-27.1995 52.0653 -18.0602 52.784 -9.79658 39.494C-6.69636 34.508 -10.8732 33.6378 -11.2047 35.03C-12.1859 34.3405 -11.4699 31.9406 -9.32191 31.9406C-6.59054 31.9406 -6.33862 34.3538 -6.33862 34.9106C-6.33862 36.5947 -7.26151 37.8217 -7.84064 38.5917C-7.97281 38.7674 -8.08707 38.9194 -8.16837 39.0475C-7.07703 38.2643 -6.24714 36.567 -5.78601 35.6239C-5.77093 35.593 -5.75625 35.563 -5.74196 35.5338C-4.59708 33.1964 -2.69061 33.5406 -1.85567 33.6913C-1.76233 33.7082 -1.68238 33.7226 -1.61839 33.7306C-1.16758 36.1835 -3.4614 37.3901 -4.16413 37.5625C-5.00339 37.7683 -5.6876 38.3031 -6.59061 39.0089C-6.87076 39.2278 -7.17198 39.4633 -7.50542 39.7104C-7.40564 39.6537 -7.2985 39.5921 -7.18522 39.5269C-5.97375 38.8301 -4.06023 37.7294 -2.94909 37.9505C-0.582661 38.4215 -0.123352 39.5958 -0.123352 40.6389C-0.123352 42.5923 -2.49394 43.1422 -3.55596 42.0802C-2.49394 40.8665 -3.89732 40.2786 -4.48523 40.2786C-5.26278 40.2786 -7.32768 40.3953 -10.4781 43.4457C-14.0624 46.9162 -18.2574 50.5196 -22.0987 51.8092C-22.0987 51.8092 -19.5218 51.8092 -14.1039 47.677C-10.677 45.0633 -5.29794 43.3352 -2.66839 43.3352C0.364426 43.3352 3.22506 45.7889 3.54158 46.0604L3.54883 46.0666C3.64712 46.1509 3.76763 46.2554 3.90675 46.376C5.3833 47.6565 8.95646 50.755 10.3164 50.755C11.3081 50.755 11.5749 50.4367 12.1875 49.706C12.2044 49.6858 12.2216 49.6653 12.2391 49.6444C13.4561 51.788 11.3125 53.7241 9.27964 53.7241C6.84983 53.7241 4.92992 51.1445 3.54116 49.2786C3.20683 48.8294 2.90327 48.4216 2.6308 48.101C2.52336 47.9746 2.40844 47.8207 2.27958 47.648C1.51785 46.6274 0.269283 44.9546 -2.79891 44.4711C1.52386 45.9872 3.2691 49.9515 3.15631 51.3822C3.03986 52.8594 2.51984 53.6312 1.27029 53.7591C-0.383011 53.9283 -1.05666 52.1738 -0.998264 50.7256C-0.974159 50.1278 -0.869884 49.8789 -0.784317 49.6747C-0.693501 49.4579 -0.623756 49.2914 -0.693279 48.8115C-0.975227 46.8654 -2.28274 45.2361 -4.14237 45.1428C-1.37308 45.8524 -1.24875 48.3613 -1.24875 49.057C-1.24875 50.6354 -2.84838 52.1978 -4.68493 52.2735C-6.12576 52.3329 -8.62633 50.7256 -8.44495 48.6254C-8.16197 45.3488 -3.82584 45.6938 -4.68493 48.1537C-4.95874 47.7274 -5.27264 47.7473 -5.46186 47.7594C-5.48955 47.7611 -5.51456 47.7627 -5.53639 47.7627C-6.22949 47.7627 -5.82148 48.9188 -5.2318 48.9188C-4.30643 48.9188 -3.92207 48.3743 -3.86731 47.5983C-3.79326 46.5491 -5.08025 45.8811 -6.55458 45.8811C-8.19109 45.8811 -14.8322 48.7971 -14.973 49.6106C-14.8594 49.5697 -14.4951 49.3876 -13.9846 49.1325C-12.3359 48.3085 -9.16259 46.7225 -7.98616 46.6704C-8.44495 47.2304 -8.6121 47.8783 -8.80977 48.7459C-10.9287 48.8826 -11.9487 49.3914 -13.3055 50.0683C-13.6645 50.2473 -14.047 50.4381 -14.4796 50.6369L-14.5406 50.6649C-16.1934 51.4247 -21.3124 53.778 -25.7877 53.4137C-40.003 52.2568 -43.3331 40.1257 -42.2981 32.7312C-42.9136 34.3843 -44.6963 39.494 -44.9948 43.7466C-45.0464 44.4821 -44.5391 44.1671 -44.327 44.0353C-44.3056 44.0221 -44.2873 44.0107 -44.2728 44.0024C-42.3715 42.8141 -41.8987 44.5513 -41.7831 45.0548C-41.4907 46.3279 -43.3448 47.3521 -44.7028 46.4694C-44.5586 46.6629 -44.3152 46.7899 -44.0497 46.9283C-43.5234 47.2027 -42.9106 47.5223 -42.8129 48.4951C-42.6764 49.8538 -44.5217 51.2677 -45.959 49.0836C-46.1329 48.8193 -46.1499 49.1585 -46.1329 49.2064C-46.1004 49.2974 -46.0173 49.4467 -45.9125 49.6351C-45.6187 50.1631 -45.154 50.998 -45.154 51.7173C-45.154 52.9115 -46.2747 53.7953 -47.3884 53.7107C-48.6469 53.615 -49.3087 52.7514 -49.3087 51.5913C-49.3087 50.469 -48.6771 49.8428 -48.2709 49.4401C-48.0923 49.263 -47.9573 49.1292 -47.9387 49.0153C-49.1626 49.9845 -49.4318 49.9808 -49.7737 49.9761C-49.7977 49.9758 -49.8222 49.9755 -49.8473 49.9755C-50.7463 49.9755 -51.23 49.2731 -51.3227 48.3479C-51.4961 47.1039 -50.037 46.7114 -48.9385 46.4158C-48.8695 46.3973 -48.8019 46.3791 -48.7363 46.3611C-50.9304 46.6494 -51.3227 45.0548 -51.3227 44.5073C-51.3227 43.3742 -50.2818 42.8212 -49.6014 42.8212C-48.4218 42.8212 -48.1546 43.4842 -48.01 43.843C-47.9838 43.908 -47.9616 43.9631 -47.9387 44.0024C-47.7434 44.3378 -47.0081 44.0024 -46.8873 43.2945C-46.7941 42.7486 -43.7245 32.3904 -42.8745 31.5466C-42.8745 31.5466 -44.1001 30.3474 -44.7381 29.4608C-38.8495 22.3728 -31.6143 15.9529 -21.7394 16.4673C-12.0634 17.2283 -6.55669 22.4914 -3.55596 25.9794C1.03755 31.3188 1.96923 32.4976 6.25498 38.3649C5.20412 36.4574 2.53121 27.4232 2.44435 26.9143C2.32353 26.2065 1.58831 25.8711 1.39295 26.2065C1.37008 26.2458 1.3479 26.3008 1.32167 26.3659C1.17712 26.7246 0.909912 27.3877 -0.269741 27.3877C-0.950115 27.3877 -1.99098 26.8347 -1.99098 25.7016C-1.99099 25.1541 -1.59875 23.5595 0.59539 23.8477C0.529739 23.8298 0.462173 23.8116 0.393185 23.793C-0.70533 23.4975 -2.16443 23.105 -1.99098 21.861C-1.8983 20.9358 -1.4146 20.2334 -0.515644 20.2334C-0.490498 20.2334 -0.466068 20.2331 -0.441998 20.2327C-0.100166 20.2281 0.169044 20.2244 1.39295 21.1935C1.37436 21.0797 1.23934 20.9458 1.06073 20.7688C0.654556 20.366 0.0229874 19.7399 0.0229874 18.6175C0.0229874 17.4575 0.684761 16.5938 1.94329 16.4982C3.05695 16.4135 4.17763 17.2973 4.17763 18.4916C4.17763 19.2108 3.713 20.0458 3.4192 20.5738C3.31437 20.7621 3.23129 20.9114 3.19882 21.0025C3.18174 21.0503 3.19882 21.3895 3.37271 21.1253C4.80995 18.9411 6.65525 20.3551 6.51878 21.7138C6.42105 22.6866 5.80823 23.0062 5.28197 23.2806C5.0165 23.419 4.77306 23.5459 4.62886 23.7395C5.98687 22.8567 7.84098 23.8809 7.5486 25.1541C7.43296 25.6575 6.96013 27.3948 5.05891 26.2065C5.0444 26.1982 5.02602 26.1868 5.00465 26.1735C4.79256 26.0418 4.28531 25.7268 4.33691 26.4622C4.63533 30.7149 6.41806 35.8246 7.03353 37.4776C5.99861 30.0831 9.32868 17.952 23.5439 16.7951C28.0192 16.4309 33.1382 18.7841 34.7911 19.544L34.852 19.572C35.2847 19.7708 35.6672 19.9616 36.0261 20.1406C37.383 20.8175 38.403 21.3263 40.5219 21.463C40.7196 22.3306 40.8867 22.9785 41.3455 23.5385C40.1691 23.4864 36.9957 21.9004 35.347 21.0764C34.8366 20.8213 34.4722 20.6392 34.3586 20.5983C34.4994 21.4118 41.1406 24.3277 42.7771 24.3277C44.2514 24.3277 45.5384 23.6598 45.4644 22.6106C45.4096 21.8345 45.0253 21.2901 44.0999 21.2901C43.5102 21.2901 43.1022 22.4461 43.7953 22.4461C43.8171 22.4461 43.8421 22.4477 43.8698 22.4495C44.059 22.4615 44.3729 22.4815 44.6467 22.0552C45.5058 24.5151 41.1697 24.8601 40.8867 21.5835C40.7053 19.4833 43.2059 17.8759 44.6467 17.9354C46.4833 18.0111 48.0829 19.5735 48.0829 21.1519C48.0829 21.8476 47.9586 24.3565 45.1893 25.0661C47.0489 24.9727 48.3564 23.3435 48.6384 21.3974C48.7079 20.9175 48.6382 20.751 48.5474 20.5342C48.4618 20.33 48.3575 20.081 48.3334 19.4833C48.275 18.0351 48.9487 16.2805 50.602 16.4498C51.8515 16.5777 52.3715 17.3495 52.488 18.8267C52.6008 20.2574 50.8555 24.2217 46.5328 25.7378C49.6009 25.2543 50.8495 23.5814 51.6112 22.5609C51.7401 22.3882 51.855 22.2343 51.9625 22.1079C52.2349 21.7873 52.5385 21.3795 52.8728 20.9303C54.2616 19.0644 56.1815 16.4848 58.6113 16.4848C60.6442 16.4848 62.7878 18.4209 61.5708 20.5644L61.5191 20.5028C60.9066 19.7721 60.6398 19.4539 59.648 19.4539C58.2881 19.4539 54.7149 22.5525 53.2384 23.8329C53.0993 23.9535 52.9788 24.058 52.8805 24.1422L52.8732 24.1485C52.5567 24.42 49.6961 26.8737 46.6633 26.8737C44.0337 26.8737 38.6547 25.1456 35.2278 22.5319C29.8099 18.3997 27.233 18.3997 27.233 18.3997C31.0743 19.6893 35.2693 23.2927 38.8536 26.7632C42.004 29.8136 44.0689 29.9303 44.8464 29.9303C45.4343 29.9303 46.8377 29.3424 45.7757 28.1286C46.8377 27.0666 49.2083 27.6166 49.2083 29.57C49.2083 30.613 48.749 31.7874 46.3826 32.2584C45.2714 32.4795 43.3579 31.3788 42.1465 30.6819C42.0332 30.6168 41.926 30.5551 41.8263 30.4984C42.1597 30.7456 42.4609 30.9811 42.7411 31.2C43.6441 31.9058 44.3283 32.4406 45.1675 32.6464C45.8703 32.8188 48.1641 34.0254 47.7133 36.4783C47.6493 36.4863 47.5693 36.5007 47.476 36.5176C46.6411 36.6683 44.7346 37.0125 43.5897 34.6751C43.5754 34.6459 43.5607 34.6159 43.5457 34.585C43.0845 33.6419 42.2546 31.9446 41.1633 31.1614C41.2446 31.2895 41.3589 31.4414 41.491 31.6172C42.0702 32.3871 42.9931 33.6142 42.9931 35.2982C42.9931 35.8551 42.7411 38.2683 40.0098 38.2683C37.8618 38.2683 37.1458 35.8684 38.127 35.1789C38.4585 36.5711 42.6353 35.7009 39.5351 30.7149C31.2715 17.4249 22.1322 18.1435 19.8285 19.216C24.29 18.1134 28.9821 20.5694 29.8099 21.1903C30.8338 21.9582 36.5949 26.4322 36.8802 32.2584C36.8913 32.4857 36.9025 32.6932 36.913 32.8875C36.9726 33.9913 37.0093 34.6711 36.8802 36.1508C36.5183 40.2988 33.4922 43.9779 31.2536 45.3598C27.5224 47.6631 23.826 48.151 19.3007 45.7367C19.1629 45.6632 19.0177 45.5795 18.8637 45.4907C18.1374 45.0722 17.2142 44.54 15.9445 44.4266C15.7931 44.4266 15.4061 44.5377 15.4061 45.1804C15.1064 45.1804 14.2395 44.4266 14.2395 43.4395C14.208 42.9011 14.9083 41.2626 16.5063 41.2626C16.9949 41.2626 17.8401 41.4343 19.4801 42.9011C19.5003 42.9161 19.5397 42.9522 19.5977 43.0052C20.2243 43.5785 23.0211 46.1375 27.1653 45.6061C24.8051 45.7075 18.5083 43.4594 19.109 38.7317C19.1171 38.7317 19.1358 38.7285 19.1642 38.7235C19.5785 38.651 22.0667 38.2158 24.1041 42.2209C24.29 42.5865 26.5672 45.6207 30.069 43.9779C27.9031 44.4766 24.7805 43.9779 24.29 40.6398C24.1154 39.4515 25.2459 37.7159 26.9922 37.7861C28.5522 37.7083 29.6101 39.5081 29.4947 40.2988C29.2384 42.0557 28.0465 41.759 28.0465 41.759C28.2384 41.4294 27.9513 40.8551 27.5923 40.8551C26.9921 40.8551 26.9921 41.3512 26.9922 41.5688V41.573C26.9922 42.3986 28.6682 42.9011 29.3512 42.9011C31.7381 42.9011 34.8969 40.227 35.3383 36.0358C34.8789 37.499 33.156 42.9011 28.7036 42.0557C29.6874 41.3931 29.7271 40.8867 29.7576 40.4967C29.7684 40.3596 29.778 40.2369 29.8271 40.1268C36.9193 39.5379 36.5689 26.9051 28.6101 22.062C29.795 22.8525 32.4227 27.2106 31.2715 30.7149C30.157 34.1075 26.5331 37.3445 21.6877 37.1221C20.0701 37.0478 18.5579 36.6396 16.5906 36.0273C15.4478 35.6716 12.9832 36.0273 13.956 38.4858C11.8848 38.6867 11.0299 36.3561 11.0299 35.4595C11.0299 34.8194 11.9241 30.8419 17.7174 33.5556C23.1402 36.0957 25.426 34.86 26.6226 34.213C26.7589 34.1394 26.8811 34.0733 26.9922 34.0214C20.2803 36.4005 13.4621 30.1064 14.6262 25.7282C17.5806 25.2832 19.6054 28.1994 19.8285 28.5706C22.885 33.6571 26.4596 32.8282 27.4302 32.2584C23.7819 33.0275 20.6109 29.7639 20.8829 27.1112C21.1985 24.0348 23.7424 23.384 24.5115 23.384C27.5091 23.384 28.5543 26.6379 27.233 27.4465C26.1286 25.6913 24.1676 27.2567 24.5115 28.5706C25.4261 32.0644 29.4205 31.0692 29.6429 27.846C29.6429 22.1022 24.1675 20.4076 20.3263 20.7349C11.9929 21.445 8.81133 31.5578 9.6067 36.7089C11.1939 46.9883 19.5204 50.7111 27.3641 51.0623C37.7867 51.0623 46.0021 40.0355 52.7825 30.9347C53.1549 30.4348 53.523 29.9407 53.8869 29.4546C54.5088 29.9231 54.899 30.4243 55.3356 30.985C55.4747 31.1637 55.6185 31.3484 55.776 31.54C51.308 37.6598 50.4438 38.8034 45.7757 44.2295C42.775 47.7174 37.2682 52.9806 27.5923 53.7416C17.7183 54.256 10.4835 47.8372 4.5952 40.75C4.59426 40.7507 4.59332 40.7514 4.59238 40.7521C4.24794 40.292 3.89965 39.8248 3.54741 39.3522C-3.2478 30.2364 -11.5144 19.1466 -21.9676 19.1466Z" fill="#DCC67A"/>
<path fill-rule="evenodd" clip-rule="evenodd" d="M224.624 51.0622C216.78 50.711 208.453 46.9882 206.866 36.7088C206.071 31.5578 209.252 21.445 217.586 20.7348C221.427 20.4075 226.902 22.1021 226.902 27.8459C226.68 31.0691 222.686 32.0643 221.771 28.5705C221.427 27.2567 223.388 25.6913 224.492 27.4464C225.814 26.6379 224.769 23.3839 221.771 23.3839C221.002 23.3839 218.458 24.0347 218.142 27.1112C217.87 29.7638 221.041 33.0274 224.69 32.2583C223.719 32.8282 220.144 33.6571 217.088 28.5705C216.865 28.1993 214.84 25.2831 211.886 25.7281C210.721 30.1063 217.54 36.4004 224.252 34.0213C224.14 34.0732 224.018 34.1393 223.882 34.213C222.685 34.8599 220.4 36.0957 214.977 33.5555C209.183 30.8418 208.289 34.8193 208.289 35.4595C208.289 36.356 209.144 38.6866 211.215 38.4857C210.243 36.0272 212.707 35.6715 213.85 36.0272C215.817 36.6396 217.329 37.0478 218.947 37.122C223.793 37.3444 227.416 34.1074 228.531 30.7148C229.682 27.2106 227.054 22.8524 225.869 22.0619C233.828 26.905 234.179 39.5378 227.086 40.1268C227.037 40.2368 227.028 40.3595 227.017 40.4966C226.986 40.8867 226.947 41.3931 225.963 42.0557C230.415 42.901 232.138 37.4989 232.598 36.0357C232.156 40.2269 228.998 42.901 226.611 42.901C225.928 42.901 224.252 42.3985 224.252 41.5729V41.5688C224.252 41.3511 224.251 40.855 224.852 40.855C225.211 40.855 225.498 41.4294 225.306 41.7589C225.306 41.7589 226.498 42.0557 226.754 40.2987C226.869 39.508 225.812 37.7082 224.252 37.7861C222.505 37.7159 221.375 39.4515 221.549 40.6397C222.04 43.9779 225.163 44.4765 227.328 43.9778C223.827 45.6206 221.549 42.5864 221.363 42.2208C219.326 38.2157 216.838 38.6509 216.424 38.7234C216.395 38.7284 216.376 38.7317 216.368 38.7317C215.768 43.4593 222.065 45.7074 224.425 45.606C220.281 46.1374 217.484 43.5785 216.857 43.0051C216.799 42.9521 216.76 42.916 216.74 42.901C215.099 41.4342 214.254 41.2626 213.766 41.2626C212.168 41.2626 211.467 42.901 211.499 43.4394C211.499 44.4265 212.366 45.1803 212.666 45.1803C212.666 44.5376 213.053 44.4265 213.204 44.4265C214.474 44.54 215.397 45.0721 216.123 45.4907C216.277 45.5795 216.422 45.6632 216.56 45.7367C221.085 48.1509 224.782 47.6631 228.513 45.3598C230.752 43.9778 233.778 40.2987 234.14 36.1508C234.269 34.671 234.232 33.9912 234.172 32.8874C234.162 32.6931 234.151 32.4856 234.14 32.2583C233.854 26.4321 228.093 21.9581 227.069 21.1902C226.242 20.5693 221.549 18.1134 217.088 19.2159C219.392 18.1435 228.531 17.4249 236.794 30.7148C239.895 35.7008 235.718 36.571 235.386 35.1788C234.405 35.8683 235.121 38.2682 237.269 38.2682C240.001 38.2682 240.252 35.855 240.252 35.2982C240.252 33.6141 239.33 32.3871 238.75 31.6171C238.618 31.4414 238.504 31.2894 238.423 31.1613C239.514 31.9445 240.344 33.6419 240.805 34.585C240.82 34.6158 240.835 34.6458 240.849 34.675C241.994 37.0124 243.9 36.6682 244.735 36.5175C244.829 36.5007 244.909 36.4862 244.973 36.4782C245.423 34.0253 243.13 32.8187 242.427 32.6463C241.588 32.4405 240.903 31.9057 240 31.1999C239.72 30.981 239.419 30.7456 239.086 30.4984C239.185 30.5551 239.293 30.6167 239.406 30.6819C240.617 31.3787 242.531 32.4794 243.642 32.2583C246.008 31.7873 246.468 30.613 246.468 29.5699C246.468 27.6165 244.097 27.0666 243.035 28.1286C244.097 29.3423 242.694 29.9302 242.106 29.9302C241.328 29.9302 239.263 29.8135 236.113 26.7631C232.529 23.2926 228.334 19.6892 224.492 18.3996C224.492 18.3996 227.069 18.3996 232.487 22.5318C235.914 25.1455 241.293 26.8736 243.923 26.8736C246.955 26.8736 249.816 24.4199 250.133 24.1484L250.14 24.1422C250.238 24.0579 250.359 23.9534 250.498 23.8328C251.974 22.5524 255.548 19.4538 256.907 19.4538C257.899 19.4538 258.166 19.7721 258.779 20.5028L258.83 20.5644C260.047 18.4208 257.904 16.4847 255.871 16.4847C253.441 16.4847 251.521 19.0643 250.132 20.9302C249.798 21.3794 249.494 21.7872 249.222 22.1078C249.114 22.2342 249 22.3882 248.871 22.5608C248.109 23.5814 246.86 25.2542 243.792 25.7377C248.115 24.2216 249.86 20.2573 249.747 18.8266C249.631 17.3494 249.111 16.5776 247.861 16.4497C246.208 16.2805 245.534 18.035 245.593 19.4832C245.617 20.081 245.721 20.3299 245.807 20.5341C245.898 20.7509 245.967 20.9174 245.898 21.3973C245.616 23.3434 244.308 24.9727 242.449 25.066C245.218 24.3564 245.342 21.8475 245.342 21.1519C245.342 19.5734 243.743 18.011 241.906 17.9353C240.465 17.8759 237.965 19.4832 238.146 21.5834C238.429 24.86 242.765 24.515 241.906 22.0551C241.632 22.4814 241.318 22.4615 241.129 22.4494C241.102 22.4477 241.077 22.4461 241.055 22.4461C240.362 22.4461 240.77 21.29 241.359 21.29C242.285 21.29 242.669 21.8345 242.724 22.6105C242.798 23.6597 241.511 24.3277 240.036 24.3277C238.4 24.3277 231.759 21.4117 231.618 20.5982C231.732 20.6391 232.096 20.8212 232.606 21.0763C234.255 21.9003 237.428 23.4863 238.605 23.5384C238.146 22.9784 237.979 22.3305 237.781 21.4629C235.662 21.3262 234.642 20.8174 233.286 20.1405C232.927 19.9615 232.544 19.7707 232.111 19.5719L232.05 19.5439C230.398 18.7841 225.279 16.4308 220.803 16.7951C206.588 17.952 203.258 30.0831 204.293 37.4776C203.677 35.8245 201.895 30.7148 201.596 26.4622C201.545 25.7267 202.052 26.0417 202.264 26.1735C202.285 26.1867 202.304 26.1981 202.318 26.2064C204.22 27.3947 204.692 25.6575 204.808 25.154C205.1 23.8809 203.246 22.8567 201.888 23.7394C202.032 23.5459 202.276 23.4189 202.541 23.2805C203.068 23.0061 203.68 22.6865 203.778 21.7137C203.915 20.3551 202.069 18.9411 200.632 21.1252C200.458 21.3895 200.441 21.0503 200.458 21.0024C200.491 20.9114 200.574 20.7621 200.679 20.5737C200.972 20.0457 201.437 19.2108 201.437 18.4915C201.437 17.2973 200.316 16.4135 199.203 16.4981C197.944 16.5938 197.282 17.4574 197.282 18.6175C197.282 19.7398 197.914 20.366 198.32 20.7687C198.499 20.9458 198.634 21.0796 198.652 21.1935C197.428 20.2243 197.159 20.228 196.817 20.2327C196.793 20.233 196.769 20.2333 196.744 20.2333C195.845 20.2333 195.361 20.9357 195.268 21.8609C195.095 23.1049 196.554 23.4974 197.653 23.793C197.722 23.8115 197.789 23.8297 197.855 23.8477C195.661 23.5594 195.268 25.154 195.268 25.7015C195.268 26.8346 196.309 27.3876 196.99 27.3876C198.169 27.3876 198.437 26.7246 198.581 26.3658C198.607 26.3008 198.629 26.2457 198.652 26.2064C198.848 25.871 199.583 26.2064 199.704 26.9143C199.791 27.4231 202.464 36.4573 203.514 38.3648C199.229 32.4975 198.297 31.3187 193.703 25.9793C190.703 22.4914 185.196 17.2282 175.52 16.4672C165.645 15.9528 158.153 22.7596 152.265 29.8476C152.903 30.7342 154.385 31.5466 154.385 31.5466C153.535 32.3903 150.465 42.7485 150.372 43.2945C150.251 44.0023 149.516 44.3378 149.321 44.0023C149.298 43.963 149.276 43.908 149.249 43.8429C149.105 43.4842 148.838 42.8211 147.658 42.8211C146.978 42.8211 145.937 43.3741 145.937 44.5072C145.937 45.0548 146.329 46.6493 148.523 46.3611C148.457 46.379 148.39 46.3972 148.321 46.4158C147.222 46.7113 145.763 47.1038 145.937 48.3478C146.029 49.273 146.513 49.9754 147.412 49.9754C147.437 49.9754 147.462 49.9757 147.486 49.9761C147.828 49.9807 148.097 49.9844 149.321 49.0153C149.302 49.1291 149.167 49.263 148.988 49.44C148.582 49.8428 147.951 50.4689 147.951 51.5913C147.951 52.7513 148.612 53.615 149.871 53.7106C150.985 53.7953 152.105 52.9115 152.105 51.7172C152.105 50.998 151.641 50.163 151.347 49.635C151.242 49.4467 151.159 49.2974 151.127 49.2063C151.109 49.1585 151.127 48.8193 151.3 49.0835C152.738 51.2677 154.583 49.8537 154.447 48.495C154.349 47.5222 153.736 47.2026 153.21 46.9282C152.944 46.7898 152.701 46.6629 152.557 46.4693C153.915 47.3521 155.769 46.3279 155.476 45.0548C155.361 44.5513 154.888 42.814 152.987 44.0023C152.972 44.0106 152.954 44.022 152.932 44.0353C152.72 44.167 152.213 44.482 152.265 43.7466C152.563 39.4939 154.346 34.3842 154.961 32.7312C153.926 40.1257 157.256 52.2568 171.472 53.4137C175.947 53.7779 181.066 51.4247 182.719 50.6649L182.719 50.6648L182.78 50.6368C183.212 50.438 183.595 50.2472 183.954 50.0682C185.311 49.3913 186.331 48.8825 188.45 48.7458C188.647 47.8782 188.814 47.2303 189.273 46.6703C188.097 46.7224 184.923 48.3084 183.275 49.1324C182.764 49.3875 182.4 49.5696 182.286 49.6105C182.427 48.797 189.068 45.8811 190.705 45.8811C192.179 45.8811 193.466 46.549 193.392 47.5982C193.337 48.3743 192.953 48.9187 192.028 48.9187C191.438 48.9187 191.03 47.7627 191.723 47.7627C191.745 47.7627 191.77 47.7611 191.798 47.7593C191.987 47.7473 192.301 47.7273 192.574 48.1536C193.434 45.6937 189.097 45.3487 188.814 48.6253C188.633 50.7255 191.134 52.3329 192.574 52.2734C194.411 52.1977 196.011 50.6353 196.011 49.0569C196.011 48.3612 195.886 45.8523 193.117 45.1427C194.977 45.2361 196.284 46.8653 196.566 48.8114C196.636 49.2913 196.566 49.4578 196.475 49.6746C196.39 49.8788 196.285 50.1278 196.261 50.7255C196.203 52.1737 196.876 53.9283 198.53 53.759C199.779 53.6311 200.299 52.8593 200.416 51.3821C200.529 49.9514 198.783 45.9871 194.46 44.471C197.529 44.9545 198.777 46.6274 199.539 47.6479C199.668 47.8206 199.783 47.9746 199.89 48.1009C200.163 48.4215 200.466 48.8293 200.801 49.2785C202.189 51.1444 204.109 53.724 206.539 53.724C208.572 53.724 210.715 51.7879 209.499 49.6444C209.481 49.6652 209.464 49.6858 209.447 49.706C208.834 50.4367 208.568 50.7549 207.576 50.7549C206.216 50.7549 202.643 47.6564 201.166 46.376C201.027 46.2553 200.907 46.1508 200.808 46.0666L200.801 46.0603C200.484 45.7888 197.624 43.3351 194.591 43.3351C191.961 43.3351 186.582 45.0632 183.155 47.6769C177.738 51.8091 175.161 51.8091 175.161 51.8091C179.002 50.5195 183.197 46.9161 186.781 43.4456C189.932 40.3952 191.997 40.2785 192.774 40.2785C193.362 40.2785 194.765 40.8664 193.703 42.0802C194.765 43.1422 197.136 42.5922 197.136 40.6388C197.136 39.5958 196.677 38.4214 194.31 37.9504C193.199 37.7293 191.286 38.83 190.074 39.5269C189.961 39.592 189.854 39.6537 189.754 39.7104C190.087 39.4632 190.389 39.2278 190.669 39.0088C191.572 38.303 192.256 37.7682 193.095 37.5624C193.798 37.39 196.092 36.1834 195.641 33.7305C195.577 33.7225 195.497 33.7081 195.404 33.6912C194.569 33.5405 192.662 33.1963 191.517 35.5337C191.503 35.5629 191.488 35.5929 191.473 35.6238C191.012 36.5669 190.182 38.2642 189.091 39.0474C189.172 38.9193 189.287 38.7674 189.419 38.5916C189.998 37.8217 190.921 36.5946 190.921 34.9106C190.921 34.3537 190.669 31.9405 187.937 31.9405C185.79 31.9405 185.074 34.3404 186.055 35.0299C186.386 33.6377 190.563 34.5079 187.463 39.4939C179.199 52.7839 170.06 52.0653 167.756 50.9928C172.218 52.0954 176.91 49.6394 177.738 49.0185C178.762 48.2506 184.523 43.7766 184.808 37.9504C184.819 37.7231 184.83 37.5157 184.841 37.3213C184.9 36.2176 184.937 35.5377 184.808 34.058C184.446 29.91 181.42 26.2309 179.181 24.849C175.45 22.5457 171.754 22.0578 167.228 24.4721C167.091 24.5456 166.945 24.6293 166.791 24.7181C166.065 25.1366 165.142 25.6688 163.872 25.7822C163.721 25.7822 163.334 25.6711 163.334 25.0284C163.034 25.0284 162.167 25.7822 162.167 26.7693C162.136 27.3077 162.836 28.9462 164.434 28.9462C164.923 28.9462 165.768 28.7745 167.408 27.3077C167.428 27.2927 167.467 27.2566 167.525 27.2036C168.152 26.6303 170.949 24.0713 175.093 24.6027C172.733 24.5013 166.436 26.7494 167.037 31.4771C167.045 31.4771 167.063 31.4803 167.092 31.4853C167.506 31.5578 169.994 31.993 172.032 27.9879C172.218 27.6223 174.495 24.5881 177.997 26.2309C175.831 25.7322 172.708 26.2309 172.218 29.569C172.043 30.7573 173.174 32.4929 174.92 32.4227C176.48 32.5005 177.538 30.7007 177.422 29.91C177.166 28.1531 175.974 28.4498 175.974 28.4498C176.166 28.7794 175.879 29.3537 175.52 29.3537C174.92 29.3537 174.92 28.8576 174.92 28.64V28.6358C174.92 27.8102 176.596 27.3077 177.279 27.3077C179.666 27.3077 182.825 29.9818 183.266 34.173C182.807 32.7098 181.084 27.3077 176.631 28.1531C177.615 28.8157 177.655 29.3221 177.685 29.7121C177.696 29.8492 177.706 29.9719 177.755 30.082C184.847 30.6709 184.497 43.3037 176.538 48.1468C177.723 47.3563 180.35 42.9982 179.199 39.4939C178.085 36.1013 174.461 32.8643 169.615 33.0867C167.998 33.161 166.486 33.5692 164.518 34.1815C163.376 34.5372 160.911 34.1815 161.884 31.723C159.813 31.5221 158.958 33.8528 158.958 34.7493C158.958 35.3894 159.852 39.3669 165.645 36.6532C171.068 34.1131 173.354 35.3488 174.55 35.9958C174.687 36.0694 174.809 36.1355 174.92 36.1874C168.208 33.8083 161.39 40.1024 162.554 44.4806C165.508 44.9256 167.533 42.0094 167.756 41.6382C170.813 36.5517 174.387 37.3806 175.358 37.9504C171.71 37.1813 168.539 40.4449 168.811 43.0976C169.126 46.174 171.67 46.8248 172.439 46.8248C175.437 46.8248 176.482 43.5709 175.161 42.7623C174.056 44.5175 172.095 42.9521 172.439 41.6382C173.354 38.1444 177.348 39.1396 177.571 42.3628C177.571 48.1066 172.095 49.8012 168.254 49.4739C159.921 48.7638 156.739 38.651 157.534 33.4999C159.122 23.2205 167.448 19.4977 175.292 19.1465C185.745 19.1465 194.012 30.2363 200.807 39.3522C201.159 39.8247 201.507 40.2919 201.852 40.752C201.853 40.7513 201.854 40.7506 201.855 40.7499C207.743 47.8371 214.978 54.2559 224.852 53.7415C234.528 52.9805 240.034 47.7174 243.035 44.2294C247.609 38.9132 248.493 37.7012 252.729 31.8988L252.996 31.5331C252.81 31.3056 252.646 31.0875 252.489 30.8774C252.097 30.355 251.743 29.8827 251.159 29.4421C250.796 29.9262 250.43 30.4182 250.059 30.9161C243.276 40.0192 235.048 51.0622 224.624 51.0622Z" fill="#DCC67A"/>
<path fill-rule="evenodd" clip-rule="evenodd" d="M372.547 19.1465C364.704 19.4977 356.377 23.2205 354.79 33.4998C353.994 38.6509 357.176 48.7637 365.509 49.4738C369.351 49.8012 374.826 48.1066 374.826 42.3627C374.604 39.1396 370.609 38.1444 369.695 41.6382C369.351 42.952 371.312 44.5174 372.416 42.7622C373.737 43.5708 372.692 46.8247 369.695 46.8247C368.926 46.8247 366.382 46.174 366.066 43.0975C365.794 40.4449 368.965 37.1813 372.613 37.9504C371.643 37.3805 368.068 36.5516 365.012 41.6382C364.789 42.0093 362.764 44.9256 359.809 44.4806C358.645 40.1023 365.463 33.8083 372.175 36.1874C372.064 36.1354 371.942 36.0694 371.806 35.9957C370.609 35.3488 368.323 34.113 362.9 36.6532C357.107 39.3669 356.213 35.3893 356.213 34.7492C356.213 33.8527 357.068 31.5221 359.139 31.723C358.166 34.1815 360.631 34.5372 361.774 34.1815C363.741 33.5691 365.253 33.1609 366.871 33.0867C371.716 32.8643 375.34 36.1013 376.455 39.4938C377.606 42.9981 374.978 47.3563 373.793 48.1467C381.752 43.3037 382.102 30.6708 375.01 30.0819C374.961 29.9719 374.951 29.8491 374.941 29.712C374.91 29.322 374.87 28.8156 373.887 28.153C378.339 27.3076 380.062 32.7098 380.521 34.1729C380.08 29.9818 376.921 27.3077 374.534 27.3077C373.851 27.3077 372.175 27.8102 372.175 28.6357V28.6399C372.175 28.8575 372.175 29.3536 372.775 29.3536C373.134 29.3536 373.422 28.7793 373.23 28.4498C373.23 28.4498 374.422 28.153 374.678 29.91C374.793 30.7007 373.735 32.5005 372.175 32.4226C370.429 32.4928 369.299 30.7572 369.473 29.569C369.964 26.2308 373.086 25.7322 375.252 26.2308C371.75 24.5881 369.473 27.6223 369.287 27.9878C367.25 31.993 364.762 31.5577 364.347 31.4853C364.319 31.4803 364.3 31.477 364.292 31.477C363.691 26.7494 369.988 24.5012 372.348 24.6027C368.204 24.0712 365.407 26.6302 364.781 27.2036C364.723 27.2566 364.683 27.2926 364.663 27.3077C363.023 28.7745 362.178 28.9461 361.689 28.9461C360.091 28.9461 359.391 27.3077 359.423 26.7693C359.423 25.7822 360.29 25.0284 360.589 25.0284C360.589 25.6711 360.976 25.7821 361.128 25.7821C362.397 25.6687 363.321 25.1366 364.047 24.718C364.201 24.6292 364.346 24.5455 364.484 24.472C369.009 22.0578 372.706 22.5456 376.437 24.8489C378.675 26.2309 381.701 29.91 382.063 34.0579C382.192 35.5377 382.156 36.2175 382.096 37.3213C382.086 37.5156 382.074 37.7231 382.063 37.9504C381.778 43.7766 376.017 48.2506 374.993 49.0185C374.165 49.6394 369.473 52.0953 365.012 50.9928C367.315 52.0652 376.455 52.7838 384.718 39.4938C387.818 34.5079 383.642 33.6376 383.31 35.0299C382.329 34.3404 383.045 31.9405 385.193 31.9405C387.924 31.9405 388.176 34.3536 388.176 34.9105C388.176 36.5946 387.253 37.8216 386.674 38.5916C386.542 38.7673 386.428 38.9192 386.346 39.0474C387.438 38.2642 388.268 36.5669 388.729 35.6237C388.744 35.5929 388.759 35.5629 388.773 35.5337C389.918 33.1962 391.824 33.5404 392.659 33.6912C392.752 33.708 392.832 33.7225 392.896 33.7305C393.347 36.1834 391.053 37.39 390.351 37.5623C389.511 37.7682 388.827 38.303 387.924 39.0087C387.644 39.2277 387.343 39.4631 387.009 39.7103C387.109 39.6536 387.216 39.592 387.33 39.5268C388.541 38.8299 390.455 37.7292 391.566 37.9504C393.932 38.4213 394.391 39.5957 394.391 40.6388C394.391 42.5921 392.021 43.1421 390.959 42.0801C392.021 40.8664 390.617 40.2785 390.03 40.2785C389.252 40.2785 387.187 40.3952 384.037 43.4455C380.452 46.9161 376.257 50.5194 372.416 51.8091C372.416 51.8091 374.993 51.8091 380.411 47.6769C383.838 45.0631 389.217 43.335 391.846 43.335C394.879 43.335 397.74 45.7888 398.056 46.0603L398.064 46.0665C398.162 46.1508 398.282 46.2553 398.422 46.3759C399.898 47.6563 403.471 50.7549 404.831 50.7549C405.823 50.7549 406.09 50.4366 406.702 49.7059C406.719 49.6857 406.736 49.6652 406.754 49.6443C407.971 51.7879 405.827 53.724 403.794 53.724C401.365 53.724 399.445 51.1444 398.056 49.2785C397.722 48.8293 397.418 48.4214 397.146 48.1009C397.038 47.9745 396.923 47.8205 396.794 47.6479C396.033 46.6273 394.784 44.9545 391.716 44.471C396.039 45.9871 397.784 49.9513 397.671 51.3821C397.555 52.8593 397.035 53.631 395.785 53.759C394.132 53.9282 393.458 52.1737 393.517 50.7255C393.541 50.1277 393.645 49.8788 393.73 49.6745C393.821 49.4578 393.891 49.2913 393.821 48.8114C393.54 46.8652 392.232 45.236 390.372 45.1427C393.142 45.8522 393.266 48.3611 393.266 49.0568C393.266 50.6353 391.666 52.1977 389.83 52.2734C388.389 52.3328 385.888 50.7255 386.07 48.6252C386.353 45.3487 390.689 45.6937 389.83 48.1536C389.556 47.7272 389.242 47.7472 389.053 47.7593C389.025 47.761 389 47.7626 388.978 47.7626C388.285 47.7626 388.693 48.9187 389.283 48.9187C390.208 48.9187 390.593 48.3742 390.647 47.5982C390.722 46.5489 389.435 45.881 387.96 45.881C386.324 45.881 379.683 48.797 379.542 49.6104C379.655 49.5696 380.02 49.3875 380.53 49.1323C382.179 48.3083 385.352 46.7223 386.529 46.6702C386.07 47.2303 385.903 47.8782 385.705 48.7457C383.586 48.8825 382.566 49.3913 381.209 50.0681C380.85 50.2472 380.468 50.438 380.035 50.6368L379.974 50.6648C378.321 51.4246 373.202 53.7779 368.727 53.4136C354.512 52.2567 351.182 40.1256 352.217 32.7311C351.601 34.3842 349.818 39.4938 349.52 43.7465C349.468 44.482 349.976 44.1669 350.188 44.0352C350.209 44.0219 350.227 44.0105 350.242 44.0022C352.143 42.814 352.616 44.5512 352.732 45.0547C353.024 46.3278 351.17 47.352 349.812 46.4693C349.956 46.6628 350.2 46.7898 350.465 46.9282C350.991 47.2026 351.604 47.5221 351.702 48.495C351.838 49.8536 349.993 51.2676 348.556 49.0835C348.382 48.8192 348.365 49.1584 348.382 49.2063C348.414 49.2973 348.497 49.4466 348.602 49.635C348.896 50.163 349.361 50.9979 349.361 51.7171C349.361 52.9114 348.24 53.7952 347.126 53.7106C345.868 53.6149 345.206 52.7513 345.206 51.5912C345.206 50.4689 345.838 49.8427 346.244 49.44C346.422 49.2629 346.557 49.1291 346.576 49.0152C345.352 49.9844 345.083 49.9807 344.741 49.976C344.717 49.9757 344.693 49.9754 344.667 49.9754C343.769 49.9754 343.285 49.273 343.192 48.3478C343.019 47.1038 344.478 46.7112 345.576 46.4157C345.645 46.3972 345.713 46.379 345.778 46.361C343.584 46.6493 343.192 45.0547 343.192 44.5072C343.192 43.3741 344.233 42.8211 344.913 42.8211C346.093 42.8211 346.36 43.4841 346.505 43.8428C346.531 43.9079 346.553 43.963 346.576 44.0022C346.771 44.3377 347.507 44.0022 347.627 43.2944C347.721 42.7485 350.79 32.3903 351.64 31.5465C351.64 31.5465 350.415 30.3473 349.777 29.4607C355.665 22.3727 362.9 15.9528 372.775 16.4672C382.451 17.2281 387.958 22.4913 390.959 25.9793C395.552 31.3187 396.484 32.4975 400.77 38.3651C399.719 36.4581 397.046 27.4231 396.959 26.9142C396.838 26.2064 396.103 25.8709 395.908 26.2064C395.885 26.2456 395.863 26.3007 395.836 26.3658C395.692 26.7245 395.425 27.3876 394.245 27.3876C393.565 27.3876 392.524 26.8345 392.524 25.7014C392.524 25.1539 392.916 23.5593 395.11 23.8476C395.045 23.8296 394.977 23.8115 394.908 23.7929C393.809 23.4974 392.35 23.1048 392.524 21.8608C392.617 20.9356 393.1 20.2333 393.999 20.2333C394.024 20.2333 394.049 20.2329 394.073 20.2326C394.415 20.2279 394.684 20.2242 395.908 21.1934C395.889 21.0796 395.754 20.9457 395.576 20.7686C395.169 20.3659 394.538 19.7398 394.538 18.6174C394.538 17.4574 395.2 16.5937 396.458 16.498C397.572 16.4134 398.692 17.2972 398.692 18.4915C398.692 19.2107 398.228 20.0457 397.934 20.5736C397.829 20.762 397.746 20.9113 397.714 21.0023C397.697 21.0502 397.714 21.3894 397.888 21.1251C399.325 18.941 401.17 20.355 401.034 21.7136C400.936 22.6865 400.323 23.006 399.797 23.2804C399.531 23.4189 399.288 23.5458 399.144 23.7393C400.502 22.8566 402.356 23.8808 402.063 25.1539C401.948 25.6574 401.475 27.3946 399.574 26.2064C399.559 26.1981 399.541 26.1867 399.519 26.1734C399.307 26.0417 398.8 25.7266 398.852 26.4621C399.15 30.7148 400.933 35.8244 401.548 37.4775C400.513 30.083 403.843 17.9519 418.059 16.795C422.534 16.4308 427.653 18.784 429.306 19.5438L429.367 19.5718C429.8 19.7706 430.182 19.9614 430.541 20.1405C431.898 20.8173 432.918 21.3261 435.037 21.4629C435.234 22.3304 435.402 22.9783 435.86 23.5384C434.684 23.4863 431.511 21.9003 429.862 21.0763C429.351 20.8211 428.987 20.6391 428.873 20.5982C429.014 21.4117 435.655 24.3276 437.292 24.3276C438.766 24.3276 440.053 23.6597 439.979 22.6104C439.924 21.8344 439.54 21.2899 438.615 21.2899C438.025 21.2899 437.617 22.446 438.31 22.446C438.332 22.446 438.357 22.4476 438.385 22.4494C438.574 22.4614 438.888 22.4814 439.162 22.055C440.021 24.515 435.685 24.8599 435.402 21.5834C435.22 19.4831 437.721 17.8758 439.162 17.9352C440.998 18.011 442.598 19.5733 442.598 21.1518C442.598 21.8475 442.473 24.3564 439.704 25.0659C441.564 24.9726 442.871 23.3434 443.153 21.3972C443.223 20.9174 443.153 20.7509 443.062 20.5341C442.977 20.3298 442.872 20.0809 442.848 19.4831C442.79 18.035 443.463 16.2804 445.117 16.4497C446.366 16.5776 446.886 17.3494 447.003 18.8266C447.116 20.2573 445.37 24.2215 441.048 25.7377C444.116 25.2541 445.364 23.5813 446.126 22.5607C446.255 22.3881 446.37 22.2341 446.477 22.1077C446.75 21.7872 447.053 21.3793 447.388 20.9301C448.776 19.0642 450.696 16.4847 453.126 16.4847C455.159 16.4847 457.303 18.4208 456.086 20.5643L456.034 20.5027C455.421 19.772 455.155 19.4538 454.163 19.4538C452.803 19.4538 449.23 22.5523 447.753 23.8327C447.614 23.9534 447.494 24.0579 447.395 24.1421L447.388 24.1483C447.072 24.4198 444.211 26.8736 441.178 26.8736C438.549 26.8736 433.17 25.1455 429.743 22.5318C424.325 18.3996 421.748 18.3996 421.748 18.3996C425.589 19.6892 429.784 23.2925 433.368 26.7631C436.519 29.8134 438.584 29.9302 439.361 29.9302C439.949 29.9302 441.353 29.3423 440.291 28.1285C441.353 27.0665 443.723 27.6165 443.723 29.5698C443.723 30.6129 443.264 31.7873 440.897 32.2582C439.786 32.4794 437.873 31.3787 436.661 30.6818C436.548 30.6166 436.441 30.555 436.341 30.4983C436.675 30.7455 436.976 30.9809 437.256 31.1999C438.159 31.9057 438.843 32.4404 439.682 32.6463C440.385 32.8187 442.679 34.0252 442.228 36.4782C442.164 36.4862 442.084 36.5006 441.991 36.5174C441.156 36.6682 439.249 37.0124 438.105 34.6749C438.09 34.6458 438.076 34.6157 438.06 34.5849C437.599 33.6418 436.769 31.9445 435.678 31.1613C435.759 31.2894 435.874 31.4413 436.006 31.617C436.585 32.387 437.508 33.614 437.508 35.2981C437.508 35.855 437.256 38.2681 434.525 38.2681C432.377 38.2681 431.661 35.8682 432.642 35.1788C432.973 36.571 437.15 35.7007 434.05 30.7148C425.786 17.4248 416.647 18.1434 414.343 19.2158C418.805 18.1133 423.497 20.5693 424.325 21.1901C425.349 21.958 431.11 26.4321 431.395 32.2582C431.406 32.4856 431.417 32.693 431.428 32.8874C431.487 33.9911 431.524 34.671 431.395 36.1507C431.033 40.2986 428.007 43.9778 425.768 45.3597C422.037 47.663 418.341 48.1509 413.815 45.7366C413.678 45.6631 413.533 45.5794 413.378 45.4906C412.652 45.0721 411.729 44.5399 410.459 44.4265C410.308 44.4265 409.921 44.5375 409.921 45.1802C409.621 45.1802 408.754 44.4265 408.754 43.4394C408.723 42.9009 409.423 41.2625 411.021 41.2625C411.51 41.2625 412.355 41.4341 413.995 42.9009C414.015 42.916 414.055 42.952 414.113 43.0051C414.739 43.5784 417.536 46.1374 421.68 45.6059C419.32 45.7074 413.023 43.4592 413.624 38.7316C413.632 38.7316 413.651 38.7283 413.679 38.7234C414.093 38.6509 416.582 38.2156 418.619 42.2208C418.805 42.5863 421.082 45.6205 424.584 43.9778C422.418 44.4765 419.295 43.9778 418.805 40.6396C418.63 39.4514 419.761 37.7158 421.507 37.786C423.067 37.7081 424.125 39.508 424.01 40.2986C423.753 42.0556 422.561 41.7589 422.561 41.7589C422.753 41.4293 422.466 40.855 422.107 40.855C421.507 40.855 421.507 41.3511 421.507 41.5687V41.5729C421.507 42.3985 423.183 42.9009 423.866 42.9009C426.253 42.9009 429.412 40.2268 429.853 36.0357C429.394 37.4988 427.671 42.901 423.218 42.0556C424.202 41.393 424.242 40.8866 424.272 40.4966C424.283 40.3595 424.293 40.2368 424.342 40.1267C431.434 39.5378 431.084 26.9049 423.125 22.0619C424.31 22.8523 426.938 27.2105 425.786 30.7148C424.672 34.1073 421.048 37.3444 416.202 37.122C414.585 37.0477 413.073 36.6395 411.105 36.0272C409.963 35.6714 407.498 36.0272 408.471 38.4856C406.4 38.6866 405.545 36.3559 405.545 35.4594C405.545 34.8193 406.439 30.8418 412.232 33.5554C417.655 36.0956 419.941 34.8599 421.137 34.2129C421.274 34.1392 421.396 34.0732 421.507 34.0212C414.795 36.4003 407.977 30.1063 409.141 25.728C412.095 25.2831 414.12 28.1993 414.343 28.5705C417.4 33.657 420.974 32.8281 421.945 32.2582C418.297 33.0274 415.126 29.7637 415.398 27.1111C415.713 24.0347 418.257 23.3839 419.026 23.3839C422.024 23.3839 423.069 26.6378 421.748 27.4464C420.643 25.6912 418.682 27.2566 419.026 28.5705C419.941 32.0643 423.935 31.069 424.158 27.8459C424.158 22.102 418.682 20.4074 414.841 20.7348C406.508 21.4449 403.326 31.5577 404.122 36.7088C405.709 46.9881 414.035 50.7109 421.879 51.0621C432.339 51.0621 440.355 40.3094 447.128 31.2244C447.474 30.7595 447.818 30.299 448.158 29.8445C448.409 30.0336 448.645 30.1914 448.87 30.3422C449.382 30.684 449.838 30.9895 450.291 31.5399C445.823 37.6596 444.959 38.8033 440.291 44.2294C437.29 47.7173 431.783 52.9805 422.107 53.7414C412.233 54.2558 404.998 47.8371 399.11 40.7498C399.109 40.7506 399.108 40.7513 399.107 40.752C398.763 40.2919 398.414 39.8247 398.062 39.3521C391.267 30.2362 383 19.1465 372.547 19.1465Z" fill="#DCC67A"/>
</g>
</svg>
